<svg width="333" height="29" viewBox="0 0 333 29" fill="none" xmlns="http://www.w3.org/2000/svg">
<path d="M313.305 15.3251C312.849 15.3493 312.387 15.366 311.94 15.4024C311.649 15.4252 311.525 15.3585 311.331 15.3236C311.266 15.3114 311.197 15.2872 311.137 15.2902C310.685 15.3145 310.233 15.3418 309.781 15.3691C309.642 15.4282 309.555 15.5071 309.342 15.5359C309.135 15.5632 308.89 15.5632 308.66 15.5768C308.355 15.5935 308.051 15.6102 307.746 15.6254C307.594 15.633 307.469 15.6618 307.419 15.7164C307.409 15.7255 307.511 15.7482 307.566 15.7619C307.751 15.8074 307.931 15.859 308.134 15.8938C308.327 15.9272 308.567 15.8726 308.775 15.9151C309.241 16.0106 309.246 16.0091 309.601 15.9909C309.905 15.9742 310.21 15.956 310.514 15.9439C310.574 15.9409 310.643 15.9636 310.708 15.9757C310.902 16.0091 311.026 16.085 311.312 16.0561C311.529 16.0334 311.769 16.0288 311.995 16.0167C312.184 16.0607 312.36 16.1107 312.563 16.1456C312.752 16.179 312.807 16.2048 312.706 16.2488C312.613 16.2897 312.484 16.3064 312.313 16.3094C312.161 16.311 312.009 16.3246 311.857 16.3322C311.778 16.3367 311.705 16.3398 311.631 16.3443C311.34 16.361 311.34 16.361 310.81 16.2639C310.602 16.226 310.367 16.2791 310.168 16.2427C310.034 16.2184 309.919 16.182 309.79 16.1562C309.735 16.1456 309.647 16.1441 309.578 16.1471C309.347 16.1578 309.116 16.1653 308.895 16.1851C308.738 16.1987 308.646 16.2412 308.664 16.2836C308.669 16.3003 308.78 16.3246 308.844 16.3261C308.992 16.3292 309.149 16.3079 309.292 16.3185C309.43 16.3291 309.573 16.3595 309.675 16.3928C309.882 16.4626 310.117 16.4004 310.316 16.4186C310.523 16.4384 310.694 16.499 310.893 16.5354C310.943 16.5445 311.04 16.5294 311.119 16.5248C311.345 16.5142 311.571 16.5051 311.797 16.4945C311.986 16.5385 312.189 16.5779 312.36 16.6279C312.669 16.719 313.001 16.7538 313.402 16.7098C313.628 16.6856 313.85 16.6947 314.03 16.7538C314.214 16.8145 314.426 16.8084 314.662 16.7963C314.879 16.7842 315.1 16.7508 315.321 16.7933C315.801 16.8873 315.806 16.8919 316.373 16.8555C316.544 16.8448 316.673 16.8418 316.802 16.8767C316.922 16.9085 317.051 16.9358 317.176 16.9662C317.402 16.9556 317.633 16.9449 317.859 16.9328C318.149 16.9161 318.311 16.9374 318.38 17.0223C318.422 17.0739 318.44 17.1209 318.542 17.1558C318.662 17.1982 318.791 17.1967 318.966 17.1846C319.132 17.174 319.252 17.1573 319.321 17.1027C319.349 17.0799 319.404 17.0587 319.455 17.0405C319.497 17.0268 319.561 17.0056 319.598 17.0086C319.667 17.0147 319.759 17.0314 319.783 17.0511C320.009 17.2346 320.009 17.2362 320.239 17.2892C320.493 17.3484 320.756 17.4015 320.987 17.4682C321.194 17.5274 321.402 17.5016 321.628 17.5016C321.799 17.5016 321.909 17.541 321.896 17.5805C321.886 17.6032 321.822 17.6366 321.766 17.6396C321.314 17.6699 320.858 17.6957 320.401 17.7169C320.345 17.72 320.276 17.6927 320.212 17.679C320.082 17.6517 319.967 17.6093 319.829 17.6002C319.69 17.5911 319.529 17.6138 319.377 17.6214C319.224 17.629 319.063 17.6487 318.925 17.6366C318.786 17.6244 318.675 17.5804 318.546 17.5516C318.486 17.538 318.403 17.5183 318.352 17.5228C318.016 17.5592 317.767 17.5092 317.527 17.4424C317.476 17.4288 317.388 17.4197 317.324 17.4227C316.789 17.4485 316.258 17.4788 315.723 17.5076C315.506 17.5198 315.331 17.4667 315.284 17.3772C315.261 17.3272 315.215 17.2771 315.215 17.227C315.215 17.136 314.962 17.086 314.777 17.0966C314.473 17.1118 314.164 17.1239 313.864 17.1467C313.619 17.1649 313.411 17.1467 313.245 17.0921C313.052 17.0299 312.83 17.042 312.609 17.0587C312.443 17.0708 312.396 17.1209 312.406 17.2468C312.415 17.3484 312.336 17.3802 312.037 17.3969C311.658 17.4182 311.275 17.4394 310.893 17.4561C310.833 17.4591 310.763 17.4333 310.703 17.4197C310.574 17.3924 310.459 17.3484 310.32 17.3393C310.182 17.3287 310.021 17.3514 309.868 17.3605C309.716 17.3681 309.555 17.3893 309.416 17.3787C309.278 17.3681 309.162 17.3226 309.038 17.2938C308.978 17.2801 308.904 17.2604 308.844 17.2634C308.54 17.2756 308.235 17.2938 307.931 17.3105C307.589 17.3287 307.589 17.3287 307.105 17.2346C306.883 17.1922 306.662 17.2255 306.445 17.2377C306.215 17.2498 305.998 17.2559 305.818 17.1952C305.698 17.1558 305.564 17.1315 305.421 17.1391C305.038 17.1573 304.66 17.18 304.277 17.1982C304.212 17.2013 304.125 17.1937 304.074 17.18C303.829 17.1163 303.59 17.0663 303.248 17.0981C302.953 17.1254 302.635 17.1269 302.339 17.1527C302.178 17.1664 302.104 17.2149 302.136 17.2528C302.155 17.2726 302.252 17.2953 302.316 17.2953C302.464 17.2968 302.625 17.2741 302.764 17.2832C303.05 17.3014 303.193 17.4288 303.566 17.3939C303.788 17.3726 304.019 17.3651 304.249 17.359C304.309 17.3575 304.374 17.3863 304.438 17.4015C304.623 17.4424 304.784 17.4955 305.052 17.4682C305.273 17.447 305.509 17.4409 305.735 17.4288C306.095 17.4091 306.095 17.4106 306.561 17.5031C306.782 17.5471 307.003 17.5122 307.22 17.5016C307.382 17.494 307.534 17.4788 307.663 17.5001C307.862 17.5319 308.005 17.6047 308.249 17.6002C308.48 17.5956 308.706 17.5744 308.936 17.5668C309.079 17.5622 309.213 17.5865 309.329 17.6275C309.449 17.6684 309.578 17.6866 309.735 17.6775C309.961 17.6654 310.191 17.6502 310.422 17.6426C310.487 17.6411 310.56 17.6548 310.62 17.6669C310.75 17.6942 310.874 17.726 310.999 17.7549C311.225 17.7458 311.455 17.7427 311.677 17.7245C311.848 17.7109 311.967 17.717 312.106 17.7473C312.281 17.7882 312.424 17.861 312.71 17.8262C312.853 17.8095 313.019 17.814 313.162 17.7989C313.338 17.7791 313.458 17.7867 313.582 17.8322C313.817 17.9187 314.113 17.9202 314.417 17.8868C314.749 17.8504 314.999 17.8929 315.248 17.9596C315.511 18.0294 315.511 18.0279 315.714 18.1962C315.774 18.2448 315.944 18.2675 316.087 18.2584C316.327 18.2433 316.535 18.2508 316.71 18.3085C316.895 18.3707 317.116 18.3631 317.342 18.3464C317.642 18.3236 317.942 18.3039 318.186 18.3919C318.306 18.4344 318.436 18.445 318.597 18.4344C319.054 18.4071 319.515 18.3904 319.963 18.357C320.235 18.3358 320.392 18.3843 320.576 18.4253C320.825 18.4814 321.097 18.5314 321.097 18.6513C321.097 18.671 321.162 18.6937 321.217 18.7089C321.337 18.7407 321.467 18.768 321.591 18.7984C321.776 18.8439 321.955 18.8818 322.209 18.8575C322.431 18.8378 322.666 18.8317 322.892 18.8181C323.118 18.8044 323.326 18.7969 323.529 18.8545C323.764 18.9197 324.013 18.9819 324.281 19.0304C324.47 19.0653 324.719 19.0062 324.922 19.0532C325.047 19.082 325.166 19.1154 325.3 19.1396C325.356 19.1503 325.443 19.1427 325.517 19.1396C325.669 19.1336 325.826 19.129 325.974 19.1139C326.145 19.0972 326.274 19.1002 326.403 19.1351C326.523 19.167 326.643 19.2109 326.781 19.22C326.989 19.2337 327.219 19.173 327.427 19.2428C327.533 19.2777 327.667 19.311 327.805 19.3217C327.944 19.3323 328.105 19.3095 328.253 19.311C328.317 19.311 328.396 19.3353 328.433 19.355C328.456 19.3656 328.424 19.3945 328.391 19.4096C328.35 19.4278 328.29 19.4521 328.23 19.4551C327.773 19.4824 327.316 19.5052 326.86 19.531C326.587 19.5461 326.587 19.5461 326.038 19.4506C325.909 19.4278 325.766 19.4324 325.605 19.443C325.388 19.4566 325.166 19.4824 324.94 19.4551C324.645 19.352 324.281 19.3429 323.893 19.3823C323.732 19.399 323.584 19.399 323.464 19.3702C323.21 19.3125 322.943 19.2595 322.717 19.1912C322.541 19.1381 322.458 19.1336 322.385 19.2064C322.362 19.2291 322.338 19.2534 322.343 19.2746C322.371 19.3505 322.421 19.4248 322.449 19.5006C322.458 19.5219 322.421 19.5461 322.398 19.5689C322.325 19.6326 322.228 19.628 322.066 19.5749C321.905 19.5219 321.711 19.487 321.453 19.5112C321.231 19.5325 320.991 19.5294 320.77 19.5522C320.428 19.5856 320.189 19.537 319.944 19.4718C319.893 19.4582 319.806 19.4506 319.741 19.4536C319.054 19.4885 318.371 19.5279 317.684 19.5628C317.536 19.5704 317.402 19.5476 317.287 19.5067C317.167 19.4657 317.033 19.4445 316.885 19.4521C316.276 19.4839 315.667 19.5128 315.058 19.5522C314.809 19.5689 314.611 19.5492 314.44 19.4961C314.311 19.4566 314.191 19.4445 314.03 19.4491C313.854 19.4536 313.73 19.4688 313.642 19.5128C313.559 19.5552 313.619 19.581 313.804 19.6144C314.002 19.6508 314.186 19.6978 314.376 19.7403C314.528 19.7342 314.68 19.7221 314.828 19.7236C314.892 19.7236 314.952 19.7509 315.017 19.766C315.202 19.81 315.372 19.854 315.635 19.8298C315.857 19.8085 316.092 19.804 316.318 19.7903C316.632 19.7736 316.632 19.7736 317.139 19.8692C317.268 19.8935 317.407 19.8919 317.573 19.8783C317.716 19.8677 317.863 19.8889 317.965 19.9344C318.006 19.9526 317.993 19.983 317.905 20.0831C317.905 20.1574 318.002 20.124 318.034 20.0755C318.085 20.0057 317.988 19.9829 317.803 20.0209C317.674 20.0482 317.61 20.0876 317.642 20.1195C317.66 20.1361 317.748 20.1574 317.905 20.0831C318.311 19.9921 318.62 19.9814 318.915 19.9572C319.091 19.9435 319.201 19.9496 319.34 19.989C319.506 20.036 319.672 20.0861 319.944 20.0618C320.239 20.0345 320.553 20.0315 320.853 20.0087C321.13 19.9875 321.273 20.0542 321.448 20.0937C321.66 20.1407 321.895 20.0876 322.089 20.1149C322.292 20.1422 322.435 20.2089 322.671 20.2211C323.012 20.1801 323.229 20.256 323.487 20.306C323.69 20.3439 323.93 20.3105 324.147 20.2939C324.391 20.2757 324.594 20.2924 324.765 20.347C324.959 20.4092 325.176 20.3955 325.397 20.3818C325.914 20.3515 325.932 20.347 326.232 20.4304C326.449 20.491 326.657 20.4637 326.873 20.4562C327.063 20.4971 327.247 20.5411 327.445 20.5775C327.496 20.5866 327.593 20.5714 327.672 20.5669C327.898 20.5547 328.128 20.5426 328.354 20.5305C328.507 20.5229 328.668 20.5001 328.806 20.5092C328.945 20.5199 329.06 20.5639 329.185 20.5927C329.309 20.6215 329.438 20.6503 329.558 20.6806C329.743 20.7261 329.918 20.7641 330.177 20.7413C330.398 20.7216 330.629 20.7155 330.859 20.7019C331.15 20.6852 331.141 20.6897 331.681 20.7807C331.971 20.8308 332.271 20.7701 332.566 20.7641C332.714 20.761 332.857 20.7777 332.958 20.8217C333 20.8399 332.986 20.8702 333 20.896C332.239 20.937 331.473 20.9718 330.721 21.0219C330.43 21.0416 330.278 20.987 330.121 20.9415C329.863 20.8687 329.521 20.9749 329.277 20.8808C329.129 20.8247 328.917 20.7929 328.663 20.8202C328.516 20.8354 328.359 20.8338 328.207 20.8475C327.819 20.8808 327.464 20.8824 327.155 20.7777C327.049 20.7413 326.896 20.7216 326.786 20.6867C326.657 20.6488 326.532 20.6275 326.38 20.6351C325.692 20.6715 325.01 20.7079 324.327 20.7474C324.267 20.7504 324.207 20.7732 324.156 20.7898C324.027 20.8323 324.068 20.8657 324.276 20.893C324.345 20.9021 324.401 20.9218 324.465 20.937C324.59 20.9658 324.705 21.0113 324.843 21.0219C324.982 21.0325 325.143 21.0113 325.296 21.0037C325.448 20.9961 325.609 20.9734 325.748 20.9825C325.886 20.9931 326.001 21.0371 326.131 21.0644C326.191 21.078 326.264 21.1008 326.324 21.0993C326.629 21.0902 326.929 21.0735 327.233 21.0598C327.422 21.1008 327.584 21.1599 327.81 21.1736C327.953 21.1827 328.105 21.166 328.253 21.169C328.317 21.1705 328.4 21.1933 328.433 21.213C328.451 21.2251 328.391 21.2555 328.345 21.2706C328.17 21.3283 327.93 21.3177 327.713 21.3359C327.478 21.3556 327.266 21.3495 327.086 21.2904C326.966 21.2509 326.832 21.2297 326.684 21.2373C326.301 21.257 325.923 21.2798 325.54 21.2964C325.475 21.2995 325.397 21.2858 325.337 21.2752C324.853 21.1827 324.853 21.1796 324.511 21.1994C324.008 21.2282 324.009 21.2282 323.672 21.1478C323.607 21.1326 323.538 21.1038 323.483 21.1053C322.947 21.1296 322.417 21.1539 321.886 21.1887C321.711 21.1994 321.591 21.1994 321.462 21.1599C321.351 21.1266 321.222 21.0886 321.084 21.0795C320.941 21.0704 320.784 21.0932 320.631 21.1008C320.479 21.1084 320.318 21.1281 320.184 21.1159C320.046 21.1038 319.926 21.0613 319.806 21.031C319.681 20.9992 319.547 21.0007 319.377 21.0128C318.851 21.0477 318.846 21.0431 318.325 20.9491C318.265 20.9385 318.186 20.9263 318.122 20.9294C317.739 20.9476 317.361 20.9703 316.978 20.9885C316.83 20.9961 316.687 20.9764 316.585 20.9324C316.544 20.9142 316.558 20.8839 316.53 20.8247C316.498 20.8111 316.535 20.8354 316.544 20.8581C316.613 20.8551 316.696 20.8581 316.747 20.846C316.876 20.8171 316.941 20.7792 316.908 20.7474C316.89 20.7307 316.802 20.7094 316.747 20.7094C316.646 20.7094 316.558 20.7428 316.53 20.8247C316.24 20.8748 315.93 20.8854 315.63 20.9097C315.455 20.9248 315.344 20.9173 315.206 20.8778C315.04 20.8293 314.869 20.7823 314.597 20.8065C314.302 20.8338 313.988 20.8384 313.684 20.8596C313.333 20.8839 313.181 20.7474 312.886 20.7504C312.581 20.7534 312.277 20.7792 311.972 20.7974C311.704 20.8126 311.704 20.8126 311.151 20.714C310.948 20.6776 310.708 20.7307 310.51 20.6928C310.376 20.6685 310.261 20.6321 310.131 20.6063C310.076 20.5957 309.988 20.5957 309.919 20.5987C309.536 20.6169 309.149 20.6291 308.78 20.6624C308.36 20.7019 308.042 20.6594 307.742 20.5699C307.363 20.5866 306.98 20.5957 306.607 20.6245C306.335 20.6458 306.178 20.5957 305.993 20.5548C305.929 20.5411 305.873 20.5183 305.804 20.5123C305.735 20.5062 305.652 20.5183 305.578 20.5229C305.273 20.5396 304.96 20.5472 304.664 20.5745C304.3 20.6094 304.162 20.485 303.88 20.4698C303.691 20.5441 303.59 20.6457 303.216 20.6533C302.911 20.6594 302.607 20.6837 302.302 20.7004C302.15 20.7079 301.998 20.717 301.846 20.7246C301.601 20.7383 301.486 20.7974 301.537 20.8884C301.564 20.9385 301.587 20.9885 301.61 21.0386C301.657 21.1281 301.541 21.2039 301.347 21.2145C300.812 21.2433 300.282 21.2737 299.747 21.2995C299.604 21.307 299.465 21.2813 299.35 21.2403C299.23 21.1993 299.096 21.1812 298.948 21.1887C298.413 21.2176 297.883 21.2479 297.348 21.2737C297.288 21.2767 297.209 21.2615 297.149 21.2494C297.02 21.2221 296.896 21.1903 296.771 21.1614C296.466 21.1751 296.167 21.1842 295.867 21.2024C295.382 21.2297 295.382 21.2312 295.027 21.1478C294.962 21.1326 294.898 21.1038 294.838 21.1053C294.607 21.1114 294.381 21.1266 294.151 21.1402C293.472 21.1796 293.472 21.1796 293.274 21.1341C293.094 21.0917 292.933 21.0401 292.66 21.0644C292.365 21.0917 292.051 21.1008 291.747 21.1159C291.521 21.1266 291.295 21.1387 291.069 21.1417C291.009 21.1432 290.944 21.1144 290.88 21.0993C290.695 21.0522 290.515 21.0143 290.261 21.0401C290.114 21.0553 289.957 21.0583 289.805 21.0659C289.408 21.0871 289.408 21.0871 288.757 20.9961C288.693 20.987 288.614 20.9764 288.55 20.9809C288.015 21.0082 287.484 21.0386 286.949 21.0644C286.884 21.0674 286.806 21.0583 286.741 21.0507C286.013 20.9627 286.012 20.9628 285.237 21.0052C284.942 21.0204 284.933 21.0265 284.624 20.9461C284.485 20.9112 284.37 20.8945 284.209 20.9051C283.6 20.9415 282.986 20.9658 282.382 21.0083C282.11 21.0265 281.953 20.9809 281.768 20.94C281.704 20.9263 281.634 20.896 281.579 20.8975C280.97 20.9264 280.361 20.9612 279.752 20.9901C279.697 20.9931 279.628 20.9628 279.563 20.9491C279.438 20.9218 279.318 20.8808 279.18 20.8717C279.037 20.8626 278.88 20.8854 278.723 20.893C278.34 20.9127 278.34 20.9112 277.897 20.8217C277.837 20.8096 277.759 20.7929 277.699 20.7959C277.09 20.8262 276.477 20.852 275.872 20.896C275.526 20.9203 275.291 20.8763 275.046 20.8126C274.996 20.7989 274.908 20.7929 274.843 20.7959C274.156 20.8308 273.473 20.8702 272.786 20.9051C272.643 20.9127 272.504 20.8869 272.389 20.8475C272.205 20.7853 271.988 20.7929 271.757 20.8065C271.227 20.8384 271.222 20.8369 270.908 20.7641C270.844 20.7489 270.788 20.7292 270.719 20.7216C270.654 20.714 270.571 20.7186 270.502 20.7216C270.198 20.7368 269.893 20.7534 269.589 20.7701C269.284 20.7868 268.975 20.7959 268.675 20.8217C268.306 20.8536 268.131 20.7549 267.873 20.7094C267.494 20.7292 267.107 20.7413 266.733 20.7732C266.447 20.7974 266.313 20.7307 266.124 20.6958C266.06 20.6837 265.99 20.6579 265.93 20.6609C265.243 20.6943 264.556 20.7307 263.873 20.7716C263.707 20.7807 263.596 20.7686 263.458 20.7322C263.148 20.6503 263.135 20.6533 262.618 20.6837C262.392 20.6973 262.175 20.7095 261.981 20.6473C261.811 20.5912 261.603 20.5775 261.358 20.5957C261.059 20.6184 260.75 20.6306 260.445 20.6458C260.141 20.6624 259.836 20.6852 259.532 20.6928C259.287 20.7003 259.139 20.6291 258.946 20.5927C258.886 20.5821 258.803 20.5805 258.733 20.5836C258.429 20.5972 258.115 20.6078 257.82 20.6336C257.46 20.6655 257.262 20.5821 257.008 20.5335C256.953 20.5229 256.86 20.529 256.791 20.5335C256.256 20.5608 255.725 20.5911 255.19 20.62C255.001 20.579 254.807 20.5396 254.618 20.4986C254.314 20.5138 254.009 20.5305 253.705 20.5456C253.474 20.5578 253.239 20.5623 253.022 20.5851C252.741 20.6154 252.602 20.5441 252.413 20.5092C252.348 20.4971 252.279 20.4713 252.219 20.4744C251.836 20.491 251.453 20.5093 251.075 20.535C250.715 20.5608 250.572 20.4243 250.277 20.4258C249.973 20.4273 249.659 20.4471 249.364 20.4744C249.022 20.5062 248.782 20.4577 248.538 20.3925C248.487 20.3788 248.399 20.3712 248.335 20.3743C247.952 20.3925 247.574 20.4152 247.191 20.4334C247.126 20.4364 247.048 20.4289 246.983 20.4198C246.254 20.3303 246.254 20.3288 245.936 20.347C245.71 20.3591 245.479 20.3743 245.249 20.3818C245.184 20.3849 245.105 20.3712 245.045 20.3591C244.566 20.2666 244.566 20.2651 244.22 20.2833C243.915 20.2999 243.611 20.3166 243.306 20.3333C243.117 20.2923 242.923 20.2529 242.734 20.212C242.356 20.2317 241.968 20.2468 241.595 20.2741C241.419 20.2863 241.304 20.2817 241.17 20.2438C241.004 20.1983 240.838 20.1452 240.561 20.171C240.266 20.1983 239.952 20.2013 239.652 20.2241C239.293 20.2514 239.145 20.1134 238.854 20.1149C238.55 20.1164 238.236 20.1361 237.941 20.1634C237.599 20.1953 237.36 20.1468 237.115 20.0815C237.064 20.0679 236.977 20.0603 236.912 20.0633C236.072 20.1073 235.237 20.1513 234.398 20.1983C233.881 20.2271 233.881 20.2286 232.898 20.1452C232.829 20.1392 232.755 20.1331 232.686 20.1361C232.382 20.1498 232.068 20.1604 231.773 20.1862C231.413 20.218 231.214 20.1361 230.961 20.0861C230.905 20.0755 230.818 20.0815 230.744 20.0846C230.513 20.0952 230.287 20.1088 230.056 20.121C229.752 20.1377 229.448 20.1543 229.143 20.171C228.954 20.1316 228.76 20.0906 228.571 20.0512C228.193 20.0709 227.805 20.0815 227.431 20.1134C227.145 20.1376 227.012 20.0739 226.822 20.0375C226.758 20.0254 226.689 19.9996 226.629 20.0011C225.941 20.0345 225.254 20.0694 224.571 20.1119C224.29 20.1301 224.161 20.0618 223.971 20.0269C223.907 20.0163 223.833 19.9966 223.773 19.9996C223.316 20.0209 222.86 20.0466 222.403 20.0724C222.145 20.0876 222.145 20.0876 221.582 19.9936C221.517 19.9829 221.443 19.9723 221.379 19.9754C219.93 20.0512 218.486 20.1316 217.037 20.2074C216.89 20.215 216.756 20.1923 216.641 20.1513C216.521 20.1103 216.387 20.0891 216.239 20.0967C215.63 20.1286 215.017 20.1574 214.412 20.1968C214.163 20.2135 213.965 20.1938 213.794 20.1407C213.665 20.1012 213.545 20.0861 213.384 20.0952C213.079 20.1134 212.775 20.1285 212.47 20.1452C212.166 20.1619 211.861 20.1786 211.557 20.1953C211.252 20.212 210.943 20.2211 210.643 20.2469C210.274 20.2787 210.094 20.1847 209.841 20.1377C209.384 20.1604 208.927 20.1832 208.475 20.2074C207.866 20.2393 207.257 20.2742 206.648 20.3045C206.593 20.3075 206.524 20.2802 206.459 20.2666C206.27 20.2287 206.131 20.1756 205.85 20.1923C204.484 20.2726 203.11 20.3409 201.739 20.4198C201.453 20.4364 201.329 20.3712 201.135 20.3363C201.071 20.3257 200.997 20.3045 200.937 20.3075C200.176 20.3454 199.414 20.3879 198.653 20.4289C198.344 20.4455 198.344 20.4455 197.827 20.3515C197.767 20.3409 197.689 20.3272 197.624 20.3303C196.632 20.3818 195.645 20.4364 194.653 20.4895C194.506 20.4971 194.372 20.4759 194.252 20.4349C194.137 20.394 193.998 20.3712 193.855 20.3788C192.942 20.4273 192.024 20.4744 191.115 20.5274C190.87 20.5426 190.667 20.529 190.492 20.4744C190.367 20.4349 190.243 20.4182 190.086 20.4273C188.716 20.5017 187.346 20.573 185.975 20.6518C185.712 20.667 185.528 20.6382 185.362 20.5881C185.228 20.5487 185.113 20.5411 184.947 20.5472C184.771 20.5547 184.665 20.5714 184.568 20.6169C184.444 20.6761 184.365 20.7504 184.07 20.755C183.766 20.7595 183.457 20.7777 183.157 20.8035C182.871 20.8293 182.737 20.761 182.557 20.7201C182.423 20.6913 182.299 20.6867 182.128 20.7004C181.971 20.7125 181.874 20.7383 181.782 20.7868C181.579 20.8899 181.56 20.8899 181.311 20.8247C181.178 20.7898 181.058 20.7625 180.91 20.7686C180.301 20.7989 179.692 20.8323 179.083 20.8672C178.732 20.8869 178.728 20.8899 178.465 20.8141C178.336 20.7762 178.211 20.758 178.059 20.7671C176.384 20.8581 174.71 20.9461 173.035 21.0416C172.777 21.0568 172.601 21.0249 172.417 20.9794C172.357 20.9643 172.297 20.943 172.228 20.937C172.158 20.9309 172.08 20.937 172.006 20.94C170.788 21.0052 169.566 21.0674 168.352 21.1402C168.075 21.1569 167.928 21.1084 167.739 21.0689C167.674 21.0553 167.619 21.034 167.55 21.028C167.48 21.0234 167.397 21.034 167.323 21.0386C166.106 21.1038 164.883 21.166 163.67 21.2388C163.379 21.2555 163.254 21.1918 163.065 21.1584C163.001 21.1463 162.932 21.1235 162.872 21.1265C162.489 21.1432 162.11 21.166 161.727 21.1857C160.814 21.2358 159.9 21.2828 158.987 21.3344C158.636 21.3541 158.484 21.2191 158.189 21.2251C157.806 21.2327 157.428 21.2631 157.045 21.2843C156.74 21.301 156.436 21.3162 156.131 21.3344C155.831 21.351 155.831 21.351 155.084 21.2631C155.02 21.2555 154.941 21.2449 154.877 21.2479C153.811 21.304 152.741 21.3601 151.679 21.4208C151.435 21.4345 151.232 21.4269 151.057 21.3708C150.932 21.3313 150.803 21.3116 150.651 21.3207C149.05 21.4071 147.454 21.4936 145.853 21.5785C145.793 21.5816 145.714 21.5664 145.654 21.5543C145.525 21.527 145.401 21.4951 145.276 21.4663C145.184 21.5012 145.064 21.533 145.004 21.5725C144.921 21.6256 144.81 21.6407 144.635 21.6498C144.459 21.6589 144.349 21.6559 144.21 21.6165C144.044 21.5679 143.874 21.53 143.601 21.5452C141.927 21.6407 140.252 21.7272 138.577 21.8212C138.301 21.8364 138.171 21.7696 137.978 21.7348C137.913 21.7241 137.839 21.7075 137.779 21.7105C137.092 21.7454 136.409 21.7833 135.722 21.8197C133.816 21.9228 131.911 22.0214 130.01 22.1306C129.664 22.1504 129.429 22.1124 129.184 22.0472C129.134 22.0336 129.046 22.026 128.982 22.029C126.315 22.1716 123.648 22.3157 120.986 22.4598C120.843 22.4673 120.705 22.4431 120.59 22.4036C120.47 22.3627 120.336 22.343 120.188 22.3506C118.97 22.4158 117.753 22.481 116.535 22.5477C116.23 22.5644 116.225 22.5659 115.912 22.4931C115.847 22.478 115.778 22.4491 115.727 22.4522C115.621 22.4598 115.52 22.4977 115.446 22.5492C115.372 22.6038 115.257 22.619 115.086 22.6296C114.911 22.6402 114.795 22.6357 114.662 22.5993C114.491 22.5538 114.334 22.5098 114.057 22.525C110.556 22.7191 107.054 22.9057 103.552 23.0983C103.271 23.1135 103.142 23.0498 102.948 23.0149C102.883 23.0043 102.819 22.9891 102.75 22.9861C102.676 22.983 102.597 22.9921 102.524 22.9967C96.8122 23.3046 91.1009 23.614 85.3895 23.9219C85.0481 23.9401 85.0527 23.9401 84.679 24.0796C84.6329 24.0963 84.5729 24.119 84.5083 24.1221C82.7598 24.2192 81.0067 24.3132 79.2537 24.4072C78.4924 24.4482 77.7313 24.4907 76.97 24.5301C76.6979 24.5437 76.6979 24.5437 76.0474 24.7076C75.992 24.7212 75.9273 24.7394 75.8628 24.7424C72.8179 24.9078 69.773 25.0731 66.7236 25.2354C66.4837 25.2475 66.29 25.2748 66.1792 25.3476C66.1008 25.3992 65.9993 25.4295 65.8471 25.4386C63.7157 25.5539 61.5844 25.6707 59.4483 25.7829C59.1946 25.7966 59.0423 25.839 58.9177 25.9027C58.8762 25.924 58.8393 25.9482 58.7793 25.9634C58.724 25.977 58.6409 25.9816 58.5717 25.9861C56.7448 26.0847 54.918 26.1864 53.0864 26.2804C52.8143 26.2941 52.7035 26.3502 52.5697 26.4093C52.5236 26.429 52.4912 26.4563 52.4313 26.47C52.3713 26.4821 52.2836 26.4821 52.2098 26.4852C50.6874 26.5671 49.165 26.6505 47.6426 26.7324C47.3474 26.7248 47.2827 26.8128 47.1397 26.8659C47.089 26.8841 47.0521 26.9083 46.9922 26.9205C46.9276 26.9326 46.8444 26.9311 46.766 26.9341C45.5481 26.9993 44.3302 27.0691 43.1076 27.1298C42.8262 27.1434 42.7708 27.2208 42.6186 27.2738C42.5678 27.2905 42.5171 27.3163 42.4572 27.3209C41.6959 27.3649 40.9348 27.4058 40.1735 27.4452C39.9198 27.4589 39.9198 27.4574 39.4723 27.6075C39.4215 27.6242 39.3615 27.6424 39.2969 27.647C38.1574 27.7107 37.0133 27.7713 35.8692 27.8335C35.7216 27.8411 35.6201 27.8775 35.5463 27.9291C35.4725 27.9806 35.3664 28.014 35.2188 28.0216C34.3053 28.0717 33.3918 28.1232 32.4783 28.1687C32.2246 28.1809 32.0585 28.2188 31.9478 28.287C31.8648 28.3386 31.7633 28.3644 31.6018 28.3735C30.6884 28.422 29.7749 28.4751 28.8569 28.5176C28.5893 28.5297 28.4508 28.5813 28.3401 28.645C28.2524 28.6965 28.1509 28.7147 27.9802 28.7238C26.3056 28.8118 24.6263 28.8998 22.9563 28.9968C22.6749 29.0135 22.5318 28.9604 22.3473 28.9225C22.0843 28.8694 21.8399 28.8118 21.8399 28.6935C21.8399 28.6753 21.7614 28.6541 21.7061 28.6389C21.2955 28.5251 21.2955 28.5252 21.2309 28.4038C21.194 28.3295 21.1525 28.2537 21.1202 28.1778C21.0602 28.0535 20.9125 28.0216 20.4881 28.0444C20.3358 28.0519 20.1836 28.0625 20.0314 28.0686C19.8053 28.0792 19.6346 28.0292 19.5931 27.9382C19.57 27.8881 19.5424 27.8381 19.5193 27.788C19.75 27.7759 19.7453 27.7744 20.1513 27.5909C20.322 27.5135 20.3221 27.5135 19.9945 27.4361C19.87 27.4073 19.75 27.3755 19.6162 27.3482C19.5562 27.336 19.4778 27.3284 19.4132 27.3315C19.0303 27.3497 18.652 27.3709 18.2737 27.3922C17.6648 27.4255 17.6647 27.4255 17.0465 27.2708C16.9958 27.2587 16.9173 27.2359 16.9265 27.2238C16.9773 27.1677 17.1018 27.1434 17.2587 27.1373C17.4894 27.1282 17.7154 27.1131 17.9415 27.1009C18.0937 27.0934 18.246 27.0843 18.3982 27.0767C18.5412 27.019 18.6889 26.9629 18.8227 26.9038C19.0349 26.8128 19.0348 26.8097 18.7442 26.746C18.5597 26.7036 18.3613 26.6656 18.1721 26.6262C17.9461 26.6383 17.7154 26.652 17.4894 26.6626C17.2033 26.6763 17.088 26.6474 17.0142 26.5488C16.9496 26.4624 17.028 26.3881 17.2495 26.3699C17.4755 26.3517 17.6878 26.3396 17.8032 26.2622C17.9139 26.1879 18.1076 26.159 18.3475 26.153C18.4998 26.1484 18.652 26.1378 18.8042 26.1287C19.0026 26.1166 19.1087 26.0392 19.0672 25.9528C19.0442 25.8967 18.998 25.8496 18.8181 25.8375C18.02 25.7844 18.0107 25.7859 17.6139 25.6828C17.577 25.6737 17.5494 25.6464 17.5633 25.6328C17.5863 25.61 17.6371 25.5766 17.6924 25.5721C18.223 25.5387 18.7535 25.5084 19.284 25.4856C19.4594 25.4781 19.5885 25.4674 19.6485 25.4113C19.7316 25.3339 19.6947 25.2627 19.5332 25.2096C19.4824 25.1929 19.3993 25.1717 19.344 25.1732C18.735 25.2005 18.1307 25.2354 17.5217 25.2627C17.4663 25.2657 17.3649 25.2399 17.3418 25.2202C17.2957 25.1838 17.3648 25.1353 17.5263 25.1186C17.7385 25.0958 17.9554 25.0943 18.0984 25.0185C18.2967 24.9108 18.5412 24.8122 18.7627 24.7091C18.7996 24.6909 18.8596 24.656 18.8458 24.6529C18.7305 24.6196 18.5966 24.5938 18.4767 24.5619C18.2737 24.5089 18.2737 24.4345 18.3198 24.3633C18.3567 24.3056 18.4951 24.2829 18.6658 24.2829C18.7396 24.2829 18.8319 24.2829 18.8919 24.2692C19.0487 24.2358 19.0995 24.1934 19.021 24.1615C18.9749 24.1433 18.8919 24.1175 18.8366 24.1206C17.8493 24.1706 16.8573 24.2192 15.8747 24.2813C15.584 24.2995 15.4503 24.2419 15.275 24.201C15.1412 24.1691 15.0166 24.157 14.8505 24.1797C14.6937 24.201 14.5415 24.1888 14.4446 24.1388C14.3662 24.0978 14.5045 24.0629 14.8782 24.0235C14.9474 24.0159 15.0258 24.0114 15.0766 23.9962C15.6117 23.8324 15.6117 23.8309 15.9808 23.8096C16.3406 23.7899 16.3407 23.7884 16.5299 23.7004C16.6175 23.6595 16.7143 23.6185 16.7974 23.5761C16.8297 23.5594 16.8851 23.529 16.8666 23.5199C16.7651 23.4729 16.6267 23.4623 16.4652 23.4729C16.1054 23.4987 15.681 23.4775 15.4918 23.6216C15.418 23.6762 15.3027 23.6913 15.1366 23.7004C13.4665 23.7884 11.7964 23.8825 10.1218 23.9674C9.84959 23.981 9.7251 24.0372 9.61899 24.0993C9.52672 24.1509 9.4252 24.1661 9.24989 24.1752C9.07458 24.1843 8.93612 24.1888 8.83462 24.1388C8.77465 24.1084 8.82541 24.066 8.96381 24.0235C9.16219 23.9628 9.12526 23.887 9.06067 23.8157C9.01454 23.7687 8.87153 23.7353 8.71929 23.7384C8.49323 23.7444 8.27646 23.7611 8.08731 23.7004C7.97659 23.6656 7.83816 23.6413 7.71359 23.6109C7.4737 23.5488 7.23379 23.4851 6.89701 23.526C6.66634 23.5109 6.50487 23.4563 6.32034 23.4138C6.01124 23.344 5.98356 23.3334 6.205 23.2591C6.45413 23.1757 6.26033 23.0664 6.39873 22.9845C6.54636 22.8966 6.74942 22.8192 6.92934 22.7373C6.97547 22.7161 7.01701 22.6964 7.06315 22.6751C6.95704 22.6448 6.86017 22.6069 6.73561 22.5857C6.57414 22.5584 6.4911 22.525 6.50032 22.4309C6.46803 22.4173 6.48178 22.4522 6.51868 22.4613C6.5602 22.4704 6.66178 22.4628 6.71252 22.4522C6.8417 22.4234 6.90622 22.3854 6.87392 22.3536C6.85547 22.3369 6.76788 22.3157 6.71252 22.3157C6.61103 22.3157 6.52339 22.349 6.49571 22.4309C5.97901 22.4931 5.44377 22.5235 4.90861 22.5477C4.85325 22.5508 4.78409 22.5204 4.7195 22.5053C4.50729 22.4537 4.50726 22.4552 3.88445 22.44C3.81986 22.4385 3.73225 22.4173 3.69996 22.3961C3.56617 22.3035 3.57082 22.2019 3.50623 22.1033C3.62618 22.0396 3.74603 21.9774 3.87059 21.9153C4.11972 21.7894 4.44273 21.6786 4.63649 21.5406C4.59497 21.4663 4.5396 21.392 4.74259 21.3313C5.31927 21.2555 5.31469 21.2555 5.47154 21.1827C5.91904 20.9764 6.3619 20.7686 6.82786 20.5654C6.95242 20.5123 6.95244 20.4835 6.73099 20.4607C6.66179 20.4547 6.58788 20.4531 6.51407 20.4562C6.2834 20.4668 6.05273 20.4941 5.82667 20.488C5.60062 20.4835 5.43453 20.4167 5.25 20.3758C5.06085 20.3333 4.87171 20.2893 4.68256 20.2453C4.46573 20.2499 4.24894 20.2924 4.03211 20.2241C3.86603 20.171 3.65844 20.1331 3.46929 20.0891C3.6123 19.9738 3.87992 19.8859 4.08752 19.7842C4.27667 19.6917 4.28118 19.6933 4.78866 19.622C5.02855 19.5886 5.1116 19.4172 4.90861 19.3671C4.6641 19.3065 4.4058 19.2504 4.15668 19.1927C3.93985 19.1973 3.71845 19.2382 3.51085 19.17C3.34938 19.1184 3.16481 19.0835 2.89723 19.1032C2.44512 19.1366 1.98379 19.1533 1.52706 19.1806C1.37021 19.1897 1.19946 19.1836 1.13026 19.1321C1.08413 19.0957 1.21792 19.0456 1.37017 19.035C1.60084 19.0198 1.80842 19.0016 1.92375 18.9258C2.03447 18.85 2.23744 18.8272 2.47734 18.8166C2.54193 18.8135 2.61579 18.7953 2.64809 18.7771C2.81417 18.6892 2.99872 18.6133 3.35395 18.6164C3.50158 18.586 3.57996 18.5481 3.53383 18.5117C3.50615 18.492 3.40931 18.4662 3.35395 18.4693C2.97104 18.4844 2.58814 18.4996 2.21446 18.5269C2.03915 18.539 1.90529 18.542 1.79456 18.4965C1.71614 18.4662 1.75765 18.4253 1.90528 18.3813C2.03446 18.3434 2.0714 18.2994 2.06218 18.2478C2.03911 18.128 1.90068 18.0931 1.45779 18.1007C1.13947 18.1068 1.06104 18.087 0.991836 17.9839C0.973383 17.9596 0.92733 17.9263 0.959624 17.9096C1.158 17.8064 1.28718 17.679 1.66087 17.6305C1.8085 17.6123 1.96529 17.6123 2.05756 17.5729C2.14983 17.5334 2.23291 17.4879 2.32979 17.45C2.44974 17.4045 2.5327 17.362 2.47734 17.3332C2.38507 17.2817 2.23749 17.2771 2.0668 17.2953C1.91917 17.3105 1.76232 17.312 1.61007 17.3211C1.33788 17.3378 1.11649 17.2983 1.08419 17.2316C0.99654 17.0557 0.904245 16.8812 0.825817 16.7053C0.81659 16.6841 0.839594 16.6568 0.876501 16.6386C1.00568 16.5749 1.14413 16.5142 1.27792 16.452C1.43478 16.3807 1.68394 16.3944 1.89616 16.3807C2.19603 16.361 2.19593 16.3625 2.59729 16.2169C2.75415 16.1593 3.02635 16.182 3.18782 16.1305C3.23857 16.1138 3.317 16.0865 3.30316 16.0713C3.2847 16.0516 3.19248 16.0364 3.12328 16.0273C3.05869 16.0182 2.98028 16.0137 2.91108 16.0182C2.07144 16.0622 1.23644 16.1092 0.396802 16.1517C0.253787 16.1593 0.0969265 16.1259 0.0461791 16.0789C-0.00456835 16.0349 0.0092268 15.9818 0 15.9318C0.133789 15.8696 0.285972 15.8119 0.401307 15.7452C0.488962 15.6936 0.590475 15.6709 0.765784 15.6678C0.996454 15.6633 1.22253 15.6451 1.48088 15.6314C1.96068 15.41 2.43121 15.178 2.94791 14.9565C3.15552 14.867 3.10485 14.776 3.14637 14.6805C3.18789 14.5925 3.49697 14.6062 3.70458 14.5804C3.87066 14.5591 3.92595 14.5106 3.86136 14.4772C3.82445 14.4575 3.74146 14.4347 3.67687 14.4347C3.52463 14.4347 3.37239 14.4484 3.22015 14.456C3.0679 14.4636 2.8926 14.459 2.76804 14.4848C2.64809 14.5091 2.56962 14.5606 2.49119 14.6046C2.40354 14.6532 2.28828 14.6699 2.11297 14.6729C1.88692 14.6759 1.66087 14.6896 1.43482 14.7002C1.18569 14.641 0.927289 14.5834 0.687392 14.5212C0.641258 14.5091 0.631982 14.4742 0.636595 14.4514C0.645822 14.3923 0.576639 14.3559 0.424397 14.3271C0.295222 14.3028 0.189104 14.2679 0.069156 14.2376C0.161424 14.1966 0.262955 14.1572 0.336769 14.1132C0.498238 14.0207 0.701251 13.954 1.05187 13.957C1.19027 13.8978 1.30096 13.825 1.48088 13.7841C1.65158 13.7446 1.94224 13.7841 2.07141 13.6946C2.136 13.6506 2.23294 13.6005 2.3575 13.5823C2.55587 13.5535 2.81422 13.5687 2.92956 13.4838C2.99876 13.4352 3.10021 13.3912 3.234 13.3791C3.38624 13.3655 3.54306 13.3624 3.65378 13.3336C3.71375 13.3185 3.77835 13.2942 3.77835 13.2729C3.77835 13.2593 3.68615 13.2381 3.62157 13.229C3.56159 13.2183 3.48307 13.2108 3.41387 13.2138C3.1832 13.2229 2.95715 13.2396 2.72648 13.2487C2.66189 13.2517 2.5881 13.2411 2.5189 13.232C2.31591 13.2077 2.32972 13.1774 2.49119 13.1228C2.65266 13.0697 2.76806 13.0014 2.90185 12.9393C3.04948 12.9286 3.23399 12.9332 3.33548 12.9044C3.50618 12.8574 3.62609 12.7891 3.7645 12.7299C3.91674 12.7208 4.07358 12.7178 4.2166 12.7011C4.27657 12.6951 4.30428 12.6617 4.35502 12.642C4.44729 12.6041 4.52578 12.5495 4.65035 12.5313C4.85334 12.504 5.10245 12.5146 5.2224 12.4312C5.2916 12.3826 5.39767 12.3311 5.52685 12.328C5.88669 12.322 6.03894 12.2385 6.22347 12.1597C6.36188 12.1005 6.65714 12.1308 6.80939 12.0717C6.91088 12.0338 6.98474 11.9867 7.08624 11.9503C7.12776 11.9352 7.21538 11.9276 7.28458 11.9231C7.66288 11.9003 8.04578 11.8836 8.42408 11.8593C8.48405 11.8548 8.53946 11.8321 8.58559 11.8139C8.68247 11.7744 8.74238 11.7198 8.86233 11.694C8.98228 11.6682 9.15295 11.6683 9.30058 11.6607C9.77576 11.6379 9.8127 11.644 10.0295 11.515C10.2048 11.4104 10.6339 11.4847 10.777 11.3694C10.86 11.3027 11.0122 11.2481 11.2844 11.2405C11.6673 11.2299 12.0456 11.2011 12.4285 11.1814C12.7699 11.1632 12.7653 11.1632 13.1343 11.0221C13.3004 10.9584 13.545 10.9675 13.7618 10.9554C13.9925 10.9433 14.2047 10.9251 14.3154 10.8492C14.4261 10.7749 14.6291 10.7506 14.8644 10.74C15.0812 10.7294 15.3258 10.737 15.4965 10.6763C15.9117 10.5307 15.9071 10.5292 16.1977 10.514C16.6544 10.4897 17.1111 10.4655 17.5679 10.4397C17.8724 10.423 18.1907 10.42 18.4767 10.3866C18.6843 10.3623 18.7765 10.2774 18.9103 10.2183C19.2886 10.1955 19.6669 10.1727 20.0452 10.1515C20.5758 10.1212 21.1109 10.0939 21.646 10.0651C21.8767 10.0074 21.9091 9.88002 22.2966 9.87396C22.5273 9.87092 22.7533 9.85121 22.984 9.83908C23.3669 9.81784 23.7452 9.79054 24.1281 9.77992C24.4188 9.77234 24.4694 9.69043 24.6217 9.63886C24.6724 9.62066 24.7186 9.59488 24.7786 9.59033C25.3783 9.54786 25.9965 9.53876 26.5824 9.47658C26.6423 9.47051 26.6977 9.43865 26.7116 9.4159C26.7208 9.40377 26.6423 9.38103 26.5916 9.37041C26.5316 9.35828 26.4532 9.34614 26.3886 9.34918C24.4833 9.4508 22.578 9.55394 20.6727 9.65556C20.4051 9.67073 20.4051 9.6692 19.7546 9.83604C19.6993 9.84969 19.6346 9.86485 19.5654 9.8694C19.2609 9.8876 18.9518 9.89823 18.652 9.92099C18.4074 9.93919 18.2045 9.92097 18.0292 9.86637C17.9046 9.82693 17.7754 9.81481 17.6186 9.81784C17.4432 9.82239 17.328 9.83908 17.2265 9.88003C17.0927 9.93615 17.0235 10.0089 16.7421 10.0241C15.4457 10.0893 14.1492 10.1621 12.8575 10.2319C12.6776 10.2107 12.5899 10.1788 12.6361 10.1409C12.6637 10.1182 12.7191 10.0878 12.7745 10.0848C13.305 10.0529 13.8402 10.0256 14.3707 9.9953C14.4445 9.99075 14.546 9.99377 14.5875 9.9786C14.7905 9.91035 14.8644 9.79963 15.2473 9.79205C15.4688 9.7875 15.6948 9.76476 15.907 9.74352C15.967 9.73745 16.0224 9.7056 16.0362 9.68285C16.0408 9.67072 15.967 9.64796 15.9116 9.63734C15.7086 9.59336 15.4734 9.64646 15.2704 9.61612C15.2012 9.6055 15.1043 9.59033 15.0904 9.57213C15.0812 9.55545 15.1596 9.52814 15.215 9.51146C15.2657 9.49629 15.3349 9.48265 15.4041 9.4781C16.0131 9.44321 16.6221 9.40681 17.2311 9.3795C17.4802 9.36889 17.6555 9.33096 17.7662 9.2612C17.8493 9.20963 17.9507 9.18233 18.1076 9.17475C19.1733 9.11863 20.239 9.05645 21.3093 9.00488C21.5769 8.99274 21.7153 8.9427 21.826 8.87748C21.9137 8.82591 22.0152 8.8077 22.1859 8.7986C23.7129 8.71973 25.2307 8.63177 26.7577 8.55593C27.0392 8.54228 27.1222 8.47706 27.2653 8.42094C27.316 8.40122 27.3482 8.37696 27.4128 8.36482C27.4774 8.35269 27.5604 8.35419 27.6389 8.35116C28.8568 8.28594 30.0748 8.21618 31.2974 8.15551C31.5834 8.14186 31.6387 8.06602 31.7863 8.01293C31.837 7.99625 31.8832 7.96895 31.9432 7.9644C32.8566 7.91284 33.7701 7.8643 34.6835 7.81425C35.2925 7.78088 35.9014 7.74751 36.5104 7.71566C36.8103 7.70049 36.8103 7.69897 37.2163 7.55488C37.2624 7.53819 37.3271 7.51847 37.387 7.51392C39.1401 7.41685 40.8886 7.32435 42.6416 7.2288C42.7893 7.22121 42.8954 7.18631 42.9692 7.13474C43.043 7.08317 43.1492 7.04829 43.2922 7.0407C44.6624 6.96487 46.0325 6.89055 47.4073 6.81927C47.6564 6.80713 47.8317 6.77073 47.9424 6.70248C48.0255 6.65091 48.127 6.62362 48.2838 6.61603C49.654 6.54323 51.0243 6.46587 52.3991 6.3961C52.662 6.38244 52.7911 6.33088 52.9203 6.27021C52.9665 6.24898 53.0034 6.21409 53.0587 6.21106C53.7415 6.16859 54.4197 6.1246 55.1071 6.09579C55.3931 6.08365 55.49 6.01995 55.6054 5.95928C55.6976 5.91074 55.8038 5.89406 55.9791 5.888C56.362 5.87435 56.7403 5.84857 57.1139 5.82279C57.1693 5.81824 57.2385 5.78487 57.2431 5.76363C57.2524 5.7242 57.1462 5.69689 56.9709 5.68324C55.144 5.78183 53.3125 5.88041 51.4856 5.979C51.1857 5.99568 51.1857 5.99569 50.7798 6.13978C50.7336 6.15646 50.669 6.17618 50.6044 6.18073C48.8513 6.27629 47.1029 6.37032 45.3498 6.46588C45.2021 6.47346 45.096 6.50835 45.0222 6.55991C44.9484 6.61148 44.8422 6.64637 44.6992 6.65395C43.0245 6.74495 41.3499 6.83748 39.6706 6.92393C39.4215 6.93607 39.2463 6.97093 39.1355 7.0407C39.0525 7.09227 38.951 7.11958 38.7941 7.12717C37.1933 7.2121 35.597 7.30158 33.9915 7.38349C33.83 7.39107 33.7102 7.34708 33.7194 7.30613C33.724 7.2849 33.7931 7.25003 33.8485 7.247C34.6835 7.19694 35.514 7.14537 36.3536 7.10745C36.635 7.09532 36.718 7.02858 36.861 6.97246C36.9072 6.95274 36.9441 6.92696 37.0041 6.91634C37.0687 6.90421 37.1517 6.90573 37.2301 6.9027C39.2093 6.79501 41.1885 6.68581 43.1723 6.58419C43.4583 6.56902 43.5136 6.49469 43.6612 6.4416C43.7119 6.4234 43.7581 6.39611 43.8181 6.39308C44.4271 6.35668 45.036 6.32482 45.645 6.29297C46.7107 6.23533 47.7763 6.17769 48.8466 6.12006C49.1557 6.10338 49.1558 6.10337 49.5525 5.9608C49.5986 5.94411 49.6633 5.92289 49.7233 5.91986C52.542 5.76667 55.3609 5.61348 58.1797 5.4618C58.3273 5.45422 58.4334 5.41934 58.5072 5.36777C58.581 5.31772 58.6871 5.28131 58.8301 5.27221C62.6408 5.06594 66.4468 4.85966 70.2575 4.65641C70.5066 4.64276 70.6819 4.61091 70.7926 4.53962C70.8711 4.48805 70.9772 4.46076 71.134 4.45166C75.323 4.22567 79.512 3.99968 83.7055 3.77217C86.5243 3.6205 89.3432 3.46579 92.1619 3.31715C92.4203 3.3035 92.5586 3.25647 92.6878 3.19429C92.7293 3.17305 92.7709 3.13817 92.8262 3.13513C93.4306 3.09721 94.0349 3.06234 94.6393 3.02745C94.8284 3.0684 95.0176 3.10784 95.2067 3.1488C95.3497 3.09116 95.4882 3.032 95.6312 2.97437C96.5447 2.93038 97.4443 2.86213 98.367 2.8409C98.4269 2.83938 98.4915 2.8682 98.5561 2.88337C98.9851 2.97892 99.2296 2.97134 99.5018 2.84393C99.5987 2.79843 99.6817 2.75748 99.8294 2.7499C100.286 2.7226 100.748 2.70439 101.2 2.67254C101.444 2.65586 101.647 2.67102 101.822 2.72562C101.947 2.76506 102.076 2.78175 102.228 2.77265C103.068 2.72715 103.903 2.68316 104.743 2.63462C104.803 2.63159 104.858 2.6058 104.904 2.5876C105.001 2.54816 105.084 2.5057 105.176 2.46475C105.301 2.49054 105.439 2.51026 105.541 2.54362C105.67 2.58306 105.79 2.58305 105.965 2.57243C109.315 2.38891 112.669 2.20994 116.018 2.0249C116.304 2.00973 116.428 2.07344 116.622 2.10681C116.687 2.11894 116.751 2.1341 116.821 2.13713C116.894 2.14017 116.973 2.13107 117.047 2.12652C119.561 1.99002 122.075 1.85502 124.59 1.71851C124.922 1.70031 124.922 1.70031 125.415 1.79435C125.475 1.80649 125.554 1.82014 125.618 1.81559C126.762 1.75644 127.907 1.69274 129.046 1.63207C129.194 1.62449 129.318 1.64875 129.452 1.68363C129.715 1.75189 129.733 1.75189 129.927 1.65179C130.019 1.60477 130.116 1.57594 130.269 1.56229C130.435 1.54712 130.569 1.55169 130.698 1.57899C130.882 1.61691 131.016 1.6806 131.297 1.66392C132.515 1.59263 133.738 1.53348 134.951 1.46068C135.228 1.44399 135.376 1.49556 135.56 1.53348C135.625 1.54713 135.685 1.56836 135.754 1.57292C135.823 1.57747 135.906 1.56684 135.98 1.56229C137.502 1.48038 139.029 1.40001 140.547 1.31204C140.833 1.29536 140.958 1.36057 141.152 1.39393C141.216 1.40607 141.29 1.42731 141.35 1.42428C142.263 1.37726 143.182 1.32719 144.095 1.27714C144.423 1.25894 144.423 1.26046 144.921 1.35298C144.981 1.36511 145.059 1.37725 145.124 1.37422C146.19 1.3181 147.26 1.26046 148.326 1.20282C148.653 1.18462 148.653 1.18463 149.599 1.2635C149.668 1.26956 149.742 1.27868 149.811 1.27564C151.029 1.21042 152.251 1.14671 153.469 1.07694C153.714 1.06329 153.917 1.07542 154.092 1.13002C154.217 1.16946 154.346 1.18615 154.498 1.17705C155.868 1.10273 157.243 1.03145 158.609 0.952579C158.872 0.937412 159.042 0.970766 159.227 1.01475C159.287 1.02992 159.347 1.05116 159.416 1.05722C159.485 1.06329 159.564 1.05722 159.638 1.05267C161.008 0.97835 162.383 0.908584 163.748 0.828197C164.025 0.811513 164.173 0.863079 164.357 0.900997C164.422 0.914647 164.491 0.94195 164.546 0.940433C165.081 0.914649 165.616 0.891906 166.147 0.853988C166.433 0.832754 166.558 0.902511 166.751 0.935879C166.816 0.946496 166.89 0.969258 166.95 0.966224C168.094 0.907072 169.238 0.844891 170.378 0.781188C170.539 0.772088 170.659 0.785726 170.788 0.825161C170.959 0.878246 171.157 0.899481 171.406 0.882797C171.937 0.847912 172.472 0.823651 173.007 0.794833C173.321 0.778149 173.321 0.778155 174.281 0.857024C174.35 0.863091 174.424 0.872185 174.493 0.869152C175.406 0.820616 176.324 0.773601 177.233 0.720515C177.478 0.705348 177.681 0.718995 177.856 0.773597C177.98 0.813032 178.105 0.829725 178.262 0.820624C179.101 0.775123 179.937 0.729617 180.776 0.684115C181.081 0.667431 181.385 0.638606 181.69 0.638606C181.911 0.640123 182.073 0.712923 182.271 0.749324C182.326 0.759941 182.419 0.747822 182.492 0.744788C183.558 0.687153 184.628 0.634062 185.689 0.568843C185.966 0.552159 186.114 0.603724 186.298 0.641643C186.363 0.655293 186.432 0.682596 186.488 0.681079C186.87 0.664395 187.249 0.641642 187.632 0.621924C188.088 0.597657 188.55 0.579456 189.002 0.546088C189.371 0.518787 189.509 0.650738 189.805 0.655288C190.031 0.659838 190.261 0.634058 190.487 0.621924C190.944 0.597657 191.401 0.570359 191.857 0.549124C192.019 0.541541 192.144 0.517263 192.194 0.462661C192.204 0.452043 192.125 0.429302 192.074 0.415652C191.461 0.260946 191.461 0.260938 190.843 0.294306C190.46 0.31554 190.081 0.336778 189.698 0.354979C189.634 0.358012 189.56 0.345879 189.495 0.336779C189.311 0.310995 189.329 0.280663 189.486 0.226061C189.643 0.171459 189.763 0.104729 189.897 0.0425428C190.086 0.0819777 190.271 0.121399 190.46 0.160833C190.612 0.15325 190.764 0.144163 190.916 0.136579C191.678 0.0971442 192.439 0.0561896 193.2 0.0197882C193.255 0.0167547 193.325 0.0470937 193.389 0.062261C193.574 0.106246 193.74 0.144154 194.007 0.12747C194.69 0.0834848 195.378 0.0516335 196.06 0.0137153C196.36 -0.00296866 196.36 -0.00296718 196.886 0.0910699C196.946 0.101687 197.025 0.113822 197.089 0.110788C197.777 0.0759034 198.459 0.0379896 199.147 0.00158819C199.294 -0.00599545 199.437 0.0137213 199.544 0.0577063C199.585 0.0759071 199.576 0.106236 199.751 0.354979C200.295 0.556704 200.669 0.53548 201.047 0.517279C201.209 0.509695 201.352 0.502104 201.458 0.47177C201.513 0.455086 201.583 0.430815 201.583 0.411097C201.583 0.39593 201.481 0.371658 201.417 0.368624C200.96 0.33829 200.526 0.402001 200.079 0.415652C199.871 0.421719 199.691 0.368632 199.654 0.282179C199.645 0.257911 199.631 0.232128 199.617 0.207861C199.603 0.183593 199.594 0.15781 199.58 0.133543C199.401 0.125959 199.294 0.153256 199.216 0.204824C199.151 0.247293 199.059 0.295828 198.934 0.318579C198.81 0.342847 198.639 0.338305 198.487 0.345888C198.339 0.353472 198.178 0.373187 198.04 0.36257C197.901 0.350436 197.79 0.306444 197.661 0.279143C197.601 0.265492 197.527 0.245782 197.467 0.248815C196.937 0.2746 196.411 0.300375 195.885 0.333742C195.608 0.351943 195.47 0.28825 195.295 0.248815C195.156 0.218481 195.018 0.226055 194.995 0.295824C194.935 0.462664 195.147 0.53243 195.617 0.500579C196.005 0.473278 196.356 0.468742 196.66 0.571879C196.702 0.58553 196.798 0.591594 196.858 0.588561C197.237 0.57036 197.61 0.547607 197.989 0.529406C198.058 0.526373 198.132 0.53243 198.196 0.538497C199.138 0.6204 199.138 0.621925 199.456 0.603724C199.608 0.594624 199.756 0.58704 199.742 0.356497C200.032 0.109271 200.494 0.0925896 200.941 0.0561881C201.232 0.0334372 201.356 0.100176 201.546 0.135061C201.61 0.147195 201.68 0.171458 201.739 0.168424C202.731 0.118372 203.719 0.0652796 204.706 0.00916071C204.872 6.03503e-05 204.992 0.00916219 205.121 0.0485971C205.287 0.0986491 205.472 0.130507 205.735 0.112306C206.261 0.0759048 206.796 0.0531591 207.331 0.0228246C207.603 0.00765731 207.603 0.00764177 208.152 0.101679C208.212 0.112296 208.29 0.12443 208.355 0.121397C208.89 0.0956127 209.421 0.063771 209.951 0.0364699C210.099 0.0288863 210.233 0.0501183 210.348 0.0910699C210.463 0.132022 210.602 0.153253 210.745 0.14567C211.28 0.118369 211.811 0.0880438 212.341 0.0607428C212.406 0.0577093 212.484 0.0683257 212.544 0.0789427C213.107 0.17298 213.107 0.172964 213.365 0.157797C213.744 0.135046 214.131 0.124441 214.505 0.0941063C214.869 0.0637718 215.058 0.151735 215.307 0.20027C215.99 0.165385 216.678 0.136575 217.356 0.0941063C217.633 0.0759056 217.78 0.125953 217.965 0.165388C218.029 0.179039 218.094 0.207859 218.154 0.206343C218.385 0.200276 218.611 0.183595 218.837 0.171461C219.063 0.159327 219.294 0.147195 219.52 0.135061C219.778 0.179046 219.949 0.282182 220.318 0.247297C220.539 0.226063 220.774 0.221513 221 0.209379C221.226 0.197245 221.457 0.185113 221.683 0.172979C221.835 0.165395 221.992 0.160839 222.14 0.147188C222.412 0.124437 222.546 0.198766 222.74 0.232134C222.804 0.242751 222.878 0.26094 222.938 0.257906C223.395 0.236672 223.856 0.218473 224.304 0.183588C224.65 0.156287 224.885 0.201795 225.129 0.265497C225.18 0.279148 225.268 0.286731 225.332 0.283697C225.868 0.257913 226.398 0.226053 226.929 0.198752C227.072 0.191168 227.21 0.215435 227.325 0.25487C227.445 0.295821 227.579 0.315554 227.727 0.30797C228.257 0.280669 228.792 0.250325 229.323 0.223024C229.388 0.219991 229.466 0.232127 229.526 0.244261C230.043 0.338298 230.043 0.339816 230.347 0.321615C230.421 0.317065 230.499 0.31402 230.573 0.30947C230.952 0.288235 231.344 0.280662 231.713 0.244261C232.137 0.203309 232.446 0.25488 232.746 0.341334C233.124 0.323133 233.512 0.312514 233.881 0.282179C234.158 0.259428 234.305 0.317061 234.49 0.354979C234.555 0.368629 234.624 0.39593 234.679 0.392897C235.214 0.367113 235.749 0.34437 236.275 0.306452C236.561 0.285218 236.686 0.353458 236.88 0.388342C236.944 0.400476 237.013 0.421722 237.073 0.418688C237.378 0.406554 237.683 0.388345 237.987 0.371661C238.342 0.351943 238.342 0.353458 238.813 0.445979C239.034 0.489964 239.256 0.455078 239.473 0.444461C239.703 0.432327 239.92 0.423229 240.104 0.485415C240.22 0.52485 240.358 0.549118 240.501 0.543052C240.806 0.529401 241.115 0.515757 241.415 0.493006C241.655 0.474806 241.862 0.486933 242.037 0.543052C242.162 0.582486 242.291 0.602216 242.444 0.593115C243.126 0.556714 243.814 0.518782 244.496 0.483897C244.556 0.480864 244.639 0.494519 244.695 0.50817C244.824 0.535471 244.949 0.565799 245.073 0.596133C245.373 0.582483 245.682 0.576431 245.977 0.555197C246.291 0.533963 246.577 0.526377 246.822 0.609797C246.872 0.627998 246.946 0.653768 247.006 0.652251C247.237 0.646185 247.463 0.631022 247.689 0.618888C247.915 0.606754 248.146 0.594622 248.372 0.582488C248.635 0.620406 248.801 0.729609 249.17 0.694724C249.391 0.67349 249.627 0.66894 249.853 0.656806C250.079 0.644672 250.309 0.631023 250.535 0.620406C250.609 0.617373 250.692 0.609785 250.757 0.615852C250.826 0.621918 250.886 0.643157 250.946 0.658324C251.131 0.702309 251.301 0.7463 251.564 0.720515C251.786 0.699281 252.021 0.694729 252.247 0.681079C252.556 0.664395 252.556 0.664398 253.068 0.759952C253.276 0.799387 253.511 0.74782 253.709 0.781188C253.843 0.803939 253.959 0.841849 254.088 0.867633C254.143 0.87825 254.231 0.882794 254.295 0.879761C254.6 0.86611 254.909 0.852466 255.209 0.829715C255.453 0.811514 255.656 0.829713 255.827 0.884315C255.952 0.92375 256.076 0.940443 256.233 0.931343C256.994 0.888874 257.755 0.852461 258.512 0.805442C258.77 0.788758 258.978 0.814549 259.121 0.869152C259.365 0.963189 259.711 0.85247 259.965 0.928306C260.122 0.975325 260.279 1.02993 260.565 1.00718C261.091 0.967744 261.626 0.946498 262.157 0.919197C262.346 0.960149 262.535 1.00111 262.729 1.04206C263.033 1.02538 263.338 1.00868 263.642 0.993515C263.868 0.981381 264.099 0.967732 264.325 0.957115C264.399 0.954082 264.477 0.948013 264.546 0.955597C264.615 0.96318 264.671 0.982902 264.736 0.99807C265.054 1.07239 265.054 1.07391 265.58 1.04358C265.806 1.02993 266.023 1.02083 266.212 1.0815C266.387 1.13762 266.595 1.14823 266.835 1.13154C267.287 1.10121 267.743 1.07846 268.205 1.05722C268.348 1.04964 268.482 1.07543 268.602 1.11486C268.781 1.17705 269.003 1.17098 269.229 1.1543C269.529 1.13306 269.824 1.11183 270.078 1.19677C270.129 1.21497 270.207 1.24074 270.262 1.23922C270.641 1.22709 271.024 1.218 271.393 1.18918C271.762 1.16036 271.942 1.2544 272.195 1.2999C272.574 1.28018 272.957 1.26046 273.335 1.24074C273.409 1.23619 273.496 1.22255 273.561 1.23013C273.833 1.26198 273.99 1.37574 274.364 1.34085C274.58 1.32113 274.816 1.31507 275.042 1.31052C275.102 1.30901 275.18 1.33478 275.222 1.3545C275.245 1.36511 275.222 1.39393 275.194 1.4091C275.111 1.45157 275.009 1.49101 274.936 1.535C274.926 1.54106 275.014 1.56835 275.065 1.58049C275.189 1.60779 275.332 1.60325 275.499 1.59111C275.642 1.5805 275.789 1.60173 275.891 1.64723C275.932 1.66543 275.918 1.69577 275.831 1.79587C275.831 1.87019 275.928 1.83681 275.96 1.78828C276.011 1.71851 275.914 1.69576 275.729 1.73368C275.6 1.76098 275.535 1.80042 275.568 1.83227C275.586 1.84895 275.674 1.87019 275.831 1.79587C276.237 1.70487 276.541 1.68819 276.846 1.67151C276.924 1.66696 277.016 1.65178 277.072 1.66088C277.27 1.69728 277.455 1.74127 277.648 1.78222C277.87 1.77312 278.077 1.75036 278.294 1.80951C278.599 1.89293 278.613 1.88535 278.908 1.86867C279.06 1.85957 279.212 1.852 279.365 1.84442C279.517 1.83683 279.637 1.85958 279.771 1.89446C280.043 1.96575 280.066 1.96574 280.246 1.86867C280.352 1.80952 280.426 1.7898 280.559 1.81711C281.002 1.90963 281.007 1.91569 281.385 1.88839C281.699 1.86564 281.994 1.85957 282.225 1.94602C282.382 2.00669 282.432 1.99304 282.557 1.92934C282.889 1.76099 283.041 1.76401 283.664 1.88535C283.955 1.94299 284.255 1.88081 284.55 1.87322C284.799 1.86716 284.974 1.90355 284.993 1.99911C285.007 2.05826 285.048 2.10073 285.214 2.12045C285.279 2.12803 285.357 2.13865 285.422 2.13561C285.805 2.11741 286.183 2.09618 286.566 2.07494C286.76 2.06432 286.866 1.99305 286.829 1.89902C286.788 1.79891 286.861 1.7625 287.138 1.73368C287.304 1.71699 287.438 1.72004 287.572 1.74734C287.719 1.77768 287.678 1.80498 287.549 1.85958C287.24 1.99305 287.277 2.07494 287.673 2.16746C287.812 2.19931 287.922 2.22814 287.955 2.27516C287.973 2.29943 287.955 2.33128 287.996 2.34948C288.222 2.4511 288.536 2.51633 288.887 2.56486C289.223 2.52391 289.454 2.59215 289.712 2.64675C289.915 2.68922 290.155 2.65283 290.372 2.63766C290.617 2.62098 290.82 2.63311 290.995 2.68922C291.12 2.72866 291.249 2.74685 291.401 2.73927C291.705 2.72259 292.014 2.71197 292.314 2.68771C292.573 2.66647 292.766 2.69681 292.928 2.74838C293.131 2.8136 293.357 2.76961 293.569 2.77871C293.855 2.78932 293.998 2.92431 294.372 2.88791C294.593 2.86667 294.824 2.85909 295.055 2.85302C295.115 2.85151 295.189 2.8773 295.239 2.8955C295.484 2.97892 295.77 2.97436 296.084 2.9501C296.3 2.93341 296.513 2.91825 296.725 2.97589C297.075 3.07296 297.463 3.1579 297.832 3.24739C297.883 3.31716 297.846 3.39904 298.109 3.44C298.247 3.46123 298.376 3.49309 298.483 3.52798C298.612 3.56893 298.732 3.57955 298.898 3.56893C299.198 3.5477 299.511 3.54313 299.807 3.51583C300.079 3.49156 300.249 3.54163 300.415 3.58865C300.549 3.62657 300.674 3.64476 300.835 3.61746C301.001 3.59168 301.121 3.60835 301.255 3.64931C301.444 3.70542 301.458 3.69937 302.086 3.71605C302.15 3.71757 302.229 3.74031 302.265 3.76002C302.284 3.77064 302.242 3.80099 302.21 3.81616C302.169 3.83436 302.104 3.85558 302.044 3.86013C301.361 3.89957 300.674 3.93445 299.991 3.97389C299.922 3.97844 299.848 3.98907 299.797 4.00423C299.742 4.02092 299.673 4.04365 299.673 4.06489C299.673 4.08005 299.765 4.09826 299.83 4.10888C300.033 4.14376 300.273 4.09068 300.471 4.13011C300.605 4.1559 300.715 4.19229 300.849 4.21656C300.904 4.22718 300.992 4.22567 301.061 4.22263C301.292 4.21202 301.518 4.19685 301.749 4.18775C301.813 4.18623 301.887 4.20141 301.947 4.21354C302.39 4.30455 302.39 4.30454 302.773 4.28482C302.925 4.27724 303.087 4.25449 303.23 4.26359C303.368 4.27269 303.488 4.31364 303.613 4.33942C303.871 4.39403 304.115 4.44711 304.134 4.56541C304.143 4.61092 304.295 4.65034 304.448 4.65338C304.595 4.65641 304.752 4.63974 304.904 4.63064C305.264 4.61244 305.264 4.61244 305.73 4.70496C305.859 4.73074 305.998 4.73377 306.164 4.71861C306.228 4.71254 306.307 4.71861 306.376 4.7262C306.602 4.74895 306.602 4.77776 306.454 4.83236C306.247 4.91275 306.265 4.92033 306.847 4.98859C307.068 5.01437 307.239 5.06291 307.423 5.10538C307.723 5.17363 307.719 5.17362 307.52 5.2631C307.474 5.28282 307.433 5.30406 307.386 5.3253C307.253 5.38445 307.146 5.44815 306.87 5.45421C306.565 5.46028 306.261 5.48456 305.956 5.50124C305.661 5.51793 305.583 5.55431 305.61 5.65745C305.642 5.78182 305.703 5.79548 306.233 5.79396C306.385 5.79396 306.519 5.80609 306.634 5.84704C306.579 5.89558 306.478 5.9335 306.33 5.9426C305.952 5.96535 305.569 5.98507 305.19 6.00479C304.886 6.02147 304.581 6.03815 304.277 6.05483C304.088 6.06545 303.968 6.14433 304.019 6.2323C304.046 6.28235 304.069 6.3324 304.092 6.38245C304.143 6.48255 304.24 6.50835 304.549 6.5038C304.628 6.50228 304.701 6.49013 304.775 6.49317C305.075 6.50379 305.218 6.62967 305.578 6.60389C305.878 6.58265 306.192 6.57811 306.487 6.5508C306.759 6.52654 306.911 6.58115 307.1 6.62211C307.165 6.63576 307.234 6.66456 307.29 6.66304C307.672 6.64636 308.055 6.62969 308.429 6.60087C308.604 6.58873 308.71 6.59783 308.849 6.63423C309.181 6.7222 309.19 6.71765 309.684 6.69035C310.044 6.66912 310.048 6.67215 310.51 6.76467C310.639 6.79045 310.777 6.79045 310.943 6.77831C311.16 6.76315 311.386 6.73888 311.612 6.76163C311.681 6.7677 311.769 6.78591 311.792 6.80562C311.806 6.81927 311.741 6.85264 311.686 6.86326C311.28 6.94213 310.805 6.92848 310.362 6.96033C310.224 6.96943 310.085 6.94061 309.97 6.89966C309.85 6.85871 309.721 6.84203 309.564 6.84961C309.259 6.8663 308.95 6.87691 308.65 6.90118C308.392 6.92241 308.212 6.88752 308.032 6.8405C307.972 6.82534 307.903 6.79651 307.843 6.79803C307.16 6.82837 306.473 6.85871 305.795 6.90118C305.523 6.91938 305.366 6.87085 305.181 6.8299C305.117 6.81625 305.052 6.78742 304.992 6.78894C304.761 6.79501 304.535 6.81169 304.305 6.82382C303.465 6.86932 302.63 6.91483 301.79 6.9573C301.735 6.96033 301.666 6.92847 301.601 6.91482C301.477 6.88752 301.347 6.86173 301.218 6.83595C300.988 6.84808 300.762 6.86325 300.531 6.87235C300.365 6.87842 300.217 6.89966 300.194 6.9573C300.18 6.99521 300.333 7.03009 300.494 7.02706C300.651 7.02403 300.808 7.00582 300.937 7.02554C301.578 7.12261 301.578 7.12413 301.979 7.10441C302.33 7.08621 302.293 7.07104 302.602 7.15446C302.736 7.19086 302.856 7.2121 303.008 7.203C303.387 7.18177 303.769 7.16053 304.152 7.14233C304.212 7.1393 304.291 7.15447 304.351 7.1666C304.803 7.25761 304.803 7.26064 305.177 7.23789C305.666 7.21059 305.684 7.203 306.012 7.29552C306.238 7.35923 306.445 7.31524 306.662 7.3122C306.911 7.37136 307.183 7.42445 307.409 7.49119C307.677 7.57006 307.958 7.55639 308.263 7.53364C308.489 7.51696 308.71 7.51089 308.895 7.57308C309.07 7.63071 309.282 7.63679 309.522 7.62162C309.739 7.60797 309.961 7.57915 310.187 7.61251C310.247 7.62161 310.339 7.64437 310.334 7.65802C310.33 7.67926 310.27 7.7096 310.21 7.7187C309.785 7.78088 309.319 7.77936 308.872 7.80818C308.812 7.81273 308.734 7.79604 308.674 7.7839C308.544 7.7566 308.42 7.72476 308.295 7.69594C308.069 7.70504 307.839 7.70807 307.617 7.72627C307.446 7.73992 307.317 7.73842 307.193 7.70201C307.077 7.66865 306.953 7.62769 306.814 7.61707C306.676 7.60645 306.514 7.6292 306.362 7.6383C306.21 7.6474 306.035 7.64285 305.915 7.66711C305.795 7.69138 305.721 7.74447 305.643 7.78694C305.555 7.83396 305.435 7.84914 305.26 7.85369C305.098 7.85824 304.969 7.85216 304.849 7.8097C304.798 7.79149 304.729 7.77784 304.66 7.7657C304.595 7.75509 304.521 7.7384 304.461 7.74143C303.774 7.77632 303.091 7.81425 302.404 7.85065C302.062 7.86885 302.067 7.86884 301.357 7.77935C301.292 7.77177 301.214 7.76115 301.149 7.76419C300.766 7.78239 300.388 7.80362 300.005 7.82486C299.617 7.84609 299.622 7.84306 298.962 7.7475C298.842 7.7293 298.667 7.75357 298.524 7.75054C298.224 7.74296 298.077 7.61556 297.726 7.63982C297.426 7.66106 297.112 7.6656 296.812 7.6929C296.54 7.71717 296.383 7.66409 296.199 7.62314C296.134 7.60949 296.065 7.57915 296.01 7.58219C295.322 7.61555 294.64 7.65347 293.726 7.65802C293.5 7.65802 293.602 7.68988 293.749 7.7005C293.961 7.71718 294.031 7.68533 293.915 7.62466C293.832 7.58219 293.712 7.56094 293.615 7.57156C293.565 7.57763 293.5 7.60645 293.726 7.65802C293.966 7.71566 293.952 7.7475 293.994 7.7657C294.095 7.80969 294.238 7.82789 294.386 7.82182C294.617 7.81121 294.843 7.79604 295.073 7.78694C295.138 7.78391 295.216 7.79453 295.276 7.80666C295.784 7.9007 295.788 7.90677 296.328 7.87037C296.499 7.85975 296.623 7.85975 296.757 7.88857C296.942 7.928 297.075 7.99473 297.357 7.9735C297.731 7.94468 298.113 7.92801 298.496 7.91132C298.556 7.90829 298.621 7.93559 298.69 7.94772C298.879 7.98412 299.018 8.05238 299.299 8.02356C299.516 8.00081 299.751 7.99473 299.982 7.99018C300.042 7.98866 300.134 8.01293 300.162 8.03265C300.217 8.06753 300.148 8.1085 299.991 8.13731C299.927 8.14945 299.839 8.14641 299.765 8.15096C299.461 8.16764 299.156 8.18584 298.852 8.19949C298.69 8.20707 298.538 8.22983 298.519 8.28595C298.506 8.32387 298.672 8.35723 298.829 8.3542C299.059 8.34964 299.29 8.33751 299.511 8.31779C299.903 8.28443 300.245 8.29352 300.563 8.38908C300.789 8.45581 300.775 8.43156 301.015 8.62873C301.075 8.67878 301.255 8.68333 301.412 8.68029C301.79 8.67271 301.966 8.69547 301.933 8.74249C301.892 8.80012 301.758 8.81831 301.587 8.8259C301.283 8.83803 300.978 8.85776 300.674 8.87444C300.6 8.87899 300.517 8.88808 300.448 8.88505C300.379 8.88202 300.314 8.86382 300.254 8.85017C300.125 8.82135 300.014 8.77736 299.876 8.76674C299.737 8.75612 299.576 8.77888 299.424 8.78798C299.271 8.79556 299.11 8.81831 298.972 8.8077C298.833 8.79708 298.718 8.75159 298.593 8.72429C298.533 8.71064 298.459 8.68939 298.4 8.6909C298.095 8.70304 297.791 8.72276 297.486 8.73793C297.112 8.75765 297.112 8.75765 296.66 8.66361C296.531 8.63631 296.397 8.63783 296.227 8.64997C295.858 8.67424 295.853 8.66967 295.179 8.5817C295.115 8.5726 295.036 8.56199 294.972 8.56654C294.284 8.60143 293.602 8.63934 292.919 8.67574C292.333 8.70759 292.333 8.7076 292.01 8.85928C291.77 8.97151 291.765 8.97151 292.001 9.02308C292.19 9.06555 292.36 9.12773 292.568 9.15048C292.762 9.17171 293.002 9.10346 293.214 9.17323C293.32 9.20812 293.458 9.24604 293.592 9.2521C293.804 9.25969 294.031 9.2157 294.234 9.28243C294.335 9.3158 294.487 9.3507 294.617 9.35221C294.843 9.35525 295.073 9.33097 295.299 9.32035C295.368 9.31732 295.447 9.31732 295.512 9.3249C295.581 9.334 295.641 9.35221 295.701 9.36738C295.885 9.41895 296.084 9.44321 296.323 9.41742C296.716 9.37495 297.066 9.39619 297.371 9.49326C297.412 9.50691 297.514 9.50843 297.578 9.50237C297.744 9.4872 297.887 9.48568 298.012 9.51449C298.063 9.52663 298.136 9.54785 298.127 9.5615C298.113 9.58426 298.058 9.61459 297.998 9.62218C297.564 9.67375 297.099 9.67982 296.651 9.70712C296.591 9.71016 296.517 9.69043 296.457 9.67678C296.328 9.64948 296.217 9.60398 296.079 9.59337C295.941 9.58275 295.779 9.60247 295.627 9.61005C295.475 9.61763 295.313 9.64039 295.175 9.63129C295.036 9.62067 294.907 9.58274 294.796 9.54938C294.667 9.51146 294.543 9.50692 294.372 9.52209C294.151 9.5418 293.92 9.54483 293.694 9.55545C293.569 9.52663 293.445 9.49477 293.316 9.46747C293.256 9.45382 293.182 9.43714 293.117 9.43866C292.813 9.45079 292.508 9.46898 292.204 9.48567C291.899 9.50235 291.899 9.50237 291.383 9.40833C291.323 9.39771 291.244 9.38558 291.179 9.38861C290.797 9.40681 290.418 9.42955 290.035 9.44775C289.888 9.45533 289.754 9.4341 289.634 9.39315C289.519 9.3522 289.38 9.32945 289.237 9.33703C288.628 9.36888 288.019 9.39922 287.41 9.43714C287.166 9.45231 286.958 9.43866 286.792 9.38406C286.598 9.32187 286.382 9.33704 286.156 9.34918C285.643 9.37951 285.639 9.37798 285.311 9.30063C285.247 9.28546 285.182 9.25664 285.122 9.25816C284.592 9.28091 284.056 9.30215 283.531 9.33855C283.254 9.35827 283.106 9.30518 282.922 9.26575C282.857 9.2521 282.788 9.22328 282.732 9.22631C282.349 9.243 281.966 9.25817 281.593 9.2885C281.219 9.31884 281.076 9.17779 280.795 9.1793C280.412 9.18082 280.033 9.21571 279.655 9.23694C279.351 9.25362 279.046 9.2703 278.742 9.28699C278.437 9.30367 278.133 9.31731 277.828 9.33703C277.667 9.34765 277.547 9.33399 277.413 9.29608C277.242 9.24603 277.039 9.20661 276.855 9.1611C276.574 9.09589 276.573 9.09588 276.232 9.11408C276.158 9.11863 276.08 9.12165 276.006 9.1262C275.448 9.15957 275.448 9.15655 274.737 9.061C274.705 9.05645 274.622 9.07313 274.59 9.08527C274.493 9.1247 274.405 9.16716 274.318 9.20811C274.193 9.18385 274.041 9.1702 273.958 9.13531C273.722 9.03673 273.353 9.17171 273.113 9.07464C273.026 9.03824 272.873 9.00639 272.735 8.99729C272.592 8.98819 272.431 9.00942 272.283 9.01852C271.9 9.04127 271.9 9.03976 271.572 9.17475C271.406 9.24149 271.167 9.22935 270.95 9.24451C270.724 9.2612 270.507 9.2703 270.318 9.20811C270.147 9.15199 269.939 9.13835 269.695 9.15655C269.395 9.1793 269.086 9.19294 268.781 9.2066C268.717 9.20963 268.638 9.20205 268.574 9.19295C267.868 9.10346 267.868 9.10195 267.527 9.12167C267.374 9.13077 267.217 9.13379 267.07 9.14744C266.821 9.17171 266.632 9.13986 266.452 9.09132C266.392 9.07615 266.322 9.04735 266.262 9.04887C265.958 9.05645 265.658 9.0701 265.358 9.08375C265.128 9.09437 264.897 9.10043 264.675 9.12167C264.306 9.15655 264.126 9.05795 263.873 9.01245C263.494 9.03217 263.112 9.04582 262.733 9.07312C262.558 9.08526 262.443 9.08072 262.309 9.04431C262.138 8.99881 261.981 8.94724 261.704 8.97C261.335 9.00033 260.948 9.01095 260.57 9.02915C260.316 8.98213 260.131 8.88657 259.767 8.92145C259.545 8.94268 259.31 8.94723 259.084 8.95937C258.78 8.97605 258.475 8.99123 258.171 9.00943C257.843 9.02763 257.848 9.02308 257.345 8.9336C257.054 8.88051 256.754 8.93966 256.459 8.94876C256.228 8.95634 256.113 9.02611 256.168 9.11559C256.224 9.20508 256.099 9.27485 255.887 9.28699C255.356 9.3158 254.821 9.34613 254.291 9.37191C254.226 9.37495 254.148 9.36433 254.088 9.35371C253.52 9.25816 253.52 9.25969 253.267 9.27334C252.888 9.29609 252.501 9.30821 252.127 9.33703C251.869 9.35675 251.68 9.32491 251.513 9.27334C251.384 9.23391 251.264 9.2248 251.098 9.2339C249.271 9.33552 247.444 9.42956 245.622 9.53421C245.35 9.54938 245.193 9.5054 245.009 9.46445C244.944 9.4508 244.884 9.42198 244.819 9.42198C244.667 9.42198 244.515 9.43563 244.363 9.44473C243.68 9.48113 242.997 9.52511 242.31 9.55241C242.019 9.56455 241.941 9.63432 241.816 9.69196C241.719 9.73594 241.609 9.75414 241.438 9.7602C241.272 9.76627 241.152 9.75868 241.023 9.71925C240.856 9.66768 240.667 9.63582 240.409 9.65706C240.109 9.68133 239.805 9.69196 239.495 9.70864C239.339 9.71622 239.219 9.74352 239.168 9.79812C239.159 9.80722 239.256 9.82998 239.311 9.84363C239.496 9.88913 239.671 9.94222 239.878 9.97407C240.091 10.0059 240.321 9.9695 240.543 9.9604C240.621 9.95737 240.695 9.94828 240.769 9.94979C240.838 9.95131 240.921 9.9589 240.972 9.97255C241.212 10.0408 241.465 10.0878 241.798 10.0469C242.084 10.0666 242.231 10.1925 242.596 10.1591C242.817 10.1394 243.048 10.1303 243.279 10.1227C243.339 10.1212 243.403 10.1485 243.468 10.1621C243.652 10.2001 243.8 10.2607 244.077 10.2349C244.372 10.2076 244.686 10.2031 244.986 10.1819C245.152 10.1697 245.271 10.1803 245.401 10.2198C245.567 10.2698 245.756 10.3077 246.014 10.2835C246.236 10.2622 246.471 10.2577 246.697 10.244C246.992 10.2273 246.992 10.2289 247.518 10.3229C247.578 10.3335 247.657 10.3457 247.721 10.3426C248.104 10.3244 248.482 10.3017 248.865 10.2835C249.013 10.2759 249.156 10.2956 249.258 10.3396C249.299 10.3578 249.285 10.3881 249.299 10.4139C248.538 10.4549 247.777 10.4898 247.02 10.5398C246.734 10.5595 246.605 10.4973 246.416 10.4624C246.351 10.4503 246.282 10.4245 246.222 10.4276C245.687 10.4534 245.156 10.4806 244.626 10.514C244.46 10.5246 244.335 10.5186 244.21 10.4746C243.892 10.3578 243.505 10.4215 243.145 10.4382C242.868 10.4503 242.78 10.4973 242.813 10.5974C242.854 10.7157 243.02 10.7521 243.445 10.7309C243.597 10.7233 243.749 10.7127 243.901 10.7066C244.049 10.7006 244.183 10.7203 244.303 10.7612C244.418 10.8022 244.556 10.8234 244.699 10.8174C245.004 10.8037 245.313 10.7901 245.608 10.7673C245.853 10.7491 246.056 10.7643 246.226 10.8204C246.416 10.8826 246.637 10.8689 246.859 10.8553C247.375 10.8249 247.38 10.8265 247.703 10.9023C247.767 10.9175 247.832 10.9463 247.892 10.9448C248.423 10.922 248.958 10.9023 249.479 10.8659C249.751 10.8477 249.908 10.8962 250.088 10.9357C250.153 10.9493 250.217 10.9797 250.277 10.9766C250.66 10.9599 251.043 10.9432 251.417 10.9144C251.592 10.9008 251.698 10.9099 251.841 10.9463C252.182 11.0358 252.192 11.0327 252.676 11.0039C252.824 10.9948 252.985 10.9781 253.124 10.9903C253.262 11.0024 253.373 11.0464 253.502 11.0737C253.562 11.0858 253.636 11.1025 253.7 11.0995C254.005 11.0873 254.309 11.0691 254.614 11.0525C254.9 11.0358 254.9 11.0373 255.435 11.1313C255.652 11.1708 255.878 11.1374 256.095 11.1253C256.33 11.1116 256.542 11.1116 256.722 11.1708C256.902 11.2299 257.119 11.2269 257.349 11.2147C257.566 11.2026 257.788 11.1693 258.009 11.2102C258.517 11.3042 258.517 11.3057 258.83 11.2875C259.287 11.2618 259.739 11.2375 260.201 11.2147C260.26 11.2117 260.339 11.2299 260.399 11.242C260.528 11.2694 260.639 11.3148 260.777 11.3255C260.916 11.3376 261.077 11.3194 261.225 11.3103C261.7 11.2815 261.732 11.2709 262.05 11.371C262.318 11.4529 262.65 11.3346 262.899 11.4286C263.042 11.4817 263.236 11.5242 263.504 11.4984C263.725 11.4771 263.956 11.4711 264.186 11.4589C264.551 11.4392 264.551 11.4407 265.012 11.5317C265.072 11.5439 265.151 11.559 265.211 11.556C265.515 11.5439 265.824 11.5333 266.12 11.506C266.466 11.4741 266.687 11.5317 266.945 11.5879C267.148 11.6319 267.388 11.5954 267.605 11.5803C267.84 11.5651 268.052 11.5697 268.228 11.6288C268.412 11.6895 268.629 11.6819 268.86 11.6698C269.077 11.6591 269.298 11.6243 269.52 11.6667C269.995 11.7608 269.995 11.7608 270.341 11.7426C270.645 11.7259 270.95 11.7077 271.254 11.6955C271.314 11.6925 271.388 11.7122 271.448 11.7259C271.577 11.7532 271.688 11.7987 271.826 11.8093C271.965 11.8199 272.126 11.8002 272.278 11.7926C272.431 11.785 272.592 11.7623 272.73 11.7714C272.869 11.7805 272.998 11.8184 273.109 11.8518C273.238 11.8912 273.358 11.8958 273.533 11.8806C273.755 11.8609 273.985 11.8563 274.211 11.8457C274.336 11.8745 274.465 11.9033 274.585 11.9352C274.71 11.9686 274.843 11.9655 275.014 11.9549C275.582 11.9185 275.586 11.9231 276.061 12.0171C276.278 12.0596 276.504 12.0247 276.721 12.0141C276.952 12.0019 277.169 11.9959 277.348 12.0565C277.524 12.1142 277.741 12.1217 277.971 12.1035C278.119 12.0914 278.276 12.0838 278.428 12.0793C278.497 12.0778 278.58 12.0838 278.631 12.096C278.876 12.1597 279.115 12.2173 279.452 12.1764C279.747 12.1885 279.895 12.3129 280.25 12.2886C280.55 12.2674 280.864 12.2628 281.159 12.2355C281.431 12.2112 281.625 12.2537 281.764 12.3068C282.013 12.4008 282.363 12.2734 282.612 12.3659C282.755 12.419 282.94 12.4615 283.217 12.4387C283.521 12.4145 283.618 12.4463 283.706 12.5419C283.757 12.5965 283.747 12.6405 283.655 12.6829C283.563 12.7269 283.461 12.7193 283.314 12.6693C283.143 12.6132 282.94 12.6025 282.695 12.6147C282.456 12.6268 282.308 12.548 282.11 12.5176C281.911 12.4858 281.676 12.5389 281.468 12.4979C280.979 12.4023 280.979 12.4023 280.647 12.4205C280.421 12.4327 280.186 12.4388 279.964 12.46C279.701 12.4858 279.531 12.4387 279.351 12.3963C279.286 12.3811 279.221 12.3523 279.166 12.3538C278.636 12.3766 278.1 12.3978 277.575 12.4357C277.298 12.4554 277.15 12.4008 276.966 12.3629C276.901 12.3493 276.832 12.322 276.776 12.325C276.32 12.3462 275.868 12.3735 275.411 12.3993C275.323 12.4403 275.226 12.4797 275.143 12.5237C275.056 12.5692 274.936 12.5889 274.76 12.5874C274.47 12.5874 274.184 12.6511 273.893 12.5707C273.593 12.4888 273.57 12.4933 273.28 12.5131C272.91 12.5389 272.518 12.5328 272.172 12.5919C272.112 12.6026 272.048 12.6314 272.048 12.6526C272.043 12.6662 272.14 12.686 272.2 12.6981C272.403 12.7345 272.638 12.6814 272.841 12.7193C272.975 12.7436 273.086 12.78 273.22 12.8058C273.275 12.8164 273.358 12.8149 273.432 12.8134C273.51 12.8119 273.584 12.8012 273.658 12.8028C273.727 12.8043 273.801 12.8134 273.856 12.827C274.11 12.8847 274.377 12.9377 274.604 13.006C274.825 13.0727 275.033 13.0272 275.254 13.0242C276.14 13.1304 276.14 13.1319 276.735 13.0985C276.883 13.0909 277.035 13.0818 277.187 13.0834C277.252 13.0834 277.312 13.1106 277.376 13.1258C277.561 13.1713 277.736 13.2123 277.994 13.188C278.216 13.1668 278.451 13.1622 278.677 13.1486C278.982 13.1319 278.982 13.1319 279.498 13.2274C279.628 13.2517 279.766 13.2487 279.932 13.2365C280.075 13.2259 280.223 13.2487 280.324 13.2927C280.366 13.3109 280.352 13.3412 280.366 13.367C279.909 13.3913 279.448 13.4079 279.005 13.4443C278.719 13.4671 278.59 13.4019 278.4 13.367C278.336 13.3549 278.267 13.3291 278.207 13.3321C277.755 13.3549 277.302 13.3806 276.85 13.411C276.795 13.414 276.726 13.4489 276.721 13.4701C276.712 13.5095 276.827 13.5475 276.993 13.5459C277.215 13.5444 277.432 13.5186 277.63 13.5808C277.796 13.6354 278.004 13.6597 278.248 13.6354C278.396 13.6218 278.553 13.6218 278.7 13.6097C279.092 13.5733 279.448 13.5808 279.743 13.684C279.969 13.7113 280.19 13.6855 280.407 13.6718C280.569 13.6612 280.726 13.6506 280.841 13.6794C281.085 13.7401 281.325 13.8008 281.662 13.7598C282.027 13.8023 282.303 13.8918 282.608 13.9646C282.751 13.9995 282.862 14.0192 283.028 13.9964C283.097 13.9873 283.18 13.9873 283.254 13.9828C283.406 13.9752 283.567 13.9524 283.706 13.9615C283.844 13.9721 283.96 14.0161 284.084 14.0434C284.144 14.0571 284.213 14.0798 284.273 14.0783C284.504 14.0707 284.73 14.0556 284.956 14.0434C285.182 14.0328 285.408 14.0222 285.634 14.0116C285.823 14.051 286.017 14.0905 286.206 14.1299C286.511 14.1132 286.815 14.0965 287.115 14.0814C287.452 14.0632 287.452 14.0647 287.936 14.1587C288.153 14.2012 288.384 14.1739 288.591 14.1542C288.937 14.1223 289.168 14.18 289.413 14.2406C289.463 14.2528 289.556 14.2603 289.616 14.2543C289.855 14.233 290.063 14.2497 290.238 14.3058C290.363 14.3453 290.487 14.3635 290.64 14.3559C291.17 14.3271 291.701 14.2967 292.231 14.2709C292.296 14.2679 292.37 14.2816 292.43 14.2937C292.9 14.3862 292.905 14.3908 293.251 14.3665C293.56 14.3453 293.846 14.3362 294.091 14.4196C294.141 14.4378 294.22 14.4636 294.275 14.4621C294.653 14.4469 295.036 14.4302 295.41 14.4044C295.581 14.3923 295.701 14.3968 295.834 14.4317C296.005 14.4757 296.157 14.5288 296.439 14.5091C297.218 14.453 297.223 14.462 298.146 14.5667C298.21 14.5743 298.298 14.5622 298.372 14.5561C298.529 14.5409 298.644 14.5622 298.782 14.597C299.091 14.6759 299.101 14.6714 299.396 14.6547C299.622 14.641 299.857 14.638 300.079 14.6152C300.42 14.5819 300.646 14.641 300.9 14.6972C301.103 14.7411 301.338 14.7047 301.555 14.6911C301.79 14.6759 302.003 14.6805 302.178 14.7381C302.298 14.7775 302.427 14.7988 302.579 14.7912C303.11 14.7639 303.64 14.7335 304.171 14.7062C304.235 14.7032 304.314 14.7153 304.374 14.726C304.9 14.82 304.9 14.8246 305.421 14.7897C305.587 14.7791 305.726 14.776 305.85 14.8079C305.97 14.8382 306.099 14.867 306.224 14.8958C306.45 14.8852 306.681 14.8822 306.902 14.864C307.073 14.8503 307.193 14.8564 307.326 14.8883C307.502 14.9292 307.649 15.0005 307.926 14.9656C308.069 14.9489 308.235 14.9535 308.378 14.9383C308.549 14.9186 308.664 14.9307 308.798 14.9702C308.964 15.0172 309.135 15.0657 309.402 15.0414C309.698 15.0141 310.011 15.0096 310.311 14.9884C310.477 14.9762 310.593 14.9884 310.727 15.0278C310.893 15.0778 311.082 15.1097 311.34 15.09C311.866 15.0521 311.871 15.0596 312.383 15.1552C312.512 15.1795 312.65 15.1764 312.816 15.1643C312.959 15.1537 313.107 15.1764 313.208 15.2204C313.305 15.269 313.296 15.2993 313.305 15.3251ZM272.195 1.64571C272.043 1.6533 271.891 1.6624 271.669 1.53044C271.656 1.50769 271.665 1.4804 271.633 1.46068C271.559 1.41973 271.443 1.39091 271.305 1.38636C271.056 1.38029 270.756 1.43185 270.761 1.47129C270.765 1.50466 270.844 1.53347 270.996 1.56077C271.06 1.57139 271.111 1.58959 271.171 1.60172C271.346 1.63661 271.485 1.70487 271.739 1.66999C271.693 1.57595 271.716 1.62297 271.739 1.66999C271.716 1.72762 271.785 1.76858 271.951 1.78526C271.997 1.78981 272.066 1.78677 272.103 1.77767C272.246 1.7443 272.269 1.69881 272.163 1.57899C272.145 1.59871 272.158 1.63358 272.2 1.64268C272.241 1.65178 272.343 1.6442 272.394 1.63359C272.523 1.60477 272.587 1.56685 272.555 1.535C272.537 1.51831 272.449 1.49708 272.394 1.49708C272.297 1.49708 272.209 1.53044 272.195 1.64571ZM309.499 19.2352C309.162 19.264 308.775 19.2534 308.438 19.3125C308.378 19.3232 308.318 19.3505 308.314 19.3717C308.309 19.3854 308.401 19.4051 308.457 19.4157C308.581 19.44 308.72 19.4324 308.881 19.4248C309.126 19.4142 309.269 19.4839 309.458 19.5188C309.518 19.5294 309.596 19.537 309.661 19.534C310.034 19.5158 310.404 19.4961 310.777 19.4748C310.842 19.4703 310.911 19.4597 310.966 19.446C311.151 19.402 311.132 19.3732 310.953 19.3399C310.754 19.3035 310.597 19.2428 310.394 19.214C310.104 19.173 309.808 19.2276 309.499 19.2352ZM283.3 20.3424C283.074 20.3545 282.852 20.3667 282.626 20.3788C282.552 20.3834 282.474 20.3849 282.405 20.3909C282.262 20.4016 282.156 20.4334 282.086 20.4835C282.193 20.5229 282.322 20.5456 282.465 20.5411C282.691 20.532 282.912 20.5123 283.138 20.5077C283.383 20.5017 283.526 20.5699 283.715 20.6048C283.775 20.6154 283.849 20.6169 283.918 20.6184C284.259 20.6245 284.467 20.5456 284.402 20.4349C284.356 20.3485 284.181 20.2969 283.969 20.3075C283.747 20.3181 283.521 20.3303 283.3 20.3424ZM311.077 16.9935C311.132 16.9677 311.192 16.9495 311.22 16.9267C311.303 16.8494 311.271 16.7917 311.119 16.7311C310.934 16.6568 310.708 16.7068 310.5 16.7144C310.45 16.7159 310.394 16.7478 310.367 16.7675C310.348 16.7811 310.348 16.81 310.376 16.8175C310.602 16.8782 310.842 16.9343 311.077 16.9935ZM271.056 12.5131C270.834 12.5252 270.608 12.5343 270.387 12.551C270.332 12.5555 270.281 12.5843 270.249 12.6041C270.189 12.6405 270.253 12.6905 270.442 12.6951C270.659 12.7011 270.885 12.6754 271.111 12.6632C271.397 12.6481 271.568 12.5919 271.462 12.5434C271.36 12.4964 271.222 12.4873 271.056 12.5131ZM28.2109 9.27182C28.3585 9.26424 28.5108 9.25817 28.6584 9.24755C28.7968 9.23693 28.903 9.20357 28.9722 9.15351C28.8569 9.11408 28.7276 9.09284 28.5846 9.09739C28.3586 9.1065 28.1371 9.11863 27.9157 9.13379C27.7773 9.1429 27.6436 9.17626 27.6113 9.22783C27.579 9.26727 27.888 9.29002 28.2109 9.27182ZM251.546 9.03824C251.606 9.05189 251.666 9.0792 251.726 9.0792C251.873 9.0792 252.026 9.07009 252.164 9.05492C252.224 9.04886 252.27 9.02156 252.298 9.00032C252.316 8.98667 252.312 8.96241 252.284 8.95028C252.15 8.87747 251.615 8.90326 251.527 8.98668C251.518 9.00184 251.541 9.02156 251.546 9.03824ZM236.99 0.732642C237.004 0.75691 237.009 0.781175 237.027 0.805442C237.064 0.850944 237.166 0.884319 237.313 0.90707C237.429 0.869152 237.489 0.82669 237.484 0.781188C237.48 0.75692 237.466 0.732637 237.447 0.70837C237.41 0.662868 237.309 0.629512 237.161 0.606761C237.046 0.643162 236.99 0.685624 236.99 0.732642ZM321.739 20.6063C321.697 20.626 321.656 20.6458 321.609 20.664C321.734 20.7079 321.849 20.7216 321.937 20.6973C321.992 20.6822 322.025 20.6594 322.066 20.6397C321.942 20.5957 321.831 20.5836 321.739 20.6063ZM318.869 20.8126C318.929 20.8262 318.984 20.8444 319.049 20.8535C319.155 20.8687 319.252 20.8429 319.326 20.7883C319.266 20.7747 319.211 20.7565 319.146 20.7474C319.04 20.7322 318.943 20.758 318.869 20.8126ZM320.687 20.535C320.654 20.5714 320.719 20.6018 320.89 20.6276C320.931 20.6078 320.987 20.5896 321.014 20.5684C321.061 20.5335 320.982 20.5017 320.816 20.4774C320.77 20.4956 320.728 20.5153 320.687 20.535ZM310.948 18.9C310.916 18.9364 310.98 18.9667 311.151 18.9925C311.192 18.9728 311.248 18.9546 311.275 18.9334C311.322 18.8985 311.243 18.8666 311.077 18.8424C311.031 18.8606 310.989 18.8803 310.948 18.9ZM297.68 8.16764C297.638 8.18736 297.597 8.20708 297.551 8.22528C297.675 8.26926 297.79 8.28291 297.878 8.25864C297.933 8.24347 297.966 8.22072 298.007 8.201C297.883 8.15702 297.772 8.14489 297.68 8.16764ZM284.97 2.47384C285.081 2.48446 285.173 2.46323 285.251 2.40711C285.191 2.39346 285.136 2.37526 285.071 2.36616C284.965 2.35099 284.868 2.37679 284.795 2.43139C284.855 2.44655 284.914 2.46019 284.97 2.47384ZM278.22 2.11741C278.179 2.13713 278.137 2.15685 278.091 2.17505C278.216 2.21904 278.331 2.23268 278.419 2.20841C278.474 2.19325 278.507 2.1705 278.548 2.15078C278.423 2.10679 278.313 2.09618 278.22 2.11741ZM232.451 0.731124C232.409 0.750842 232.368 0.77056 232.322 0.788761C232.446 0.832746 232.562 0.846392 232.649 0.822124C232.705 0.806957 232.737 0.784205 232.778 0.764488C232.654 0.720503 232.543 0.70989 232.451 0.731124ZM4.55337 13.0712C4.4934 13.0576 4.43348 13.0439 4.37811 13.0288C4.24433 13.0697 4.20282 13.1076 4.27663 13.1364C4.32277 13.1546 4.39191 13.1653 4.45189 13.1789C4.59029 13.138 4.62257 13.1015 4.55337 13.0712Z" fill="#FFE492"/>
</svg>
