<svg width="257" height="45" viewBox="0 0 257 45" fill="none" xmlns="http://www.w3.org/2000/svg">
<path d="M241.322 23.9017C240.97 23.9387 240.615 23.9641 240.27 24.0196C240.046 24.0543 239.95 23.9526 239.801 23.8994C239.751 23.8809 239.698 23.8439 239.652 23.8485C239.304 23.8855 238.955 23.9271 238.607 23.9687C238.501 24.0589 238.433 24.1792 238.27 24.2231C238.11 24.2647 237.921 24.2647 237.744 24.2856C237.509 24.311 237.275 24.3365 237.04 24.3596C236.923 24.3711 236.827 24.4151 236.788 24.4983C236.781 24.5122 236.859 24.5469 236.902 24.5677C237.044 24.6371 237.182 24.7157 237.339 24.7689C237.488 24.8198 237.673 24.7365 237.833 24.8013C238.192 24.947 238.195 24.9446 238.469 24.9169C238.703 24.8915 238.938 24.8637 239.172 24.8452C239.218 24.8406 239.272 24.8753 239.321 24.8938C239.471 24.9447 239.567 25.0603 239.787 25.0163C239.954 24.9817 240.139 24.9747 240.313 24.9562C240.459 25.0233 240.594 25.0996 240.75 25.1528C240.896 25.2037 240.938 25.243 240.86 25.3101C240.789 25.3725 240.69 25.3979 240.558 25.4026C240.441 25.4049 240.324 25.4257 240.206 25.4372C240.146 25.4442 240.089 25.4488 240.032 25.4557C239.808 25.4812 239.808 25.4812 239.4 25.3332C239.24 25.2754 239.059 25.3563 238.906 25.3008C238.803 25.2638 238.714 25.2083 238.614 25.169C238.572 25.1528 238.504 25.1505 238.451 25.1551C238.273 25.1713 238.096 25.1828 237.925 25.2129C237.804 25.2337 237.733 25.2985 237.747 25.3632C237.751 25.3887 237.836 25.4257 237.886 25.428C238 25.4326 238.12 25.4002 238.231 25.4164C238.337 25.4326 238.447 25.4789 238.526 25.5297C238.685 25.6361 238.867 25.5413 239.019 25.5691C239.179 25.5991 239.311 25.6916 239.464 25.7471C239.503 25.761 239.577 25.7379 239.638 25.7309C239.812 25.7147 239.986 25.7009 240.16 25.6847C240.306 25.7518 240.462 25.8119 240.594 25.8882C240.832 26.027 241.088 26.0801 241.397 26.0131C241.571 25.9761 241.741 25.9899 241.88 26.0801C242.022 26.1726 242.186 26.1634 242.367 26.1449C242.534 26.1264 242.704 26.0755 242.875 26.1403C243.245 26.2836 243.248 26.2906 243.685 26.2351C243.817 26.2189 243.916 26.2143 244.016 26.2675C244.108 26.316 244.207 26.3577 244.303 26.4039C244.478 26.3877 244.655 26.3715 244.829 26.353C245.053 26.3276 245.178 26.36 245.231 26.4895C245.263 26.5681 245.277 26.6398 245.355 26.693C245.448 26.7577 245.547 26.7554 245.682 26.7369C245.81 26.7207 245.902 26.6953 245.956 26.612C245.977 26.5774 246.02 26.545 246.059 26.5172C246.091 26.4964 246.141 26.464 246.169 26.4687C246.222 26.4779 246.293 26.5033 246.311 26.5334C246.485 26.8132 246.485 26.8155 246.663 26.8965C246.858 26.9867 247.061 27.0676 247.239 27.1694C247.398 27.2595 247.558 27.2203 247.732 27.2203C247.864 27.2203 247.949 27.2804 247.939 27.3405C247.932 27.3752 247.882 27.4261 247.839 27.4307C247.491 27.4769 247.139 27.5162 246.787 27.5486C246.745 27.5533 246.691 27.5116 246.642 27.4908C246.542 27.4492 246.453 27.3844 246.347 27.3706C246.24 27.3567 246.116 27.3914 245.998 27.4029C245.881 27.4145 245.757 27.4446 245.65 27.4261C245.544 27.4076 245.458 27.3405 245.359 27.2966C245.313 27.2757 245.249 27.2457 245.21 27.2526C244.95 27.3081 244.758 27.2318 244.574 27.1301C244.534 27.1092 244.467 27.0954 244.417 27.1C244.005 27.1393 243.596 27.1855 243.184 27.2295C243.017 27.248 242.882 27.167 242.846 27.0306C242.829 26.9543 242.793 26.878 242.793 26.8017C242.793 26.6629 242.598 26.5866 242.456 26.6028C242.221 26.6259 241.983 26.6444 241.752 26.6791C241.564 26.7068 241.404 26.6791 241.276 26.5958C241.127 26.501 240.956 26.5195 240.786 26.545C240.658 26.5635 240.622 26.6398 240.629 26.8317C240.636 26.9867 240.576 27.0352 240.345 27.0607C240.053 27.093 239.759 27.1254 239.464 27.1509C239.417 27.1555 239.364 27.1162 239.318 27.0954C239.218 27.0537 239.13 26.9867 239.023 26.9728C238.916 26.9566 238.792 26.9913 238.675 27.0052C238.557 27.0167 238.433 27.0491 238.327 27.0329C238.22 27.0167 238.131 26.9474 238.035 26.9034C237.989 26.8826 237.932 26.8525 237.886 26.8572C237.651 26.8757 237.417 26.9034 237.182 26.9289C236.919 26.9566 236.919 26.9566 236.546 26.8132C236.376 26.7485 236.205 26.7994 236.038 26.8179C235.86 26.8364 235.693 26.8456 235.555 26.7531C235.462 26.693 235.359 26.656 235.249 26.6675C234.954 26.6953 234.663 26.73 234.368 26.7577C234.318 26.7624 234.251 26.7508 234.212 26.73C234.023 26.6329 233.839 26.5565 233.576 26.6051C233.348 26.6467 233.103 26.649 232.876 26.6883C232.751 26.7092 232.694 26.7832 232.719 26.841C232.733 26.8711 232.808 26.9057 232.858 26.9057C232.971 26.9081 233.096 26.8734 233.202 26.8872C233.423 26.915 233.533 27.1092 233.821 27.056C233.991 27.0237 234.169 27.0121 234.347 27.0029C234.393 27.0005 234.443 27.0445 234.492 27.0676C234.634 27.1301 234.759 27.211 234.965 27.1694C235.136 27.137 235.317 27.1278 235.491 27.1093C235.768 27.0792 235.768 27.0815 236.127 27.2226C236.298 27.2896 236.468 27.2364 236.635 27.2203C236.759 27.2087 236.877 27.1856 236.976 27.2179C237.129 27.2665 237.239 27.3775 237.427 27.3706C237.605 27.3636 237.779 27.3312 237.957 27.3197C238.067 27.3127 238.17 27.3498 238.259 27.4122C238.351 27.4746 238.451 27.5024 238.572 27.4885C238.746 27.47 238.923 27.4469 239.101 27.4353C239.151 27.433 239.208 27.4538 239.254 27.4723C239.353 27.5139 239.449 27.5625 239.545 27.6064C239.719 27.5926 239.897 27.588 240.068 27.5602C240.199 27.5394 240.292 27.5486 240.398 27.5949C240.533 27.6573 240.643 27.7683 240.864 27.7152C240.974 27.6897 241.102 27.6966 241.212 27.6735C241.347 27.6435 241.439 27.655 241.535 27.7244C241.717 27.8562 241.944 27.8585 242.178 27.8076C242.434 27.7521 242.626 27.8169 242.818 27.9187C243.021 28.025 243.021 28.0227 243.177 28.2794C243.223 28.3534 243.355 28.3881 243.465 28.3742C243.65 28.3511 243.81 28.3627 243.945 28.4505C244.087 28.5454 244.257 28.5338 244.431 28.5084C244.662 28.4737 244.893 28.4436 245.082 28.5777C245.174 28.6425 245.274 28.6587 245.398 28.6425C245.75 28.6008 246.105 28.5754 246.45 28.5246C246.659 28.4922 246.78 28.5662 246.922 28.6286C247.114 28.7142 247.324 28.7905 247.324 28.9732C247.324 29.0033 247.374 29.0379 247.416 29.0611C247.509 29.1096 247.608 29.1513 247.704 29.1975C247.846 29.2669 247.985 29.3247 248.18 29.2877C248.351 29.2576 248.532 29.2484 248.706 29.2276C248.88 29.2068 249.04 29.1952 249.197 29.2831C249.378 29.3825 249.57 29.4773 249.776 29.5513C249.921 29.6045 250.113 29.5143 250.27 29.586C250.366 29.63 250.458 29.6808 250.561 29.7178C250.604 29.734 250.671 29.7225 250.728 29.7178C250.845 29.7086 250.966 29.7017 251.08 29.6785C251.211 29.6531 251.311 29.6577 251.41 29.7109C251.503 29.7595 251.595 29.8265 251.702 29.8404C251.862 29.8612 252.039 29.7687 252.199 29.8751C252.281 29.9283 252.384 29.9792 252.491 29.9954C252.597 30.0116 252.722 29.9768 252.835 29.9792C252.885 29.9792 252.945 30.0162 252.974 30.0462C252.992 30.0624 252.967 30.1064 252.942 30.1295C252.91 30.1572 252.864 30.1942 252.817 30.1989C252.466 30.2405 252.114 30.2752 251.762 30.3145C251.552 30.3376 251.552 30.3376 251.13 30.1919C251.03 30.1572 250.92 30.1642 250.796 30.1804C250.629 30.2012 250.458 30.2405 250.284 30.1989C250.057 30.0416 249.776 30.0277 249.477 30.0878C249.353 30.1133 249.239 30.1133 249.147 30.0694C248.951 29.9815 248.745 29.9006 248.571 29.7965C248.436 29.7155 248.372 29.7086 248.315 29.8196C248.298 29.8543 248.28 29.8913 248.283 29.9237C248.305 30.0393 248.344 30.1526 248.365 30.2682C248.372 30.3006 248.344 30.3376 248.326 30.3723C248.269 30.4694 248.195 30.4625 248.07 30.3815C247.946 30.3006 247.796 30.2474 247.597 30.2844C247.427 30.3168 247.242 30.3122 247.072 30.3469C246.809 30.3978 246.624 30.3238 246.436 30.2243C246.396 30.2035 246.329 30.1919 246.279 30.1966C245.75 30.2497 245.224 30.3099 244.694 30.3631C244.581 30.3746 244.478 30.3399 244.389 30.2775C244.296 30.2151 244.193 30.1827 244.08 30.1942C243.61 30.2428 243.141 30.2868 242.672 30.3469C242.48 30.3723 242.328 30.3422 242.196 30.2613C242.097 30.2012 242.004 30.1827 241.88 30.1896C241.745 30.1966 241.649 30.2197 241.582 30.2868C241.518 30.3515 241.564 30.3908 241.706 30.4417C241.859 30.4972 242.001 30.5689 242.146 30.6336C242.264 30.6244 242.381 30.6059 242.495 30.6082C242.544 30.6082 242.591 30.6498 242.64 30.6729C242.783 30.74 242.914 30.8071 243.117 30.7701C243.287 30.7377 243.468 30.7308 243.642 30.7099C243.884 30.6845 243.884 30.6845 244.275 30.8302C244.374 30.8672 244.481 30.8649 244.609 30.8441C244.719 30.8279 244.833 30.8603 244.911 30.9296C244.943 30.9574 244.932 31.0037 244.865 31.1563C244.865 31.2696 244.939 31.2187 244.964 31.1447C245.003 31.0383 244.929 31.0037 244.787 31.0615C244.687 31.1031 244.637 31.1632 244.662 31.2118C244.677 31.2372 244.744 31.2696 244.865 31.1563C245.178 31.0175 245.416 31.0013 245.643 30.9643C245.778 30.9435 245.863 30.9528 245.97 31.0129C246.098 31.0846 246.226 31.1609 246.436 31.1239C246.663 31.0823 246.905 31.0776 247.136 31.0429C247.349 31.0106 247.459 31.1123 247.594 31.1725C247.757 31.2442 247.939 31.1632 248.088 31.2048C248.244 31.2465 248.354 31.3482 248.536 31.3667C248.799 31.3043 248.966 31.4199 249.165 31.4962C249.321 31.554 249.506 31.5032 249.673 31.4777C249.861 31.45 250.017 31.4754 250.149 31.5587C250.298 31.6535 250.465 31.6327 250.636 31.6119C251.034 31.5656 251.048 31.5587 251.279 31.6859C251.446 31.7784 251.606 31.7367 251.773 31.7252C251.918 31.7876 252.061 31.8547 252.213 31.9102C252.253 31.924 252.327 31.9009 252.388 31.894C252.562 31.8755 252.739 31.857 252.913 31.8385C253.031 31.8269 253.155 31.7922 253.262 31.8061C253.368 31.8223 253.457 31.8894 253.553 31.9333C253.649 31.9773 253.749 32.0212 253.841 32.0674C253.983 32.1368 254.118 32.1946 254.317 32.1599C254.488 32.1299 254.665 32.1206 254.843 32.0998C255.067 32.0744 255.06 32.0813 255.475 32.2201C255.699 32.2964 255.93 32.2039 256.158 32.1946C256.271 32.19 256.382 32.2155 256.46 32.2825C256.492 32.3103 256.481 32.3565 256.492 32.3958C255.905 32.4583 255.316 32.5115 254.736 32.5878C254.512 32.6178 254.395 32.5346 254.274 32.4652C254.075 32.3542 253.812 32.5161 253.624 32.3727C253.51 32.2871 253.347 32.2386 253.152 32.2802C253.038 32.3033 252.917 32.301 252.8 32.3218C252.501 32.3727 252.228 32.375 251.99 32.2154C251.908 32.1599 251.791 32.1299 251.705 32.0767C251.606 32.0189 251.51 31.9865 251.393 31.998C250.863 32.0536 250.337 32.1091 249.811 32.1692C249.765 32.1738 249.719 32.2085 249.68 32.2339C249.58 32.2987 249.612 32.3496 249.772 32.3912C249.825 32.4051 249.868 32.4351 249.918 32.4583C250.014 32.5022 250.103 32.5716 250.209 32.5878C250.316 32.604 250.44 32.5716 250.558 32.56C250.675 32.5485 250.799 32.5138 250.906 32.5276C251.012 32.5438 251.101 32.6109 251.201 32.6525C251.247 32.6733 251.304 32.708 251.35 32.7057C251.584 32.6918 251.815 32.6664 252.05 32.6456C252.196 32.708 252.32 32.7982 252.494 32.819C252.604 32.8329 252.722 32.8075 252.835 32.8121C252.885 32.8144 252.949 32.8491 252.974 32.8792C252.988 32.8977 252.942 32.9439 252.906 32.967C252.771 33.0549 252.587 33.0387 252.42 33.0665C252.238 33.0965 252.075 33.0873 251.936 32.9971C251.844 32.937 251.741 32.9046 251.627 32.9162C251.332 32.9462 251.041 32.9809 250.746 33.0064C250.696 33.011 250.636 32.9902 250.589 32.974C250.216 32.8329 250.216 32.8283 249.953 32.8584C249.566 32.9023 249.566 32.9023 249.307 32.7797C249.257 32.7566 249.204 32.7127 249.161 32.715C248.749 32.752 248.34 32.789 247.932 32.8422C247.796 32.8583 247.704 32.8584 247.605 32.7982C247.519 32.7473 247.42 32.6895 247.313 32.6757C247.203 32.6618 247.082 32.6965 246.965 32.708C246.848 32.7196 246.723 32.7497 246.62 32.7312C246.514 32.7127 246.421 32.6479 246.329 32.6017C246.233 32.5531 246.13 32.5554 245.998 32.5739C245.593 32.6271 245.59 32.6202 245.188 32.4768C245.142 32.4606 245.082 32.4421 245.032 32.4467C244.737 32.4745 244.446 32.5091 244.151 32.5369C244.037 32.5485 243.927 32.5184 243.849 32.4513C243.817 32.4236 243.827 32.3773 243.806 32.2871C243.781 32.2663 243.809 32.3033 243.817 32.338C243.87 32.3334 243.934 32.338 243.973 32.3195C244.072 32.2756 244.122 32.2177 244.097 32.1692C244.083 32.1437 244.016 32.1114 243.973 32.1114C243.895 32.1114 243.827 32.1622 243.806 32.2871C243.582 32.3634 243.344 32.3796 243.113 32.4166C242.978 32.4398 242.893 32.4282 242.786 32.3681C242.658 32.2941 242.527 32.2224 242.317 32.2594C242.09 32.301 241.848 32.308 241.613 32.3403C241.343 32.3773 241.226 32.1692 240.999 32.1738C240.764 32.1784 240.53 32.2178 240.295 32.2455C240.089 32.2686 240.089 32.2686 239.663 32.1183C239.506 32.0628 239.322 32.1437 239.169 32.0859C239.066 32.0489 238.977 31.9934 238.877 31.9541C238.835 31.9379 238.767 31.9379 238.714 31.9425C238.419 31.9703 238.12 31.9888 237.836 32.0397C237.513 32.0998 237.268 32.0351 237.037 31.8986C236.745 31.9241 236.45 31.9379 236.163 31.9819C235.953 32.0142 235.832 31.9379 235.69 31.8755C235.64 31.8547 235.598 31.82 235.544 31.8107C235.491 31.8015 235.427 31.82 235.37 31.8269C235.135 31.8524 234.894 31.8639 234.666 31.9056C234.386 31.9588 234.279 31.7691 234.062 31.746C233.917 31.8593 233.839 32.0142 233.551 32.0258C233.316 32.035 233.082 32.0721 232.847 32.0975C232.73 32.1091 232.613 32.1229 232.495 32.1345C232.307 32.1553 232.218 32.2455 232.257 32.3843C232.279 32.4606 232.296 32.5369 232.314 32.6132C232.35 32.7496 232.261 32.8653 232.112 32.8815C231.699 32.9254 231.291 32.9716 230.878 33.011C230.768 33.0225 230.662 32.9832 230.573 32.9208C230.48 32.8583 230.377 32.8306 230.264 32.8422C229.852 32.8861 229.443 32.9324 229.031 32.9717C228.985 32.9763 228.924 32.9532 228.878 32.9347C228.778 32.893 228.682 32.8445 228.587 32.8005C228.352 32.8214 228.121 32.8352 227.89 32.863C227.517 32.9046 227.517 32.9069 227.243 32.7797C227.194 32.7566 227.144 32.7127 227.098 32.715C226.92 32.7242 226.746 32.7473 226.568 32.7682C226.046 32.8283 226.046 32.8283 225.893 32.7589C225.754 32.6941 225.63 32.6155 225.42 32.6525C225.193 32.6942 224.951 32.708 224.717 32.7312C224.543 32.7473 224.369 32.7659 224.194 32.7705C224.148 32.7728 224.099 32.7288 224.049 32.7057C223.907 32.634 223.768 32.5762 223.573 32.6155C223.459 32.6386 223.338 32.6433 223.221 32.6548C222.915 32.6872 222.915 32.6872 222.414 32.5484C222.364 32.5346 222.304 32.5184 222.254 32.5253C221.842 32.567 221.433 32.6132 221.021 32.6525C220.971 32.6572 220.911 32.6433 220.861 32.6317C220.3 32.4976 220.3 32.4976 219.703 32.5623C219.475 32.5855 219.468 32.5947 219.23 32.4721C219.124 32.419 219.035 32.3935 218.91 32.4097C218.441 32.4652 217.969 32.5022 217.503 32.567C217.294 32.5947 217.173 32.5253 217.031 32.4629C216.981 32.4421 216.928 32.3958 216.885 32.3982C216.416 32.4421 215.947 32.4953 215.478 32.5392C215.435 32.5438 215.382 32.4976 215.332 32.4768C215.236 32.4351 215.144 32.3727 215.037 32.3588C214.927 32.345 214.806 32.3796 214.685 32.3912C214.39 32.4213 214.39 32.419 214.049 32.2825C214.003 32.264 213.943 32.2386 213.897 32.2432C213.427 32.2894 212.955 32.3288 212.489 32.3958C212.223 32.4328 212.042 32.3658 211.853 32.2686C211.814 32.2478 211.747 32.2386 211.697 32.2432C211.167 32.2964 210.642 32.3565 210.112 32.4097C210.002 32.4213 209.895 32.3819 209.806 32.3218C209.664 32.227 209.497 32.2386 209.32 32.2594C208.911 32.3079 208.907 32.3056 208.666 32.1946C208.616 32.1715 208.573 32.1414 208.52 32.1299C208.47 32.1183 208.406 32.1253 208.353 32.1299C208.119 32.153 207.884 32.1784 207.65 32.2039C207.415 32.2293 207.177 32.2432 206.946 32.2825C206.662 32.3311 206.527 32.1807 206.328 32.1114C206.036 32.1414 205.738 32.1599 205.45 32.2085C205.23 32.2455 205.127 32.1437 204.981 32.0906C204.931 32.0721 204.878 32.0327 204.832 32.0374C204.302 32.0882 203.773 32.1437 203.247 32.2062C203.119 32.2201 203.034 32.2016 202.927 32.1461C202.689 32.0212 202.678 32.0258 202.28 32.0721C202.106 32.0929 201.939 32.1114 201.79 32.0166C201.658 31.931 201.499 31.9102 201.31 31.9379C201.079 31.9726 200.841 31.9911 200.607 32.0143C200.372 32.0397 200.138 32.0744 199.903 32.0859C199.715 32.0975 199.601 31.9888 199.452 31.9333C199.406 31.9171 199.342 31.9148 199.288 31.9194C199.054 31.9402 198.812 31.9564 198.585 31.9957C198.308 32.0443 198.155 31.9171 197.959 31.8431C197.917 31.8269 197.846 31.8362 197.792 31.8431C197.38 31.8848 196.971 31.931 196.559 31.9749C196.414 31.9125 196.264 31.8524 196.119 31.7899C195.884 31.8131 195.65 31.8385 195.415 31.8616C195.237 31.8801 195.056 31.8871 194.889 31.9217C194.672 31.968 194.566 31.8593 194.42 31.8061C194.37 31.7876 194.317 31.7483 194.271 31.7529C193.976 31.7784 193.681 31.8061 193.39 31.8454C193.112 31.8848 193.002 31.6766 192.775 31.6789C192.54 31.6812 192.299 31.7113 192.071 31.7529C191.808 31.8015 191.623 31.7275 191.435 31.628C191.396 31.6072 191.329 31.5957 191.279 31.6003C190.984 31.628 190.693 31.6627 190.398 31.6905C190.348 31.6951 190.287 31.6836 190.238 31.6697C189.676 31.5332 189.676 31.5309 189.431 31.5587C189.257 31.5772 189.079 31.6003 188.902 31.6119C188.852 31.6165 188.791 31.5957 188.745 31.5772C188.376 31.4361 188.376 31.4338 188.109 31.4615C187.875 31.487 187.64 31.5124 187.406 31.5378C187.26 31.4754 187.111 31.4153 186.965 31.3529C186.674 31.3829 186.375 31.406 186.087 31.4477C185.952 31.4662 185.863 31.4592 185.76 31.4014C185.632 31.332 185.504 31.2511 185.291 31.2904C185.064 31.332 184.822 31.3367 184.591 31.3713C184.314 31.413 184.2 31.2025 183.976 31.2048C183.742 31.2072 183.5 31.2372 183.273 31.2788C183.01 31.3274 182.825 31.2534 182.637 31.154C182.598 31.1332 182.53 31.1216 182.48 31.1262C181.834 31.1933 181.191 31.2603 180.544 31.332C180.146 31.376 180.146 31.3783 179.389 31.2511C179.336 31.2418 179.279 31.2326 179.225 31.2372C178.991 31.258 178.749 31.2742 178.522 31.3135C178.245 31.3621 178.092 31.2372 177.896 31.1609C177.854 31.1447 177.786 31.154 177.729 31.1586C177.552 31.1748 177.378 31.1956 177.2 31.2141C176.965 31.2395 176.731 31.265 176.496 31.2904C176.351 31.2303 176.201 31.1678 176.056 31.1077C175.764 31.1378 175.466 31.154 175.178 31.2025C174.958 31.2395 174.855 31.1424 174.709 31.0869C174.659 31.0684 174.606 31.0291 174.56 31.0314C174.03 31.0823 173.501 31.1355 172.975 31.2002C172.758 31.228 172.659 31.1239 172.513 31.0707C172.463 31.0545 172.406 31.0245 172.36 31.0291C172.008 31.0615 171.657 31.1008 171.305 31.1401C171.106 31.1632 171.106 31.1632 170.672 31.0198C170.623 31.0036 170.566 30.9875 170.516 30.9921C169.4 31.1077 168.288 31.2303 167.172 31.3459C167.058 31.3575 166.955 31.3228 166.867 31.2603C166.774 31.1979 166.671 31.1655 166.557 31.1771C166.088 31.2257 165.616 31.2696 165.15 31.3297C164.958 31.3552 164.806 31.3251 164.674 31.2441C164.575 31.184 164.482 31.1609 164.358 31.1748C164.123 31.2025 163.889 31.2256 163.654 31.2511C163.42 31.2765 163.185 31.302 162.951 31.3274C162.716 31.3529 162.478 31.3667 162.247 31.406C161.963 31.4546 161.824 31.3112 161.629 31.2395C161.277 31.2742 160.925 31.3089 160.577 31.3459C160.108 31.3945 159.639 31.4477 159.17 31.4939C159.127 31.4985 159.074 31.4569 159.024 31.4361C158.878 31.3783 158.772 31.2974 158.555 31.3228C157.503 31.4454 156.444 31.5494 155.389 31.6697C155.169 31.6951 155.073 31.5957 154.923 31.5425C154.874 31.5263 154.817 31.4939 154.771 31.4985C154.184 31.5564 153.598 31.6211 153.012 31.6835C152.774 31.709 152.774 31.709 152.376 31.5656C152.329 31.5494 152.269 31.5286 152.219 31.5332C151.455 31.6118 150.695 31.6951 149.931 31.776C149.817 31.7876 149.714 31.7552 149.622 31.6928C149.533 31.6304 149.426 31.5957 149.316 31.6072C148.612 31.6812 147.905 31.7529 147.205 31.8339C147.017 31.857 146.861 31.8362 146.726 31.7529C146.63 31.6928 146.534 31.6673 146.413 31.6812C145.358 31.7945 144.302 31.9033 143.247 32.0235C143.044 32.0466 142.902 32.0027 142.774 31.9264C142.671 31.8662 142.582 31.8547 142.454 31.8639C142.319 31.8755 142.238 31.9009 142.163 31.9703C142.067 32.0605 142.007 32.1738 141.779 32.1808C141.545 32.1877 141.307 32.2155 141.076 32.2548C140.855 32.2941 140.752 32.19 140.614 32.1276C140.511 32.0836 140.415 32.0767 140.283 32.0975C140.162 32.116 140.088 32.1553 140.017 32.2293C139.86 32.3866 139.846 32.3866 139.654 32.2871C139.551 32.2339 139.459 32.1923 139.345 32.2016C138.876 32.2478 138.407 32.2987 137.938 32.3519C137.668 32.3819 137.664 32.3866 137.462 32.2709C137.362 32.2131 137.266 32.1854 137.149 32.1992C135.859 32.338 134.569 32.4721 133.279 32.6178C133.08 32.641 132.945 32.5924 132.803 32.523C132.757 32.4999 132.711 32.4675 132.658 32.4583C132.604 32.449 132.544 32.4583 132.487 32.4629C131.549 32.5623 130.607 32.6572 129.673 32.7682C129.459 32.7936 129.346 32.7196 129.2 32.6595C129.15 32.6387 129.108 32.6063 129.054 32.597C129.001 32.5901 128.937 32.6063 128.88 32.6132C127.942 32.7126 127 32.8075 126.066 32.9185C125.842 32.9439 125.746 32.8468 125.6 32.7959C125.551 32.7774 125.497 32.7427 125.451 32.7473C125.156 32.7728 124.865 32.8075 124.57 32.8375C123.866 32.9138 123.163 32.9855 122.459 33.0642C122.189 33.0942 122.072 32.8884 121.844 32.8977C121.549 32.9092 121.258 32.9555 120.963 32.9878C120.729 33.0133 120.494 33.0364 120.259 33.0642C120.029 33.0896 120.028 33.0896 119.453 32.9555C119.403 32.9439 119.343 32.9277 119.293 32.9323C118.472 33.0179 117.648 33.1035 116.83 33.196C116.642 33.2168 116.486 33.2052 116.351 33.1197C116.255 33.0596 116.155 33.0295 116.038 33.0433C114.805 33.1752 113.575 33.307 112.342 33.4365C112.296 33.4411 112.236 33.418 112.19 33.3995C112.09 33.3579 111.994 33.3093 111.898 33.2654C111.827 33.3186 111.735 33.3671 111.689 33.4272C111.625 33.5082 111.539 33.5313 111.404 33.5452C111.269 33.5591 111.184 33.5544 111.077 33.4943C110.949 33.4203 110.818 33.3625 110.608 33.3856C109.318 33.5313 108.028 33.6631 106.739 33.8065C106.525 33.8296 106.426 33.7279 106.277 33.6747C106.227 33.6585 106.17 33.6331 106.124 33.6377C105.594 33.6909 105.068 33.7487 104.539 33.8042C103.071 33.9615 101.604 34.1118 100.14 34.2783C99.8734 34.3084 99.6921 34.2505 99.5038 34.1511C99.4647 34.1303 99.3972 34.1187 99.3475 34.1233C97.2936 34.3407 95.2396 34.5604 93.1893 34.7801C93.0791 34.7917 92.9725 34.7547 92.8837 34.6945C92.7913 34.6321 92.6883 34.602 92.5746 34.6136C91.6364 34.713 90.6984 34.8125 89.7603 34.9142C89.5257 34.9397 89.5221 34.942 89.2805 34.831C89.2308 34.8078 89.1775 34.7639 89.1384 34.7686C89.0567 34.7801 88.9785 34.8379 88.9216 34.9165C88.8647 34.9998 88.7759 35.0229 88.6444 35.0391C88.5094 35.0553 88.4206 35.0484 88.3175 34.9929C88.1861 34.9235 88.0652 34.8564 87.852 34.8796C85.1549 35.1756 82.4579 35.46 79.7608 35.7537C79.544 35.7768 79.4445 35.6797 79.2953 35.6265C79.2455 35.6103 79.1958 35.5872 79.1425 35.5826C79.0856 35.5779 79.0252 35.5918 78.9684 35.5988C74.5692 36.0682 70.1701 36.54 65.7709 37.0094C65.5079 37.0372 65.5115 37.0372 65.2236 37.25C65.1881 37.2754 65.1419 37.3101 65.0921 37.3147C63.7454 37.4627 62.3951 37.6061 61.0448 37.7495C60.4585 37.8119 59.8722 37.8767 59.2858 37.9368C59.0762 37.9576 59.0762 37.9576 58.5751 38.2074C58.5325 38.2282 58.4827 38.2559 58.433 38.2606C56.0877 38.5126 53.7424 38.7647 51.3935 39.0122C51.2088 39.0307 51.0595 39.0723 50.9743 39.1833C50.9139 39.2619 50.8357 39.3082 50.7184 39.322C49.0767 39.4978 47.4351 39.6759 45.7898 39.847C45.5944 39.8678 45.4771 39.9326 45.3811 40.0297C45.3492 40.0621 45.3207 40.0991 45.2745 40.1222C45.2319 40.143 45.1679 40.1499 45.1146 40.1569C43.7075 40.3072 42.3003 40.4622 40.8896 40.6055C40.68 40.6263 40.5946 40.7119 40.4916 40.8021C40.456 40.8322 40.4312 40.8738 40.385 40.8946C40.3388 40.9131 40.2713 40.9131 40.2144 40.9177C39.0418 41.0426 37.8692 41.1698 36.6965 41.2947C36.4691 41.2831 36.4193 41.4173 36.3092 41.4982C36.2701 41.5259 36.2417 41.5629 36.1955 41.5814C36.1458 41.5999 36.0817 41.5976 36.0213 41.6022C35.0832 41.7017 34.1451 41.8081 33.2034 41.9006C32.9867 41.9214 32.944 42.0393 32.8268 42.1203C32.7877 42.1457 32.7486 42.185 32.7024 42.192C32.1161 42.259 31.5298 42.3215 30.9435 42.3816C30.7481 42.4024 30.748 42.4001 30.4034 42.6291C30.3643 42.6545 30.318 42.6822 30.2683 42.6892C29.3906 42.7863 28.5094 42.8788 27.6281 42.9736C27.5144 42.9852 27.4362 43.0407 27.3794 43.1193C27.3225 43.1979 27.2408 43.2488 27.1271 43.2604C26.4235 43.3367 25.7199 43.4153 25.0163 43.4847C24.8208 43.5032 24.6929 43.561 24.6077 43.6651C24.5437 43.7437 24.4655 43.783 24.3412 43.7969C23.6376 43.8709 22.934 43.9519 22.2269 44.0166C22.0208 44.0351 21.9141 44.1137 21.8288 44.2109C21.7613 44.2895 21.6831 44.3172 21.5517 44.3311C20.2618 44.4652 18.9683 44.5994 17.682 44.7474C17.4652 44.7728 17.355 44.6919 17.2129 44.6341C17.0104 44.5531 16.8221 44.4652 16.8221 44.2848C16.8221 44.2571 16.7617 44.2247 16.719 44.2016C16.4028 44.0282 16.4027 44.0282 16.353 43.8432C16.3246 43.7298 16.2926 43.6142 16.2677 43.4986C16.2215 43.309 16.1078 43.2604 15.7809 43.2951C15.6636 43.3066 15.5463 43.3228 15.4291 43.3321C15.2549 43.3482 15.1235 43.2719 15.0915 43.1332C15.0737 43.0569 15.0524 42.9806 15.0347 42.9042C15.2124 42.8857 15.2088 42.8834 15.5215 42.6036C15.6529 42.4857 15.653 42.4857 15.4007 42.3677C15.3048 42.3238 15.2123 42.2752 15.1093 42.2336C15.0631 42.2151 15.0027 42.2035 14.953 42.2081C14.658 42.2359 14.3666 42.2683 14.0753 42.3007C13.6062 42.3515 13.6062 42.3515 13.13 42.1156C13.0909 42.0971 13.0305 42.0625 13.0376 42.044C13.0767 41.9584 13.1726 41.9214 13.2934 41.9121C13.4711 41.8983 13.6452 41.8751 13.8193 41.8566C13.9366 41.8451 14.0539 41.8312 14.1711 41.8196C14.2813 41.7318 14.3951 41.6462 14.4981 41.556C14.6616 41.4173 14.6615 41.4126 14.4376 41.3155C14.2955 41.2507 14.1427 41.1929 13.997 41.1328C13.8229 41.1513 13.6452 41.1721 13.4711 41.1883C13.2508 41.2091 13.1619 41.1652 13.1051 41.0148C13.0553 40.883 13.1158 40.7697 13.2863 40.742C13.4604 40.7142 13.624 40.6957 13.7128 40.5778C13.7981 40.4645 13.9473 40.4205 14.1321 40.4113C14.2494 40.4043 14.3666 40.3882 14.4839 40.3743C14.6367 40.3558 14.7184 40.2378 14.6864 40.106C14.6687 40.0204 14.6331 39.9487 14.4945 39.9302C13.8798 39.8493 13.8727 39.8516 13.5671 39.6944C13.5386 39.6805 13.5174 39.6389 13.528 39.6181C13.5458 39.5834 13.5849 39.5325 13.6275 39.5255C14.0362 39.4747 14.4448 39.4284 14.8534 39.3937C14.9885 39.3822 15.088 39.366 15.1342 39.2804C15.1981 39.1625 15.1697 39.0538 15.0454 38.9728C15.0063 38.9474 14.9422 38.915 14.8996 38.9173C14.4305 38.959 13.9651 39.0121 13.496 39.0538C13.4534 39.0584 13.3752 39.0191 13.3575 38.989C13.3219 38.9335 13.3752 38.8595 13.4996 38.8341C13.663 38.7994 13.83 38.7971 13.9402 38.6814C14.093 38.5173 14.2813 38.367 14.4519 38.2097C14.4803 38.1819 14.5265 38.1287 14.5159 38.1241C14.4271 38.0732 14.324 38.0339 14.2316 37.9854C14.0752 37.9044 14.0752 37.7911 14.1107 37.6824C14.1392 37.5945 14.2458 37.5598 14.3773 37.5598C14.4341 37.5598 14.5052 37.5598 14.5514 37.539C14.6722 37.4882 14.7113 37.4234 14.6509 37.3748C14.6153 37.3471 14.5514 37.3078 14.5088 37.3124C13.7483 37.3887 12.9843 37.4627 12.2274 37.5575C12.0035 37.5853 11.9006 37.4974 11.7655 37.435C11.6625 37.3864 11.5665 37.3679 11.4385 37.4026C11.3177 37.4349 11.2005 37.4165 11.1259 37.3402C11.0655 37.2777 11.1721 37.2245 11.4599 37.1644C11.5132 37.1528 11.5736 37.1459 11.6127 37.1228C12.0249 36.873 12.0248 36.8707 12.3091 36.8383C12.5863 36.8083 12.5864 36.8059 12.732 36.6718C12.7996 36.6094 12.8741 36.5469 12.9381 36.4822C12.963 36.4567 13.0057 36.4105 12.9914 36.3966C12.9133 36.3249 12.8066 36.3087 12.6823 36.3249C12.4051 36.3642 12.0782 36.3319 11.9325 36.5516C11.8757 36.6348 11.7868 36.6579 11.6589 36.6718C10.3726 36.8059 9.08616 36.9493 7.79625 37.0788C7.5866 37.0996 7.49071 37.1852 7.40898 37.28C7.33791 37.3587 7.25972 37.3818 7.12469 37.3957C6.98966 37.4095 6.883 37.4165 6.80483 37.3402C6.75863 37.2939 6.79773 37.2291 6.90433 37.1644C7.05713 37.0719 7.02869 36.9563 6.97894 36.8476C6.94341 36.7759 6.83325 36.725 6.71599 36.7296C6.54187 36.7389 6.3749 36.7643 6.22921 36.6718C6.14393 36.6186 6.03731 36.5816 5.94136 36.5354C5.75658 36.4405 5.5718 36.3434 5.31239 36.4059C5.13472 36.3827 5.01035 36.2995 4.86821 36.2347C4.63013 36.1284 4.60881 36.1122 4.77938 35.9988C4.97126 35.8717 4.82199 35.7051 4.92859 35.5802C5.0423 35.4461 5.19871 35.3282 5.33729 35.2033C5.37283 35.1709 5.40482 35.1409 5.44036 35.1085C5.35863 35.0622 5.28402 35.0044 5.18808 34.9721C5.0637 34.9304 4.99974 34.8796 5.00685 34.7362C4.98197 34.7154 4.99256 34.7685 5.02099 34.7824C5.05297 34.7963 5.1312 34.7847 5.17029 34.7686C5.26979 34.7246 5.31948 34.6668 5.29461 34.6182C5.2804 34.5928 5.21293 34.5604 5.17029 34.5604C5.09212 34.5604 5.02461 34.6113 5.00329 34.7362C4.6053 34.831 4.19304 34.8773 3.78084 34.9142C3.73819 34.9189 3.68492 34.8726 3.63518 34.8495C3.47172 34.7709 3.4717 34.7732 2.99198 34.75C2.94223 34.7477 2.87475 34.7154 2.84988 34.683C2.74683 34.5419 2.75041 34.387 2.70066 34.2366C2.79305 34.1395 2.88537 34.0447 2.98131 33.9499C3.1732 33.7579 3.42199 33.5891 3.57124 33.3787C3.53926 33.2654 3.49661 33.1521 3.65296 33.0595C4.09714 32.9439 4.09362 32.9439 4.21443 32.8329C4.55912 32.5184 4.90023 32.2016 5.25913 31.8917C5.35507 31.8107 5.35508 31.7668 5.18452 31.7321C5.13122 31.7229 5.07429 31.7206 5.01743 31.7252C4.83976 31.7414 4.66209 31.783 4.48797 31.7737C4.31385 31.7668 4.18593 31.665 4.04379 31.6026C3.8981 31.5379 3.75241 31.4708 3.60672 31.4037C3.43971 31.4107 3.27273 31.4754 3.10571 31.3713C2.97779 31.2904 2.81789 31.2326 2.6722 31.1655C2.78236 30.9898 2.98849 30.8556 3.1484 30.7007C3.29409 30.5596 3.29756 30.5619 3.68844 30.4533C3.87322 30.4024 3.93719 30.141 3.78084 30.0647C3.5925 29.9722 3.39355 29.8867 3.20166 29.7988C3.03465 29.8057 2.86412 29.8682 2.70422 29.7641C2.57984 29.6855 2.43768 29.6323 2.23158 29.6623C1.88334 29.7132 1.52801 29.7387 1.17621 29.7803C1.0554 29.7942 0.92388 29.7849 0.870579 29.7063C0.835044 29.6508 0.938101 29.5745 1.05537 29.5583C1.23304 29.5352 1.39293 29.5074 1.48176 29.3918C1.56704 29.2762 1.72338 29.2414 1.90816 29.2253C1.95791 29.2206 2.0148 29.1929 2.03968 29.1651C2.1676 29.031 2.30975 28.9154 2.58337 28.92C2.69708 28.8738 2.75745 28.8159 2.72191 28.7604C2.70059 28.7304 2.62601 28.6911 2.58337 28.6957C2.28843 28.7188 1.9935 28.7419 1.70567 28.7836C1.57064 28.8021 1.46754 28.8067 1.38225 28.7373C1.32185 28.691 1.35382 28.6286 1.46753 28.5615C1.56703 28.5037 1.59549 28.4367 1.58838 28.358C1.57062 28.1753 1.46399 28.1222 1.12286 28.1337C0.877672 28.143 0.817259 28.1129 0.763958 27.9556C0.749744 27.9186 0.714272 27.8678 0.739146 27.8423C0.891944 27.6851 0.991448 27.4908 1.27928 27.4168C1.39299 27.3891 1.51376 27.3891 1.58483 27.3289C1.6559 27.2688 1.71989 27.1994 1.79451 27.1416C1.8869 27.0722 1.9508 27.0075 1.90816 26.9636C1.83709 26.8849 1.72342 26.878 1.59194 26.9057C1.47823 26.9289 1.35742 26.9312 1.24015 26.945C1.0305 26.9705 0.85997 26.9104 0.835096 26.8086C0.767581 26.5403 0.696491 26.2744 0.636082 26.0061C0.628975 25.9738 0.646694 25.9321 0.675121 25.9044C0.774618 25.8072 0.881263 25.7147 0.984313 25.6199C1.10513 25.5112 1.29705 25.5321 1.46051 25.5112C1.69148 25.4812 1.6914 25.4835 2.00055 25.2615C2.12137 25.1736 2.33103 25.2083 2.4554 25.1297C2.49449 25.1042 2.5549 25.0626 2.54424 25.0395C2.53003 25.0094 2.459 24.9863 2.40569 24.9724C2.35595 24.9585 2.29555 24.9516 2.24225 24.9585C1.59552 25.0256 0.952364 25.0973 0.305635 25.162C0.195478 25.1736 0.0746572 25.1227 0.0355692 25.051C-0.00351875 24.984 0.00710691 24.903 0 24.8267C0.10305 24.7319 0.220269 24.644 0.309105 24.5423C0.376621 24.4636 0.454811 24.4289 0.589842 24.4243C0.767515 24.4174 0.941651 24.3896 1.14064 24.3688C1.5102 24.0312 1.87263 23.6774 2.27062 23.3397C2.43052 23.2033 2.3915 23.0645 2.42348 22.9188C2.45546 22.7847 2.69353 22.8055 2.85343 22.7662C2.98136 22.7338 3.02394 22.6598 2.97419 22.6089C2.94577 22.5789 2.88184 22.5442 2.83209 22.5442C2.71483 22.5442 2.59757 22.565 2.4803 22.5766C2.36304 22.5881 2.22801 22.5812 2.13207 22.6205C2.03968 22.6575 1.97924 22.7361 1.91883 22.8032C1.85131 22.8772 1.76254 22.9026 1.62751 22.9073C1.45339 22.9119 1.27928 22.9327 1.10516 22.9489C0.913276 22.8587 0.714241 22.7708 0.529461 22.676C0.493926 22.6575 0.486781 22.6043 0.490335 22.5696C0.497442 22.4794 0.444154 22.4239 0.32689 22.38C0.227393 22.343 0.145657 22.2898 0.0532671 22.2436C0.124336 22.1811 0.20254 22.121 0.259395 22.0539C0.383766 21.9128 0.540135 21.8111 0.810198 21.8157C0.916801 21.7255 1.00206 21.6145 1.14064 21.5521C1.27212 21.492 1.496 21.5521 1.5955 21.4156C1.64525 21.3486 1.71991 21.2723 1.81585 21.2445C1.96865 21.2006 2.16764 21.2237 2.25648 21.0942C2.30978 21.0202 2.38792 20.9531 2.49097 20.9346C2.60824 20.9138 2.72902 20.9092 2.81431 20.8653C2.8605 20.8421 2.91026 20.8051 2.91026 20.7728C2.91026 20.7519 2.83924 20.7196 2.7895 20.7057C2.7433 20.6895 2.68282 20.6779 2.62952 20.6826C2.45185 20.6964 2.27773 20.7219 2.10006 20.7357C2.05031 20.7404 1.99347 20.7242 1.94017 20.7103C1.78382 20.6733 1.79446 20.6271 1.91883 20.5438C2.0432 20.4629 2.13209 20.3588 2.23514 20.264C2.34885 20.2478 2.49096 20.2547 2.56914 20.2108C2.70062 20.1391 2.79298 20.035 2.89959 19.9448C3.01685 19.9309 3.13766 19.9263 3.24782 19.9009C3.29401 19.8916 3.31535 19.8408 3.35444 19.8107C3.42551 19.7529 3.48597 19.6696 3.58191 19.6419C3.73826 19.6003 3.93014 19.6164 4.02253 19.4893C4.07583 19.4152 4.15753 19.3366 4.25703 19.332C4.5342 19.3228 4.65147 19.1955 4.7936 19.0753C4.90021 18.9851 5.12764 19.0314 5.2449 18.9412C5.32308 18.8834 5.37997 18.8117 5.45814 18.7561C5.49012 18.733 5.55761 18.7215 5.61092 18.7145C5.9023 18.6798 6.19723 18.6544 6.48861 18.6174C6.5348 18.6105 6.57748 18.5758 6.61301 18.548C6.68764 18.4879 6.73378 18.4046 6.82617 18.3653C6.91856 18.326 7.05002 18.326 7.16373 18.3145C7.52974 18.2798 7.55819 18.289 7.7252 18.0924C7.86023 17.9329 8.19075 18.0462 8.3009 17.8704C8.36487 17.7687 8.48208 17.6854 8.69173 17.6739C8.98667 17.6577 9.27804 17.6137 9.57298 17.5837C9.83594 17.5559 9.83239 17.5559 10.1167 17.3408C10.2446 17.2437 10.433 17.2576 10.6 17.2391C10.7776 17.2206 10.9411 17.1929 11.0264 17.0772C11.1117 16.9639 11.268 16.9269 11.4492 16.9107C11.6162 16.8945 11.8046 16.9061 11.9361 16.8136C12.2559 16.5916 12.2523 16.5893 12.4762 16.5661C12.828 16.5291 13.1798 16.4921 13.5316 16.4528C13.7661 16.4274 14.0113 16.4228 14.2316 16.3719C14.3915 16.3349 14.4625 16.2054 14.5656 16.1152C14.857 16.0805 15.1484 16.0458 15.4397 16.0134C15.8484 15.9672 16.2606 15.9256 16.6728 15.8816C16.8504 15.7937 16.8754 15.5995 17.1739 15.5902C17.3515 15.5856 17.5257 15.5555 17.7033 15.537C17.9983 15.5047 18.2896 15.463 18.5846 15.4468C18.8084 15.4353 18.8475 15.3104 18.9647 15.2318C19.0038 15.204 19.0394 15.1647 19.0856 15.1578C19.5475 15.093 20.0237 15.0791 20.475 14.9843C20.5211 14.9751 20.5638 14.9265 20.5745 14.8918C20.5816 14.8733 20.5212 14.8386 20.4821 14.8225C20.4359 14.804 20.3755 14.7855 20.3257 14.7901C18.8582 14.945 17.3906 15.1023 15.923 15.2572C15.7169 15.2804 15.7169 15.278 15.2159 15.5324C15.1733 15.5532 15.1235 15.5763 15.0702 15.5833C14.8356 15.611 14.5976 15.6272 14.3666 15.6619C14.1783 15.6897 14.022 15.6619 13.8869 15.5787C13.791 15.5185 13.6914 15.5 13.5706 15.5047C13.4356 15.5116 13.3468 15.537 13.2686 15.5995C13.1656 15.6851 13.1123 15.796 12.8955 15.8192C11.897 15.9186 10.8984 16.0296 9.90343 16.136C9.76484 16.1036 9.69733 16.0551 9.73287 15.9972C9.75419 15.9626 9.79685 15.9163 9.83949 15.9117C10.2481 15.8631 10.6603 15.8215 11.069 15.7752C11.1258 15.7683 11.204 15.7729 11.236 15.7498C11.3923 15.6457 11.4492 15.4769 11.7442 15.4653C11.9147 15.4584 12.0888 15.4237 12.2523 15.3913C12.2985 15.3821 12.3411 15.3335 12.3518 15.2988C12.3554 15.2803 12.2985 15.2456 12.2559 15.2294C12.0995 15.1624 11.9183 15.2433 11.762 15.1971C11.7087 15.1809 11.634 15.1578 11.6233 15.13C11.6162 15.1046 11.6766 15.063 11.7193 15.0375C11.7584 15.0144 11.8116 14.9936 11.8649 14.9866C12.334 14.9335 12.8031 14.8779 13.2722 14.8363C13.4641 14.8201 13.5991 14.7623 13.6844 14.6559C13.7483 14.5773 13.8265 14.5357 13.9473 14.5241C14.7681 14.4386 15.589 14.3437 16.4134 14.2651C16.6195 14.2466 16.7261 14.1703 16.8114 14.0709C16.8789 13.9922 16.9571 13.9645 17.0886 13.9506C18.2648 13.8304 19.4338 13.6962 20.61 13.5806C20.8268 13.5598 20.8908 13.4603 21.0009 13.3748C21.04 13.3447 21.0648 13.3077 21.1146 13.2892C21.1643 13.2707 21.2283 13.273 21.2887 13.2684C22.2268 13.1689 23.165 13.0626 24.1067 12.9701C24.327 12.9493 24.3695 12.8336 24.4833 12.7527C24.5223 12.7272 24.5579 12.6856 24.6041 12.6787C25.3077 12.6001 26.0112 12.5261 26.7148 12.4497C27.1839 12.3989 27.6529 12.348 28.122 12.2994C28.353 12.2763 28.353 12.274 28.6657 12.0543C28.7012 12.0288 28.751 11.9988 28.7972 11.9918C30.1475 11.8438 31.4942 11.7028 32.8445 11.5571C32.9583 11.5455 33.04 11.4923 33.0968 11.4137C33.1537 11.335 33.2355 11.2819 33.3456 11.2703C34.401 11.1547 35.4564 11.0414 36.5153 10.9327C36.7072 10.9142 36.8422 10.8587 36.9275 10.7546C36.9914 10.676 37.0696 10.6343 37.1904 10.6228C38.2458 10.5118 39.3012 10.3938 40.3601 10.2874C40.5627 10.2666 40.6621 10.188 40.7616 10.0955C40.7972 10.0631 40.8256 10.0099 40.8683 10.0053C41.3942 9.94056 41.9165 9.87349 42.446 9.82955C42.6663 9.81105 42.7409 9.71392 42.8298 9.62142C42.9008 9.54741 42.9826 9.52198 43.1176 9.51273C43.4126 9.49192 43.7039 9.45262 43.9918 9.4133C44.0344 9.40637 44.0877 9.35549 44.0913 9.32311C44.0984 9.26298 44.0166 9.22135 43.8816 9.20054C42.4744 9.35085 41.0637 9.50116 39.6566 9.65148C39.4256 9.67692 39.4256 9.67693 39.1129 9.89663C39.0773 9.92207 39.0275 9.95213 38.9778 9.95907C37.6275 10.1048 36.2808 10.2481 34.9305 10.3938C34.8167 10.4054 34.735 10.4586 34.6782 10.5372C34.6213 10.6158 34.5395 10.669 34.4294 10.6806C33.1395 10.8194 31.8496 10.9604 30.5561 11.0922C30.3643 11.1107 30.2292 11.1639 30.144 11.2703C30.08 11.3489 30.0018 11.3906 29.881 11.4021C28.648 11.5316 27.4184 11.6681 26.1818 11.7929C26.0574 11.8045 25.9651 11.7374 25.9722 11.675C25.9758 11.6426 26.029 11.5895 26.0716 11.5848C26.7148 11.5085 27.3545 11.4299 28.0012 11.3721C28.218 11.3536 28.2819 11.2518 28.3921 11.1662C28.4276 11.1362 28.456 11.0969 28.5022 11.0807C28.552 11.0622 28.6159 11.0645 28.6763 11.0599C30.2008 10.8957 31.7253 10.7292 33.2532 10.5742C33.4736 10.5511 33.5161 10.4378 33.6298 10.3568C33.6689 10.3291 33.7045 10.2875 33.7507 10.2828C34.2197 10.2273 34.6888 10.1788 35.1578 10.1302C35.9787 10.0423 36.7995 9.95444 37.6239 9.86656C37.862 9.84112 37.862 9.84111 38.1676 9.62373C38.2031 9.59829 38.2529 9.56594 38.2991 9.56131C40.4703 9.32774 42.6415 9.09417 44.8126 8.86291C44.9263 8.85134 45.0081 8.79815 45.0649 8.71953C45.1218 8.64321 45.2035 8.58771 45.3136 8.57383C48.2488 8.25932 51.1804 7.94479 54.1155 7.63491C54.3074 7.61409 54.4424 7.56552 54.5277 7.45683C54.5881 7.3782 54.6698 7.33659 54.7907 7.32271C58.0172 6.97814 61.2437 6.63356 64.4738 6.28668C66.645 6.05542 68.8162 5.81953 70.9873 5.5929C71.1863 5.57209 71.2929 5.50038 71.3924 5.40557C71.4244 5.37319 71.4564 5.32 71.499 5.31537C71.9645 5.25756 72.43 5.20438 72.8955 5.15119C73.0412 5.21363 73.1869 5.27376 73.3326 5.3362C73.4427 5.24833 73.5494 5.15813 73.6595 5.07025C74.3631 5.00319 75.056 4.89912 75.7667 4.86674C75.8129 4.86443 75.8626 4.90838 75.9124 4.9315C76.2428 5.07719 76.4312 5.06563 76.6408 4.87137C76.7155 4.80199 76.7794 4.73955 76.8931 4.72799C77.2449 4.68637 77.6003 4.65861 77.9486 4.61005C78.1369 4.58461 78.2932 4.60773 78.4282 4.69098C78.5242 4.75111 78.6237 4.77656 78.741 4.76269C79.3877 4.69331 80.0309 4.62624 80.6776 4.55223C80.7238 4.54761 80.7664 4.50828 80.8019 4.48053C80.8765 4.4204 80.9405 4.35566 81.0116 4.29322C81.1076 4.33254 81.2142 4.36261 81.2923 4.41348C81.3918 4.47361 81.4842 4.4736 81.6192 4.45741C84.199 4.17759 86.7824 3.9047 89.3622 3.62257C89.5825 3.59944 89.6785 3.69658 89.8277 3.74746C89.8775 3.76596 89.9272 3.78907 89.9805 3.7937C90.0374 3.79832 90.0978 3.78446 90.1546 3.77752C92.0913 3.56939 94.0279 3.36355 95.9646 3.15542C96.2204 3.12767 96.2204 3.12767 96.6006 3.27105C96.6468 3.28955 96.7072 3.31037 96.757 3.30343C97.6382 3.21324 98.5195 3.11612 99.3972 3.02361C99.5109 3.01205 99.6069 3.04904 99.7099 3.10223C99.9125 3.2063 99.9266 3.20631 100.076 3.05368C100.147 2.98199 100.222 2.93803 100.339 2.91722C100.467 2.89409 100.57 2.90105 100.669 2.94268C100.811 3.00049 100.915 3.09761 101.131 3.07217C102.069 2.96348 103.011 2.87329 103.946 2.76229C104.159 2.73685 104.273 2.81547 104.415 2.87329C104.464 2.8941 104.511 2.92648 104.564 2.93342C104.617 2.94036 104.681 2.92415 104.738 2.91722C105.911 2.79234 107.087 2.66979 108.256 2.53566C108.476 2.51022 108.572 2.60964 108.721 2.66052C108.771 2.67902 108.828 2.71141 108.874 2.70679C109.578 2.6351 110.285 2.55876 110.989 2.48245C111.241 2.4547 111.241 2.45701 111.625 2.59808C111.671 2.61658 111.731 2.63508 111.781 2.63046C112.602 2.54489 113.426 2.45701 114.247 2.36913C114.499 2.34138 114.499 2.34139 115.228 2.46164C115.281 2.47089 115.338 2.48479 115.391 2.48016C116.329 2.38072 117.271 2.28358 118.209 2.1772C118.397 2.15638 118.554 2.17488 118.689 2.25813C118.785 2.31826 118.884 2.34371 119.002 2.32984C120.057 2.21652 121.116 2.10783 122.168 1.98758C122.37 1.96445 122.502 2.01531 122.644 2.08237C122.69 2.1055 122.736 2.13788 122.79 2.14713C122.843 2.15638 122.903 2.14713 122.96 2.14019C124.016 2.02687 125.074 1.9205 126.126 1.79793C126.339 1.77249 126.453 1.85111 126.595 1.90893C126.645 1.92974 126.698 1.97137 126.741 1.96906C127.153 1.92974 127.565 1.89507 127.974 1.83725C128.194 1.80488 128.29 1.91124 128.44 1.96211C128.489 1.9783 128.546 2.01301 128.592 2.00838C129.474 1.91819 130.355 1.82338 131.233 1.72625C131.357 1.71238 131.449 1.73317 131.549 1.7933C131.68 1.87424 131.833 1.90662 132.025 1.88118C132.434 1.82799 132.846 1.791 133.258 1.74706C133.5 1.72162 133.5 1.72163 134.239 1.84188C134.292 1.85113 134.349 1.865 134.402 1.86037C135.106 1.78637 135.813 1.71468 136.513 1.63374C136.701 1.61062 136.858 1.63143 136.993 1.71468C137.089 1.77481 137.185 1.80026 137.305 1.78638C137.952 1.71701 138.595 1.64762 139.242 1.57824C139.477 1.55281 139.711 1.50885 139.946 1.50885C140.116 1.51117 140.241 1.62217 140.393 1.67767C140.436 1.69386 140.507 1.67538 140.564 1.67075C141.385 1.58287 142.209 1.50193 143.026 1.40248C143.24 1.37705 143.353 1.45567 143.496 1.51348C143.545 1.5343 143.599 1.57593 143.641 1.57361C143.936 1.54818 144.228 1.51348 144.522 1.48342C144.874 1.44642 145.23 1.41867 145.578 1.36779C145.862 1.32616 145.969 1.52735 146.196 1.53429C146.37 1.54123 146.548 1.50192 146.722 1.48342C147.074 1.44642 147.426 1.4048 147.777 1.37242C147.902 1.36086 147.998 1.32384 148.037 1.24059C148.044 1.2244 147.984 1.18972 147.944 1.16891C147.472 0.933026 147.472 0.933015 146.996 0.983892C146.701 1.01627 146.409 1.04865 146.114 1.0764C146.065 1.08103 146.008 1.06253 145.958 1.04865C145.816 1.00934 145.83 0.96309 145.951 0.879837C146.072 0.796583 146.164 0.694839 146.267 0.600022C146.413 0.66015 146.555 0.720256 146.701 0.780383C146.818 0.76882 146.935 0.754965 147.053 0.743402C147.639 0.683274 148.225 0.62083 148.812 0.565328C148.854 0.560703 148.907 0.606961 148.957 0.630087C149.099 0.697152 149.227 0.754951 149.433 0.729513C149.959 0.662448 150.489 0.613883 151.015 0.556068C151.246 0.53063 151.246 0.530632 151.651 0.674013C151.697 0.690201 151.757 0.708703 151.807 0.704078C152.337 0.650888 152.862 0.59308 153.392 0.537578C153.506 0.526015 153.616 0.556077 153.698 0.623143C153.729 0.650894 153.722 0.697136 153.857 1.0764C154.277 1.38398 154.565 1.35162 154.856 1.32386C154.98 1.3123 155.09 1.30073 155.172 1.25448C155.215 1.22904 155.268 1.19203 155.268 1.16197C155.268 1.13884 155.19 1.10183 155.14 1.09721C154.788 1.05095 154.454 1.1481 154.11 1.16891C153.95 1.17816 153.811 1.09722 153.783 0.965402C153.776 0.9284 153.765 0.889088 153.754 0.852087C153.744 0.815085 153.737 0.775774 153.726 0.738772C153.587 0.727209 153.506 0.768829 153.445 0.847457C153.395 0.91221 153.324 0.986213 153.228 1.0209C153.132 1.0579 153.001 1.05098 152.884 1.06254C152.77 1.0741 152.646 1.10416 152.539 1.08798C152.432 1.06947 152.347 1.0024 152.248 0.960772C152.201 0.939959 152.145 0.909906 152.098 0.914531C151.69 0.953845 151.285 0.993145 150.88 1.04402C150.666 1.07177 150.56 0.974659 150.425 0.914531C150.318 0.868279 150.212 0.879828 150.194 0.986207C150.148 1.24059 150.311 1.34697 150.674 1.2984C150.972 1.25677 151.242 1.24986 151.477 1.40711C151.509 1.42793 151.583 1.43717 151.629 1.43255C151.921 1.4048 152.209 1.37011 152.5 1.34236C152.553 1.33773 152.61 1.34697 152.66 1.35622C153.385 1.4811 153.385 1.48342 153.63 1.45567C153.747 1.44179 153.861 1.43023 153.85 1.07872C154.074 0.701764 154.43 0.67633 154.774 0.620828C154.998 0.586139 155.094 0.687897 155.24 0.741087C155.289 0.759588 155.343 0.796582 155.389 0.791957C156.153 0.715642 156.913 0.63469 157.674 0.549124C157.802 0.535248 157.894 0.549126 157.994 0.609253C158.121 0.685569 158.264 0.734144 158.466 0.706392C158.871 0.65089 159.283 0.616209 159.696 0.569957C159.905 0.546832 159.905 0.546808 160.328 0.690188C160.374 0.706377 160.435 0.724878 160.485 0.720253C160.897 0.680939 161.305 0.63239 161.714 0.590763C161.828 0.5792 161.931 0.611573 162.02 0.674013C162.109 0.736453 162.215 0.768826 162.325 0.757263C162.738 0.715636 163.146 0.669399 163.555 0.627772C163.605 0.623147 163.665 0.639334 163.711 0.655522C164.145 0.798903 164.145 0.798879 164.344 0.775753C164.635 0.741064 164.934 0.724894 165.221 0.678642C165.502 0.632391 165.648 0.76651 165.84 0.840513C166.366 0.787323 166.895 0.743395 167.417 0.678642C167.631 0.650891 167.744 0.7272 167.886 0.787327C167.936 0.808141 167.986 0.852085 168.032 0.849772C168.21 0.840522 168.384 0.815088 168.558 0.796587C168.732 0.778086 168.91 0.759588 169.084 0.741087C169.283 0.808152 169.414 0.965406 169.699 0.912216C169.869 0.87984 170.05 0.872902 170.225 0.854402C170.399 0.835901 170.576 0.817402 170.751 0.798902C170.868 0.787339 170.989 0.780391 171.102 0.759578C171.312 0.724889 171.415 0.838219 171.564 0.889096C171.614 0.905284 171.671 0.933017 171.717 0.928392C172.069 0.896016 172.424 0.868267 172.769 0.815077C173.035 0.773451 173.217 0.842838 173.405 0.939966C173.444 0.96078 173.512 0.972342 173.561 0.967716C173.973 0.928402 174.382 0.879824 174.791 0.838198C174.901 0.826635 175.008 0.863635 175.096 0.923762C175.189 0.986202 175.292 1.01629 175.405 1.00473C175.814 0.963099 176.226 0.916834 176.635 0.875207C176.685 0.870582 176.745 0.889086 176.791 0.907587C177.189 1.05097 177.189 1.05328 177.424 1.02553C177.481 1.01859 177.541 1.01395 177.598 1.00701C177.889 0.974636 178.191 0.963089 178.476 0.907587C178.803 0.845147 179.041 0.923778 179.272 1.0556C179.563 1.02784 179.862 1.01165 180.146 0.965402C180.359 0.930713 180.473 1.01859 180.615 1.0764C180.665 1.09721 180.718 1.13884 180.761 1.13422C181.173 1.0949 181.585 1.06023 181.99 1.00241C182.21 0.970035 182.306 1.07408 182.456 1.12727C182.505 1.14577 182.559 1.17817 182.605 1.17354C182.839 1.15504 183.074 1.12727 183.308 1.10184C183.582 1.07177 183.582 1.07408 183.944 1.21515C184.115 1.28222 184.286 1.22902 184.453 1.21284C184.63 1.19434 184.797 1.18046 184.939 1.27528C185.028 1.33541 185.135 1.37241 185.245 1.36316C185.48 1.34235 185.718 1.32154 185.949 1.28686C186.133 1.2591 186.293 1.27759 186.428 1.36316C186.524 1.42329 186.624 1.45337 186.741 1.43949C187.267 1.38399 187.796 1.32616 188.322 1.27297C188.369 1.26834 188.432 1.28916 188.475 1.30998C188.575 1.3516 188.671 1.39784 188.767 1.4441C188.997 1.42328 189.236 1.41406 189.463 1.38168C189.705 1.3493 189.925 1.33774 190.113 1.46493C190.152 1.49268 190.209 1.53197 190.255 1.52966C190.433 1.52041 190.607 1.49729 190.781 1.47879C190.955 1.46029 191.133 1.44179 191.307 1.42329C191.51 1.4811 191.638 1.64761 191.922 1.59442C192.093 1.56204 192.274 1.55511 192.448 1.5366C192.622 1.5181 192.8 1.49729 192.974 1.4811C193.031 1.47648 193.095 1.46491 193.144 1.47416C193.198 1.48341 193.244 1.51579 193.29 1.53892C193.432 1.60598 193.564 1.67306 193.766 1.63374C193.937 1.60137 194.118 1.59443 194.292 1.57361C194.53 1.54818 194.53 1.54818 194.925 1.69387C195.085 1.754 195.266 1.67538 195.419 1.72625C195.522 1.76094 195.61 1.81874 195.71 1.85806C195.753 1.87425 195.82 1.88117 195.87 1.87655C196.104 1.85574 196.342 1.83493 196.573 1.80024C196.762 1.77249 196.918 1.80024 197.05 1.88349C197.146 1.94362 197.241 1.96907 197.362 1.9552C197.949 1.89044 198.535 1.83492 199.118 1.76323C199.317 1.7378 199.477 1.77712 199.587 1.86037C199.775 2.00375 200.042 1.83494 200.237 1.95057C200.358 2.02226 200.479 2.10552 200.699 2.07083C201.104 2.0107 201.516 1.97831 201.925 1.93668C202.071 1.99912 202.216 2.06157 202.366 2.12401C202.6 2.09857 202.835 2.07312 203.069 2.04999C203.243 2.03149 203.421 2.01068 203.595 1.99449C203.652 1.98987 203.712 1.98062 203.766 1.99218C203.819 2.00374 203.862 2.03381 203.911 2.05694C204.157 2.17025 204.156 2.17258 204.562 2.12633C204.736 2.10551 204.903 2.09164 205.048 2.18414C205.183 2.26971 205.343 2.28589 205.528 2.26045C205.876 2.2142 206.228 2.17951 206.584 2.14713C206.694 2.13557 206.797 2.17488 206.889 2.23501C207.028 2.32983 207.198 2.32058 207.372 2.29514C207.603 2.26277 207.831 2.2304 208.026 2.3599C208.065 2.38765 208.126 2.42694 208.168 2.42463C208.46 2.40613 208.755 2.39227 209.039 2.34833C209.323 2.30439 209.462 2.44776 209.657 2.51714C209.949 2.48708 210.244 2.45701 210.535 2.42695C210.592 2.42001 210.659 2.39921 210.709 2.41077C210.919 2.45934 211.04 2.63278 211.327 2.57959C211.494 2.54952 211.676 2.54028 211.85 2.53335C211.896 2.53103 211.956 2.57033 211.988 2.60039C212.006 2.61658 211.988 2.66052 211.967 2.68364C211.903 2.74839 211.825 2.80854 211.768 2.8756C211.761 2.88485 211.828 2.92646 211.868 2.94496C211.963 2.98659 212.074 2.97967 212.202 2.96117C212.312 2.94498 212.425 2.97736 212.504 3.04673C212.536 3.07448 212.525 3.12073 212.457 3.27336C212.457 3.38668 212.532 3.33579 212.557 3.26179C212.596 3.15541 212.521 3.12072 212.379 3.17854C212.28 3.22017 212.23 3.2803 212.255 3.32886C212.269 3.3543 212.337 3.38668 212.457 3.27336C212.77 3.13461 213.005 3.10918 213.239 3.08374C213.3 3.07681 213.371 3.05366 213.413 3.06754C213.566 3.12304 213.708 3.19012 213.857 3.25256C214.028 3.23868 214.188 3.20398 214.355 3.29417C214.589 3.42136 214.6 3.4098 214.828 3.38436C214.945 3.37049 215.062 3.35894 215.179 3.34738C215.297 3.33582 215.389 3.3705 215.492 3.42369C215.702 3.53238 215.719 3.53237 215.858 3.38436C215.94 3.29417 215.997 3.26412 216.1 3.30574C216.441 3.44681 216.444 3.45605 216.736 3.41443C216.977 3.37974 217.205 3.37049 217.382 3.50231C217.503 3.59481 217.542 3.574 217.638 3.47687C217.894 3.22017 218.011 3.22479 218.491 3.4098C218.715 3.49768 218.946 3.40287 219.173 3.39131C219.365 3.38206 219.5 3.43755 219.515 3.58324C219.525 3.67343 219.557 3.7382 219.685 3.76826C219.735 3.77982 219.795 3.79601 219.845 3.79138C220.14 3.76363 220.431 3.73125 220.726 3.69887C220.875 3.68268 220.957 3.57401 220.929 3.43063C220.897 3.278 220.954 3.22248 221.167 3.17854C221.295 3.1531 221.398 3.15775 221.501 3.19937C221.615 3.24562 221.583 3.28725 221.483 3.3705C221.245 3.57401 221.274 3.69887 221.579 3.83994C221.686 3.8885 221.771 3.93246 221.796 4.00415C221.81 4.04115 221.796 4.08971 221.828 4.11746C222.002 4.27241 222.244 4.37186 222.514 4.44586C222.773 4.38342 222.951 4.48747 223.15 4.57072C223.306 4.63548 223.491 4.57999 223.658 4.55686C223.846 4.53142 224.003 4.54992 224.138 4.63548C224.234 4.69561 224.333 4.72335 224.45 4.71179C224.685 4.68635 224.923 4.67017 225.154 4.63317C225.353 4.60079 225.502 4.64705 225.626 4.72568C225.783 4.82512 225.957 4.75804 226.12 4.77192C226.341 4.78811 226.451 4.99392 226.739 4.93842C226.909 4.90604 227.087 4.89448 227.265 4.88523C227.311 4.88292 227.368 4.92224 227.407 4.94999C227.595 5.07718 227.815 5.07024 228.057 5.03324C228.224 5.0078 228.387 4.98469 228.551 5.07257C228.821 5.22057 229.12 5.35009 229.404 5.48653C229.443 5.59291 229.414 5.71776 229.617 5.7802C229.724 5.81258 229.823 5.86116 229.905 5.91435C230.004 5.97679 230.097 5.99299 230.225 5.9768C230.456 5.94442 230.697 5.93746 230.925 5.89583C231.134 5.85883 231.266 5.93517 231.394 6.00686C231.497 6.06468 231.593 6.09241 231.717 6.05079C231.845 6.01147 231.937 6.0369 232.04 6.09934C232.186 6.18491 232.197 6.17567 232.68 6.20111C232.73 6.20342 232.79 6.23809 232.819 6.26816C232.833 6.28435 232.801 6.33062 232.776 6.35375C232.744 6.3815 232.694 6.41386 232.648 6.4208C232.122 6.48092 231.593 6.53411 231.067 6.59424C231.014 6.60118 230.957 6.61738 230.918 6.64051C230.875 6.66595 230.822 6.70061 230.822 6.73299C230.822 6.75612 230.893 6.78388 230.942 6.80006C231.099 6.85325 231.284 6.77232 231.436 6.83244C231.539 6.87176 231.625 6.92725 231.728 6.96425C231.77 6.98044 231.838 6.97813 231.891 6.97351C232.069 6.95732 232.243 6.9342 232.421 6.92032C232.47 6.91801 232.527 6.94115 232.573 6.95965C232.915 7.0984 232.915 7.0984 233.21 7.06833C233.327 7.05677 233.451 7.02208 233.561 7.03595C233.668 7.04983 233.76 7.11227 233.856 7.15158C234.055 7.23484 234.244 7.31577 234.258 7.49616C234.265 7.56553 234.382 7.62565 234.499 7.63028C234.613 7.6349 234.734 7.60949 234.851 7.59561C235.128 7.56786 235.128 7.56786 235.487 7.70893C235.587 7.74824 235.693 7.75286 235.821 7.72973C235.871 7.72048 235.932 7.72974 235.985 7.74131C236.159 7.77599 236.159 7.81992 236.045 7.90318C235.885 8.02574 235.899 8.03731 236.347 8.14138C236.518 8.18069 236.649 8.2547 236.791 8.31945C237.022 8.42352 237.019 8.4235 236.866 8.55994C236.831 8.59001 236.799 8.62239 236.763 8.65477C236.66 8.74496 236.578 8.84208 236.365 8.85133C236.13 8.86058 235.896 8.8976 235.661 8.92304C235.434 8.94847 235.374 9.00395 235.395 9.16121C235.42 9.35084 235.466 9.37166 235.875 9.36935C235.992 9.36935 236.095 9.38785 236.184 9.45028C236.141 9.52429 236.063 9.5821 235.949 9.59598C235.658 9.63067 235.363 9.66074 235.072 9.6908C234.837 9.71624 234.603 9.74167 234.368 9.76711C234.222 9.7833 234.13 9.90356 234.169 10.0377C234.19 10.114 234.208 10.1903 234.226 10.2666C234.265 10.4193 234.34 10.4586 234.578 10.4517C234.638 10.4493 234.695 10.4308 234.752 10.4355C234.983 10.4516 235.093 10.6436 235.37 10.6043C235.601 10.5719 235.843 10.565 236.07 10.5233C236.28 10.4863 236.397 10.5696 236.543 10.632C236.592 10.6529 236.646 10.6968 236.688 10.6945C236.983 10.669 237.278 10.6436 237.566 10.5997C237.701 10.5812 237.783 10.595 237.889 10.6505C238.145 10.7847 238.152 10.7777 238.533 10.7361C238.81 10.7037 238.813 10.7083 239.169 10.8494C239.268 10.8887 239.375 10.8887 239.503 10.8702C239.67 10.8471 239.844 10.8101 240.018 10.8448C240.071 10.854 240.139 10.8818 240.157 10.9119C240.167 10.9327 240.118 10.9836 240.075 10.9997C239.762 11.12 239.396 11.0992 239.055 11.1477C238.948 11.1616 238.842 11.1177 238.753 11.0552C238.661 10.9928 238.561 10.9674 238.44 10.9789C238.206 11.0044 237.968 11.0206 237.737 11.0576C237.538 11.0899 237.399 11.0367 237.26 10.965C237.214 10.9419 237.161 10.898 237.115 10.9003C236.589 10.9465 236.059 10.9928 235.537 11.0576C235.327 11.0853 235.207 11.0113 235.064 10.9489C235.015 10.9281 234.965 10.8841 234.919 10.8864C234.741 10.8957 234.567 10.9211 234.389 10.9396C233.743 11.009 233.099 11.0784 232.453 11.1431C232.41 11.1477 232.357 11.0992 232.307 11.0784C232.211 11.0367 232.112 10.9974 232.012 10.9581C231.834 10.9766 231.66 10.9997 231.483 11.0136C231.355 11.0228 231.241 11.0552 231.223 11.1431C231.212 11.2009 231.33 11.2541 231.454 11.2495C231.575 11.2449 231.696 11.2171 231.795 11.2472C232.289 11.3952 232.289 11.3975 232.598 11.3674C232.868 11.3397 232.84 11.3165 233.078 11.4437C233.181 11.4992 233.274 11.5316 233.391 11.5178C233.682 11.4854 233.977 11.453 234.272 11.4252C234.318 11.4206 234.379 11.4438 234.425 11.4623C234.773 11.601 234.773 11.6056 235.061 11.5709C235.438 11.5293 235.452 11.5178 235.704 11.6588C235.878 11.7559 236.038 11.6889 236.205 11.6843C236.397 11.7744 236.607 11.8554 236.781 11.9572C236.987 12.0774 237.204 12.0566 237.438 12.0219C237.612 11.9964 237.783 11.9872 237.925 12.082C238.06 12.1699 238.223 12.1792 238.408 12.156C238.575 12.1352 238.746 12.0913 238.92 12.1421C238.966 12.156 239.037 12.1907 239.034 12.2115C239.03 12.2439 238.984 12.2902 238.938 12.304C238.611 12.3989 238.252 12.3965 237.907 12.4405C237.861 12.4474 237.801 12.422 237.754 12.4035C237.655 12.3618 237.559 12.3133 237.463 12.2693C237.289 12.2832 237.111 12.2878 236.941 12.3156C236.809 12.3364 236.71 12.3341 236.614 12.2786C236.525 12.2277 236.429 12.1653 236.322 12.1491C236.216 12.1329 236.091 12.1676 235.974 12.1815C235.857 12.1953 235.722 12.1884 235.629 12.2254C235.537 12.2624 235.48 12.3433 235.42 12.4081C235.352 12.4798 235.26 12.5029 235.125 12.5099C235 12.5168 234.901 12.5075 234.809 12.4428C234.77 12.415 234.716 12.3942 234.663 12.3757C234.613 12.3595 234.556 12.3341 234.51 12.3387C233.981 12.3919 233.455 12.4497 232.925 12.5052C232.662 12.533 232.666 12.533 232.119 12.3965C232.069 12.385 232.008 12.3688 231.959 12.3734C231.664 12.4012 231.372 12.4335 231.077 12.4659C230.779 12.4983 230.783 12.4937 230.274 12.348C230.182 12.3202 230.047 12.3572 229.937 12.3526C229.706 12.341 229.592 12.1468 229.322 12.1838C229.091 12.2162 228.849 12.2231 228.618 12.2647C228.409 12.3017 228.288 12.2208 228.146 12.1583C228.096 12.1375 228.043 12.0913 228 12.0959C227.471 12.1468 226.945 12.2046 226.241 12.2115C226.067 12.2115 226.145 12.2601 226.259 12.2763C226.422 12.3017 226.476 12.2532 226.387 12.1607C226.323 12.0959 226.231 12.0635 226.156 12.0797C226.117 12.089 226.067 12.1329 226.241 12.2115C226.426 12.2994 226.415 12.348 226.447 12.3757C226.526 12.4428 226.636 12.4705 226.749 12.4613C226.927 12.4451 227.101 12.422 227.279 12.4081C227.329 12.4035 227.389 12.4197 227.435 12.4382C227.826 12.5815 227.83 12.5908 228.245 12.5353C228.377 12.5191 228.473 12.5191 228.576 12.5631C228.718 12.6232 228.821 12.7249 229.038 12.6925C229.326 12.6486 229.621 12.6232 229.916 12.5977C229.962 12.5931 230.011 12.6347 230.065 12.6532C230.21 12.7087 230.317 12.8128 230.534 12.7689C230.701 12.7342 230.882 12.7249 231.06 12.718C231.106 12.7157 231.177 12.7527 231.198 12.7827C231.241 12.8359 231.188 12.8984 231.067 12.9423C231.017 12.9608 230.95 12.9562 230.893 12.9631C230.658 12.9886 230.424 13.0163 230.189 13.0371C230.065 13.0487 229.948 13.0834 229.933 13.169C229.923 13.2268 230.051 13.2776 230.171 13.273C230.349 13.2661 230.527 13.2476 230.697 13.2175C230.999 13.1666 231.262 13.1805 231.507 13.3262C231.682 13.4279 231.671 13.391 231.856 13.6916C231.902 13.7679 232.04 13.7748 232.161 13.7702C232.453 13.7587 232.588 13.7934 232.563 13.865C232.531 13.9529 232.428 13.9807 232.296 13.9922C232.062 14.0107 231.827 14.0408 231.593 14.0662C231.536 14.0732 231.472 14.087 231.419 14.0824C231.365 14.0778 231.316 14.05 231.269 14.0292C231.17 13.9853 231.085 13.9182 230.978 13.902C230.871 13.8858 230.747 13.9205 230.63 13.9344C230.512 13.946 230.388 13.9807 230.282 13.9645C230.175 13.9483 230.086 13.8789 229.99 13.8373C229.944 13.8165 229.887 13.7841 229.841 13.7864C229.606 13.8049 229.372 13.835 229.137 13.8581C228.849 13.8882 228.849 13.8882 228.501 13.7448C228.402 13.7032 228.299 13.7055 228.167 13.724C227.883 13.761 227.879 13.754 227.361 13.6199C227.311 13.606 227.25 13.5898 227.201 13.5968C226.671 13.65 226.145 13.7078 225.619 13.7633C225.168 13.8118 225.168 13.8119 224.919 14.0431C224.735 14.2142 224.731 14.2142 224.912 14.2929C225.058 14.3576 225.189 14.4524 225.349 14.4871C225.499 14.5195 225.683 14.4154 225.847 14.5218C225.929 14.575 226.035 14.6328 226.138 14.6421C226.302 14.6536 226.476 14.5866 226.632 14.6883C226.71 14.7392 226.828 14.7924 226.927 14.7947C227.101 14.7993 227.279 14.7623 227.453 14.7461C227.506 14.7415 227.567 14.7415 227.616 14.7531C227.67 14.7669 227.716 14.7947 227.762 14.8178C227.904 14.8965 228.057 14.9334 228.242 14.8941C228.544 14.8294 228.814 14.8618 229.048 15.0098C229.08 15.0306 229.159 15.0329 229.208 15.0237C229.336 15.0005 229.446 14.9982 229.542 15.0421C229.581 15.0606 229.638 15.093 229.631 15.1138C229.621 15.1485 229.578 15.1948 229.532 15.2063C229.198 15.285 228.839 15.2942 228.494 15.3358C228.448 15.3405 228.391 15.3104 228.345 15.2896C228.245 15.248 228.16 15.1786 228.053 15.1624C227.947 15.1462 227.823 15.1763 227.705 15.1878C227.588 15.1994 227.464 15.2341 227.357 15.2202C227.25 15.204 227.151 15.1462 227.066 15.0953C226.966 15.0375 226.87 15.0306 226.739 15.0537C226.568 15.0838 226.391 15.0884 226.216 15.1046C226.12 15.0606 226.024 15.0121 225.925 14.9704C225.879 14.9496 225.822 14.9242 225.772 14.9265C225.538 14.945 225.303 14.9728 225.069 14.9982C224.834 15.0236 224.834 15.0237 224.436 14.8803C224.39 14.8641 224.329 14.8456 224.28 14.8502C223.985 14.878 223.693 14.9126 223.398 14.9404C223.285 14.9519 223.182 14.9196 223.089 14.8571C223.001 14.7947 222.894 14.76 222.784 14.7716C222.315 14.8201 221.846 14.8664 221.377 14.9242C221.188 14.9473 221.028 14.9265 220.9 14.8433C220.751 14.7484 220.584 14.7716 220.41 14.7901C220.016 14.8363 220.012 14.834 219.76 14.7161C219.71 14.6929 219.66 14.649 219.614 14.6513C219.205 14.686 218.793 14.7184 218.388 14.7739C218.175 14.8039 218.061 14.723 217.919 14.6629C217.869 14.6421 217.816 14.5981 217.773 14.6027C217.478 14.6282 217.183 14.6513 216.896 14.6976C216.608 14.7438 216.498 14.5288 216.281 14.5311C215.986 14.5334 215.695 14.5866 215.403 14.6189C215.169 14.6444 214.934 14.6698 214.7 14.6953C214.465 14.7207 214.231 14.7415 213.996 14.7716C213.872 14.7877 213.779 14.7669 213.676 14.7091C213.545 14.6328 213.388 14.5727 213.246 14.5033C213.03 14.4039 213.029 14.4039 212.767 14.4316C212.71 14.4386 212.649 14.4432 212.592 14.4501C212.162 14.501 212.162 14.4964 211.615 14.3507C211.59 14.3437 211.526 14.3692 211.501 14.3877C211.427 14.4478 211.359 14.5126 211.292 14.575C211.196 14.538 211.079 14.5172 211.015 14.464C210.833 14.3137 210.549 14.5195 210.364 14.3715C210.297 14.316 210.18 14.2674 210.073 14.2535C209.963 14.2397 209.838 14.272 209.725 14.2859C209.43 14.3206 209.43 14.3183 209.178 14.5241C209.05 14.6259 208.865 14.6074 208.698 14.6305C208.524 14.6559 208.357 14.6698 208.211 14.575C208.08 14.4894 207.92 14.4686 207.731 14.4964C207.5 14.5311 207.262 14.5519 207.028 14.5727C206.978 14.5773 206.918 14.5658 206.868 14.5519C206.324 14.4154 206.324 14.4131 206.061 14.4432C205.944 14.4571 205.823 14.4617 205.709 14.4825C205.517 14.5195 205.372 14.4709 205.233 14.3969C205.187 14.3738 205.134 14.3299 205.087 14.3322C204.853 14.3438 204.622 14.3646 204.391 14.3854C204.213 14.4016 204.036 14.4108 203.865 14.4432C203.581 14.4964 203.442 14.346 203.247 14.2767C202.955 14.3067 202.661 14.3275 202.369 14.3692C202.234 14.3877 202.145 14.3807 202.042 14.3252C201.911 14.2559 201.79 14.1772 201.577 14.2119C201.292 14.2582 200.994 14.2744 200.703 14.3021C200.507 14.2304 200.365 14.0847 200.084 14.1379C199.914 14.1703 199.732 14.1772 199.558 14.1957C199.324 14.2212 199.089 14.2443 198.855 14.2721C198.603 14.2998 198.606 14.2929 198.219 14.1564C197.995 14.0755 197.764 14.1657 197.536 14.1796C197.359 14.1911 197.27 14.2975 197.313 14.4339C197.355 14.5704 197.259 14.6768 197.096 14.6953C196.687 14.7392 196.275 14.7854 195.866 14.8247C195.817 14.8294 195.756 14.8132 195.71 14.797C195.273 14.6513 195.273 14.6536 195.077 14.6744C194.786 14.7091 194.488 14.7276 194.2 14.7716C194.001 14.8016 193.855 14.7531 193.727 14.6744C193.628 14.6143 193.535 14.6004 193.407 14.6143C192 14.7693 190.593 14.9126 189.189 15.0722C188.98 15.0953 188.859 15.0283 188.717 14.9658C188.667 14.945 188.621 14.9011 188.571 14.9011C188.454 14.9011 188.337 14.9219 188.219 14.9358C187.693 14.9913 187.167 15.0583 186.638 15.1C186.414 15.1185 186.354 15.2248 186.258 15.3127C186.183 15.3798 186.098 15.4075 185.966 15.4168C185.839 15.426 185.746 15.4145 185.647 15.3543C185.519 15.2757 185.373 15.2271 185.174 15.2595C184.943 15.2965 184.708 15.3127 184.47 15.3382C184.35 15.3497 184.257 15.3913 184.218 15.4746C184.211 15.4885 184.286 15.5232 184.328 15.544C184.47 15.6134 184.605 15.6943 184.765 15.7429C184.929 15.7914 185.106 15.7359 185.277 15.722C185.337 15.7174 185.394 15.7035 185.451 15.7059C185.504 15.7082 185.568 15.7197 185.608 15.7405C185.792 15.8446 185.988 15.9163 186.244 15.8539C186.464 15.8839 186.578 16.0759 186.858 16.025C187.029 15.9949 187.207 15.9811 187.384 15.9695C187.43 15.9672 187.48 16.0088 187.53 16.0296C187.672 16.0874 187.786 16.1799 187.999 16.1406C188.226 16.099 188.468 16.0921 188.699 16.0597C188.827 16.0412 188.919 16.0574 189.019 16.1175C189.147 16.1938 189.292 16.2516 189.491 16.2146C189.662 16.1822 189.843 16.1753 190.017 16.1545C190.245 16.129 190.245 16.1314 190.65 16.2747C190.696 16.2909 190.756 16.3094 190.806 16.3048C191.101 16.2771 191.393 16.2424 191.687 16.2146C191.801 16.2031 191.911 16.2331 191.99 16.3002C192.021 16.3279 192.011 16.3742 192.021 16.4135C191.435 16.476 190.849 16.5291 190.266 16.6055C190.046 16.6355 189.946 16.5407 189.801 16.4875C189.751 16.469 189.698 16.4297 189.651 16.4343C189.239 16.4736 188.83 16.5153 188.422 16.5661C188.294 16.5823 188.198 16.5731 188.102 16.506C187.857 16.3279 187.558 16.4251 187.281 16.4505C187.068 16.469 187 16.5407 187.025 16.6933C187.057 16.8737 187.185 16.9292 187.512 16.8968C187.629 16.8853 187.747 16.8691 187.864 16.8598C187.978 16.8506 188.081 16.8806 188.173 16.9431C188.262 17.0055 188.368 17.0379 188.479 17.0287C188.713 17.0078 188.951 16.987 189.179 16.9523C189.367 16.9246 189.523 16.9477 189.655 17.0333C189.801 17.1281 189.971 17.1073 190.142 17.0865C190.54 17.0402 190.543 17.0425 190.792 17.1582C190.842 17.1813 190.892 17.2252 190.938 17.2229C191.346 17.1882 191.759 17.1582 192.16 17.1027C192.37 17.0749 192.491 17.1489 192.629 17.209C192.679 17.2299 192.729 17.2761 192.775 17.2715C193.07 17.246 193.365 17.2206 193.653 17.1767C193.788 17.1558 193.869 17.1697 193.979 17.2252C194.242 17.3617 194.249 17.357 194.623 17.3131C194.736 17.2992 194.861 17.2738 194.967 17.2923C195.074 17.3108 195.159 17.3779 195.259 17.4195C195.305 17.438 195.362 17.4634 195.411 17.4588C195.646 17.4403 195.88 17.4126 196.115 17.3871C196.335 17.3617 196.335 17.364 196.748 17.5074C196.915 17.5675 197.089 17.5166 197.256 17.4981C197.437 17.4773 197.6 17.4773 197.739 17.5675C197.878 17.6577 198.045 17.653 198.222 17.6345C198.389 17.616 198.56 17.5652 198.73 17.6276C199.121 17.771 199.121 17.7733 199.363 17.7455C199.715 17.7062 200.063 17.6692 200.418 17.6345C200.464 17.6299 200.525 17.6577 200.571 17.6762C200.671 17.7178 200.756 17.7872 200.862 17.8034C200.969 17.8219 201.093 17.7941 201.207 17.7802C201.573 17.7363 201.598 17.7201 201.843 17.8728C202.049 17.9976 202.305 17.8173 202.497 17.9606C202.607 18.0416 202.756 18.1063 202.963 18.067C203.133 18.0346 203.311 18.0254 203.488 18.0069C203.769 17.9768 203.769 17.9791 204.125 18.1179C204.171 18.1364 204.231 18.1595 204.277 18.1549C204.512 18.1364 204.75 18.1202 204.977 18.0786C205.244 18.03 205.414 18.1179 205.613 18.2035C205.77 18.2705 205.955 18.215 206.122 18.1919C206.303 18.1688 206.466 18.1757 206.601 18.2659C206.743 18.3584 206.91 18.3468 207.088 18.3283C207.255 18.3121 207.426 18.2589 207.596 18.3237C207.962 18.4671 207.962 18.4671 208.229 18.4393C208.463 18.4139 208.698 18.3862 208.932 18.3676C208.979 18.363 209.035 18.3931 209.082 18.4139C209.181 18.4555 209.266 18.5249 209.373 18.5411C209.48 18.5573 209.604 18.5272 209.721 18.5157C209.838 18.5041 209.963 18.4694 210.069 18.4833C210.176 18.4972 210.276 18.555 210.361 18.6059C210.46 18.666 210.553 18.6729 210.688 18.6498C210.858 18.6197 211.036 18.6128 211.21 18.5966C211.306 18.6405 211.406 18.6845 211.498 18.733C211.594 18.7839 211.697 18.7793 211.828 18.7631C212.265 18.7076 212.269 18.7145 212.635 18.8579C212.802 18.9227 212.976 18.8695 213.143 18.8533C213.321 18.8348 213.488 18.8255 213.626 18.918C213.761 19.0059 213.929 19.0175 214.106 18.9897C214.22 18.9712 214.341 18.9597 214.458 18.9527C214.511 18.9504 214.575 18.9597 214.614 18.9782C214.803 19.0753 214.987 19.1632 215.247 19.1008C215.474 19.1193 215.588 19.3089 215.862 19.2719C216.093 19.2395 216.334 19.2325 216.562 19.1909C216.771 19.1539 216.921 19.2187 217.027 19.2996C217.219 19.443 217.489 19.2488 217.681 19.3898C217.791 19.4708 217.933 19.5355 218.146 19.5008C218.381 19.4638 218.456 19.5124 218.523 19.6581C218.562 19.7413 218.555 19.8084 218.484 19.8731C218.413 19.9402 218.335 19.9287 218.221 19.8523C218.09 19.7668 217.933 19.7506 217.745 19.7691C217.56 19.7876 217.446 19.6673 217.294 19.6211C217.141 19.5725 216.96 19.6535 216.8 19.591C216.423 19.4453 216.423 19.4453 216.167 19.4731C215.993 19.4916 215.812 19.5008 215.641 19.5332C215.439 19.5725 215.307 19.5008 215.169 19.4361C215.119 19.4129 215.069 19.369 215.026 19.3713C214.618 19.406 214.206 19.4384 213.801 19.4962C213.587 19.5263 213.474 19.443 213.332 19.3852C213.282 19.3644 213.228 19.3228 213.186 19.3274C212.834 19.3598 212.486 19.4014 212.134 19.4407C212.066 19.5031 211.992 19.5632 211.928 19.6303C211.86 19.6997 211.768 19.7298 211.633 19.7275C211.409 19.7275 211.189 19.8246 210.965 19.702C210.734 19.5771 210.716 19.5841 210.492 19.6141C210.208 19.6535 209.906 19.6442 209.639 19.7344C209.593 19.7506 209.544 19.7945 209.544 19.8269C209.54 19.8477 209.615 19.8778 209.661 19.8963C209.817 19.9518 209.998 19.8708 210.155 19.9286C210.258 19.9657 210.343 20.0211 210.446 20.0605C210.489 20.0766 210.553 20.0743 210.61 20.072C210.67 20.0697 210.727 20.0535 210.784 20.0559C210.837 20.0582 210.894 20.072 210.937 20.0928C211.132 20.1807 211.338 20.2617 211.512 20.3657C211.683 20.4675 211.843 20.3981 212.013 20.3935C212.695 20.5554 212.696 20.5577 213.154 20.5068C213.268 20.4952 213.385 20.4814 213.502 20.4837C213.552 20.4837 213.598 20.5253 213.648 20.5484C213.79 20.6178 213.925 20.6802 214.124 20.6432C214.295 20.6109 214.476 20.6039 214.65 20.5831C214.884 20.5577 214.884 20.5577 215.282 20.7034C215.382 20.7404 215.488 20.7358 215.616 20.7173C215.727 20.7011 215.84 20.7358 215.918 20.8028C215.95 20.8306 215.94 20.8768 215.95 20.9161C215.599 20.9531 215.243 20.9786 214.902 21.0341C214.682 21.0688 214.582 20.9693 214.437 20.9161C214.387 20.8976 214.334 20.8583 214.287 20.8629C213.939 20.8976 213.591 20.9369 213.243 20.9832C213.2 20.9878 213.147 21.041 213.143 21.0734C213.136 21.1335 213.225 21.1913 213.353 21.189C213.523 21.1867 213.69 21.1474 213.843 21.2422C213.971 21.3254 214.131 21.3625 214.319 21.3255C214.433 21.3046 214.554 21.3046 214.668 21.2861C214.97 21.2306 215.243 21.2422 215.471 21.3995C215.645 21.4411 215.815 21.4018 215.982 21.381C216.107 21.3648 216.228 21.3486 216.316 21.3925C216.505 21.485 216.69 21.5775 216.949 21.5151C217.23 21.5798 217.443 21.7163 217.677 21.8273C217.788 21.8805 217.873 21.9105 218.001 21.8759C218.054 21.862 218.118 21.862 218.175 21.855C218.292 21.8435 218.417 21.8088 218.523 21.8226C218.63 21.8388 218.719 21.9059 218.815 21.9475C218.861 21.9683 218.914 22.003 218.96 22.0007C219.138 21.9892 219.312 21.966 219.486 21.9475C219.66 21.9313 219.834 21.9152 220.008 21.899C220.154 21.9591 220.303 22.0192 220.449 22.0794C220.684 22.0539 220.918 22.0285 221.149 22.0054C221.409 21.9776 221.408 21.9799 221.782 22.1233C221.949 22.188 222.126 22.1464 222.286 22.1164C222.553 22.0678 222.73 22.1557 222.919 22.2482C222.958 22.2667 223.029 22.2782 223.075 22.269C223.26 22.2366 223.42 22.262 223.555 22.3476C223.651 22.4077 223.747 22.4355 223.864 22.4239C224.273 22.38 224.681 22.3337 225.09 22.2944C225.14 22.2898 225.196 22.3106 225.243 22.3291C225.605 22.4702 225.609 22.4771 225.875 22.4401C226.113 22.4077 226.334 22.3939 226.522 22.5211C226.561 22.5488 226.621 22.5881 226.664 22.5858C226.955 22.5627 227.25 22.5372 227.538 22.4979C227.67 22.4794 227.762 22.4864 227.865 22.5396C227.997 22.6066 228.114 22.6876 228.331 22.6575C228.931 22.572 228.935 22.5858 229.645 22.7454C229.695 22.7569 229.763 22.7384 229.82 22.7292C229.94 22.7061 230.029 22.7384 230.136 22.7916C230.374 22.9119 230.381 22.905 230.608 22.8795C230.783 22.8587 230.964 22.8541 231.134 22.8194C231.397 22.7685 231.571 22.8587 231.767 22.9443C231.923 23.0113 232.104 22.9558 232.271 22.935C232.453 22.9119 232.616 22.9188 232.751 23.0067C232.844 23.0668 232.943 23.0992 233.06 23.0877C233.469 23.046 233.878 22.9998 234.286 22.9581C234.336 22.9535 234.396 22.972 234.443 22.9882C234.848 23.1316 234.848 23.1385 235.249 23.0853C235.377 23.0692 235.484 23.0645 235.58 23.1131C235.672 23.1593 235.772 23.2033 235.868 23.2472C236.042 23.231 236.219 23.2264 236.39 23.1987C236.521 23.1778 236.614 23.1871 236.717 23.2357C236.852 23.2981 236.966 23.4068 237.179 23.3536C237.289 23.3281 237.417 23.3351 237.527 23.312C237.658 23.2819 237.747 23.3004 237.85 23.3605C237.978 23.4322 238.11 23.5062 238.316 23.4692C238.543 23.4276 238.785 23.4207 239.016 23.3883C239.144 23.3698 239.233 23.3883 239.336 23.4484C239.464 23.5247 239.609 23.5733 239.808 23.5432C240.213 23.4854 240.217 23.497 240.611 23.6427C240.711 23.6797 240.818 23.675 240.945 23.6565C241.056 23.6404 241.169 23.675 241.247 23.7421C241.322 23.8161 241.315 23.8624 241.322 23.9017ZM209.657 3.04442C209.54 3.05598 209.423 3.06985 209.252 2.86866C209.241 2.83397 209.249 2.79235 209.224 2.76229C209.167 2.69985 209.078 2.65591 208.971 2.64897C208.78 2.63972 208.549 2.71834 208.552 2.77847C208.556 2.82934 208.616 2.87327 208.733 2.9149C208.783 2.93109 208.822 2.95884 208.868 2.97734C209.003 3.03053 209.11 3.13462 209.305 3.08143C209.27 2.93805 209.288 3.00974 209.305 3.08143C209.288 3.16931 209.341 3.23175 209.469 3.25719C209.504 3.26413 209.558 3.25949 209.586 3.24561C209.696 3.19474 209.714 3.12537 209.632 2.94268C209.618 2.97274 209.629 3.02591 209.661 3.03979C209.693 3.05366 209.771 3.04212 209.81 3.02593C209.91 2.98199 209.959 2.92417 209.934 2.8756C209.92 2.85017 209.853 2.81779 209.81 2.81779C209.735 2.81779 209.668 2.86866 209.657 3.04442ZM238.39 29.8635C238.131 29.9075 237.833 29.8913 237.573 29.9815C237.527 29.9977 237.481 30.0393 237.477 30.0717C237.474 30.0925 237.545 30.1226 237.587 30.1387C237.683 30.1757 237.79 30.1642 237.914 30.1526C238.103 30.1364 238.213 30.2428 238.359 30.296C238.405 30.3122 238.465 30.3237 238.515 30.3191C238.803 30.2914 239.087 30.2613 239.375 30.2289C239.424 30.222 239.478 30.2058 239.521 30.185C239.663 30.1179 239.648 30.074 239.51 30.0231C239.357 29.9676 239.236 29.8751 239.08 29.8312C238.856 29.7687 238.629 29.852 238.39 29.8635ZM218.21 31.5517C218.036 31.5702 217.866 31.5887 217.692 31.6072C217.635 31.6142 217.574 31.6165 217.521 31.6257C217.411 31.6419 217.329 31.6905 217.276 31.7668C217.358 31.8269 217.457 31.8616 217.567 31.8547C217.741 31.8408 217.912 31.8107 218.086 31.8038C218.274 31.7945 218.385 31.8986 218.53 31.9518C218.576 31.968 218.633 31.9703 218.687 31.9726C218.95 31.9819 219.109 31.8616 219.06 31.6928C219.024 31.561 218.889 31.4824 218.726 31.4985C218.555 31.5147 218.381 31.5332 218.21 31.5517ZM239.606 26.4455C239.648 26.4062 239.695 26.3785 239.716 26.3438C239.78 26.2258 239.755 26.1379 239.638 26.0454C239.496 25.9321 239.322 26.0084 239.162 26.02C239.123 26.0223 239.08 26.0709 239.059 26.1009C239.044 26.1218 239.044 26.1657 239.066 26.1773C239.24 26.2698 239.425 26.3553 239.606 26.4455ZM208.78 19.6141C208.609 19.6326 208.435 19.6465 208.264 19.672C208.222 19.6789 208.183 19.7228 208.158 19.7529C208.112 19.8084 208.161 19.8847 208.307 19.8916C208.474 19.9009 208.648 19.8616 208.822 19.8431C209.042 19.82 209.174 19.7344 209.092 19.6604C209.014 19.5887 208.908 19.5748 208.78 19.6141ZM21.7293 14.6721C21.843 14.6606 21.9603 14.6513 22.074 14.6351C22.1806 14.6189 22.2624 14.5681 22.3157 14.4917C22.2269 14.4316 22.1273 14.3992 22.0172 14.4062C21.8431 14.4201 21.6725 14.4386 21.5019 14.4617C21.3953 14.4756 21.2923 14.5264 21.2675 14.6051C21.2426 14.6652 21.4806 14.6999 21.7293 14.6721ZM193.752 14.316C193.798 14.3368 193.844 14.3784 193.891 14.3784C194.004 14.3784 194.122 14.3645 194.228 14.3414C194.274 14.3322 194.31 14.2905 194.331 14.2582C194.345 14.2374 194.342 14.2004 194.321 14.1819C194.218 14.0709 193.805 14.1102 193.738 14.2374C193.731 14.2605 193.748 14.2905 193.752 14.316ZM182.541 1.65223C182.552 1.68924 182.555 1.72623 182.569 1.76323C182.598 1.83261 182.676 1.8835 182.79 1.91819C182.878 1.86037 182.925 1.79563 182.921 1.72625C182.918 1.68925 182.907 1.65223 182.893 1.61523C182.864 1.54585 182.786 1.49499 182.672 1.4603C182.584 1.5158 182.541 1.58054 182.541 1.65223ZM247.818 31.9541C247.786 31.9842 247.754 32.0143 247.718 32.042C247.814 32.1091 247.903 32.1299 247.971 32.0929C248.013 32.0697 248.038 32.0351 248.07 32.005C247.974 31.9379 247.889 31.9194 247.818 31.9541ZM245.608 32.2686C245.654 32.2894 245.696 32.3172 245.746 32.3311C245.828 32.3542 245.902 32.3149 245.959 32.2316C245.913 32.2108 245.871 32.1831 245.821 32.1692C245.739 32.1461 245.664 32.1854 245.608 32.2686ZM247.008 31.8454C246.983 31.9009 247.033 31.9472 247.164 31.9865C247.196 31.9564 247.239 31.9287 247.26 31.8963C247.295 31.8431 247.235 31.7946 247.107 31.7576C247.072 31.7853 247.04 31.8154 247.008 31.8454ZM239.506 29.3525C239.481 29.408 239.531 29.4542 239.663 29.4935C239.695 29.4635 239.737 29.4357 239.759 29.4033C239.794 29.3501 239.734 29.3016 239.606 29.2646C239.57 29.2923 239.538 29.3224 239.506 29.3525ZM229.287 12.9886C229.255 13.0186 229.223 13.0487 229.187 13.0764C229.283 13.1435 229.372 13.1643 229.439 13.1273C229.482 13.1042 229.507 13.0695 229.539 13.0394C229.443 12.9724 229.358 12.9539 229.287 12.9886ZM219.497 4.30708C219.582 4.32327 219.653 4.29091 219.714 4.20534C219.667 4.18453 219.625 4.15678 219.575 4.1429C219.493 4.11977 219.419 4.1591 219.362 4.24235C219.408 4.26548 219.454 4.28627 219.497 4.30708ZM214.298 3.76363C214.266 3.79369 214.234 3.82376 214.199 3.85151C214.295 3.91858 214.383 3.93938 214.451 3.90238C214.494 3.87926 214.518 3.84457 214.55 3.8145C214.454 3.74744 214.369 3.73126 214.298 3.76363ZM179.044 1.64992C179.012 1.67998 178.98 1.71005 178.945 1.7378C179.041 1.80486 179.13 1.82567 179.197 1.78867C179.24 1.76554 179.265 1.73085 179.297 1.70079C179.201 1.63372 179.115 1.61754 179.044 1.64992ZM3.50721 20.4652C3.46102 20.4443 3.41486 20.4236 3.37222 20.4004C3.26917 20.4629 3.2372 20.5207 3.29406 20.5646C3.32959 20.5924 3.38285 20.6086 3.42905 20.6294C3.53565 20.5669 3.56051 20.5114 3.50721 20.4652Z" fill="#FFE492"/>
</svg>
