<svg width="317" height="31" viewBox="0 0 317 31" fill="none" xmlns="http://www.w3.org/2000/svg">
<path d="M298.175 16.6046C297.741 16.6298 297.302 16.6471 296.876 16.6849C296.599 16.7085 296.481 16.6392 296.296 16.603C296.235 16.5904 296.169 16.5652 296.112 16.5684C295.681 16.5936 295.251 16.6219 294.821 16.6502C294.689 16.7117 294.606 16.7936 294.404 16.8235C294.206 16.8518 293.973 16.8518 293.754 16.866C293.464 16.8833 293.174 16.9007 292.885 16.9164C292.74 16.9243 292.621 16.9542 292.573 17.0109C292.564 17.0203 292.661 17.044 292.713 17.0581C292.889 17.1054 293.06 17.1589 293.253 17.1951C293.438 17.2298 293.666 17.1731 293.864 17.2172C294.307 17.3164 294.312 17.3148 294.65 17.2959C294.939 17.2786 295.229 17.2597 295.519 17.2471C295.576 17.244 295.642 17.2676 295.703 17.2802C295.888 17.3148 296.006 17.3936 296.279 17.3637C296.485 17.34 296.713 17.3353 296.928 17.3227C297.108 17.3684 297.275 17.4204 297.468 17.4566C297.648 17.4912 297.701 17.518 297.605 17.5637C297.517 17.6062 297.394 17.6235 297.231 17.6267C297.086 17.6282 296.941 17.6424 296.797 17.6503C296.722 17.655 296.652 17.6582 296.581 17.6629C296.305 17.6802 296.305 17.6802 295.8 17.5794C295.602 17.54 295.378 17.5952 295.19 17.5574C295.062 17.5322 294.953 17.4944 294.83 17.4676C294.777 17.4566 294.694 17.455 294.628 17.4582C294.408 17.4692 294.189 17.4771 293.978 17.4975C293.829 17.5117 293.741 17.5558 293.758 17.5999C293.763 17.6172 293.868 17.6424 293.93 17.644C294.07 17.6471 294.219 17.6251 294.355 17.6361C294.487 17.6471 294.623 17.6786 294.72 17.7133C294.917 17.7857 295.141 17.7212 295.33 17.7401C295.528 17.7605 295.69 17.8235 295.879 17.8613C295.927 17.8708 296.019 17.855 296.094 17.8503C296.309 17.8393 296.524 17.8298 296.74 17.8188C296.92 17.8645 297.113 17.9054 297.275 17.9574C297.569 18.0519 297.886 18.0881 298.268 18.0424C298.483 18.0172 298.693 18.0267 298.865 18.0881C299.04 18.1511 299.242 18.1448 299.466 18.1322C299.673 18.1196 299.883 18.0849 300.094 18.129C300.551 18.2267 300.555 18.2314 301.095 18.1936C301.258 18.1826 301.38 18.1794 301.503 18.2157C301.617 18.2487 301.74 18.2771 301.859 18.3086C302.074 18.2976 302.294 18.2865 302.509 18.2739C302.785 18.2566 302.939 18.2787 303.005 18.3668C303.044 18.4204 303.062 18.4692 303.159 18.5054C303.273 18.5495 303.396 18.5479 303.562 18.5354C303.721 18.5243 303.835 18.507 303.901 18.4503C303.927 18.4267 303.98 18.4046 304.028 18.3857C304.067 18.3716 304.129 18.3495 304.164 18.3527C304.23 18.359 304.318 18.3763 304.34 18.3968C304.555 18.5873 304.555 18.5889 304.774 18.644C305.016 18.7054 305.266 18.7606 305.486 18.8298C305.683 18.8913 305.881 18.8645 306.096 18.8645C306.258 18.8645 306.364 18.9055 306.351 18.9464C306.342 18.97 306.28 19.0047 306.228 19.0078C305.797 19.0393 305.363 19.0661 304.928 19.0881C304.875 19.0913 304.81 19.0629 304.748 19.0488C304.625 19.0204 304.515 18.9763 304.384 18.9669C304.252 18.9574 304.098 18.981 303.953 18.9889C303.808 18.9968 303.655 19.0173 303.523 19.0047C303.391 18.9921 303.286 18.9464 303.163 18.9165C303.106 18.9023 303.027 18.8818 302.979 18.8866C302.658 18.9244 302.421 18.8724 302.193 18.8031C302.144 18.7889 302.061 18.7795 302 18.7826C301.49 18.8094 300.985 18.8409 300.476 18.8708C300.27 18.8834 300.103 18.8283 300.059 18.7354C300.037 18.6834 299.993 18.6314 299.993 18.5795C299.993 18.485 299.752 18.433 299.576 18.444C299.286 18.4598 298.992 18.4724 298.707 18.496C298.474 18.5149 298.276 18.496 298.118 18.4393C297.934 18.3747 297.723 18.3873 297.512 18.4046C297.354 18.4172 297.31 18.4692 297.319 18.5999C297.328 18.7054 297.253 18.7385 296.968 18.7558C296.608 18.7779 296.243 18.7999 295.879 18.8173C295.822 18.8204 295.756 18.7936 295.699 18.7795C295.576 18.7511 295.466 18.7054 295.335 18.696C295.203 18.685 295.049 18.7086 294.904 18.718C294.759 18.7259 294.606 18.748 294.474 18.7369C294.342 18.7259 294.232 18.6787 294.114 18.6488C294.057 18.6346 293.987 18.6141 293.93 18.6172C293.64 18.6298 293.35 18.6488 293.06 18.6661C292.735 18.685 292.735 18.685 292.274 18.5873C292.064 18.5432 291.853 18.5779 291.646 18.5905C291.427 18.6031 291.22 18.6094 291.049 18.5464C290.935 18.5054 290.808 18.4802 290.672 18.4881C290.307 18.507 289.947 18.5306 289.583 18.5495C289.521 18.5527 289.438 18.5448 289.39 18.5306C289.157 18.4645 288.929 18.4125 288.604 18.4456C288.323 18.4739 288.02 18.4755 287.739 18.5023C287.585 18.5165 287.515 18.5669 287.546 18.6062C287.563 18.6267 287.655 18.6503 287.717 18.6503C287.857 18.6519 288.011 18.6283 288.143 18.6377C288.415 18.6566 288.551 18.7889 288.907 18.7527C289.117 18.7306 289.337 18.7228 289.556 18.7165C289.614 18.7149 289.675 18.7448 289.736 18.7606C289.912 18.8031 290.066 18.8582 290.32 18.8298C290.531 18.8078 290.755 18.8015 290.97 18.7889C291.313 18.7684 291.313 18.77 291.756 18.8661C291.967 18.9118 292.178 18.8755 292.384 18.8645C292.538 18.8566 292.683 18.8409 292.806 18.8629C292.994 18.896 293.13 18.9716 293.363 18.9669C293.583 18.9621 293.798 18.9401 294.017 18.9322C294.153 18.9275 294.281 18.9527 294.391 18.9952C294.505 19.0377 294.628 19.0566 294.777 19.0472C294.992 19.0346 295.212 19.0188 295.431 19.011C295.493 19.0094 295.563 19.0236 295.62 19.0362C295.743 19.0645 295.861 19.0976 295.98 19.1275C296.195 19.118 296.415 19.1149 296.625 19.096C296.788 19.0818 296.902 19.0881 297.034 19.1196C297.201 19.1622 297.337 19.2378 297.609 19.2015C297.745 19.1842 297.903 19.1889 298.039 19.1732C298.206 19.1527 298.32 19.1606 298.439 19.2078C298.663 19.2976 298.944 19.2992 299.233 19.2645C299.55 19.2267 299.787 19.2708 300.024 19.3401C300.274 19.4126 300.274 19.411 300.467 19.5858C300.524 19.6362 300.687 19.6598 300.823 19.6504C301.051 19.6346 301.249 19.6425 301.416 19.7023C301.591 19.7669 301.802 19.759 302.017 19.7417C302.302 19.7181 302.588 19.6976 302.821 19.789C302.935 19.833 303.058 19.8441 303.211 19.833C303.646 19.8047 304.085 19.7874 304.511 19.7527C304.77 19.7307 304.919 19.7811 305.095 19.8236C305.332 19.8819 305.591 19.9338 305.591 20.0582C305.591 20.0787 305.652 20.1023 305.705 20.1181C305.819 20.1512 305.942 20.1795 306.061 20.211C306.236 20.2582 306.408 20.2976 306.649 20.2724C306.86 20.252 307.084 20.2456 307.299 20.2315C307.514 20.2173 307.712 20.2094 307.905 20.2693C308.129 20.337 308.366 20.4016 308.621 20.452C308.801 20.4882 309.038 20.4268 309.231 20.4756C309.349 20.5055 309.464 20.5401 309.591 20.5653C309.643 20.5764 309.727 20.5685 309.797 20.5653C309.942 20.559 310.091 20.5543 310.232 20.5386C310.394 20.5213 310.517 20.5244 310.64 20.5606C310.754 20.5937 310.869 20.6394 311 20.6488C311.198 20.663 311.417 20.6 311.615 20.6724C311.716 20.7087 311.843 20.7433 311.975 20.7543C312.107 20.7654 312.26 20.7417 312.401 20.7433C312.462 20.7433 312.537 20.7685 312.572 20.789C312.594 20.8 312.563 20.8299 312.533 20.8457C312.493 20.8646 312.436 20.8898 312.379 20.8929C311.944 20.9213 311.51 20.9449 311.075 20.9717C310.816 20.9874 310.816 20.9874 310.293 20.8882C310.17 20.8646 310.034 20.8693 309.881 20.8803C309.674 20.8945 309.464 20.9213 309.248 20.8929C308.967 20.7858 308.621 20.7764 308.252 20.8173C308.098 20.8346 307.958 20.8347 307.843 20.8047C307.602 20.7449 307.347 20.6898 307.132 20.6189C306.965 20.5638 306.886 20.5591 306.816 20.6346C306.794 20.6583 306.772 20.6835 306.776 20.7055C306.803 20.7843 306.851 20.8614 306.877 20.9402C306.886 20.9622 306.851 20.9874 306.829 21.011C306.759 21.0772 306.667 21.0724 306.513 21.0173C306.359 20.9622 306.175 20.926 305.929 20.9512C305.718 20.9732 305.49 20.9701 305.279 20.9937C304.954 21.0284 304.726 20.978 304.493 20.9102C304.445 20.8961 304.362 20.8882 304.3 20.8914C303.646 20.9276 302.996 20.9685 302.342 21.0047C302.202 21.0126 302.074 20.989 301.964 20.9465C301.85 20.9039 301.723 20.8819 301.582 20.8898C301.003 20.9228 300.423 20.9528 299.844 20.9937C299.607 21.011 299.418 20.9906 299.255 20.9354C299.132 20.8945 299.018 20.8819 298.865 20.8866C298.698 20.8913 298.579 20.9071 298.496 20.9528C298.417 20.9969 298.474 21.0236 298.649 21.0583C298.838 21.0961 299.014 21.1449 299.194 21.189C299.339 21.1827 299.484 21.1701 299.624 21.1717C299.686 21.1717 299.743 21.2 299.804 21.2158C299.98 21.2614 300.142 21.3071 300.393 21.2819C300.603 21.2599 300.827 21.2551 301.042 21.241C301.341 21.2236 301.341 21.2236 301.824 21.3229C301.947 21.3481 302.078 21.3465 302.237 21.3323C302.373 21.3213 302.513 21.3433 302.61 21.3906C302.649 21.4095 302.636 21.441 302.553 21.5449C302.553 21.6221 302.645 21.5874 302.676 21.537C302.724 21.4646 302.632 21.441 302.456 21.4803C302.333 21.5087 302.272 21.5496 302.302 21.5827C302.32 21.6 302.403 21.6221 302.553 21.5449C302.939 21.4504 303.233 21.4394 303.514 21.4142C303.681 21.4 303.786 21.4063 303.918 21.4473C304.076 21.4961 304.234 21.5481 304.493 21.5229C304.774 21.4945 305.073 21.4914 305.358 21.4677C305.622 21.4457 305.758 21.515 305.925 21.5559C306.127 21.6048 306.351 21.5496 306.535 21.578C306.728 21.6063 306.864 21.6756 307.088 21.6882C307.413 21.6457 307.619 21.7245 307.865 21.7764C308.059 21.8158 308.287 21.7811 308.493 21.7638C308.726 21.7449 308.919 21.7623 309.082 21.8189C309.266 21.8835 309.472 21.8693 309.683 21.8552C310.175 21.8237 310.192 21.8189 310.478 21.9056C310.684 21.9685 310.882 21.9402 311.088 21.9323C311.268 21.9749 311.444 22.0205 311.633 22.0583C311.681 22.0678 311.773 22.052 311.848 22.0473C312.063 22.0347 312.282 22.0221 312.497 22.0095C312.642 22.0016 312.796 21.978 312.928 21.9874C313.059 21.9985 313.169 22.0442 313.288 22.0741C313.406 22.104 313.529 22.1339 313.643 22.1654C313.819 22.2127 313.986 22.252 314.232 22.2284C314.442 22.2079 314.662 22.2016 314.882 22.1875C315.158 22.1701 315.149 22.1749 315.663 22.2694C315.94 22.3213 316.225 22.2583 316.506 22.252C316.647 22.2489 316.783 22.2662 316.879 22.3119C316.919 22.3308 316.906 22.3623 316.919 22.389C316.194 22.4316 315.465 22.4678 314.75 22.5198C314.473 22.5402 314.328 22.4835 314.179 22.4363C313.933 22.3607 313.608 22.4709 313.376 22.3733C313.235 22.315 313.033 22.282 312.792 22.3103C312.651 22.326 312.502 22.3245 312.357 22.3386C311.988 22.3733 311.65 22.3749 311.356 22.2662C311.255 22.2284 311.11 22.2079 311.005 22.1717C310.882 22.1323 310.763 22.1103 310.618 22.1182C309.964 22.156 309.314 22.1937 308.664 22.2347C308.607 22.2378 308.55 22.2615 308.502 22.2788C308.379 22.3229 308.419 22.3575 308.616 22.3859C308.682 22.3953 308.735 22.4158 308.796 22.4315C308.915 22.4615 309.024 22.5087 309.156 22.5198C309.288 22.5308 309.442 22.5087 309.587 22.5009C309.731 22.493 309.885 22.4694 310.017 22.4788C310.149 22.4898 310.258 22.5355 310.381 22.5639C310.438 22.578 310.509 22.6016 310.566 22.6001C310.855 22.5906 311.141 22.5733 311.431 22.5591C311.611 22.6016 311.764 22.6631 311.979 22.6772C312.116 22.6867 312.26 22.6694 312.401 22.6725C312.462 22.6741 312.541 22.6977 312.572 22.7182C312.59 22.7308 312.533 22.7623 312.489 22.778C312.322 22.8379 312.094 22.8268 311.887 22.8457C311.663 22.8662 311.461 22.8599 311.29 22.7985C311.176 22.7576 311.048 22.7355 310.908 22.7434C310.544 22.7639 310.184 22.7875 309.819 22.8048C309.758 22.808 309.683 22.7938 309.626 22.7828C309.165 22.6867 309.165 22.6835 308.84 22.704C308.361 22.7339 308.362 22.7339 308.041 22.6505C307.98 22.6347 307.914 22.6048 307.861 22.6064C307.352 22.6316 306.847 22.6568 306.342 22.693C306.175 22.704 306.061 22.704 305.938 22.6631C305.833 22.6284 305.71 22.589 305.578 22.5796C305.442 22.5701 305.292 22.5938 305.148 22.6016C305.003 22.6095 304.849 22.63 304.722 22.6174C304.59 22.6048 304.476 22.5607 304.362 22.5292C304.243 22.4961 304.116 22.4977 303.953 22.5103C303.453 22.5465 303.448 22.5418 302.952 22.4442C302.895 22.4331 302.821 22.4205 302.759 22.4237C302.395 22.4426 302.035 22.4662 301.67 22.4851C301.53 22.493 301.394 22.4725 301.297 22.4268C301.257 22.4079 301.271 22.3764 301.244 22.315C301.214 22.3008 301.249 22.326 301.257 22.3497C301.323 22.3465 301.402 22.3497 301.451 22.3371C301.574 22.3071 301.635 22.2678 301.604 22.2347C301.587 22.2174 301.503 22.1953 301.451 22.1953C301.354 22.1953 301.271 22.23 301.244 22.315C300.968 22.367 300.673 22.378 300.388 22.4032C300.221 22.419 300.116 22.4111 299.984 22.3701C299.826 22.3198 299.664 22.2709 299.405 22.2961C299.124 22.3245 298.825 22.3292 298.535 22.3512C298.202 22.3764 298.057 22.2347 297.776 22.2378C297.486 22.241 297.196 22.2678 296.906 22.2867C296.652 22.3024 296.652 22.3024 296.125 22.2001C295.932 22.1623 295.703 22.2174 295.515 22.178C295.387 22.1528 295.277 22.115 295.155 22.0882C295.102 22.0772 295.018 22.0772 294.953 22.0804C294.588 22.0993 294.219 22.1119 293.868 22.1465C293.469 22.1875 293.166 22.1434 292.88 22.0504C292.52 22.0678 292.156 22.0772 291.8 22.1071C291.541 22.1292 291.392 22.0772 291.216 22.0347C291.155 22.0205 291.102 21.9969 291.036 21.9906C290.97 21.9843 290.891 21.9969 290.821 22.0016C290.531 22.0189 290.233 22.0268 289.952 22.0552C289.605 22.0914 289.473 21.9622 289.205 21.9465C289.025 22.0237 288.929 22.1292 288.573 22.1371C288.283 22.1434 287.993 22.1686 287.704 22.1859C287.559 22.1938 287.414 22.2032 287.269 22.2111C287.036 22.2253 286.927 22.2867 286.975 22.3812C287.001 22.4331 287.023 22.4851 287.045 22.5371C287.089 22.63 286.979 22.7087 286.795 22.7198C286.285 22.7497 285.781 22.7812 285.271 22.8079C285.135 22.8158 285.003 22.789 284.894 22.7465C284.779 22.704 284.652 22.6851 284.512 22.693C284.002 22.7229 283.497 22.7544 282.988 22.7812C282.931 22.7843 282.856 22.7686 282.799 22.756C282.676 22.7276 282.558 22.6946 282.439 22.6646C282.15 22.6788 281.864 22.6883 281.579 22.7071C281.118 22.7355 281.118 22.7371 280.78 22.6505C280.718 22.6347 280.657 22.6048 280.6 22.6064C280.38 22.6127 280.165 22.6284 279.945 22.6426C279.3 22.6835 279.3 22.6835 279.111 22.6363C278.94 22.5922 278.786 22.5387 278.527 22.5639C278.246 22.5922 277.948 22.6016 277.658 22.6174C277.443 22.6284 277.228 22.641 277.012 22.6442C276.955 22.6457 276.894 22.6158 276.833 22.6001C276.657 22.5513 276.486 22.5119 276.244 22.5386C276.104 22.5544 275.954 22.5576 275.809 22.5654C275.432 22.5875 275.432 22.5875 274.813 22.493C274.751 22.4835 274.677 22.4725 274.615 22.4772C274.106 22.5056 273.601 22.5371 273.092 22.5639C273.03 22.567 272.956 22.5575 272.894 22.5497C272.2 22.4583 272.2 22.4583 271.463 22.5024C271.182 22.5182 271.173 22.5245 270.879 22.441C270.747 22.4048 270.637 22.3875 270.484 22.3985C269.904 22.4363 269.32 22.4615 268.745 22.5056C268.486 22.5245 268.337 22.4772 268.161 22.4347C268.1 22.4205 268.034 22.389 267.981 22.3906C267.402 22.4205 266.822 22.4568 266.242 22.4867C266.19 22.4898 266.124 22.4583 266.062 22.4442C265.944 22.4158 265.83 22.3733 265.698 22.3638C265.562 22.3544 265.412 22.378 265.263 22.3859C264.899 22.4064 264.899 22.4048 264.477 22.3119C264.42 22.2993 264.346 22.2819 264.289 22.2851C263.709 22.3166 263.125 22.3434 262.55 22.389C262.221 22.4142 261.997 22.3686 261.764 22.3024C261.716 22.2882 261.632 22.2819 261.571 22.2851C260.917 22.3213 260.267 22.3623 259.613 22.3985C259.476 22.4064 259.345 22.3796 259.235 22.3386C259.059 22.2741 258.853 22.2819 258.633 22.2961C258.129 22.3292 258.124 22.3276 257.826 22.252C257.764 22.2363 257.711 22.2158 257.646 22.2079C257.584 22.2001 257.505 22.2048 257.439 22.2079C257.149 22.2237 256.86 22.241 256.57 22.2583C256.28 22.2756 255.986 22.2851 255.7 22.3119C255.349 22.3449 255.182 22.2426 254.936 22.1953C254.576 22.2158 254.208 22.2284 253.852 22.2615C253.58 22.2867 253.453 22.2174 253.273 22.1812C253.211 22.1686 253.145 22.1418 253.088 22.1449C252.434 22.1796 251.78 22.2174 251.13 22.2599C250.972 22.2693 250.866 22.2567 250.735 22.2189C250.441 22.1339 250.427 22.1371 249.936 22.1686C249.72 22.1827 249.514 22.1953 249.33 22.1308C249.167 22.0725 248.97 22.0583 248.737 22.0772C248.452 22.1008 248.157 22.1134 247.868 22.1292C247.578 22.1465 247.288 22.1701 246.998 22.178C246.766 22.1859 246.625 22.1119 246.441 22.0741C246.384 22.063 246.305 22.0615 246.239 22.0646C245.949 22.0788 245.65 22.0898 245.369 22.1166C245.027 22.1497 244.838 22.063 244.597 22.0127C244.544 22.0016 244.456 22.0079 244.39 22.0127C243.881 22.041 243.376 22.0725 242.867 22.1024C242.687 22.0599 242.502 22.019 242.322 21.9764C242.032 21.9922 241.743 22.0095 241.453 22.0252C241.233 22.0378 241.009 22.0426 240.803 22.0662C240.535 22.0977 240.404 22.0237 240.224 21.9874C240.162 21.9748 240.096 21.9481 240.039 21.9512C239.675 21.9686 239.31 21.9875 238.95 22.0142C238.608 22.041 238.472 21.8992 238.191 21.9008C237.901 21.9024 237.602 21.9229 237.321 21.9512C236.996 21.9843 236.768 21.9339 236.535 21.8662C236.487 21.852 236.404 21.8441 236.342 21.8473C235.978 21.8662 235.618 21.8898 235.253 21.9087C235.192 21.9119 235.117 21.904 235.056 21.8945C234.362 21.8016 234.362 21.8 234.059 21.8189C233.844 21.8315 233.625 21.8473 233.405 21.8552C233.344 21.8583 233.269 21.8441 233.212 21.8315C232.755 21.7355 232.755 21.7339 232.426 21.7528C232.136 21.7701 231.846 21.7874 231.556 21.8048C231.376 21.7622 231.192 21.7213 231.012 21.6788C230.652 21.6993 230.283 21.715 229.928 21.7433C229.761 21.7559 229.651 21.7512 229.524 21.7118C229.366 21.6646 229.208 21.6095 228.944 21.6363C228.663 21.6646 228.365 21.6678 228.079 21.6914C227.737 21.7197 227.596 21.5764 227.32 21.578C227.03 21.5796 226.731 21.6 226.45 21.6284C226.125 21.6614 225.897 21.6111 225.664 21.5433C225.616 21.5292 225.533 21.5213 225.471 21.5244C224.672 21.5701 223.877 21.6158 223.078 21.6646C222.587 21.6945 222.587 21.6961 221.651 21.6095C221.585 21.6032 221.515 21.5969 221.449 21.6C221.159 21.6142 220.861 21.6252 220.58 21.652C220.237 21.6851 220.049 21.6 219.807 21.5481C219.755 21.537 219.671 21.5433 219.601 21.5465C219.381 21.5575 219.166 21.5717 218.947 21.5843C218.657 21.6016 218.367 21.6189 218.077 21.6363C217.897 21.5953 217.713 21.5528 217.533 21.5118C217.173 21.5323 216.804 21.5433 216.448 21.5764C216.176 21.6016 216.049 21.5355 215.869 21.4977C215.807 21.4851 215.742 21.4583 215.684 21.4599C215.03 21.4945 214.376 21.5307 213.726 21.5748C213.458 21.5937 213.335 21.5229 213.155 21.4866C213.094 21.4756 213.024 21.4551 212.967 21.4583C212.532 21.4803 212.097 21.5071 211.663 21.5339C211.417 21.5496 211.417 21.5496 210.881 21.452C210.82 21.441 210.749 21.4299 210.688 21.4331C209.309 21.5118 207.935 21.5953 206.556 21.6741C206.416 21.6819 206.289 21.6583 206.179 21.6158C206.065 21.5733 205.937 21.5512 205.797 21.5591C205.217 21.5922 204.633 21.6221 204.058 21.663C203.821 21.6804 203.632 21.6599 203.47 21.6047C203.347 21.5638 203.233 21.5481 203.079 21.5575C202.789 21.5764 202.499 21.5922 202.21 21.6095C201.92 21.6268 201.63 21.6441 201.34 21.6615C201.051 21.6788 200.756 21.6882 200.471 21.715C200.12 21.7481 199.949 21.6504 199.707 21.6016C199.272 21.6252 198.838 21.6489 198.407 21.6741C197.828 21.7071 197.248 21.7433 196.669 21.7748C196.616 21.778 196.55 21.7496 196.489 21.7355C196.309 21.6961 196.177 21.641 195.909 21.6583C194.609 21.7418 193.301 21.8126 191.997 21.8945C191.725 21.9119 191.606 21.8441 191.422 21.8079C191.36 21.7969 191.29 21.7748 191.233 21.778C190.509 21.8174 189.784 21.8615 189.06 21.904C188.766 21.9213 188.766 21.9213 188.274 21.8237C188.217 21.8126 188.142 21.7985 188.081 21.8016C187.137 21.8552 186.197 21.9119 185.253 21.967C185.113 21.9748 184.985 21.9528 184.871 21.9103C184.761 21.8678 184.63 21.8441 184.494 21.852C183.624 21.9024 182.75 21.9512 181.886 22.0063C181.653 22.0221 181.46 22.0079 181.293 21.9512C181.174 21.9103 181.056 21.893 180.906 21.9024C179.602 21.9796 178.298 22.0536 176.994 22.1355C176.744 22.1512 176.568 22.1213 176.41 22.0693C176.283 22.0284 176.173 22.0205 176.015 22.0268C175.848 22.0347 175.747 22.052 175.655 22.0993C175.537 22.1607 175.462 22.2379 175.181 22.2426C174.891 22.2473 174.597 22.2662 174.312 22.293C174.039 22.3198 173.912 22.2489 173.741 22.2064C173.614 22.1764 173.495 22.1717 173.333 22.1859C173.183 22.1985 173.091 22.2252 173.003 22.2756C172.81 22.3827 172.793 22.3827 172.555 22.315C172.428 22.2788 172.314 22.2504 172.173 22.2567C171.594 22.2882 171.014 22.3229 170.435 22.3591C170.101 22.3796 170.097 22.3827 169.846 22.304C169.724 22.2646 169.605 22.2457 169.46 22.2552C167.866 22.3497 166.273 22.441 164.679 22.5402C164.433 22.556 164.266 22.5229 164.09 22.4757C164.033 22.4599 163.976 22.4378 163.91 22.4315C163.845 22.4253 163.77 22.4316 163.7 22.4347C162.541 22.5024 161.377 22.567 160.222 22.6426C159.959 22.6599 159.818 22.6095 159.638 22.5686C159.577 22.5544 159.524 22.5324 159.458 22.5261C159.392 22.5213 159.313 22.5323 159.243 22.5371C158.084 22.6048 156.921 22.6694 155.766 22.745C155.489 22.7623 155.371 22.6961 155.191 22.6615C155.129 22.6489 155.063 22.6253 155.006 22.6284C154.642 22.6457 154.282 22.6694 153.917 22.6898C153.048 22.7418 152.179 22.7906 151.309 22.8442C150.976 22.8647 150.831 22.7245 150.55 22.7308C150.185 22.7387 149.825 22.7702 149.461 22.7922C149.171 22.8095 148.881 22.8253 148.591 22.8442C148.306 22.8615 148.306 22.8615 147.595 22.7701C147.533 22.7623 147.459 22.7513 147.397 22.7544C146.383 22.8127 145.364 22.8709 144.355 22.9339C144.122 22.9481 143.929 22.9402 143.762 22.882C143.643 22.841 143.52 22.8205 143.375 22.83C141.852 22.9198 140.333 23.0095 138.809 23.0977C138.752 23.1009 138.677 23.0851 138.62 23.0725C138.497 23.0442 138.379 23.0111 138.26 22.9812C138.173 23.0174 138.058 23.0505 138.001 23.0914C137.922 23.1465 137.817 23.1623 137.65 23.1717C137.483 23.1812 137.378 23.178 137.246 23.1371C137.088 23.0867 136.926 23.0473 136.667 23.0631C135.073 23.1623 133.479 23.2521 131.885 23.3497C131.622 23.3655 131.499 23.2961 131.314 23.2599C131.253 23.2489 131.183 23.2316 131.126 23.2347C130.471 23.271 129.822 23.3103 129.167 23.3481C127.354 23.4552 125.541 23.5576 123.732 23.671C123.403 23.6915 123.179 23.6521 122.946 23.5844C122.898 23.5702 122.814 23.5623 122.753 23.5655C120.215 23.7135 117.677 23.8631 115.144 24.0127C115.008 24.0206 114.876 23.9954 114.766 23.9544C114.652 23.9119 114.525 23.8915 114.384 23.8993C113.225 23.967 112.066 24.0348 110.907 24.1041C110.617 24.1214 110.613 24.1229 110.314 24.0474C110.253 24.0316 110.187 24.0017 110.139 24.0049C110.038 24.0127 109.941 24.0521 109.871 24.1056C109.8 24.1623 109.691 24.1781 109.528 24.1891C109.361 24.2001 109.252 24.1954 109.124 24.1576C108.962 24.1104 108.813 24.0647 108.549 24.0804C105.217 24.282 101.884 24.4757 98.5517 24.6757C98.2838 24.6915 98.1609 24.6253 97.9765 24.5891C97.915 24.5781 97.8536 24.5623 97.7877 24.5592C97.7175 24.556 97.6428 24.5655 97.5726 24.5702C92.137 24.8899 86.7015 25.2112 81.2659 25.5309C80.941 25.5498 80.9454 25.5498 80.5897 25.6947C80.5458 25.712 80.4887 25.7356 80.4272 25.7388C78.7632 25.8395 77.0948 25.9372 75.4264 26.0348C74.7019 26.0773 73.9775 26.1215 73.253 26.1624C72.994 26.1766 72.994 26.1766 72.3749 26.3467C72.3222 26.3608 72.2607 26.3797 72.1992 26.3829C69.3014 26.5545 66.4036 26.7262 63.5014 26.8947C63.2731 26.9073 63.0887 26.9357 62.9833 27.0113C62.9087 27.0648 62.8121 27.0963 62.6672 27.1057C60.6387 27.2254 58.6103 27.3467 56.5775 27.4632C56.336 27.4774 56.191 27.5215 56.0725 27.5877C56.033 27.6097 55.9978 27.6349 55.9408 27.6506C55.8881 27.6648 55.8091 27.6695 55.7432 27.6743C54.0045 27.7766 52.2659 27.8822 50.5228 27.9798C50.2638 27.994 50.1583 28.0522 50.031 28.1137C49.9871 28.1341 49.9563 28.1625 49.8993 28.1767C49.8422 28.1892 49.7588 28.1892 49.6885 28.1924C48.2396 28.2774 46.7908 28.3641 45.3419 28.4491C45.0609 28.4412 44.9994 28.5326 44.8633 28.5877C44.815 28.6066 44.7799 28.6318 44.7228 28.6444C44.6614 28.657 44.5822 28.6554 44.5076 28.6585C43.3485 28.7263 42.1894 28.7987 41.0259 28.8617C40.758 28.8759 40.7053 28.9562 40.5604 29.0113C40.5121 29.0286 40.4639 29.0554 40.4068 29.0601C39.6824 29.1058 38.9579 29.1483 38.2335 29.1893C37.992 29.2034 37.992 29.2019 37.5661 29.3578C37.5178 29.3751 37.4607 29.394 37.3992 29.3987C36.3147 29.4649 35.2259 29.5279 34.137 29.5924C33.9965 29.6003 33.8999 29.6381 33.8297 29.6917C33.7594 29.7452 33.6585 29.7799 33.518 29.7877C32.6486 29.8397 31.7792 29.8932 30.9099 29.9405C30.6684 29.9531 30.5104 29.9925 30.405 30.0633C30.326 30.1169 30.2294 30.1436 30.0757 30.1531C29.2064 30.2035 28.337 30.2586 27.4633 30.3027C27.2086 30.3153 27.0769 30.3688 26.9715 30.435C26.8881 30.4885 26.7915 30.5074 26.629 30.5169C25.0352 30.6082 23.4371 30.6996 21.8477 30.8004C21.5799 30.8177 21.4437 30.7626 21.2681 30.7232C21.0178 30.6681 20.7852 30.6082 20.7852 30.4854C20.7852 30.4665 20.7105 30.4444 20.6579 30.4287C20.2671 30.3106 20.2671 30.3106 20.2056 30.1846C20.1705 30.1074 20.131 30.0287 20.1002 29.9499C20.0432 29.8208 19.9026 29.7877 19.4987 29.8114C19.3538 29.8192 19.2089 29.8302 19.064 29.8365C18.8489 29.8476 18.6864 29.7956 18.6469 29.7011C18.625 29.6491 18.5987 29.5972 18.5767 29.5452C18.7962 29.5326 18.7918 29.531 19.1782 29.3405C19.3406 29.2602 19.3407 29.2602 19.029 29.1798C18.9104 29.1499 18.7962 29.1168 18.6689 29.0885C18.6118 29.0759 18.5372 29.068 18.4757 29.0712C18.1113 29.0901 17.7513 29.1121 17.3913 29.1342C16.8117 29.1688 16.8116 29.1688 16.2233 29.0082C16.175 28.9956 16.1004 28.972 16.1091 28.9594C16.1574 28.9011 16.276 28.8759 16.4252 28.8696C16.6448 28.8601 16.8599 28.8444 17.075 28.8318C17.2199 28.8239 17.3648 28.8145 17.5097 28.8066C17.6458 28.7467 17.7864 28.6885 17.9137 28.6271C18.1157 28.5326 18.1156 28.5294 17.839 28.4633C17.6634 28.4192 17.4746 28.3798 17.2946 28.3388C17.0794 28.3514 16.8599 28.3656 16.6448 28.3766C16.3726 28.3908 16.2628 28.3609 16.1925 28.2585C16.1311 28.1688 16.2057 28.0916 16.4165 28.0727C16.6316 28.0538 16.8336 28.0412 16.9434 27.9609C17.0488 27.8837 17.2332 27.8538 17.4615 27.8475C17.6064 27.8428 17.7513 27.8318 17.8961 27.8223C18.0849 27.8097 18.186 27.7294 18.1464 27.6396C18.1245 27.5813 18.0806 27.5325 17.9093 27.5199C17.1497 27.4648 17.1409 27.4664 16.7633 27.3593C16.7282 27.3498 16.7019 27.3215 16.7151 27.3073C16.737 27.2837 16.7854 27.2491 16.838 27.2443C17.343 27.2097 17.8479 27.1782 18.3528 27.1546C18.5196 27.1467 18.6426 27.1357 18.6997 27.0774C18.7787 26.9971 18.7436 26.9231 18.5899 26.8679C18.5416 26.8506 18.4625 26.8286 18.4098 26.8301C17.8302 26.8585 17.2551 26.8947 16.6755 26.923C16.6229 26.9262 16.5263 26.8994 16.5044 26.879C16.4604 26.8412 16.5263 26.7908 16.6799 26.7734C16.8819 26.7498 17.0883 26.7482 17.2244 26.6695C17.4132 26.5577 17.6458 26.4553 17.8566 26.3482C17.8917 26.3293 17.9489 26.2931 17.9357 26.29C17.8259 26.2553 17.6986 26.2285 17.5844 26.1955C17.3912 26.1403 17.3912 26.0632 17.4351 25.9892C17.4702 25.9293 17.6019 25.9057 17.7644 25.9057C17.8347 25.9057 17.9225 25.9057 17.9795 25.8915C18.1288 25.8569 18.1771 25.8128 18.1025 25.7797C18.0586 25.7608 17.9796 25.734 17.9269 25.7372C16.9873 25.7892 16.0433 25.8396 15.1081 25.9041C14.8315 25.923 14.7042 25.8632 14.5374 25.8206C14.41 25.7876 14.2914 25.775 14.1334 25.7986C13.9841 25.8206 13.8392 25.8081 13.747 25.7561C13.6724 25.7136 13.8041 25.6773 14.1597 25.6364C14.2256 25.6285 14.3002 25.6238 14.3485 25.608C14.8578 25.438 14.8578 25.4364 15.209 25.4143C15.5515 25.3939 15.5516 25.3923 15.7316 25.301C15.815 25.2584 15.9072 25.2159 15.9862 25.1718C16.0169 25.1545 16.0697 25.123 16.0521 25.1135C15.9555 25.0647 15.8237 25.0537 15.6701 25.0647C15.3276 25.0915 14.9237 25.0695 14.7437 25.2191C14.6735 25.2758 14.5637 25.2915 14.4056 25.301C12.8162 25.3923 11.2268 25.4899 9.63298 25.5781C9.37393 25.5923 9.25545 25.6506 9.15447 25.7151C9.06666 25.7687 8.97004 25.7844 8.8032 25.7939C8.63636 25.8033 8.50457 25.8081 8.40798 25.7561C8.3509 25.7246 8.39921 25.6805 8.53093 25.6364C8.71973 25.5734 8.68458 25.4947 8.62312 25.4206C8.57921 25.3718 8.4431 25.3372 8.29821 25.3403C8.08307 25.3466 7.87677 25.364 7.69676 25.301C7.59138 25.2647 7.45964 25.2395 7.34109 25.208C7.11278 25.1435 6.88446 25.0773 6.56394 25.1198C6.34441 25.1041 6.19074 25.0474 6.01512 25.0033C5.72095 24.9309 5.6946 24.9198 5.90535 24.8427C6.14245 24.7561 5.95801 24.6427 6.08972 24.5576C6.23022 24.4663 6.42347 24.386 6.59471 24.3009C6.63861 24.2789 6.67815 24.2584 6.72205 24.2364C6.62107 24.2049 6.52888 24.1655 6.41034 24.1434C6.25667 24.1151 6.17763 24.0804 6.18641 23.9828C6.15568 23.9686 6.16876 24.0048 6.20388 24.0143C6.2434 24.0237 6.34007 24.0159 6.38836 24.0049C6.5113 23.9749 6.5727 23.9356 6.54197 23.9025C6.52441 23.8852 6.44105 23.8631 6.38836 23.8631C6.29177 23.8631 6.20836 23.8978 6.18202 23.9828C5.69027 24.0474 5.18088 24.0789 4.67156 24.1041C4.61888 24.1072 4.55306 24.0757 4.49159 24.06C4.28962 24.0064 4.28959 24.008 3.69686 23.9922C3.63539 23.9907 3.55201 23.9686 3.52128 23.9466C3.39395 23.8505 3.39838 23.745 3.33691 23.6426C3.45106 23.5765 3.56513 23.5119 3.68368 23.4473C3.92077 23.3166 4.22818 23.2017 4.41259 23.0584C4.37307 22.9812 4.32038 22.904 4.51356 22.841C5.06239 22.7623 5.05803 22.7623 5.20731 22.6867C5.6332 22.4725 6.05468 22.2567 6.49813 22.0457C6.61667 21.9906 6.61669 21.9607 6.40594 21.9371C6.34008 21.9308 6.26974 21.9292 6.19949 21.9323C5.97996 21.9434 5.76043 21.9717 5.54529 21.9654C5.33015 21.9607 5.17209 21.8914 4.99647 21.8489C4.81645 21.8048 4.63644 21.7591 4.45643 21.7134C4.25007 21.7181 4.04375 21.7622 3.83739 21.6914C3.67933 21.6363 3.48176 21.5969 3.30175 21.5512C3.43786 21.4315 3.69255 21.3402 3.89013 21.2347C4.07015 21.1386 4.07444 21.1402 4.5574 21.0662C4.78572 21.0315 4.86475 20.8535 4.67156 20.8016C4.43886 20.7386 4.19304 20.6803 3.95595 20.6205C3.74959 20.6252 3.53888 20.6677 3.3413 20.5969C3.18763 20.5433 3.01197 20.5071 2.75732 20.5275C2.32704 20.5622 1.88799 20.5795 1.45332 20.6079C1.30404 20.6173 1.14154 20.611 1.07568 20.5575C1.03177 20.5197 1.15911 20.4677 1.304 20.4567C1.52353 20.4409 1.72109 20.422 1.83085 20.3433C1.93623 20.2646 2.12939 20.2409 2.3577 20.2299C2.41917 20.2267 2.48947 20.2078 2.52021 20.189C2.67827 20.0976 2.85391 20.0189 3.19198 20.022C3.33248 19.9905 3.40708 19.9511 3.36317 19.9134C3.33683 19.8929 3.24467 19.8661 3.19198 19.8693C2.82756 19.885 2.46316 19.9008 2.10752 19.9291C1.94067 19.9417 1.81328 19.9449 1.7079 19.8976C1.63326 19.8661 1.67277 19.8236 1.81327 19.7779C1.93621 19.7385 1.97137 19.6929 1.96259 19.6393C1.94064 19.5149 1.80889 19.4787 1.3874 19.4866C1.08444 19.4929 1.0098 19.4724 0.943939 19.3653C0.926376 19.3401 0.882547 19.3055 0.913282 19.2881C1.10208 19.181 1.22502 19.0488 1.58066 18.9984C1.72116 18.9795 1.87038 18.9795 1.9582 18.9385C2.04601 18.8976 2.12508 18.8503 2.21728 18.811C2.33144 18.7637 2.41039 18.7196 2.3577 18.6897C2.26989 18.6362 2.12944 18.6314 1.96699 18.6503C1.82649 18.6661 1.67721 18.6676 1.53232 18.6771C1.27327 18.6944 1.06257 18.6535 1.03184 18.5842C0.948415 18.4015 0.860577 18.2204 0.785937 18.0377C0.777156 18.0157 0.799049 17.9873 0.834174 17.9684C0.957111 17.9023 1.08888 17.8393 1.21621 17.7747C1.36549 17.7007 1.60262 17.7149 1.80459 17.7007C2.08998 17.6802 2.08988 17.6818 2.47186 17.5306C2.62114 17.4707 2.8802 17.4944 3.03387 17.4408C3.08217 17.4235 3.15681 17.3952 3.14364 17.3794C3.12608 17.3589 3.03831 17.3432 2.97245 17.3337C2.91098 17.3243 2.83636 17.3196 2.7705 17.3243C1.97141 17.37 1.17673 17.4188 0.37764 17.4629C0.241531 17.4708 0.0922457 17.4361 0.043949 17.3873C-0.00434774 17.3416 0.00878122 17.2865 0 17.2345C0.127328 17.1699 0.272162 17.1101 0.381928 17.0408C0.465349 16.9873 0.56196 16.9636 0.728803 16.9605C0.948334 16.9558 1.1635 16.9369 1.40937 16.9227C1.86599 16.6928 2.31381 16.4518 2.80555 16.2219C3.00313 16.129 2.95491 16.0345 2.99443 15.9353C3.03394 15.8439 3.3281 15.8581 3.52567 15.8313C3.68374 15.8093 3.73636 15.7589 3.67489 15.7242C3.63976 15.7038 3.56077 15.6801 3.49931 15.6801C3.35442 15.6801 3.20953 15.6943 3.06464 15.7022C2.91975 15.7101 2.75291 15.7053 2.63437 15.7321C2.52021 15.7573 2.44553 15.8108 2.37089 15.8565C2.28747 15.9069 2.17778 15.9242 2.01093 15.9274C1.79579 15.9305 1.58067 15.9447 1.36553 15.9557C1.12843 15.8943 0.882509 15.8345 0.654197 15.7699C0.610291 15.7573 0.601462 15.7211 0.605853 15.6975C0.614634 15.6361 0.548792 15.5982 0.403902 15.5683C0.280965 15.5431 0.179972 15.5069 0.0658163 15.4754C0.153629 15.4329 0.250256 15.3919 0.320506 15.3463C0.474178 15.2502 0.667386 15.1809 1.00107 15.1841C1.13279 15.1226 1.23814 15.0471 1.40937 15.0045C1.57182 14.9636 1.84844 15.0045 1.97138 14.9116C2.03285 14.8659 2.1251 14.814 2.24365 14.7951C2.43245 14.7651 2.67832 14.7809 2.78808 14.6927C2.85394 14.6423 2.9505 14.5966 3.07782 14.584C3.22271 14.5699 3.37196 14.5667 3.47733 14.5368C3.53441 14.5211 3.59589 14.4959 3.59589 14.4738C3.59589 14.4596 3.50814 14.4376 3.44667 14.4281C3.3896 14.4171 3.31487 14.4092 3.24901 14.4124C3.02948 14.4218 2.81434 14.4391 2.59481 14.4486C2.53334 14.4517 2.46312 14.4407 2.39726 14.4313C2.20407 14.4061 2.21722 14.3746 2.37089 14.3179C2.52456 14.2628 2.63438 14.1919 2.76171 14.1273C2.90221 14.1163 3.07781 14.121 3.1744 14.0911C3.33686 14.0423 3.45098 13.9714 3.5827 13.91C3.72759 13.9005 3.87686 13.8974 4.01297 13.8801C4.07005 13.8738 4.09642 13.8391 4.14471 13.8187C4.23252 13.7793 4.30723 13.7226 4.42577 13.7037C4.61896 13.6753 4.85605 13.6864 4.9702 13.5997C5.03606 13.5494 5.13701 13.4958 5.25995 13.4927C5.60241 13.4864 5.74731 13.3997 5.92293 13.3178C6.05465 13.2564 6.33566 13.2879 6.48055 13.2265C6.57714 13.1871 6.64743 13.1383 6.74403 13.1005C6.78354 13.0848 6.86694 13.0769 6.93279 13.0722C7.29282 13.0486 7.65723 13.0312 8.01726 13.006C8.07434 13.0013 8.12707 12.9777 8.17098 12.9588C8.26318 12.9178 8.32019 12.8611 8.43435 12.8344C8.54851 12.8076 8.71094 12.8076 8.85144 12.7997C9.30367 12.7761 9.33883 12.7824 9.54519 12.6485C9.71203 12.5399 10.1204 12.617 10.2565 12.4973C10.3355 12.4281 10.4804 12.3714 10.7394 12.3635C11.1038 12.3525 11.4639 12.3225 11.8283 12.3021C12.1532 12.2832 12.1488 12.2832 12.5001 12.1367C12.6581 12.0706 12.8909 12.08 13.0972 12.0674C13.3168 12.0548 13.5187 12.0359 13.6241 11.9572C13.7295 11.88 13.9226 11.8548 14.1465 11.8438C14.3529 11.8328 14.5857 11.8406 14.7481 11.7776C15.1433 11.6265 15.1389 11.6249 15.4155 11.6091C15.8502 11.5839 16.2848 11.5587 16.7195 11.532C17.0093 11.5146 17.3122 11.5115 17.5844 11.4768C17.782 11.4516 17.8698 11.3635 17.9971 11.302C18.3571 11.2784 18.7172 11.2548 19.0772 11.2327C19.5821 11.2012 20.0914 11.1729 20.6007 11.143C20.8202 11.0831 20.8511 10.9508 21.2199 10.9445C21.4394 10.9414 21.6545 10.9209 21.8741 10.9083C22.2385 10.8863 22.5985 10.8579 22.9629 10.8469C23.2395 10.839 23.2878 10.754 23.4326 10.7004C23.4809 10.6815 23.5249 10.6548 23.582 10.65C24.1527 10.6059 24.741 10.5965 25.2987 10.5319C25.3557 10.5256 25.4084 10.4926 25.4216 10.4689C25.4304 10.4563 25.3557 10.4327 25.3074 10.4217C25.2504 10.4091 25.1758 10.3965 25.1143 10.3996C23.301 10.5052 21.4877 10.6123 19.6744 10.7178C19.4197 10.7335 19.4197 10.7319 18.8006 10.9052C18.7479 10.9193 18.6864 10.9351 18.6206 10.9398C18.3308 10.9587 18.0366 10.9697 17.7512 10.9934C17.5185 11.0123 17.3254 10.9934 17.1585 10.9367C17.04 10.8957 16.917 10.8831 16.7677 10.8863C16.6009 10.891 16.4912 10.9083 16.3946 10.9508C16.2673 11.0091 16.2014 11.0847 15.9335 11.1004C14.6998 11.1682 13.466 11.2438 12.2366 11.3162C12.0653 11.2942 11.9819 11.2611 12.0258 11.2217C12.0522 11.1981 12.1049 11.1666 12.1576 11.1634C12.6625 11.1304 13.1718 11.102 13.6767 11.0705C13.747 11.0658 13.8435 11.0689 13.8831 11.0532C14.0762 10.9823 14.1466 10.8674 14.511 10.8595C14.7217 10.8548 14.9369 10.8312 15.1388 10.8091C15.1959 10.8028 15.2486 10.7697 15.2618 10.7461C15.2662 10.7335 15.1959 10.7099 15.1432 10.6989C14.95 10.6532 14.7262 10.7083 14.533 10.6768C14.4671 10.6658 14.3748 10.65 14.3617 10.6311C14.3529 10.6138 14.4275 10.5855 14.4802 10.5681C14.5285 10.5524 14.5943 10.5382 14.6602 10.5335C15.2398 10.4973 15.8194 10.4595 16.399 10.4311C16.6361 10.4201 16.8029 10.3807 16.9083 10.3083C16.9873 10.2547 17.0839 10.2264 17.2332 10.2185C18.2474 10.1603 19.2616 10.0957 20.2802 10.0421C20.5349 10.0295 20.6666 9.97758 20.772 9.90987C20.8554 9.85632 20.952 9.83742 21.1145 9.82797C22.5678 9.74608 24.0123 9.65474 25.4656 9.576C25.7334 9.56182 25.8125 9.4941 25.9486 9.43583C25.9969 9.41536 26.0275 9.39016 26.089 9.37756C26.1505 9.36496 26.2295 9.36652 26.3041 9.36337C27.4632 9.29566 28.6224 9.22322 29.786 9.16023C30.0582 9.14606 30.1108 9.0673 30.2513 9.01218C30.2996 8.99486 30.3435 8.96652 30.4006 8.9618C31.2699 8.90825 32.1393 8.85786 33.0086 8.80589C33.5882 8.77124 34.1677 8.73659 34.7473 8.70352C35.0326 8.68777 35.0327 8.68618 35.419 8.53657C35.4629 8.51925 35.5245 8.49877 35.5815 8.49405C37.25 8.39326 38.914 8.29721 40.5824 8.19799C40.7229 8.19012 40.8239 8.15388 40.8941 8.10033C40.9644 8.04679 41.0654 8.01057 41.2015 8.00269C42.5056 7.92395 43.8095 7.84679 45.1179 7.77277C45.355 7.76017 45.5218 7.72237 45.6272 7.6515C45.7062 7.59796 45.8028 7.56962 45.9521 7.56175C47.2561 7.48615 48.5602 7.40582 49.8686 7.33338C50.1189 7.31921 50.2418 7.26567 50.3647 7.20267C50.4086 7.18062 50.4438 7.1444 50.4964 7.14125C51.1463 7.09715 51.7916 7.05148 52.4458 7.02156C52.7181 7.00896 52.8103 6.94281 52.9201 6.87982C53.0079 6.82942 53.1089 6.8121 53.2757 6.80581C53.6402 6.79163 54.0002 6.76487 54.3558 6.7381C54.4085 6.73337 54.4744 6.69872 54.4788 6.67668C54.4875 6.63573 54.3865 6.60738 54.2197 6.5932C52.481 6.69557 50.738 6.79793 48.9993 6.90029C48.7139 6.91762 48.7139 6.91763 48.3275 7.06724C48.2836 7.08456 48.2221 7.10504 48.1606 7.10976C46.4922 7.20898 44.8282 7.30662 43.1597 7.40584C43.0192 7.41371 42.9183 7.44993 42.848 7.50348C42.7778 7.55702 42.6767 7.59324 42.5406 7.60112C40.9468 7.69561 39.3531 7.79168 37.7549 7.88145C37.5178 7.89404 37.351 7.93025 37.2456 8.00269C37.1666 8.05624 37.07 8.0846 36.9207 8.09247C35.3972 8.18066 33.8779 8.27357 32.35 8.35861C32.1963 8.36649 32.0822 8.32082 32.091 8.27829C32.0954 8.25625 32.1612 8.22004 32.2139 8.21689C33.0086 8.16492 33.799 8.11137 34.598 8.072C34.8659 8.0594 34.9448 7.9901 35.081 7.93183C35.1249 7.91136 35.16 7.88459 35.2171 7.87356C35.2786 7.86097 35.3576 7.86255 35.4322 7.8594C37.3158 7.74758 39.1994 7.63419 41.0874 7.52868C41.3596 7.51293 41.4122 7.43575 41.5527 7.38063C41.601 7.36173 41.645 7.3334 41.702 7.33025C42.2816 7.29245 42.8611 7.25937 43.4407 7.2263C44.4549 7.16645 45.4691 7.10661 46.4878 7.04676C46.7819 7.02944 46.7819 7.02943 47.1595 6.8814C47.2034 6.86407 47.265 6.84204 47.322 6.83889C50.0047 6.67983 52.6874 6.52077 55.3701 6.36328C55.5106 6.35541 55.6115 6.31918 55.6818 6.26564C55.752 6.21367 55.853 6.17587 55.9891 6.16642C59.6157 5.95224 63.238 5.73805 66.8647 5.52702C67.1017 5.51285 67.2686 5.47977 67.3739 5.40575C67.4486 5.35221 67.5495 5.32387 67.6988 5.31442C71.6855 5.07976 75.6722 4.84511 79.6632 4.60888C82.3459 4.4514 85.0286 4.29076 87.7113 4.13643C87.9572 4.12225 88.0888 4.07342 88.2118 4.00885C88.2513 3.98681 88.2908 3.95058 88.3435 3.94743C88.9187 3.90806 89.4938 3.87185 90.069 3.83562C90.249 3.87814 90.429 3.9191 90.609 3.96162C90.7451 3.90178 90.8769 3.84035 91.013 3.78051C91.8824 3.73484 92.7385 3.66397 93.6166 3.64192C93.6737 3.64034 93.7351 3.67027 93.7966 3.68602C94.2049 3.78524 94.4377 3.77736 94.6967 3.64507C94.7889 3.59783 94.8679 3.55531 95.0084 3.54743C95.4431 3.51908 95.8822 3.50018 96.3125 3.46711C96.5452 3.44979 96.7383 3.46553 96.9052 3.52223C97.0237 3.56317 97.1467 3.58051 97.2916 3.57106C98.0907 3.52381 98.8854 3.47814 99.6845 3.42774C99.7416 3.42459 99.7942 3.39781 99.8381 3.37891C99.9303 3.33796 100.009 3.29388 100.097 3.25136C100.216 3.27813 100.347 3.29861 100.444 3.33325C100.567 3.3742 100.681 3.37419 100.848 3.36317C104.036 3.17261 107.228 2.98678 110.415 2.79464C110.687 2.7789 110.806 2.84505 110.99 2.87969C111.052 2.89229 111.113 2.90803 111.179 2.91118C111.249 2.91433 111.324 2.90489 111.394 2.90017C113.787 2.75843 116.18 2.61826 118.573 2.47652C118.889 2.45762 118.889 2.45762 119.359 2.55526C119.416 2.56786 119.491 2.58204 119.552 2.57731C120.641 2.51589 121.73 2.44976 122.814 2.38676C122.955 2.37889 123.073 2.40408 123.201 2.4403C123.451 2.51117 123.468 2.51118 123.653 2.40724C123.741 2.35841 123.833 2.32848 123.978 2.3143C124.136 2.29856 124.263 2.3033 124.386 2.33164C124.562 2.37102 124.689 2.43715 124.957 2.41983C126.116 2.34581 127.279 2.28439 128.434 2.2088C128.698 2.19148 128.838 2.24502 129.014 2.28439C129.075 2.29857 129.132 2.32061 129.198 2.32534C129.264 2.33006 129.343 2.31903 129.413 2.3143C130.862 2.22926 132.315 2.14581 133.76 2.05447C134.032 2.03714 134.151 2.10485 134.335 2.1395C134.397 2.1521 134.467 2.17416 134.524 2.17101C135.393 2.12219 136.267 2.0702 137.136 2.01823C137.448 1.99933 137.448 2.00091 137.922 2.09697C137.979 2.10957 138.054 2.12217 138.116 2.11902C139.13 2.06075 140.148 2.00091 141.163 1.94106C141.474 1.92217 141.474 1.92217 142.374 2.00406C142.44 2.01036 142.51 2.01982 142.576 2.01667C143.735 1.94895 144.899 1.8828 146.058 1.81036C146.291 1.79618 146.484 1.80878 146.651 1.86547C146.769 1.90642 146.892 1.92375 147.037 1.9143C148.341 1.83714 149.65 1.76312 150.949 1.68123C151.2 1.66548 151.362 1.70011 151.538 1.74578C151.595 1.76153 151.652 1.78358 151.718 1.78988C151.783 1.79618 151.858 1.78988 151.928 1.78515C153.232 1.70799 154.541 1.63555 155.84 1.55208C156.104 1.53475 156.244 1.5883 156.42 1.62767C156.481 1.64184 156.547 1.67019 156.6 1.66862C157.109 1.64184 157.619 1.61823 158.123 1.57886C158.396 1.55681 158.514 1.62924 158.699 1.66389C158.76 1.67491 158.83 1.69855 158.887 1.6954C159.976 1.63398 161.065 1.56941 162.15 1.50327C162.303 1.49382 162.418 1.50798 162.54 1.54893C162.703 1.60405 162.892 1.62609 163.129 1.60877C163.634 1.57255 164.143 1.54736 164.652 1.51744C164.951 1.50011 164.951 1.50012 165.864 1.58201C165.93 1.58831 166 1.59775 166.066 1.5946C166.935 1.54421 167.809 1.49539 168.674 1.44027C168.907 1.42452 169.1 1.43869 169.267 1.49539C169.385 1.53633 169.504 1.55366 169.653 1.54422C170.452 1.49697 171.247 1.44972 172.046 1.40247C172.336 1.38515 172.626 1.35522 172.916 1.35522C173.126 1.3568 173.28 1.43239 173.469 1.47018C173.521 1.48121 173.609 1.46862 173.679 1.46547C174.694 1.40563 175.712 1.3505 176.722 1.28278C176.986 1.26546 177.126 1.319 177.302 1.35837C177.363 1.37255 177.429 1.4009 177.482 1.39932C177.846 1.382 178.206 1.35837 178.571 1.3379C179.005 1.3127 179.444 1.2938 179.875 1.25916C180.226 1.23081 180.358 1.36782 180.639 1.37254C180.854 1.37727 181.073 1.3505 181.288 1.3379C181.723 1.3127 182.158 1.28436 182.592 1.26231C182.746 1.25444 182.865 1.22923 182.913 1.17253C182.922 1.16151 182.847 1.13789 182.799 1.12372C182.215 0.963086 182.215 0.963078 181.626 0.997725C181.262 1.01977 180.902 1.04182 180.538 1.06072C180.476 1.06387 180.406 1.05127 180.344 1.04183C180.169 1.01505 180.186 0.983559 180.336 0.926864C180.485 0.870169 180.599 0.800881 180.726 0.736312C180.906 0.777258 181.082 0.81819 181.262 0.859136C181.407 0.851262 181.552 0.841827 181.697 0.833952C182.421 0.793006 183.146 0.750482 183.87 0.712685C183.923 0.709536 183.989 0.741037 184.05 0.756786C184.226 0.802457 184.384 0.841818 184.638 0.824494C185.288 0.778823 185.942 0.745751 186.592 0.70638C186.878 0.689056 186.878 0.689058 187.378 0.786699C187.435 0.797723 187.51 0.810323 187.571 0.807173C188.226 0.770951 188.875 0.731584 189.53 0.693788C189.67 0.685913 189.806 0.706386 189.907 0.752057C189.947 0.770955 189.938 0.802446 190.105 1.06072C190.623 1.27018 190.978 1.24814 191.339 1.22924C191.492 1.22137 191.628 1.21349 191.729 1.18199C191.782 1.16467 191.848 1.13947 191.848 1.11899C191.848 1.10324 191.751 1.07804 191.69 1.07489C191.255 1.04339 190.842 1.10955 190.416 1.12372C190.219 1.13002 190.048 1.0749 190.013 0.985133C190.004 0.959935 189.991 0.933164 189.977 0.907966C189.964 0.882768 189.956 0.855997 189.942 0.8308C189.771 0.822925 189.67 0.851268 189.595 0.904813C189.534 0.948909 189.446 0.999305 189.328 1.02293C189.209 1.04813 189.047 1.04341 188.902 1.05128C188.761 1.05916 188.608 1.07963 188.476 1.0686C188.344 1.05601 188.239 1.01033 188.116 0.98198C188.059 0.967806 187.988 0.947341 187.931 0.95049C187.426 0.977263 186.926 1.00403 186.425 1.03867C186.162 1.05757 186.03 0.991437 185.863 0.95049C185.732 0.918993 185.6 0.926858 185.578 0.999301C185.521 1.17254 185.723 1.24498 186.171 1.2119C186.54 1.18356 186.873 1.17885 187.163 1.28594C187.203 1.30011 187.295 1.30641 187.352 1.30326C187.712 1.28436 188.067 1.26073 188.427 1.24184C188.493 1.23869 188.564 1.24498 188.625 1.25127C189.521 1.33632 189.521 1.3379 189.824 1.319C189.969 1.30955 190.109 1.30168 190.096 1.0623C190.373 0.805597 190.812 0.788277 191.238 0.75048C191.514 0.726857 191.633 0.796154 191.813 0.832376C191.874 0.844975 191.94 0.870168 191.997 0.867018C192.941 0.815048 193.881 0.75992 194.82 0.70165C194.978 0.692201 195.092 0.701652 195.215 0.742598C195.373 0.794569 195.549 0.827648 195.799 0.808749C196.3 0.770953 196.809 0.747335 197.318 0.715838C197.578 0.700089 197.578 0.700073 198.1 0.797715C198.157 0.808739 198.232 0.821338 198.293 0.818189C198.802 0.791416 199.308 0.758354 199.812 0.730006C199.953 0.722132 200.08 0.744178 200.19 0.786699C200.3 0.82922 200.431 0.851266 200.568 0.843392C201.077 0.815044 201.582 0.783557 202.087 0.75521C202.148 0.75206 202.223 0.763083 202.28 0.774107C202.816 0.871748 202.816 0.871732 203.061 0.855984C203.421 0.832361 203.79 0.821349 204.146 0.789852C204.493 0.758355 204.673 0.849689 204.91 0.900084C205.56 0.863862 206.214 0.833948 206.859 0.789852C207.123 0.770954 207.263 0.822919 207.439 0.863866C207.5 0.878039 207.562 0.907965 207.619 0.90639C207.838 0.90009 208.054 0.88277 208.269 0.870171C208.484 0.857572 208.703 0.844975 208.919 0.832376C209.164 0.878047 209.327 0.985136 209.678 0.948914C209.889 0.926866 210.113 0.922141 210.328 0.909543C210.543 0.896944 210.763 0.884346 210.978 0.871748C211.123 0.863873 211.272 0.859142 211.412 0.844968C211.671 0.821345 211.799 0.898522 211.983 0.933169C212.045 0.944193 212.115 0.963079 212.172 0.95993C212.607 0.937882 213.046 0.918985 213.472 0.882763C213.801 0.854416 214.025 0.901668 214.257 0.967812C214.306 0.981985 214.389 0.989859 214.451 0.986709C214.96 0.959937 215.465 0.926855 215.97 0.898508C216.106 0.890634 216.238 0.915831 216.347 0.956777C216.462 0.999298 216.589 1.01979 216.729 1.01191C217.234 0.983565 217.744 0.952058 218.249 0.923711C218.31 0.920561 218.385 0.933162 218.442 0.945761C218.934 1.0434 218.934 1.04498 219.223 1.02608C219.294 1.02136 219.368 1.01819 219.438 1.01347C219.798 0.991421 220.172 0.983558 220.523 0.945761C220.927 0.90324 221.221 0.956788 221.506 1.04655C221.866 1.02766 222.235 1.01663 222.586 0.985133C222.85 0.96151 222.99 1.02135 223.166 1.06072C223.228 1.0749 223.293 1.10324 223.346 1.10009C223.855 1.07332 224.365 1.04971 224.865 1.01034C225.137 0.988288 225.256 1.05914 225.44 1.09537C225.502 1.10796 225.568 1.13002 225.625 1.12687C225.915 1.11428 226.204 1.09537 226.494 1.07804C226.832 1.05757 226.832 1.05914 227.28 1.15521C227.491 1.20088 227.702 1.16466 227.908 1.15363C228.127 1.14104 228.334 1.13159 228.509 1.19616C228.619 1.2371 228.751 1.2623 228.887 1.256C229.177 1.24183 229.471 1.22766 229.756 1.20404C229.985 1.18514 230.182 1.19773 230.349 1.256C230.468 1.29695 230.591 1.31744 230.735 1.30799C231.385 1.27019 232.039 1.2308 232.689 1.19458C232.746 1.19143 232.825 1.20561 232.878 1.21979C233.001 1.24813 233.12 1.27962 233.238 1.31112C233.523 1.29695 233.818 1.29066 234.099 1.26862C234.397 1.24657 234.669 1.23869 234.902 1.32531C234.95 1.34421 235.021 1.37096 235.078 1.36939C235.297 1.36309 235.512 1.34735 235.728 1.33475C235.943 1.32215 236.162 1.30955 236.377 1.29695C236.628 1.33632 236.786 1.44971 237.137 1.41349C237.348 1.39144 237.572 1.38672 237.787 1.37412C238.002 1.36152 238.221 1.34735 238.437 1.33632C238.507 1.33317 238.586 1.32529 238.647 1.33159C238.713 1.33789 238.77 1.35995 238.827 1.37569C239.003 1.42137 239.165 1.46704 239.416 1.44027C239.626 1.41822 239.85 1.4135 240.066 1.39932C240.36 1.382 240.36 1.382 240.847 1.48122C241.045 1.52216 241.269 1.46862 241.457 1.50327C241.585 1.52689 241.694 1.56625 241.817 1.59303C241.87 1.60405 241.953 1.60877 242.015 1.60562C242.305 1.59144 242.599 1.57728 242.884 1.55365C243.117 1.53476 243.31 1.55365 243.473 1.61035C243.591 1.65129 243.71 1.66863 243.859 1.65918C244.583 1.61508 245.308 1.57727 246.028 1.52845C246.274 1.51113 246.471 1.53791 246.607 1.5946C246.84 1.69224 247.17 1.57728 247.411 1.65602C247.56 1.70484 247.71 1.76154 247.982 1.73792C248.482 1.69697 248.992 1.67491 249.497 1.64657C249.677 1.68909 249.857 1.73162 250.041 1.77414C250.331 1.75682 250.621 1.73948 250.91 1.72373C251.125 1.71113 251.345 1.69696 251.56 1.68594C251.63 1.68279 251.705 1.67649 251.771 1.68436C251.837 1.69224 251.889 1.71271 251.951 1.72846C252.254 1.80563 252.254 1.80721 252.754 1.77571C252.969 1.76154 253.176 1.75209 253.356 1.81509C253.523 1.87336 253.72 1.88437 253.949 1.86705C254.379 1.83555 254.814 1.81193 255.253 1.78988C255.389 1.78201 255.516 1.80878 255.63 1.84973C255.801 1.9143 256.012 1.908 256.227 1.89068C256.513 1.86863 256.794 1.84659 257.035 1.93478C257.083 1.95368 257.158 1.98043 257.211 1.97886C257.571 1.96626 257.935 1.95682 258.287 1.9269C258.638 1.89697 258.809 1.99461 259.051 2.04186C259.411 2.02138 259.775 2.00091 260.135 1.98044C260.205 1.97571 260.289 1.96155 260.35 1.96942C260.609 2.00249 260.758 2.1206 261.114 2.08438C261.32 2.06391 261.544 2.05762 261.76 2.05289C261.817 2.05132 261.891 2.07808 261.931 2.09855C261.953 2.10957 261.931 2.13949 261.904 2.15524C261.825 2.19934 261.729 2.2403 261.659 2.28597C261.65 2.29227 261.733 2.3206 261.781 2.3332C261.9 2.36155 262.036 2.35684 262.194 2.34424C262.33 2.33321 262.471 2.35526 262.567 2.40251C262.607 2.4214 262.594 2.4529 262.51 2.55684C262.51 2.63401 262.603 2.59935 262.633 2.54896C262.682 2.47651 262.589 2.45289 262.414 2.49226C262.291 2.52061 262.229 2.56156 262.26 2.59463C262.278 2.61196 262.361 2.63401 262.51 2.55684C262.897 2.46235 263.187 2.44503 263.476 2.42771C263.551 2.42298 263.639 2.40723 263.691 2.41667C263.88 2.45447 264.056 2.50015 264.24 2.54267C264.451 2.53322 264.649 2.50959 264.855 2.57101C265.145 2.65762 265.158 2.64975 265.439 2.63243C265.584 2.62298 265.729 2.61512 265.874 2.60725C266.018 2.59937 266.133 2.62299 266.26 2.65921C266.519 2.73323 266.541 2.73322 266.712 2.63243C266.813 2.57101 266.883 2.55054 267.011 2.57889C267.432 2.67496 267.437 2.68125 267.797 2.6529C268.095 2.62928 268.376 2.62298 268.596 2.71275C268.745 2.77574 268.793 2.76157 268.912 2.69543C269.228 2.52062 269.373 2.52376 269.966 2.64975C270.242 2.70959 270.528 2.64503 270.809 2.63716C271.046 2.63086 271.213 2.66865 271.23 2.76786C271.243 2.82928 271.283 2.87339 271.441 2.89386C271.502 2.90174 271.577 2.91276 271.638 2.90961C272.003 2.89071 272.363 2.86866 272.727 2.84661C272.912 2.83558 273.013 2.76158 272.978 2.66394C272.938 2.56 273.008 2.52219 273.272 2.49226C273.43 2.47494 273.557 2.4781 273.684 2.50645C273.825 2.53795 273.785 2.56629 273.663 2.62299C273.368 2.76158 273.403 2.84661 273.781 2.94267C273.913 2.97574 274.018 3.00568 274.049 3.0545C274.066 3.0797 274.049 3.11277 274.088 3.13167C274.304 3.23718 274.602 3.30491 274.936 3.3553C275.256 3.31278 275.476 3.38364 275.722 3.44033C275.915 3.48443 276.143 3.44664 276.35 3.43089C276.582 3.41357 276.775 3.42616 276.942 3.48443C277.061 3.52538 277.184 3.54427 277.329 3.5364C277.618 3.51907 277.913 3.50805 278.198 3.48286C278.444 3.46081 278.628 3.49231 278.782 3.54585C278.975 3.61357 279.19 3.5679 279.392 3.57734C279.664 3.58837 279.801 3.72853 280.156 3.69073C280.367 3.66868 280.587 3.66081 280.806 3.65451C280.863 3.65294 280.933 3.67971 280.982 3.69861C281.214 3.78523 281.487 3.7805 281.785 3.7553C281.991 3.73798 282.193 3.72224 282.395 3.78208C282.729 3.88287 283.098 3.97107 283.449 4.06399C283.497 4.13643 283.462 4.22146 283.713 4.26398C283.844 4.28603 283.967 4.31911 284.068 4.35533C284.191 4.39786 284.305 4.40888 284.463 4.39786C284.749 4.37581 285.047 4.37107 285.328 4.34272C285.587 4.31753 285.75 4.36951 285.908 4.41833C286.035 4.4577 286.154 4.47659 286.307 4.44825C286.466 4.42147 286.58 4.43879 286.707 4.48131C286.887 4.53958 286.9 4.53329 287.497 4.55062C287.559 4.55219 287.633 4.5758 287.669 4.59627C287.686 4.6073 287.647 4.63881 287.616 4.65456C287.576 4.67346 287.515 4.6955 287.458 4.70022C286.808 4.74117 286.154 4.77739 285.504 4.81833C285.438 4.82306 285.368 4.83409 285.32 4.84984C285.267 4.86717 285.201 4.89077 285.201 4.91282C285.201 4.92857 285.289 4.94747 285.35 4.9585C285.543 4.99472 285.772 4.9396 285.961 4.98055C286.088 5.00732 286.193 5.04511 286.321 5.07031C286.373 5.08133 286.457 5.07976 286.523 5.07661C286.742 5.06559 286.957 5.04984 287.177 5.04039C287.238 5.03882 287.309 5.05457 287.366 5.06717C287.787 5.16167 287.787 5.16166 288.152 5.14119C288.296 5.13331 288.45 5.10969 288.586 5.11914C288.718 5.12859 288.832 5.17111 288.951 5.19788C289.197 5.25458 289.429 5.30969 289.447 5.43253C289.456 5.47978 289.6 5.52072 289.745 5.52387C289.886 5.52702 290.035 5.50971 290.18 5.50026C290.522 5.48136 290.522 5.48136 290.966 5.57743C291.089 5.6042 291.22 5.60734 291.379 5.5916C291.44 5.5853 291.515 5.5916 291.581 5.59948C291.796 5.6231 291.796 5.65301 291.655 5.70971C291.458 5.79318 291.475 5.80106 292.028 5.87192C292.239 5.8987 292.402 5.9491 292.577 5.99319C292.863 6.06406 292.858 6.06405 292.669 6.15696C292.626 6.17744 292.586 6.19949 292.542 6.22154C292.415 6.28296 292.314 6.3491 292.05 6.3554C291.761 6.3617 291.471 6.3869 291.181 6.40423C290.9 6.42155 290.825 6.45933 290.852 6.56642C290.882 6.69556 290.94 6.70974 291.444 6.70816C291.589 6.70816 291.717 6.72076 291.826 6.76328C291.774 6.81368 291.677 6.85305 291.537 6.8625C291.177 6.88612 290.812 6.9066 290.452 6.92707C290.162 6.9444 289.873 6.96171 289.583 6.97904C289.403 6.99006 289.289 7.07196 289.337 7.1633C289.363 7.21527 289.385 7.26724 289.407 7.31921C289.455 7.42315 289.548 7.44993 289.842 7.44521C289.917 7.44363 289.987 7.43102 290.057 7.43417C290.342 7.4452 290.478 7.57591 290.821 7.54913C291.106 7.52709 291.405 7.52237 291.686 7.49402C291.945 7.46882 292.09 7.52553 292.27 7.56805C292.331 7.58222 292.397 7.61213 292.45 7.61056C292.814 7.59323 293.179 7.57592 293.534 7.546C293.701 7.5334 293.802 7.54285 293.934 7.58064C294.25 7.67198 294.259 7.66726 294.729 7.63891C295.071 7.61686 295.076 7.62001 295.515 7.71608C295.638 7.74285 295.769 7.74285 295.927 7.73025C296.134 7.7145 296.349 7.6893 296.564 7.71293C296.63 7.71922 296.713 7.73813 296.735 7.7586C296.748 7.77278 296.687 7.80742 296.634 7.81845C296.248 7.90034 295.796 7.88617 295.374 7.91924C295.242 7.92869 295.111 7.89876 295.001 7.85624C294.887 7.81372 294.764 7.79641 294.615 7.80428C294.325 7.8216 294.031 7.83262 293.745 7.85782C293.499 7.87987 293.328 7.84364 293.157 7.79482C293.1 7.77907 293.034 7.74915 292.977 7.75072C292.327 7.78222 291.673 7.81372 291.027 7.85782C290.768 7.87672 290.619 7.82633 290.443 7.78381C290.382 7.76963 290.321 7.73971 290.263 7.74128C290.044 7.74758 289.829 7.7649 289.609 7.7775C288.81 7.82475 288.015 7.87199 287.216 7.91609C287.164 7.91924 287.098 7.88616 287.036 7.87199C286.918 7.84364 286.795 7.81686 286.672 7.79009C286.452 7.80269 286.237 7.81844 286.018 7.82789C285.86 7.83419 285.719 7.85624 285.697 7.91609C285.684 7.95546 285.829 7.99168 285.983 7.98853C286.132 7.98538 286.281 7.96648 286.404 7.98695C287.014 8.08774 287.014 8.08932 287.396 8.06884C287.73 8.04995 287.695 8.03419 287.989 8.12081C288.116 8.15861 288.231 8.18066 288.375 8.17121C288.735 8.14917 289.1 8.12711 289.464 8.10822C289.521 8.10507 289.596 8.12082 289.653 8.13342C290.083 8.22791 290.083 8.23106 290.439 8.20743C290.904 8.17909 290.922 8.17121 291.234 8.26728C291.449 8.33342 291.646 8.28775 291.853 8.2846C292.09 8.34602 292.349 8.40115 292.564 8.47044C292.819 8.55233 293.087 8.53815 293.376 8.51452C293.591 8.4972 293.802 8.4909 293.978 8.55547C294.145 8.61532 294.347 8.62163 294.575 8.60588C294.781 8.5917 294.992 8.56177 295.207 8.59642C295.264 8.60587 295.352 8.6295 295.348 8.64367C295.343 8.66572 295.286 8.69722 295.229 8.70667C294.825 8.77124 294.382 8.76966 293.956 8.79958C293.899 8.80431 293.824 8.78698 293.767 8.77438C293.644 8.74603 293.526 8.71297 293.407 8.68304C293.192 8.69249 292.972 8.69563 292.762 8.71453C292.599 8.72871 292.476 8.72715 292.358 8.68935C292.248 8.6547 292.129 8.61217 291.998 8.60115C291.866 8.59012 291.712 8.61375 291.567 8.6232C291.423 8.63265 291.256 8.62791 291.142 8.65311C291.027 8.67831 290.957 8.73344 290.882 8.77753C290.799 8.82635 290.685 8.84211 290.518 8.84684C290.364 8.85156 290.241 8.84525 290.127 8.80116C290.079 8.78226 290.013 8.76808 289.947 8.75548C289.886 8.74446 289.816 8.72713 289.758 8.73028C289.104 8.7665 288.454 8.80589 287.8 8.84368C287.475 8.86258 287.48 8.86257 286.804 8.76965C286.742 8.76178 286.667 8.75076 286.606 8.7539C286.242 8.7728 285.882 8.79486 285.517 8.8169C285.148 8.83895 285.153 8.8358 284.525 8.73658C284.411 8.71769 284.244 8.74289 284.108 8.73974C283.822 8.73186 283.682 8.59958 283.348 8.62477C283.063 8.64682 282.764 8.65154 282.479 8.67989C282.22 8.70509 282.071 8.64997 281.895 8.60745C281.833 8.59328 281.768 8.56178 281.715 8.56493C281.061 8.59958 280.411 8.63895 279.542 8.64367C279.326 8.64367 279.423 8.67675 279.563 8.68777C279.765 8.7051 279.831 8.67202 279.722 8.60903C279.643 8.56493 279.528 8.54287 279.436 8.55389C279.388 8.56019 279.326 8.59013 279.542 8.64367C279.77 8.70352 279.757 8.73658 279.796 8.75548C279.893 8.80115 280.029 8.82005 280.169 8.81375C280.389 8.80273 280.604 8.78698 280.824 8.77753C280.885 8.77438 280.96 8.78541 281.017 8.79801C281.5 8.89565 281.504 8.90195 282.018 8.86416C282.18 8.85313 282.299 8.85313 282.426 8.88305C282.602 8.924 282.729 8.99328 282.997 8.97124C283.353 8.94131 283.717 8.924 284.081 8.90668C284.138 8.90353 284.2 8.93188 284.266 8.94448C284.446 8.98227 284.578 9.05314 284.845 9.02322C285.052 8.9996 285.276 8.99328 285.495 8.98856C285.552 8.98698 285.64 9.01219 285.666 9.03266C285.719 9.06888 285.653 9.11141 285.504 9.14133C285.443 9.15393 285.359 9.15078 285.289 9.1555C284.999 9.17282 284.709 9.19171 284.419 9.20589C284.266 9.21376 284.121 9.2374 284.103 9.29567C284.09 9.33504 284.248 9.36968 284.398 9.36653C284.617 9.3618 284.837 9.34921 285.047 9.32873C285.421 9.29409 285.745 9.30353 286.048 9.40275C286.264 9.47204 286.25 9.44685 286.479 9.65159C286.536 9.70356 286.707 9.70828 286.856 9.70513C287.216 9.69725 287.383 9.72088 287.352 9.7697C287.313 9.82955 287.186 9.84843 287.023 9.85631C286.733 9.86891 286.444 9.88939 286.154 9.90671C286.084 9.91144 286.004 9.92088 285.939 9.91773C285.873 9.91458 285.811 9.89568 285.754 9.88151C285.631 9.85159 285.526 9.80591 285.394 9.79488C285.262 9.78386 285.109 9.80749 284.964 9.81693C284.819 9.82481 284.665 9.84843 284.534 9.83741C284.402 9.82638 284.292 9.77915 284.174 9.7508C284.117 9.73663 284.046 9.71457 283.989 9.71614C283.699 9.72874 283.41 9.74922 283.12 9.76497C282.764 9.78544 282.764 9.78545 282.334 9.6878C282.211 9.65946 282.084 9.66104 281.921 9.67364C281.57 9.69883 281.566 9.6941 280.925 9.60276C280.863 9.59331 280.788 9.58229 280.727 9.58701C280.073 9.62323 279.423 9.6626 278.773 9.7004C278.216 9.73347 278.216 9.73348 277.908 9.89097C277.68 10.0075 277.675 10.0075 277.899 10.061C278.079 10.1051 278.242 10.1697 278.439 10.1933C278.624 10.2154 278.852 10.1445 279.054 10.217C279.155 10.2532 279.287 10.2926 279.414 10.2989C279.616 10.3067 279.831 10.261 280.025 10.3303C280.121 10.365 280.266 10.4012 280.389 10.4028C280.604 10.4059 280.824 10.3807 281.039 10.3697C281.105 10.3666 281.179 10.3666 281.241 10.3744C281.307 10.3839 281.364 10.4028 281.421 10.4185C281.596 10.4721 281.785 10.4973 282.013 10.4705C282.387 10.4264 282.72 10.4485 283.01 10.5492C283.05 10.5634 283.146 10.565 283.208 10.5587C283.366 10.543 283.502 10.5414 283.62 10.5713C283.669 10.5839 283.739 10.6059 283.73 10.6201C283.717 10.6437 283.664 10.6752 283.607 10.6831C283.194 10.7367 282.751 10.743 282.325 10.7713C282.268 10.7745 282.198 10.754 282.141 10.7398C282.018 10.7115 281.912 10.6642 281.781 10.6532C281.649 10.6422 281.495 10.6626 281.35 10.6705C281.206 10.6784 281.052 10.702 280.92 10.6926C280.788 10.6815 280.666 10.6422 280.56 10.6075C280.437 10.5681 280.319 10.5634 280.156 10.5792C279.945 10.5997 279.726 10.6028 279.511 10.6138C279.392 10.5839 279.274 10.5508 279.151 10.5225C279.094 10.5083 279.023 10.491 278.962 10.4926C278.672 10.5052 278.382 10.524 278.093 10.5414C277.803 10.5587 277.803 10.5587 277.311 10.4611C277.254 10.45 277.179 10.4374 277.118 10.4406C276.753 10.4595 276.393 10.4831 276.029 10.502C275.888 10.5099 275.761 10.4878 275.647 10.4453C275.537 10.4028 275.406 10.3792 275.269 10.387C274.69 10.4201 274.11 10.4516 273.531 10.491C273.298 10.5067 273.1 10.4926 272.942 10.4359C272.758 10.3713 272.552 10.387 272.337 10.3996C271.849 10.4311 271.845 10.4296 271.533 10.3492C271.472 10.3335 271.41 10.3036 271.353 10.3051C270.848 10.3288 270.339 10.3508 269.838 10.3886C269.575 10.4091 269.434 10.354 269.259 10.313C269.197 10.2988 269.131 10.2689 269.079 10.2721C268.714 10.2894 268.35 10.3051 267.994 10.3366C267.639 10.3681 267.502 10.2217 267.235 10.2233C266.87 10.2248 266.51 10.2611 266.15 10.2831C265.86 10.3004 265.571 10.3177 265.281 10.3351C264.991 10.3524 264.701 10.3666 264.411 10.387C264.258 10.3981 264.144 10.3839 264.016 10.3445C263.854 10.2925 263.661 10.2516 263.485 10.2044C263.217 10.1366 263.217 10.1366 262.892 10.1555C262.822 10.1603 262.747 10.1634 262.677 10.1681C262.146 10.2028 262.146 10.1996 261.47 10.1004C261.439 10.0957 261.36 10.113 261.329 10.1256C261.237 10.1666 261.154 10.2107 261.07 10.2532C260.952 10.228 260.807 10.2138 260.728 10.1776C260.504 10.0752 260.153 10.2154 259.924 10.1146C259.841 10.0768 259.696 10.0437 259.564 10.0343C259.428 10.0248 259.274 10.0469 259.134 10.0563C258.77 10.0799 258.77 10.0784 258.458 10.2185C258.3 10.2878 258.071 10.2752 257.865 10.291C257.65 10.3083 257.444 10.3177 257.264 10.2532C257.101 10.1949 256.904 10.1807 256.671 10.1996C256.385 10.2233 256.091 10.2374 255.802 10.2516C255.74 10.2547 255.665 10.2469 255.604 10.2374C254.932 10.1445 254.932 10.1429 254.607 10.1634C254.462 10.1729 254.313 10.176 254.173 10.1902C253.935 10.2154 253.755 10.1823 253.584 10.1319C253.527 10.1162 253.461 10.0863 253.404 10.0878C253.114 10.0957 252.829 10.1099 252.544 10.124C252.324 10.1351 252.105 10.1414 251.894 10.1634C251.543 10.1996 251.371 10.0973 251.13 10.05C250.77 10.0705 250.405 10.0847 250.045 10.113C249.879 10.1256 249.769 10.1209 249.641 10.0831C249.479 10.0358 249.33 9.98231 249.066 10.0059C248.715 10.0374 248.346 10.0485 247.986 10.0674C247.745 10.0185 247.569 9.9193 247.222 9.95552C247.012 9.97757 246.788 9.9823 246.572 9.99489C246.283 10.0122 245.993 10.028 245.703 10.0469C245.391 10.0658 245.396 10.0611 244.917 9.96813C244.641 9.91301 244.355 9.97443 244.074 9.98388C243.855 9.99175 243.745 10.0642 243.798 10.1571C243.85 10.25 243.732 10.3225 243.53 10.3351C243.025 10.365 242.515 10.3965 242.011 10.4233C241.949 10.4264 241.874 10.4154 241.817 10.4044C241.277 10.3051 241.277 10.3067 241.036 10.3209C240.676 10.3445 240.307 10.3571 239.951 10.387C239.705 10.4075 239.525 10.3744 239.367 10.3209C239.244 10.28 239.13 10.2705 238.972 10.28C237.234 10.3855 235.495 10.4831 233.761 10.5918C233.502 10.6075 233.352 10.5619 233.177 10.5193C233.115 10.5052 233.058 10.4752 232.997 10.4752C232.852 10.4752 232.707 10.4894 232.562 10.4989C231.912 10.5367 231.262 10.5823 230.608 10.6107C230.332 10.6233 230.257 10.6957 230.138 10.7556C230.046 10.8012 229.941 10.8201 229.778 10.8264C229.62 10.8327 229.506 10.8248 229.383 10.7839C229.225 10.7304 229.045 10.6973 228.799 10.7193C228.514 10.7445 228.224 10.7556 227.93 10.7729C227.781 10.7808 227.666 10.8091 227.618 10.8658C227.609 10.8752 227.702 10.8989 227.754 10.913C227.93 10.9603 228.097 11.0154 228.294 11.0485C228.496 11.0816 228.716 11.0437 228.926 11.0343C229.001 11.0311 229.071 11.0217 229.142 11.0233C229.207 11.0249 229.287 11.0327 229.335 11.0469C229.563 11.1178 229.805 11.1666 230.121 11.1241C230.393 11.1445 230.534 11.2753 230.88 11.2406C231.091 11.2201 231.311 11.2107 231.53 11.2028C231.587 11.2012 231.649 11.2296 231.71 11.2438C231.886 11.2831 232.026 11.3461 232.29 11.3194C232.571 11.291 232.869 11.2863 233.155 11.2642C233.313 11.2516 233.427 11.2627 233.55 11.3036C233.708 11.3556 233.888 11.3949 234.134 11.3697C234.345 11.3477 234.568 11.343 234.784 11.3288C235.065 11.3115 235.065 11.313 235.565 11.4107C235.622 11.4217 235.697 11.4343 235.758 11.4312C236.123 11.4123 236.483 11.3886 236.847 11.3697C236.988 11.3619 237.124 11.3823 237.22 11.428C237.26 11.4469 237.247 11.4784 237.26 11.5052C236.535 11.5477 235.811 11.5839 235.091 11.6359C234.819 11.6564 234.696 11.5918 234.516 11.5556C234.454 11.543 234.388 11.5162 234.331 11.5194C233.822 11.5461 233.317 11.5745 232.812 11.6091C232.654 11.6201 232.536 11.6138 232.417 11.5682C232.114 11.4469 231.745 11.5131 231.403 11.5304C231.139 11.543 231.056 11.5918 231.087 11.6957C231.126 11.8186 231.284 11.8564 231.688 11.8343C231.833 11.8265 231.978 11.8154 232.123 11.8091C232.263 11.8028 232.391 11.8233 232.505 11.8658C232.615 11.9083 232.746 11.9304 232.882 11.9241C233.172 11.9099 233.466 11.8958 233.747 11.8721C233.98 11.8532 234.173 11.869 234.336 11.9272C234.516 11.9918 234.727 11.9776 234.937 11.9635C235.429 11.932 235.433 11.9336 235.741 12.0123C235.802 12.028 235.864 12.058 235.921 12.0564C236.426 12.0328 236.935 12.0123 237.431 11.9745C237.69 11.9556 237.84 12.006 238.011 12.0469C238.072 12.0611 238.134 12.0926 238.191 12.0895C238.555 12.0721 238.92 12.0548 239.275 12.0249C239.442 12.0107 239.543 12.0202 239.679 12.058C240.004 12.1509 240.013 12.1477 240.474 12.1178C240.614 12.1084 240.768 12.091 240.9 12.1036C241.031 12.1162 241.137 12.1619 241.26 12.1903C241.317 12.2029 241.387 12.2202 241.449 12.217C241.738 12.2044 242.028 12.1855 242.318 12.1682C242.59 12.1509 242.59 12.1525 243.099 12.2501C243.306 12.291 243.521 12.2564 243.727 12.2438C243.951 12.2296 244.153 12.2296 244.324 12.291C244.496 12.3525 244.702 12.3493 244.922 12.3367C245.128 12.3241 245.339 12.2895 245.549 12.332C246.032 12.4296 246.032 12.4312 246.331 12.4123C246.766 12.3855 247.196 12.3603 247.635 12.3367C247.692 12.3336 247.767 12.3525 247.824 12.3651C247.947 12.3934 248.052 12.4406 248.184 12.4517C248.315 12.4643 248.469 12.4454 248.61 12.4359C249.062 12.406 249.093 12.395 249.396 12.4989C249.65 12.584 249.966 12.4611 250.203 12.5588C250.34 12.6139 250.524 12.658 250.779 12.6312C250.989 12.6092 251.209 12.6029 251.428 12.5903C251.775 12.5698 251.775 12.5714 252.214 12.6659C252.271 12.6785 252.346 12.6942 252.403 12.6911C252.693 12.6785 252.987 12.6674 253.268 12.6391C253.597 12.606 253.808 12.6659 254.054 12.7241C254.247 12.7698 254.476 12.732 254.682 12.7163C254.906 12.7005 255.108 12.7052 255.275 12.7666C255.45 12.8296 255.657 12.8218 255.876 12.8092C256.082 12.7981 256.293 12.7619 256.504 12.806C256.956 12.9037 256.956 12.9037 257.285 12.8848C257.575 12.8674 257.865 12.8485 258.155 12.8359C258.212 12.8328 258.282 12.8533 258.339 12.8674C258.462 12.8958 258.568 12.943 258.699 12.9541C258.831 12.9651 258.985 12.9446 259.13 12.9367C259.274 12.9289 259.428 12.9052 259.56 12.9147C259.692 12.9241 259.814 12.9635 259.92 12.9982C260.043 13.0391 260.157 13.0438 260.324 13.0281C260.535 13.0076 260.754 13.0029 260.969 12.9919C261.088 13.0218 261.211 13.0517 261.325 13.0848C261.443 13.1194 261.571 13.1163 261.733 13.1052C262.273 13.0674 262.278 13.0722 262.73 13.1698C262.936 13.2139 263.151 13.1777 263.358 13.1667C263.577 13.1541 263.784 13.1478 263.955 13.2108C264.122 13.2706 264.328 13.2785 264.548 13.2596C264.688 13.247 264.837 13.2391 264.982 13.2344C265.048 13.2328 265.127 13.2391 265.175 13.2517C265.408 13.3179 265.636 13.3777 265.957 13.3352C266.238 13.3478 266.378 13.4769 266.717 13.4517C267.002 13.4297 267.3 13.4249 267.581 13.3966C267.841 13.3714 268.025 13.4155 268.157 13.4706C268.394 13.5683 268.727 13.436 268.965 13.532C269.101 13.5872 269.276 13.6313 269.54 13.6076C269.829 13.5824 269.922 13.6155 270.005 13.7147C270.053 13.7714 270.045 13.8171 269.957 13.8612C269.869 13.9069 269.772 13.899 269.632 13.847C269.47 13.7887 269.276 13.7777 269.044 13.7903C268.815 13.8029 268.675 13.721 268.486 13.6895C268.297 13.6565 268.073 13.7116 267.876 13.6691C267.41 13.5698 267.41 13.5698 267.094 13.5887C266.879 13.6013 266.655 13.6076 266.444 13.6297C266.194 13.6565 266.032 13.6076 265.86 13.5635C265.799 13.5478 265.737 13.5179 265.685 13.5194C265.18 13.5431 264.67 13.5651 264.17 13.6045C263.907 13.625 263.766 13.5683 263.59 13.5289C263.529 13.5147 263.463 13.4864 263.41 13.4895C262.976 13.5116 262.545 13.5399 262.111 13.5667C262.027 13.6092 261.935 13.6501 261.856 13.6958C261.773 13.7431 261.659 13.7635 261.492 13.762C261.215 13.762 260.943 13.8281 260.666 13.7446C260.381 13.6596 260.359 13.6643 260.082 13.6848C259.731 13.7116 259.358 13.7053 259.029 13.7667C258.971 13.7777 258.91 13.8076 258.91 13.8297C258.906 13.8438 258.998 13.8643 259.055 13.8769C259.248 13.9147 259.472 13.8596 259.665 13.899C259.793 13.9242 259.898 13.962 260.025 13.9887C260.078 13.9998 260.157 13.9982 260.227 13.9966C260.302 13.995 260.372 13.984 260.442 13.9856C260.508 13.9872 260.579 13.9966 260.631 14.0108C260.873 14.0706 261.127 14.1258 261.342 14.1966C261.553 14.2659 261.751 14.2187 261.961 14.2155C262.804 14.3258 262.805 14.3273 263.371 14.2927C263.511 14.2848 263.656 14.2754 263.801 14.2769C263.863 14.2769 263.92 14.3053 263.981 14.321C264.157 14.3683 264.324 14.4108 264.57 14.3856C264.78 14.3636 265.004 14.3588 265.219 14.3447C265.509 14.3273 265.509 14.3273 266.001 14.4265C266.124 14.4517 266.256 14.4486 266.414 14.436C266.55 14.425 266.69 14.4486 266.787 14.4943C266.826 14.5132 266.813 14.5447 266.826 14.5714C266.392 14.5966 265.953 14.614 265.531 14.6518C265.259 14.6754 265.136 14.6077 264.956 14.5714C264.894 14.5588 264.829 14.5321 264.772 14.5352C264.341 14.5588 263.911 14.5856 263.481 14.6171C263.428 14.6203 263.362 14.6565 263.358 14.6785C263.349 14.7195 263.459 14.7588 263.617 14.7573C263.827 14.7557 264.034 14.7289 264.223 14.7935C264.381 14.8502 264.578 14.8754 264.811 14.8502C264.951 14.836 265.101 14.836 265.241 14.8234C265.615 14.7856 265.953 14.7935 266.234 14.9006C266.449 14.9289 266.659 14.9022 266.866 14.888C267.02 14.877 267.169 14.8659 267.279 14.8959C267.511 14.9588 267.74 15.0218 268.06 14.9793C268.407 15.0234 268.67 15.1163 268.96 15.1919C269.096 15.2281 269.202 15.2486 269.36 15.225C269.426 15.2156 269.505 15.2156 269.575 15.2108C269.72 15.203 269.873 15.1793 270.005 15.1888C270.137 15.1998 270.247 15.2455 270.365 15.2738C270.422 15.288 270.488 15.3116 270.545 15.31C270.765 15.3022 270.98 15.2864 271.195 15.2738C271.41 15.2628 271.625 15.2518 271.84 15.2408C272.02 15.2817 272.205 15.3227 272.385 15.3636C272.675 15.3463 272.964 15.3289 273.25 15.3132C273.57 15.2943 273.57 15.2959 274.031 15.3935C274.238 15.4376 274.457 15.4093 274.655 15.3888C274.984 15.3557 275.204 15.4156 275.436 15.4786C275.485 15.4912 275.572 15.499 275.629 15.4927C275.858 15.4707 276.055 15.488 276.222 15.5463C276.341 15.5872 276.459 15.6061 276.604 15.5983C277.109 15.5683 277.614 15.5368 278.119 15.5101C278.18 15.5069 278.251 15.5211 278.308 15.5337C278.756 15.6297 278.76 15.6345 279.089 15.6093C279.383 15.5872 279.656 15.5778 279.888 15.6644C279.937 15.6833 280.011 15.7101 280.064 15.7085C280.424 15.6927 280.788 15.6754 281.144 15.6486C281.307 15.636 281.421 15.6408 281.548 15.677C281.71 15.7227 281.855 15.7778 282.123 15.7573C282.865 15.699 282.87 15.7085 283.748 15.8171C283.809 15.825 283.893 15.8124 283.963 15.8061C284.112 15.7904 284.222 15.8124 284.354 15.8487C284.648 15.9305 284.657 15.9258 284.938 15.9085C285.153 15.8943 285.377 15.8912 285.587 15.8675C285.912 15.8329 286.127 15.8943 286.369 15.9526C286.562 15.9983 286.786 15.9605 286.992 15.9463C287.216 15.9305 287.418 15.9353 287.585 15.9951C287.699 16.036 287.822 16.0581 287.967 16.0502C288.472 16.0219 288.977 15.9904 289.482 15.962C289.543 15.9589 289.618 15.9715 289.675 15.9825C290.176 16.0802 290.176 16.0849 290.672 16.0487C290.83 16.0376 290.961 16.0345 291.08 16.0676C291.194 16.0991 291.317 16.129 291.436 16.1589C291.651 16.1479 291.87 16.1447 292.081 16.1258C292.244 16.1117 292.358 16.118 292.485 16.151C292.652 16.1936 292.792 16.2676 293.056 16.2313C293.192 16.214 293.35 16.2187 293.486 16.203C293.649 16.1825 293.758 16.1951 293.886 16.2361C294.044 16.2849 294.206 16.3353 294.461 16.3101C294.742 16.2817 295.04 16.277 295.326 16.255C295.484 16.2424 295.594 16.255 295.721 16.2959C295.879 16.3479 296.059 16.381 296.305 16.3605C296.805 16.3211 296.81 16.329 297.297 16.4282C297.42 16.4534 297.552 16.4502 297.71 16.4376C297.846 16.4266 297.986 16.4502 298.083 16.4959C298.175 16.5463 298.166 16.5778 298.175 16.6046ZM259.051 2.40093C258.906 2.4088 258.761 2.41825 258.55 2.28124C258.537 2.25762 258.546 2.22927 258.515 2.2088C258.445 2.16628 258.335 2.13636 258.203 2.13163C257.966 2.12534 257.681 2.17887 257.685 2.21982C257.689 2.25446 257.764 2.28438 257.909 2.31273C257.97 2.32375 258.019 2.34265 258.076 2.35525C258.243 2.39147 258.374 2.46235 258.616 2.42613C258.572 2.32849 258.594 2.37731 258.616 2.42613C258.594 2.48598 258.66 2.5285 258.818 2.54582C258.862 2.55055 258.928 2.54739 258.963 2.53794C259.099 2.50329 259.121 2.45606 259.02 2.33164C259.002 2.35212 259.015 2.38833 259.055 2.39778C259.094 2.40723 259.191 2.39936 259.239 2.38834C259.362 2.35842 259.424 2.31904 259.393 2.28597C259.375 2.26864 259.292 2.2466 259.239 2.2466C259.147 2.2466 259.064 2.28124 259.051 2.40093ZM294.553 20.6646C294.232 20.6945 293.864 20.6835 293.543 20.7449C293.486 20.7559 293.429 20.7843 293.425 20.8063C293.42 20.8205 293.508 20.841 293.561 20.852C293.679 20.8772 293.811 20.8693 293.965 20.8614C294.197 20.8504 294.333 20.9228 294.514 20.9591C294.571 20.9701 294.645 20.978 294.707 20.9748C295.062 20.9559 295.414 20.9355 295.769 20.9134C295.831 20.9087 295.897 20.8976 295.949 20.8835C296.125 20.8378 296.107 20.8079 295.936 20.7732C295.747 20.7354 295.598 20.6724 295.405 20.6425C295.128 20.6 294.847 20.6567 294.553 20.6646ZM269.619 21.8142C269.404 21.8268 269.193 21.8394 268.978 21.852C268.907 21.8567 268.833 21.8583 268.767 21.8646C268.631 21.8756 268.53 21.9087 268.464 21.9607C268.565 22.0016 268.688 22.0252 268.824 22.0205C269.039 22.0111 269.25 21.9906 269.465 21.9859C269.698 21.9796 269.834 22.0504 270.014 22.0867C270.071 22.0977 270.141 22.0993 270.207 22.1008C270.532 22.1071 270.73 22.0252 270.668 21.9103C270.624 21.8205 270.457 21.767 270.255 21.778C270.045 21.789 269.83 21.8016 269.619 21.8142ZM296.055 18.3369C296.107 18.3101 296.164 18.2913 296.191 18.2676C296.27 18.1873 296.239 18.1275 296.094 18.0645C295.918 17.9873 295.703 18.0393 295.506 18.0471C295.458 18.0487 295.405 18.0818 295.378 18.1023C295.361 18.1164 295.361 18.1464 295.387 18.1542C295.602 18.2172 295.831 18.2755 296.055 18.3369ZM257.966 13.6848C257.755 13.6974 257.54 13.7068 257.329 13.7242C257.277 13.7289 257.228 13.7588 257.198 13.7793C257.141 13.8171 257.202 13.869 257.382 13.8738C257.588 13.8801 257.804 13.8533 258.019 13.8407C258.291 13.825 258.453 13.7667 258.352 13.7163C258.256 13.6675 258.124 13.658 257.966 13.6848ZM26.8486 10.3193C26.9891 10.3115 27.1339 10.3051 27.2744 10.2941C27.4061 10.2831 27.5072 10.2485 27.5731 10.1965C27.4633 10.1555 27.3403 10.1335 27.2042 10.1382C26.9891 10.1477 26.7784 10.1603 26.5676 10.176C26.4359 10.1855 26.3086 10.2201 26.2779 10.2736C26.2471 10.3146 26.5412 10.3382 26.8486 10.3193ZM239.398 10.0768C239.455 10.091 239.512 10.1193 239.569 10.1193C239.71 10.1193 239.855 10.1099 239.987 10.0941C240.044 10.0878 240.087 10.0595 240.114 10.0374C240.131 10.0232 240.127 9.99805 240.101 9.98546C239.973 9.90986 239.464 9.93663 239.381 10.0233C239.372 10.039 239.394 10.0595 239.398 10.0768ZM225.546 1.45286C225.559 1.47806 225.563 1.50325 225.581 1.52845C225.616 1.5757 225.713 1.61035 225.853 1.63397C225.963 1.5946 226.02 1.55051 226.016 1.50327C226.011 1.47807 225.998 1.45286 225.98 1.42766C225.945 1.38041 225.849 1.34578 225.708 1.32215C225.598 1.35995 225.546 1.40404 225.546 1.45286ZM306.201 22.0882C306.162 22.1087 306.122 22.1292 306.078 22.1481C306.197 22.1938 306.307 22.2079 306.39 22.1827C306.443 22.167 306.474 22.1434 306.513 22.1229C306.395 22.0772 306.289 22.0646 306.201 22.0882ZM303.47 22.3024C303.527 22.3166 303.58 22.3355 303.642 22.3449C303.743 22.3607 303.835 22.3339 303.905 22.2772C303.848 22.263 303.795 22.2441 303.734 22.2347C303.633 22.2189 303.541 22.2457 303.47 22.3024ZM305.2 22.0142C305.169 22.052 305.231 22.0835 305.393 22.1103C305.433 22.0898 305.486 22.0709 305.512 22.0489C305.556 22.0126 305.481 21.9796 305.323 21.9544C305.279 21.9733 305.24 21.9938 305.2 22.0142ZM295.932 20.3165C295.901 20.3543 295.962 20.3858 296.125 20.4126C296.164 20.3921 296.217 20.3732 296.243 20.3512C296.287 20.3149 296.213 20.2819 296.055 20.2567C296.011 20.2756 295.971 20.2961 295.932 20.3165ZM283.304 9.17282C283.265 9.1933 283.225 9.21377 283.181 9.23267C283.3 9.27834 283.41 9.29251 283.493 9.26731C283.546 9.25156 283.576 9.22794 283.616 9.20747C283.497 9.16179 283.392 9.1492 283.304 9.17282ZM271.208 3.2608C271.313 3.27182 271.401 3.24978 271.476 3.19151C271.419 3.17734 271.366 3.15844 271.305 3.14899C271.204 3.13324 271.112 3.16002 271.041 3.21671C271.098 3.23246 271.155 3.24662 271.208 3.2608ZM264.785 2.89071C264.745 2.91118 264.706 2.93166 264.662 2.95055C264.78 2.99622 264.89 3.01039 264.973 2.9852C265.026 2.96945 265.057 2.94582 265.096 2.92535C264.978 2.87968 264.873 2.86866 264.785 2.89071ZM221.225 1.45128C221.186 1.47176 221.146 1.49223 221.102 1.51113C221.221 1.5568 221.331 1.57097 221.414 1.54577C221.467 1.53002 221.498 1.5064 221.537 1.48593C221.419 1.44026 221.313 1.42924 221.225 1.45128ZM4.33348 14.2643C4.2764 14.2502 4.21937 14.236 4.16669 14.2203C4.03936 14.2628 3.99986 14.3021 4.07011 14.3321C4.11401 14.351 4.17982 14.362 4.2369 14.3762C4.36862 14.3336 4.39934 14.2958 4.33348 14.2643Z" fill="#FFE492"/>
</svg>
