<svg width="218" height="55" viewBox="0 0 218 55" fill="none" xmlns="http://www.w3.org/2000/svg">
<path d="M204.349 28.4994C204.052 28.5454 203.752 28.5773 203.461 28.6459C203.271 28.6887 203.189 28.5651 203.063 28.5007C203.021 28.4783 202.975 28.4334 202.936 28.4391C202.642 28.4851 202.347 28.5368 202.053 28.5884C201.964 28.6985 201.908 28.8452 201.77 28.8991C201.635 28.9502 201.475 28.9508 201.325 28.9766C201.127 29.0082 200.929 29.0398 200.731 29.0686C200.632 29.083 200.551 29.1368 200.518 29.2383C200.512 29.2552 200.579 29.2972 200.615 29.3225C200.736 29.4066 200.854 29.502 200.986 29.5663C201.113 29.6279 201.269 29.526 201.405 29.6044C201.709 29.7809 201.712 29.7781 201.944 29.7435C202.142 29.7119 202.34 29.6775 202.538 29.6543C202.577 29.6486 202.623 29.6907 202.665 29.7131C202.792 29.7746 202.874 29.9152 203.06 29.8611C203.201 29.8184 203.357 29.8095 203.504 29.7865C203.628 29.8678 203.743 29.9603 203.876 30.0247C203.999 30.0863 204.036 30.134 203.97 30.2159C203.91 30.2922 203.826 30.3234 203.715 30.3294C203.616 30.3325 203.517 30.3582 203.418 30.3726C203.367 30.3812 203.319 30.387 203.271 30.3956C203.082 30.4272 203.082 30.4272 202.735 30.248C202.599 30.178 202.446 30.2771 202.317 30.2099C202.229 30.1651 202.153 30.0978 202.069 30.0502C202.033 30.0306 201.976 30.0279 201.931 30.0337C201.78 30.0539 201.63 30.0685 201.486 30.1055C201.384 30.1312 201.324 30.2103 201.337 30.2891C201.34 30.3201 201.413 30.3649 201.455 30.3676C201.551 30.3729 201.653 30.3331 201.746 30.3526C201.837 30.372 201.93 30.428 201.997 30.4898C202.133 30.6189 202.285 30.503 202.415 30.5363C202.55 30.5725 202.662 30.6848 202.792 30.752C202.825 30.7688 202.888 30.7404 202.939 30.7318C203.086 30.7116 203.234 30.6943 203.381 30.6741C203.505 30.7554 203.637 30.8282 203.749 30.9208C203.952 31.0891 204.169 31.1532 204.43 31.0707C204.577 31.0252 204.721 31.0416 204.839 31.1511C204.96 31.2634 205.098 31.2517 205.251 31.2286C205.393 31.2057 205.536 31.1432 205.681 31.2216C205.995 31.3953 205.998 31.4037 206.367 31.3349C206.479 31.3149 206.563 31.309 206.647 31.3735C206.726 31.4324 206.81 31.4828 206.892 31.5389C207.039 31.5187 207.189 31.4985 207.336 31.4755C207.526 31.4439 207.631 31.483 207.677 31.6406C207.705 31.7363 207.718 31.8235 207.784 31.8881C207.863 31.9667 207.947 31.9636 208.061 31.9407C208.169 31.9207 208.247 31.8895 208.291 31.7879C208.309 31.7456 208.345 31.7061 208.378 31.6722C208.405 31.6467 208.447 31.6072 208.471 31.6127C208.516 31.6238 208.576 31.6546 208.591 31.6912C208.741 32.0315 208.741 32.0343 208.892 32.1324C209.058 32.2418 209.23 32.3398 209.381 32.4632C209.517 32.5726 209.652 32.5244 209.8 32.5239C209.911 32.5235 209.983 32.5965 209.975 32.6698C209.969 32.7121 209.927 32.7741 209.891 32.7799C209.597 32.8372 209.3 32.886 209.003 32.9264C208.967 32.9321 208.921 32.8816 208.879 32.8563C208.794 32.8059 208.719 32.7273 208.628 32.7107C208.538 32.6941 208.433 32.7366 208.334 32.751C208.235 32.7654 208.13 32.8024 208.04 32.7802C207.949 32.7579 207.877 32.6765 207.792 32.6232C207.753 32.598 207.698 32.5616 207.665 32.5701C207.446 32.6384 207.283 32.546 207.126 32.4226C207.093 32.3973 207.036 32.3806 206.994 32.3864C206.645 32.4353 206.3 32.4928 205.952 32.5474C205.811 32.5704 205.696 32.4722 205.664 32.3061C205.649 32.2132 205.618 32.1203 205.617 32.0274C205.616 31.8584 205.45 31.766 205.33 31.7861C205.132 31.8149 204.931 31.838 204.736 31.8809C204.577 31.9152 204.441 31.8818 204.332 31.7808C204.205 31.6657 204.061 31.6887 203.917 31.7202C203.809 31.743 203.779 31.8361 203.787 32.0698C203.794 32.2585 203.743 32.3178 203.548 32.3494C203.302 32.3896 203.053 32.4299 202.803 32.4617C202.764 32.4674 202.719 32.4197 202.68 32.3945C202.595 32.344 202.52 32.2626 202.429 32.246C202.339 32.2265 202.234 32.2691 202.135 32.2863C202.036 32.3007 201.931 32.3405 201.84 32.3211C201.75 32.3016 201.674 32.2174 201.593 32.1641C201.554 32.1389 201.505 32.1024 201.466 32.1082C201.268 32.1314 201.07 32.1658 200.872 32.1974C200.649 32.2319 200.649 32.2319 200.333 32.0583C200.188 31.9799 200.044 32.0423 199.903 32.0653C199.753 32.0883 199.611 32.1 199.493 31.9877C199.415 31.9148 199.327 31.87 199.234 31.8844C198.985 31.919 198.739 31.962 198.489 31.9966C198.447 32.0023 198.39 31.9884 198.357 31.9632C198.197 31.8454 198.04 31.753 197.818 31.8128C197.626 31.8641 197.418 31.8676 197.226 31.9161C197.121 31.9418 197.074 32.0321 197.095 32.1024C197.107 32.139 197.171 32.181 197.213 32.1809C197.309 32.1834 197.414 32.1408 197.504 32.1574C197.691 32.1906 197.786 32.4269 198.029 32.3614C198.173 32.3215 198.323 32.3069 198.473 32.2952C198.512 32.2922 198.555 32.3456 198.597 32.3737C198.718 32.4493 198.824 32.5475 198.998 32.4963C199.142 32.4564 199.295 32.4447 199.442 32.4217C199.676 32.3843 199.676 32.3871 199.981 32.558C200.126 32.6392 200.27 32.5739 200.411 32.5538C200.516 32.5394 200.615 32.5109 200.7 32.55C200.829 32.6088 200.923 32.7437 201.083 32.7347C201.233 32.7258 201.38 32.6859 201.53 32.6713C201.623 32.6626 201.711 32.7074 201.786 32.7832C201.865 32.859 201.949 32.8925 202.052 32.8753C202.199 32.8523 202.349 32.8236 202.499 32.8091C202.541 32.8061 202.589 32.8313 202.629 32.8537C202.713 32.9042 202.795 32.963 202.876 33.0163C203.023 32.9989 203.174 32.9928 203.318 32.9586C203.429 32.9329 203.507 32.9439 203.598 32.9999C203.712 33.0756 203.807 33.2105 203.993 33.1451C204.085 33.1139 204.194 33.122 204.287 33.0935C204.401 33.0565 204.479 33.0703 204.561 33.1546C204.715 33.3146 204.908 33.3168 205.106 33.2542C205.322 33.1859 205.484 33.2643 205.648 33.3877C205.82 33.5167 205.82 33.5139 205.954 33.8261C205.994 33.9161 206.105 33.958 206.198 33.9408C206.355 33.9122 206.49 33.9258 206.605 34.0325C206.726 34.1476 206.87 34.133 207.017 34.1016C207.212 34.0587 207.407 34.0215 207.568 34.1843C207.647 34.263 207.731 34.2824 207.836 34.2623C208.133 34.2107 208.434 34.1788 208.725 34.1159C208.902 34.0759 209.005 34.1657 209.125 34.2413C209.289 34.345 209.467 34.4374 209.468 34.6599C209.468 34.6965 209.511 34.7387 209.547 34.7667C209.625 34.8256 209.71 34.876 209.792 34.9321C209.912 35.0162 210.03 35.0863 210.195 35.0407C210.339 35.0036 210.492 34.9918 210.639 34.966C210.787 34.9402 210.922 34.9257 211.055 35.0323C211.209 35.1529 211.372 35.2679 211.547 35.3575C211.671 35.4218 211.832 35.3115 211.965 35.3984C212.047 35.4516 212.125 35.5133 212.213 35.5581C212.249 35.5777 212.306 35.5635 212.354 35.5577C212.453 35.5461 212.555 35.5373 212.651 35.5089C212.762 35.4775 212.847 35.4829 212.931 35.5474C213.01 35.6063 213.088 35.6877 213.179 35.7043C213.314 35.7293 213.464 35.6161 213.6 35.7453C213.669 35.8098 213.757 35.8715 213.847 35.8909C213.938 35.9104 214.043 35.8678 214.139 35.8703C214.181 35.8701 214.232 35.915 214.257 35.9516C214.272 35.9713 214.251 36.0248 214.23 36.0531C214.203 36.0869 214.165 36.1322 214.126 36.1379C213.828 36.1896 213.531 36.2328 213.234 36.2816C213.056 36.3103 213.056 36.3103 212.698 36.134C212.613 36.092 212.52 36.1008 212.415 36.1208C212.274 36.1466 212.13 36.195 211.982 36.1447C211.789 35.9538 211.551 35.9376 211.299 36.0117C211.194 36.043 211.098 36.0433 211.019 35.9901C210.853 35.8836 210.678 35.7855 210.53 35.6593C210.415 35.5611 210.361 35.5528 210.314 35.6881C210.299 35.7304 210.284 35.7755 210.287 35.8149C210.306 35.9557 210.34 36.0936 210.359 36.2344C210.366 36.2738 210.342 36.319 210.327 36.3612C210.28 36.4797 210.217 36.4714 210.111 36.3732C210.005 36.2749 209.878 36.2106 209.71 36.2562C209.566 36.2961 209.41 36.2909 209.266 36.3337C209.044 36.3963 208.887 36.3067 208.727 36.1861C208.693 36.1608 208.636 36.1469 208.594 36.1527C208.147 36.2189 207.702 36.2935 207.255 36.3598C207.159 36.3741 207.071 36.3322 206.995 36.2564C206.917 36.1806 206.829 36.1414 206.733 36.1558C206.337 36.2162 205.94 36.271 205.544 36.3455C205.382 36.377 205.252 36.3408 205.14 36.2425C205.056 36.1696 204.977 36.1473 204.872 36.1561C204.758 36.1649 204.677 36.1933 204.621 36.2752C204.567 36.3542 204.606 36.402 204.727 36.4636C204.857 36.5307 204.978 36.6177 205.101 36.6962C205.2 36.6846 205.3 36.6617 205.396 36.6642C205.438 36.6641 205.477 36.7147 205.52 36.7427C205.64 36.824 205.752 36.9053 205.923 36.8597C206.067 36.8198 206.22 36.8109 206.368 36.7851C206.572 36.7534 206.572 36.7534 206.904 36.9298C206.988 36.9746 207.078 36.9715 207.186 36.9458C207.279 36.9258 207.376 36.9649 207.443 37.0492C207.47 37.0829 207.461 37.1393 207.405 37.3254C207.406 37.4634 207.469 37.4012 207.489 37.311C207.522 37.1814 207.458 37.1393 207.338 37.2101C207.255 37.2611 207.213 37.3344 207.234 37.3935C207.247 37.4245 207.304 37.4637 207.405 37.3254C207.669 37.1555 207.87 37.1352 208.062 37.0895C208.176 37.0638 208.248 37.0748 208.339 37.1477C208.448 37.2347 208.557 37.3273 208.734 37.2817C208.926 37.2304 209.13 37.2241 209.325 37.1812C209.506 37.1412 209.6 37.2649 209.714 37.3377C209.853 37.4246 210.006 37.3255 210.132 37.3758C210.265 37.4261 210.359 37.5497 210.512 37.5718C210.734 37.495 210.877 37.6354 211.046 37.7278C211.178 37.7978 211.334 37.7353 211.475 37.7039C211.634 37.6696 211.767 37.7002 211.879 37.8012C212.006 37.9163 212.147 37.8905 212.291 37.8647C212.628 37.8073 212.639 37.7988 212.836 37.9531C212.978 38.0653 213.113 38.0142 213.254 37.9996C213.378 38.0753 213.499 38.1566 213.628 38.2238C213.662 38.2405 213.725 38.2122 213.776 38.2036C213.923 38.1806 214.073 38.1576 214.22 38.1346C214.319 38.1202 214.424 38.0776 214.514 38.0942C214.605 38.1136 214.68 38.1951 214.762 38.2483C214.843 38.3016 214.928 38.3548 215.007 38.4109C215.127 38.495 215.242 38.5651 215.41 38.5223C215.554 38.4852 215.704 38.4735 215.855 38.4476C216.044 38.4161 216.038 38.4245 216.391 38.5924C216.581 38.6848 216.775 38.5715 216.968 38.5596C217.064 38.5537 217.157 38.5843 217.224 38.6658C217.251 38.6995 217.243 38.7559 217.252 38.8037C216.756 38.8814 216.258 38.9477 215.768 39.0422C215.579 39.0794 215.479 38.9784 215.377 38.8942C215.207 38.7595 214.986 38.9574 214.826 38.7833C214.729 38.6794 214.59 38.6207 214.425 38.6719C214.329 38.7004 214.227 38.6979 214.128 38.7235C213.876 38.7863 213.644 38.7899 213.441 38.5962C213.372 38.5288 213.272 38.4925 213.2 38.4279C213.115 38.3578 213.034 38.3186 212.935 38.333C212.487 38.402 212.043 38.471 211.598 38.5457C211.559 38.5514 211.52 38.5938 211.488 38.6249C211.404 38.704 211.431 38.7659 211.567 38.8162C211.612 38.8329 211.649 38.8694 211.691 38.8975C211.772 38.9507 211.848 39.035 211.938 39.0544C212.029 39.0738 212.134 39.0341 212.233 39.0197C212.332 39.0053 212.437 38.9627 212.527 38.9793C212.617 38.9987 212.693 39.0802 212.778 39.1306C212.817 39.1558 212.865 39.1979 212.904 39.195C213.103 39.1775 213.298 39.1459 213.496 39.1199C213.62 39.1955 213.726 39.305 213.873 39.3299C213.967 39.3465 214.066 39.3152 214.162 39.3205C214.204 39.3232 214.258 39.3653 214.28 39.4019C214.292 39.4244 214.253 39.4808 214.223 39.5091C214.11 39.6165 213.953 39.5972 213.812 39.6315C213.659 39.6686 213.521 39.6578 213.403 39.5483C213.324 39.4753 213.237 39.4362 213.14 39.4506C212.891 39.488 212.645 39.531 212.396 39.5628C212.354 39.5685 212.302 39.5434 212.263 39.5238C211.946 39.353 211.946 39.3473 211.724 39.3847C211.397 39.4392 211.397 39.4392 211.176 39.2906C211.134 39.2626 211.089 39.2092 211.052 39.2122C210.704 39.2583 210.359 39.3045 210.013 39.3704C209.899 39.3904 209.821 39.3907 209.736 39.3177C209.664 39.256 209.579 39.1859 209.489 39.1692C209.396 39.1526 209.294 39.1952 209.195 39.2096C209.095 39.224 208.991 39.261 208.903 39.2387C208.813 39.2165 208.734 39.1379 208.656 39.0818C208.574 39.0229 208.487 39.026 208.376 39.0488C208.034 39.1147 208.03 39.1063 207.69 38.9328C207.65 38.9132 207.599 38.8908 207.557 38.8966C207.308 38.9311 207.062 38.9742 206.812 39.0088C206.716 39.0232 206.623 38.9869 206.556 38.9054C206.529 38.8717 206.537 38.8153 206.519 38.7055C206.497 38.6802 206.522 38.7252 206.528 38.7675C206.573 38.7617 206.627 38.7671 206.66 38.7445C206.744 38.6907 206.786 38.6201 206.764 38.5611C206.752 38.5301 206.695 38.4909 206.659 38.491C206.592 38.4912 206.536 38.5533 206.519 38.7055C206.33 38.799 206.129 38.8194 205.933 38.8651C205.819 38.8936 205.747 38.8798 205.656 38.8069C205.548 38.7171 205.436 38.6301 205.259 38.6757C205.067 38.727 204.862 38.7362 204.664 38.7762C204.436 38.822 204.335 38.5688 204.143 38.5751C203.944 38.5813 203.746 38.6298 203.548 38.6643C203.374 38.693 203.374 38.693 203.012 38.5111C202.879 38.4439 202.724 38.543 202.594 38.473C202.506 38.4282 202.431 38.3608 202.346 38.3132C202.31 38.2936 202.253 38.2938 202.208 38.2996C201.959 38.3341 201.706 38.3575 201.466 38.4202C201.193 38.4943 200.985 38.4161 200.789 38.2506C200.542 38.2823 200.293 38.3 200.05 38.3543C199.873 38.3943 199.77 38.3017 199.649 38.226C199.607 38.2008 199.57 38.1587 199.525 38.1476C199.48 38.1364 199.426 38.1591 199.378 38.1677C199.18 38.1993 198.976 38.2141 198.783 38.2654C198.546 38.331 198.455 38.1003 198.271 38.0727C198.149 38.2111 198.084 38.4 197.84 38.4149C197.642 38.4267 197.444 38.4725 197.246 38.5041C197.147 38.5185 197.048 38.5357 196.949 38.5501C196.789 38.576 196.715 38.686 196.749 38.8549C196.768 38.9478 196.783 39.0407 196.799 39.1336C196.83 39.2997 196.756 39.4408 196.63 39.4609C196.281 39.5155 195.936 39.5729 195.588 39.6219C195.495 39.6363 195.404 39.5887 195.328 39.5129C195.25 39.4371 195.162 39.4036 195.066 39.418C194.718 39.4726 194.373 39.53 194.024 39.579C193.985 39.5848 193.934 39.5568 193.895 39.5344C193.81 39.4839 193.729 39.425 193.647 39.3718C193.449 39.3978 193.253 39.4153 193.058 39.4497C192.743 39.5014 192.743 39.5042 192.51 39.35C192.468 39.322 192.426 39.2687 192.387 39.2716C192.236 39.2833 192.089 39.312 191.939 39.3378C191.498 39.4124 191.498 39.4124 191.368 39.3283C191.25 39.2498 191.144 39.1544 190.967 39.2001C190.775 39.2514 190.571 39.2689 190.373 39.2977C190.225 39.3179 190.078 39.3409 189.931 39.347C189.892 39.35 189.85 39.2966 189.807 39.2685C189.686 39.1816 189.569 39.1116 189.404 39.16C189.308 39.1884 189.205 39.1944 189.106 39.2088C188.848 39.2491 188.848 39.249 188.423 39.0814C188.381 39.0646 188.33 39.0451 188.288 39.0537C187.939 39.1055 187.594 39.1629 187.246 39.2119C187.203 39.2177 187.152 39.2009 187.11 39.187C186.634 39.0251 186.634 39.0251 186.129 39.1056C185.937 39.1344 185.931 39.1457 185.729 38.997C185.638 38.9325 185.563 38.9018 185.458 38.9218C185.061 38.9907 184.662 39.0371 184.269 39.1172C184.092 39.1515 183.989 39.0673 183.868 38.9917C183.826 38.9665 183.78 38.9103 183.744 38.9132C183.348 38.968 182.951 39.0341 182.555 39.0888C182.519 39.0946 182.473 39.0384 182.431 39.0132C182.35 38.9627 182.271 38.8869 182.181 38.8703C182.087 38.8537 181.985 38.8963 181.883 38.9107C181.634 38.9481 181.634 38.9453 181.344 38.78C181.305 38.7576 181.254 38.7268 181.215 38.7326C180.818 38.7902 180.419 38.8393 180.025 38.9223C179.8 38.968 179.646 38.8868 179.486 38.769C179.453 38.7438 179.396 38.7327 179.354 38.7385C178.906 38.8047 178.462 38.8793 178.014 38.9455C177.921 38.9599 177.831 38.9123 177.755 38.8393C177.634 38.7242 177.493 38.7388 177.343 38.7646C176.997 38.8248 176.994 38.8221 176.789 38.6875C176.747 38.6595 176.711 38.623 176.665 38.609C176.623 38.5951 176.569 38.6037 176.524 38.6095C176.326 38.6383 176.128 38.6699 175.929 38.7015C175.731 38.7331 175.53 38.7507 175.335 38.7992C175.095 38.8591 174.979 38.6764 174.81 38.5924C174.564 38.6298 174.312 38.6531 174.069 38.7131C173.882 38.7587 173.794 38.6351 173.671 38.5707C173.629 38.5483 173.583 38.5005 173.544 38.5063C173.097 38.5697 172.649 38.6387 172.205 38.7162C172.097 38.7334 172.024 38.7111 171.934 38.6438C171.731 38.4924 171.722 38.498 171.386 38.5554C171.239 38.5813 171.098 38.6042 170.971 38.4892C170.859 38.3853 170.723 38.3604 170.564 38.3947C170.369 38.4375 170.168 38.4607 169.969 38.4895C169.771 38.5211 169.573 38.564 169.375 38.5787C169.216 38.5933 169.118 38.4613 168.992 38.3941C168.953 38.3745 168.898 38.3718 168.853 38.3776C168.655 38.4036 168.451 38.4239 168.259 38.4724C168.025 38.5323 167.894 38.3778 167.728 38.2882C167.692 38.2686 167.632 38.2801 167.587 38.2887C167.239 38.3405 166.893 38.3979 166.545 38.4525C166.421 38.3769 166.294 38.3041 166.171 38.2284C165.972 38.2572 165.774 38.2888 165.576 38.3176C165.426 38.3406 165.273 38.3496 165.132 38.3923C164.949 38.4492 164.858 38.3171 164.734 38.2527C164.692 38.2303 164.646 38.1826 164.607 38.1883C164.358 38.2201 164.109 38.2547 163.862 38.3034C163.628 38.352 163.533 38.0988 163.341 38.1022C163.143 38.1057 162.938 38.1429 162.746 38.1942C162.524 38.2541 162.367 38.1645 162.207 38.0439C162.174 38.0186 162.117 38.0047 162.075 38.0105C161.825 38.0451 161.579 38.0881 161.33 38.1227C161.288 38.1285 161.237 38.1146 161.194 38.0978C160.718 37.9331 160.718 37.9303 160.511 37.9648C160.364 37.9878 160.214 38.0164 160.064 38.031C160.022 38.0368 159.97 38.0116 159.931 37.9891C159.617 37.8183 159.617 37.8155 159.392 37.85C159.194 37.8816 158.996 37.9132 158.797 37.9449C158.674 37.8692 158.547 37.7964 158.423 37.7207C158.177 37.7581 157.924 37.7871 157.681 37.8386C157.567 37.8615 157.492 37.8533 157.404 37.7831C157.296 37.699 157.187 37.6007 157.007 37.6492C156.815 37.7005 156.61 37.7068 156.415 37.7497C156.181 37.8011 156.083 37.5451 155.894 37.5485C155.695 37.552 155.491 37.5892 155.299 37.6405C155.077 37.7004 154.92 37.6108 154.76 37.4902C154.727 37.4649 154.669 37.451 154.627 37.4568C154.081 37.5402 153.537 37.6236 152.991 37.7127C152.654 37.7673 152.654 37.7701 152.013 37.6172C151.968 37.6061 151.92 37.595 151.875 37.6008C151.676 37.6267 151.472 37.6471 151.28 37.6956C151.046 37.7555 150.916 37.6038 150.75 37.5114C150.713 37.4918 150.656 37.5032 150.608 37.509C150.458 37.5292 150.311 37.5551 150.161 37.5781C149.963 37.6097 149.764 37.6413 149.566 37.6729C149.442 37.6001 149.316 37.5244 149.192 37.4516C148.946 37.489 148.693 37.5095 148.45 37.5694C148.264 37.6151 148.176 37.4971 148.052 37.4298C148.01 37.4075 147.965 37.3597 147.926 37.3627C147.478 37.426 147.031 37.4922 146.586 37.5725C146.403 37.6069 146.318 37.4804 146.194 37.416C146.152 37.3964 146.104 37.36 146.065 37.3658C145.767 37.4061 145.47 37.455 145.173 37.5038C145.005 37.5325 145.005 37.5325 144.637 37.359C144.595 37.3395 144.546 37.3199 144.504 37.3257C143.561 37.4695 142.621 37.6218 141.678 37.7656C141.582 37.78 141.495 37.738 141.419 37.6622C141.34 37.5864 141.253 37.5473 141.157 37.5617C140.76 37.6221 140.361 37.6769 139.968 37.7513C139.805 37.7828 139.676 37.7466 139.564 37.6484C139.479 37.5754 139.401 37.5475 139.296 37.5648C139.098 37.5992 138.899 37.628 138.701 37.6596C138.503 37.6912 138.305 37.7228 138.107 37.7545C137.908 37.7861 137.707 37.8036 137.512 37.8521C137.272 37.912 137.154 37.7378 136.988 37.651C136.69 37.6942 136.393 37.7374 136.099 37.7834C135.702 37.8438 135.306 37.9098 134.909 37.9674C134.873 37.9732 134.828 37.9226 134.786 37.8974C134.662 37.8274 134.571 37.7291 134.388 37.7607C133.499 37.9128 132.604 38.0424 131.712 38.1917C131.526 38.2232 131.444 38.1024 131.317 38.038C131.275 38.0184 131.227 37.9792 131.188 37.9849C130.692 38.0569 130.197 38.1373 129.701 38.2149C129.5 38.2466 129.5 38.2466 129.162 38.073C129.123 38.0534 129.071 38.0282 129.029 38.034C128.384 38.1318 127.741 38.2353 127.095 38.3359C126.999 38.3503 126.912 38.3112 126.833 38.2354C126.758 38.1596 126.667 38.1176 126.574 38.132C125.979 38.224 125.382 38.3132 124.79 38.4137C124.631 38.4423 124.498 38.4174 124.384 38.3164C124.302 38.2434 124.221 38.2127 124.118 38.2299C123.226 38.3708 122.334 38.506 121.443 38.6553C121.271 38.684 121.151 38.6309 121.042 38.5383C120.954 38.4653 120.879 38.4515 120.771 38.4631C120.657 38.4775 120.588 38.5087 120.525 38.5934C120.445 38.7035 120.395 38.8417 120.202 38.8508C120.004 38.8599 119.803 38.8943 119.608 38.9428C119.422 38.9913 119.334 38.8648 119.216 38.7891C119.128 38.7359 119.047 38.7277 118.936 38.7534C118.834 38.7763 118.771 38.8243 118.712 38.9147C118.581 39.1066 118.569 39.1066 118.405 38.986C118.318 38.9215 118.239 38.8711 118.143 38.8827C117.747 38.9403 117.35 39.0035 116.954 39.0695C116.726 39.1069 116.723 39.1125 116.55 38.9723C116.466 38.9021 116.384 38.8685 116.285 38.8858C115.195 39.0582 114.105 39.2251 113.015 39.406C112.847 39.4347 112.732 39.3759 112.611 39.2918C112.572 39.2637 112.533 39.2244 112.488 39.2133C112.442 39.2022 112.391 39.2136 112.343 39.2194C111.55 39.343 110.754 39.4611 109.965 39.5988C109.785 39.6304 109.688 39.5405 109.564 39.4677C109.522 39.4425 109.485 39.4032 109.44 39.392C109.395 39.3837 109.341 39.4036 109.293 39.4122C108.5 39.5358 107.704 39.6539 106.915 39.7916C106.725 39.8232 106.643 39.7051 106.52 39.6436C106.478 39.6212 106.432 39.579 106.393 39.5848C106.144 39.6166 105.898 39.6596 105.648 39.697C105.054 39.7919 104.459 39.8811 103.864 39.9788C103.636 40.0161 103.535 39.7657 103.343 39.7776C103.094 39.7925 102.847 39.8496 102.598 39.8898C102.4 39.9214 102.202 39.9502 102.004 39.9847C101.808 40.0163 101.808 40.0163 101.32 39.8544C101.278 39.8405 101.227 39.821 101.185 39.8267C100.491 39.9331 99.7943 40.0396 99.1036 40.1544C98.9445 40.1803 98.8121 40.1666 98.6972 40.0628C98.6155 39.9898 98.5311 39.9535 98.432 39.9707C97.3899 40.1345 96.3508 40.2984 95.3087 40.4595C95.2696 40.4652 95.2183 40.4372 95.1791 40.4148C95.0946 40.3644 95.013 40.3055 94.9315 40.2522C94.8718 40.3172 94.7941 40.3766 94.7555 40.4499C94.702 40.5487 94.63 40.5771 94.5159 40.5944C94.4018 40.6116 94.3296 40.6062 94.239 40.5333C94.1301 40.4435 94.0184 40.3734 93.8412 40.4021C92.7511 40.5831 91.6609 40.7471 90.5708 40.9252C90.3906 40.9539 90.3057 40.8303 90.179 40.7659C90.1367 40.7463 90.0884 40.7155 90.0493 40.7213C89.6018 40.7875 89.1574 40.8593 88.7099 40.9283C87.4696 41.1238 86.2293 41.3108 84.992 41.5176C84.7668 41.5549 84.613 41.485 84.4529 41.3643C84.4196 41.3391 84.3625 41.3252 84.3204 41.331C82.5846 41.6013 80.8487 41.8744 79.1159 42.1475C79.0228 42.1618 78.9322 42.1171 78.8566 42.0441C78.7779 41.9683 78.6905 41.9319 78.5944 41.9463C77.8016 42.07 77.0088 42.1936 76.2159 42.3201C76.0177 42.3517 76.0147 42.3545 75.8094 42.2199C75.7671 42.1919 75.7217 42.1386 75.6887 42.1443C75.6196 42.1586 75.5539 42.2292 75.5065 42.3251C75.459 42.4267 75.3841 42.4551 75.2729 42.4751C75.1588 42.4952 75.0837 42.487 74.996 42.4197C74.8842 42.3356 74.7815 42.2542 74.6013 42.283C72.3219 42.6507 70.0425 43.0044 67.7631 43.3694C67.5799 43.3981 67.4949 43.2801 67.3682 43.2157C67.326 43.1962 67.2838 43.1681 67.2386 43.1626C67.1905 43.1571 67.1395 43.1742 67.0915 43.1828C63.3735 43.7664 59.6556 44.3529 55.9377 44.9365C55.7154 44.971 55.7184 44.971 55.4767 45.2309C55.4468 45.2619 55.408 45.3043 55.3659 45.3101C54.2277 45.4939 53.0866 45.6722 51.9453 45.8505C51.4498 45.9281 50.9543 46.0086 50.4588 46.0834C50.2816 46.1093 50.2816 46.1093 49.8597 46.4148C49.8238 46.4403 49.7819 46.4742 49.7399 46.48C47.7578 46.7933 45.7757 47.1066 43.7905 47.4143C43.6344 47.4374 43.5084 47.4885 43.4372 47.6239C43.3867 47.7198 43.321 47.7763 43.2219 47.7936C41.8344 48.012 40.447 48.2333 39.0565 48.4462C38.8913 48.4721 38.7926 48.5513 38.7122 48.6698C38.6854 48.7093 38.6616 48.7544 38.6228 48.7827C38.5868 48.8082 38.5328 48.8168 38.4878 48.8254C37.2985 49.0123 36.1093 49.2048 34.917 49.3832C34.7398 49.4091 34.6683 49.5136 34.5819 49.6237C34.552 49.6604 34.5313 49.7112 34.4924 49.7367C34.4535 49.7593 34.3964 49.7595 34.3483 49.7653C33.3572 49.9205 32.3662 50.0786 31.3752 50.2338C31.1827 50.2204 31.1417 50.3839 31.0491 50.4827C31.0163 50.5167 30.9926 50.5618 30.9536 50.5844C30.9117 50.6071 30.8575 50.6045 30.8064 50.6103C30.0136 50.7339 29.2208 50.866 28.4249 50.9812C28.2417 51.0071 28.2066 51.1509 28.108 51.2498C28.0751 51.2809 28.0424 51.3289 28.0034 51.3374C27.5079 51.4207 27.0124 51.4983 26.5169 51.5731C26.3517 51.599 26.3517 51.5962 26.0619 51.876C26.029 51.907 25.9902 51.941 25.9481 51.9496C25.2064 52.0702 24.4616 52.1852 23.7168 52.3031C23.6207 52.3175 23.555 52.3853 23.5076 52.4812C23.4601 52.5771 23.3914 52.6393 23.2953 52.6537C22.7006 52.7485 22.106 52.8462 21.5113 52.9326C21.3461 52.9556 21.2384 53.0264 21.1671 53.1534C21.1136 53.2493 21.0478 53.2974 20.9427 53.3146C20.348 53.4066 19.7535 53.5071 19.1557 53.5879C18.9815 53.611 18.8919 53.707 18.8206 53.8256C18.7641 53.9215 18.6982 53.9555 18.5871 53.9728C17.4969 54.1396 16.4037 54.3064 15.3167 54.4902C15.1335 54.5217 15.0396 54.4234 14.9189 54.3534C14.7469 54.2554 14.5869 54.1488 14.5854 53.9292C14.5852 53.8954 14.5338 53.8561 14.4976 53.828C14.2286 53.6177 14.2286 53.6177 14.185 53.3925C14.16 53.2546 14.1321 53.1138 14.1101 52.9731C14.0695 52.7422 13.9728 52.6834 13.6965 52.7265C13.5974 52.7409 13.4983 52.7609 13.3992 52.7725C13.252 52.7927 13.1402 52.7001 13.112 52.5312C13.0964 52.4383 13.0778 52.3454 13.0621 52.2525C13.2123 52.2295 13.2092 52.2267 13.4715 51.8851C13.5818 51.7411 13.5818 51.7411 13.3674 51.5981C13.2859 51.5448 13.2073 51.4859 13.1198 51.4355C13.0806 51.4131 13.0294 51.3992 12.9873 51.4049C12.738 51.4395 12.4918 51.4798 12.2456 51.52C11.8491 51.5832 11.8491 51.5832 11.4443 51.2972C11.4111 51.2748 11.3597 51.2327 11.3656 51.2101C11.398 51.1058 11.4788 51.0605 11.581 51.0489C11.7312 51.0315 11.8783 51.0029 12.0254 50.9799C12.1246 50.9655 12.2236 50.9483 12.3228 50.9339C12.4152 50.8266 12.5108 50.722 12.5973 50.6119C12.7344 50.4425 12.7343 50.4368 12.5442 50.3191C12.4234 50.2407 12.2936 50.1706 12.1699 50.0978C12.0227 50.1208 11.8726 50.1466 11.7254 50.1668C11.5392 50.1928 11.4637 50.1395 11.4144 49.9566C11.3712 49.7962 11.4214 49.658 11.5655 49.6237C11.7126 49.5895 11.8508 49.5665 11.925 49.4226C11.9962 49.2844 12.1221 49.2304 12.2783 49.2187C12.3775 49.2099 12.4766 49.1899 12.5757 49.1727C12.7048 49.1498 12.773 49.0059 12.7449 48.8454C12.7291 48.7413 12.6985 48.654 12.5811 48.6319C12.0604 48.535 12.0543 48.5378 11.7945 48.3471C11.7704 48.3303 11.752 48.2796 11.7609 48.2543C11.7756 48.212 11.8083 48.1499 11.8443 48.1413C12.1896 48.0783 12.535 48.0208 12.8804 47.9775C12.9945 47.963 13.0786 47.943 13.117 47.8387C13.1701 47.6949 13.1452 47.5626 13.0393 47.4643C13.0061 47.4335 12.9516 47.3942 12.9156 47.3971C12.5191 47.4491 12.1257 47.5151 11.7292 47.5671C11.6932 47.5728 11.6268 47.5252 11.6115 47.4886C11.581 47.4211 11.6255 47.3308 11.7305 47.2995C11.8685 47.2568 12.0097 47.2536 12.102 47.1124C12.2299 46.912 12.388 46.7285 12.5311 46.5365C12.5549 46.5026 12.5936 46.4377 12.5845 46.4321C12.509 46.3704 12.4215 46.3228 12.3429 46.2639C12.21 46.1657 12.209 46.0277 12.2382 45.8952C12.2616 45.7881 12.3515 45.7456 12.4627 45.7452C12.5108 45.7451 12.5709 45.7449 12.6098 45.7194C12.7116 45.6571 12.7442 45.5781 12.6927 45.5192C12.6624 45.4855 12.608 45.4378 12.572 45.4435C11.9292 45.5385 11.2834 45.6307 10.6439 45.7482C10.4547 45.7826 10.3669 45.6759 10.2521 45.6002C10.1646 45.5413 10.0832 45.519 9.97525 45.5616C9.8733 45.6014 9.77398 45.5792 9.71023 45.4864C9.65862 45.4106 9.74836 45.3455 9.99138 45.2715C10.0364 45.2572 10.0874 45.2486 10.1203 45.2204C10.467 44.9151 10.467 44.9122 10.7072 44.872C10.9414 44.8347 10.9415 44.8319 11.0637 44.6681C11.1203 44.5919 11.1828 44.5156 11.2364 44.4366C11.2573 44.4055 11.293 44.3491 11.2809 44.3322C11.2142 44.2451 11.1238 44.2257 11.0187 44.2458C10.7846 44.2944 10.5078 44.2558 10.3863 44.5238C10.3389 44.6254 10.2639 44.6538 10.1558 44.671C9.06859 44.8378 7.98145 45.0159 6.89123 45.1771C6.71403 45.203 6.6336 45.3075 6.56522 45.4232C6.50573 45.5192 6.43977 45.5475 6.32564 45.5648C6.21151 45.5821 6.12134 45.5908 6.05458 45.4981C6.01513 45.4419 6.04768 45.3629 6.13735 45.2837C6.26587 45.1707 6.24087 45.0299 6.1979 44.8977C6.16726 44.8105 6.07366 44.7488 5.97449 44.7547C5.82726 44.7665 5.68621 44.7979 5.56221 44.6856C5.48963 44.6211 5.39912 44.5763 5.31758 44.5202C5.16049 44.4052 5.00337 44.2875 4.78442 44.3642C4.63392 44.3365 4.52803 44.2355 4.40725 44.157C4.20497 44.0281 4.18681 44.0084 4.33019 43.8699C4.4915 43.7145 4.36387 43.5121 4.45304 43.3597C4.54816 43.196 4.67952 43.052 4.79576 42.8995C4.82556 42.86 4.85238 42.8233 4.88218 42.7838C4.81267 42.7277 4.74908 42.6575 4.66765 42.6183C4.56209 42.5679 4.50757 42.5061 4.51242 42.3315C4.49121 42.3062 4.50059 42.3709 4.52476 42.3878C4.55192 42.4046 4.61802 42.3903 4.65096 42.3705C4.73478 42.3167 4.77635 42.2461 4.75492 42.1871C4.74269 42.1561 4.68535 42.1169 4.64927 42.117C4.58314 42.1172 4.52644 42.1793 4.50941 42.3315C4.17348 42.448 3.82507 42.5055 3.47664 42.5517C3.44061 42.5574 3.39516 42.5012 3.35289 42.4732C3.21397 42.3779 3.21397 42.3807 2.80794 42.3538C2.76583 42.3511 2.70848 42.3119 2.68717 42.2725C2.59885 42.101 2.60063 41.9123 2.55733 41.7293C2.6347 41.6108 2.71204 41.495 2.79244 41.3793C2.95322 41.145 3.16234 40.9387 3.2869 40.682C3.25893 40.5441 3.22193 40.4062 3.35346 40.2931C3.72831 40.1511 3.72532 40.1511 3.82664 40.0156C4.1157 39.6316 4.40172 39.2448 4.70285 38.8664C4.78336 38.7676 4.78302 38.7141 4.63844 38.6723C4.59327 38.6612 4.54509 38.6585 4.49702 38.6643C4.34684 38.6845 4.19687 38.7357 4.04949 38.7249C3.90212 38.7169 3.79308 38.5933 3.67232 38.5176C3.54854 38.4392 3.42475 38.3579 3.30095 38.2766C3.15971 38.2855 3.01897 38.3648 2.87683 38.2385C2.76795 38.1403 2.63221 38.0703 2.50842 37.989C2.60019 37.7747 2.77349 37.6107 2.90752 37.4216C3.02964 37.2494 3.03259 37.2522 3.3624 37.1188C3.51832 37.0563 3.57032 36.7379 3.43743 36.6453C3.27735 36.5332 3.10834 36.4295 2.94529 36.323C2.80405 36.3319 2.66029 36.4084 2.52417 36.2821C2.41831 36.1867 2.29761 36.1223 2.12349 36.1594C1.82929 36.2223 1.52888 36.2543 1.23159 36.3059C1.12949 36.3232 1.01815 36.3123 0.972425 36.2166C0.941914 36.1491 1.02848 36.0559 1.12756 36.0359C1.27768 36.0072 1.41273 35.973 1.48695 35.8319C1.55816 35.6909 1.69014 35.6482 1.84634 35.628C1.88839 35.6222 1.9363 35.5883 1.95712 35.5544C2.06426 35.3907 2.18358 35.2495 2.4151 35.2544C2.51093 35.1977 2.56153 35.1272 2.53102 35.0597C2.51274 35.0231 2.44932 34.9754 2.41329 34.9812C2.16395 35.0102 1.91463 35.0391 1.67146 35.0906C1.55737 35.1135 1.47018 35.1194 1.39747 35.0351C1.34599 34.9789 1.37254 34.9028 1.4682 34.8208C1.5519 34.7501 1.57544 34.6684 1.56879 34.5726C1.55228 34.3502 1.46165 34.2857 1.17314 34.3007C0.965783 34.3126 0.914431 34.2762 0.868066 34.0848C0.855741 34.0398 0.82532 33.9779 0.846158 33.9468C0.974155 33.7549 1.05677 33.5181 1.29967 33.4271C1.39565 33.393 1.49782 33.3927 1.55746 33.3193C1.6171 33.2459 1.67068 33.1612 1.73334 33.0906C1.81094 33.0058 1.86448 32.9268 1.82805 32.8734C1.76729 32.7778 1.67106 32.7697 1.56005 32.8039C1.46404 32.8323 1.36185 32.8354 1.26276 32.8527C1.08559 32.8842 0.94084 32.8114 0.918973 32.6876C0.859685 32.3611 0.797392 32.0373 0.744116 31.7108C0.737842 31.6714 0.752495 31.6206 0.776321 31.5867C0.85971 31.4682 0.949185 31.3552 1.0356 31.2395C1.13693 31.1068 1.29947 31.1316 1.43758 31.1058C1.63275 31.0686 1.6327 31.0714 1.89245 30.8002C1.99395 30.6928 2.17161 30.7345 2.27619 30.6384C2.30905 30.6073 2.35982 30.5565 2.35062 30.5283C2.33835 30.4917 2.27807 30.4638 2.23286 30.447C2.19066 30.4302 2.13951 30.422 2.09447 30.4306C1.54788 30.514 1.00434 30.603 0.457729 30.6836C0.364629 30.698 0.262002 30.6364 0.228353 30.5492C0.194742 30.4676 0.203077 30.369 0.196447 30.276C0.282862 30.1603 0.381319 30.0529 0.455652 29.9288C0.512135 29.8328 0.578004 29.7904 0.692204 29.7844C0.842461 29.7754 0.989557 29.7412 1.15774 29.7153C1.46766 29.3031 1.77141 28.8712 2.10538 28.4589C2.23956 28.2923 2.20542 28.1234 2.2313 27.9459C2.25727 27.7824 2.45885 27.8071 2.59381 27.7588C2.70177 27.7191 2.7372 27.6288 2.69471 27.567C2.67041 27.5304 2.61605 27.4883 2.57396 27.4885C2.47475 27.4888 2.37572 27.5145 2.27661 27.5289C2.17749 27.5433 2.06321 27.5352 1.98236 27.5833C1.90449 27.6286 1.85399 27.7245 1.80343 27.8064C1.74691 27.8967 1.67201 27.9279 1.55781 27.9339C1.41054 27.94 1.26341 27.9658 1.11624 27.986C0.95317 27.8767 0.784074 27.7702 0.626983 27.6552C0.596771 27.6328 0.590296 27.5681 0.593021 27.5258C0.598305 27.4159 0.552774 27.3485 0.453212 27.2953C0.368738 27.2505 0.299158 27.1859 0.220621 27.1298C0.280241 27.0536 0.345916 26.9801 0.393474 26.8983C0.497552 26.7262 0.629019 26.6018 0.857531 26.6067C0.946989 26.4966 1.01822 26.3612 1.13496 26.2848C1.2457 26.2112 1.43559 26.2838 1.51867 26.1173C1.56021 26.0355 1.62276 25.9424 1.7037 25.9083C1.83262 25.8544 2.00115 25.882 2.07526 25.7241C2.11976 25.6338 2.18532 25.5519 2.27236 25.5291C2.37139 25.5034 2.47354 25.4975 2.54534 25.4437C2.58423 25.4155 2.62603 25.3702 2.62576 25.3308C2.6256 25.3055 2.56526 25.2662 2.52306 25.2495C2.48384 25.2299 2.43259 25.2159 2.38753 25.2217C2.23733 25.2391 2.09023 25.2705 1.94003 25.2879C1.89798 25.2937 1.84976 25.2741 1.80456 25.2574C1.67198 25.2127 1.68061 25.1564 1.78516 25.0547C1.88972 24.9557 1.96408 24.8287 2.05049 24.713C2.14656 24.693 2.26685 24.701 2.33263 24.6473C2.44328 24.5596 2.52058 24.4326 2.61004 24.3225C2.70914 24.3053 2.8113 24.2993 2.90429 24.2681C2.9433 24.2567 2.96094 24.1946 2.99377 24.1579C3.05342 24.0873 3.1039 23.9858 3.18484 23.9517C3.31678 23.9006 3.47925 23.9198 3.55638 23.7646C3.60087 23.6744 3.66936 23.5784 3.75349 23.5725C3.98791 23.5605 4.08609 23.4052 4.20536 23.2584C4.29482 23.1482 4.4876 23.204 4.58608 23.0938C4.65175 23.0232 4.6993 22.9357 4.76499 22.8679C4.79186 22.8396 4.84886 22.8254 4.8939 22.8168C5.14013 22.7738 5.38943 22.742 5.63565 22.6961C5.67467 22.6876 5.7105 22.6452 5.74034 22.6113C5.80298 22.5379 5.84134 22.4364 5.91919 22.3882C5.99703 22.3401 6.10825 22.3398 6.20436 22.3254C6.51372 22.2821 6.53787 22.2933 6.67757 22.0534C6.79052 21.8587 7.07105 21.9959 7.16283 21.7815C7.21611 21.6574 7.3146 21.5557 7.49188 21.5411C7.74127 21.5206 7.98742 21.4662 8.23669 21.4288C8.45893 21.3943 8.45593 21.3943 8.69469 21.1316C8.80213 21.013 8.96161 21.0294 9.10275 21.0064C9.25292 20.9834 9.39097 20.9492 9.46218 20.8081C9.53341 20.6699 9.66537 20.6244 9.81856 20.6042C9.95972 20.584 10.1192 20.5976 10.2297 20.4846C10.4984 20.2133 10.4954 20.2105 10.6846 20.1817C10.9819 20.1357 11.2793 20.0897 11.5766 20.0409C11.7748 20.0093 11.9821 20.003 12.1681 19.9404C12.3031 19.8949 12.3622 19.737 12.4486 19.6269C12.6948 19.5839 12.9411 19.5408 13.1873 19.5006C13.5327 19.4432 13.881 19.3914 14.2294 19.3367C14.379 19.2292 14.3985 18.9926 14.651 18.9805C14.8013 18.9744 14.9483 18.9373 15.0985 18.9143C15.3477 18.8741 15.5939 18.8226 15.8433 18.8021C16.0326 18.7874 16.0646 18.6352 16.1632 18.5391C16.196 18.5052 16.2258 18.4572 16.2648 18.4487C16.6551 18.3686 17.0578 18.3504 17.4388 18.2337C17.4778 18.2223 17.5135 18.163 17.5223 18.1207C17.5281 18.0982 17.4767 18.0561 17.4435 18.0365C17.4043 18.0141 17.3531 17.9917 17.311 17.9975C16.0707 18.1902 14.8304 18.3856 13.5901 18.5783C13.4159 18.607 13.4159 18.6042 12.9941 18.9154C12.9582 18.9408 12.9162 18.9691 12.8712 18.9777C12.673 19.0121 12.4717 19.0325 12.2766 19.0754C12.1175 19.1097 11.985 19.0763 11.8701 18.9753C11.7885 18.9023 11.7041 18.88 11.6019 18.886C11.4877 18.8948 11.4128 18.926 11.3472 19.0023C11.2607 19.1068 11.2165 19.2421 11.0333 19.2709C10.1893 19.3947 9.34544 19.5325 8.50455 19.6648C8.38704 19.6257 8.32954 19.5668 8.35913 19.4963C8.37689 19.454 8.4126 19.3975 8.44864 19.3918C8.79397 19.3315 9.14234 19.2797 9.48769 19.2223C9.53573 19.2137 9.6019 19.2191 9.62877 19.1908C9.7602 19.0637 9.80699 18.8579 10.0564 18.843C10.2007 18.8341 10.3477 18.7914 10.4857 18.7515C10.5247 18.7401 10.5604 18.6809 10.5691 18.6386C10.572 18.6161 10.5236 18.574 10.4874 18.5544C10.3546 18.4731 10.2019 18.5722 10.0693 18.5163C10.0241 18.4967 9.96071 18.4687 9.95146 18.435C9.94524 18.404 9.99602 18.3531 10.0319 18.322C10.0648 18.2938 10.1097 18.2683 10.1547 18.2597C10.5511 18.1936 10.9475 18.1248 11.344 18.0728C11.5062 18.0526 11.62 17.9818 11.6913 17.852C11.7447 17.7561 11.8105 17.7052 11.9127 17.6908C12.6064 17.5843 13.3001 17.4667 13.9969 17.3687C14.1711 17.3456 14.2607 17.2524 14.3321 17.131C14.3885 17.0351 14.4545 17.0011 14.5656 16.9838C15.5597 16.8342 16.5476 16.6677 17.5418 16.5237C17.725 16.4978 17.7783 16.3765 17.8708 16.272C17.9036 16.2352 17.9243 16.1901 17.9663 16.1674C18.0082 16.1448 18.0623 16.1474 18.1134 16.1416C18.9062 16.018 19.6991 15.8859 20.495 15.7707C20.6812 15.7448 20.7163 15.6038 20.8118 15.5049C20.8447 15.4738 20.8745 15.423 20.9135 15.4145C21.5081 15.3168 22.1027 15.2248 22.6973 15.1299C23.0937 15.0667 23.4901 15.0035 23.8866 14.9431C24.0818 14.9143 24.0818 14.9115 24.3446 14.643C24.3744 14.612 24.4163 14.5752 24.4553 14.5666C25.5965 14.3827 26.7347 14.2073 27.8759 14.0263C27.972 14.0119 28.0407 13.9468 28.0882 13.8509C28.1356 13.755 28.2044 13.69 28.2975 13.6756C29.1894 13.5319 30.0813 13.3911 30.9763 13.2559C31.1385 13.2328 31.2523 13.1649 31.3236 13.0379C31.3771 12.942 31.4429 12.8911 31.545 12.8766C32.4369 12.7386 33.3289 12.5921 34.2239 12.4597C34.3951 12.4338 34.4786 12.3378 34.562 12.2248C34.5918 12.1853 34.6154 12.1205 34.6515 12.1147C35.0959 12.0344 35.5372 11.9513 35.9848 11.8964C36.171 11.8733 36.2334 11.7548 36.3078 11.6419C36.3674 11.5516 36.4363 11.5204 36.5505 11.5087C36.7998 11.4826 37.046 11.4339 37.2892 11.3853C37.3252 11.3767 37.3699 11.3146 37.3726 11.2752C37.3782 11.2019 37.3087 11.1514 37.1943 11.1264C36.005 11.3133 34.8128 11.5002 33.6235 11.687C33.4283 11.7186 33.4283 11.7187 33.1655 11.9871C33.1357 12.0181 33.0938 12.0549 33.0518 12.0635C31.9106 12.2446 30.7724 12.4228 29.6312 12.6039C29.5351 12.6183 29.4664 12.6833 29.4189 12.7792C29.3714 12.8751 29.3027 12.9401 29.2096 12.9545C28.1194 13.127 27.0293 13.3023 25.9361 13.4663C25.7739 13.4893 25.6602 13.5545 25.5889 13.6842C25.5354 13.7802 25.4696 13.8311 25.3675 13.8455C24.3253 14.0066 23.2862 14.176 22.2411 14.3315C22.1359 14.3459 22.0573 14.2644 22.0628 14.1884C22.0655 14.1489 22.1101 14.084 22.1462 14.0783C22.6897 13.9836 23.2302 13.8861 23.7769 13.814C23.9601 13.7908 24.0134 13.6667 24.1059 13.5622C24.1357 13.5255 24.1595 13.4776 24.1984 13.4577C24.2403 13.4351 24.2945 13.4377 24.3455 13.4319C25.6339 13.2278 26.9223 13.0209 28.2137 12.8281C28.3999 12.7994 28.435 12.6612 28.5306 12.5623C28.5634 12.5284 28.5931 12.4776 28.6322 12.4719C29.0286 12.403 29.425 12.3426 29.8214 12.2822C30.5152 12.173 31.2089 12.0637 31.9056 11.9545C32.1068 11.9228 32.1068 11.9228 32.3636 11.6572C32.3935 11.6262 32.4353 11.5866 32.4744 11.5809C34.3093 11.2906 36.1443 11.0002 37.9792 10.7127C38.0753 10.6983 38.144 10.6333 38.1915 10.5374C38.239 10.4443 38.3076 10.3765 38.4007 10.3593C40.8813 9.96835 43.359 9.57739 45.8396 9.19207C46.0018 9.1662 46.1156 9.10669 46.1869 8.97408C46.2373 8.87815 46.3062 8.82725 46.4082 8.81002C49.1351 8.38167 51.862 7.95331 54.5919 7.52213C56.4269 7.23463 58.2618 6.94149 60.0968 6.65962C60.265 6.63374 60.3545 6.54612 60.4379 6.43037C60.4647 6.39086 60.4914 6.32599 60.5274 6.32024C60.9208 6.24857 61.3141 6.18255 61.7075 6.11651C61.8313 6.19217 61.955 6.26502 62.0788 6.34067C62.1713 6.23335 62.2608 6.12321 62.3533 6.01588C62.9479 5.93231 63.5333 5.80369 64.1343 5.76235C64.1734 5.75941 64.2158 5.8128 64.258 5.84083C64.5388 6.01738 64.6981 6.00279 64.8739 5.76563C64.9364 5.68093 64.99 5.60472 65.0861 5.59033C65.3834 5.53868 65.6839 5.50392 65.9781 5.44384C66.1372 5.41235 66.2696 5.44009 66.3846 5.54112C66.4662 5.61409 66.5506 5.64482 66.6497 5.62761C67.1963 5.54137 67.7399 5.45795 68.2864 5.36607C68.3255 5.36032 68.3612 5.3123 68.391 5.27841C68.4537 5.20498 68.5073 5.12596 68.5669 5.04972C68.6484 5.09735 68.7388 5.13368 68.8054 5.19543C68.89 5.26839 68.9682 5.26813 69.0823 5.24805C71.2625 4.9003 73.4459 4.56099 75.6261 4.21042C75.8124 4.18166 75.8943 4.29971 76.021 4.36127C76.0632 4.38367 76.1055 4.41169 76.1506 4.41718C76.1988 4.42266 76.2497 4.40561 76.2978 4.39701C77.9345 4.1383 79.5713 3.8824 81.208 3.62369C81.4242 3.5892 81.4243 3.5892 81.7471 3.7628C81.7863 3.78521 81.8376 3.8104 81.8796 3.80182C82.6244 3.6896 83.3692 3.56894 84.111 3.45392C84.2071 3.43953 84.2886 3.48432 84.3762 3.54883C84.5484 3.67503 84.5603 3.675 84.6854 3.4887C84.7449 3.4012 84.8077 3.34746 84.9067 3.3218C85.0148 3.29329 85.1021 3.30149 85.1866 3.35192C85.3073 3.42195 85.3953 3.53995 85.5784 3.50838C86.3712 3.37348 87.1671 3.26111 87.9569 3.12339C88.137 3.09184 88.2339 3.18729 88.3546 3.25732C88.3969 3.28253 88.4362 3.32184 88.4813 3.33015C88.5265 3.33846 88.5805 3.31855 88.6285 3.30995C89.6196 3.15469 90.6136 3.00228 91.6016 2.83577C91.7878 2.80419 91.8697 2.92502 91.9964 2.98658C92.0387 3.00898 92.087 3.04828 92.126 3.04252C92.7207 2.95332 93.3184 2.85844 93.913 2.7636C94.1262 2.72912 94.1262 2.73194 94.452 2.90271C94.4912 2.92512 94.5425 2.94749 94.5846 2.94173C95.2783 2.8353 95.9751 2.72605 96.6688 2.61681C96.882 2.58233 96.882 2.58234 97.4993 2.72684C97.5444 2.73796 97.5926 2.75473 97.6377 2.74895C98.4305 2.62531 99.2264 2.50447 100.019 2.37238C100.178 2.34652 100.311 2.36863 100.426 2.46966C100.507 2.54263 100.592 2.57336 100.691 2.55615C101.583 2.41529 102.478 2.28007 103.367 2.13077C103.538 2.10206 103.649 2.16365 103.77 2.24494C103.809 2.27299 103.849 2.3123 103.894 2.32342C103.939 2.33455 103.99 2.32311 104.038 2.31451C104.93 2.17365 105.825 2.04124 106.714 1.88913C106.894 1.85758 106.991 1.95303 107.112 2.02306C107.154 2.04827 107.199 2.09883 107.236 2.0959C107.584 2.04691 107.932 2.00357 108.278 1.93205C108.464 1.89203 108.546 2.02131 108.672 2.08287C108.715 2.10245 108.763 2.14456 108.802 2.13881C109.547 2.02659 110.292 1.90874 111.033 1.78808C111.139 1.77085 111.217 1.79593 111.302 1.86889C111.413 1.96711 111.543 2.00614 111.705 1.97464C112.05 1.90876 112.399 1.86259 112.747 1.80797C112.951 1.77634 112.951 1.77634 113.578 1.92081C113.623 1.93194 113.671 1.94867 113.716 1.94289C114.311 1.85087 114.908 1.76166 115.5 1.66119C115.659 1.63252 115.792 1.65744 115.907 1.75847C115.988 1.83144 116.07 1.86218 116.172 1.84496C116.718 1.75872 117.262 1.67249 117.808 1.58625C118.007 1.55463 118.205 1.50047 118.403 1.49984C118.547 1.5022 118.654 1.63705 118.783 1.70424C118.819 1.72384 118.879 1.70114 118.927 1.69536C119.621 1.58612 120.318 1.48531 121.009 1.36199C121.189 1.33044 121.286 1.42589 121.406 1.49592C121.449 1.52113 121.494 1.57169 121.53 1.56876C121.779 1.53698 122.026 1.49394 122.275 1.45654C122.572 1.41052 122.873 1.37577 123.167 1.31287C123.407 1.2614 123.499 1.50615 123.691 1.51398C123.839 1.52196 123.989 1.47361 124.136 1.45061C124.433 1.4046 124.73 1.35296 125.028 1.31258C125.133 1.29816 125.214 1.25282 125.246 1.15132C125.252 1.13158 125.201 1.08952 125.167 1.06427C124.766 0.778257 124.766 0.778243 124.363 0.84149C124.114 0.881716 123.868 0.921939 123.618 0.956532C123.576 0.962299 123.528 0.939921 123.486 0.923156C123.365 0.875658 123.377 0.819294 123.479 0.717573C123.58 0.615852 123.657 0.491686 123.744 0.37593C123.868 0.448768 123.988 0.521589 124.112 0.594426C124.211 0.580028 124.31 0.562837 124.409 0.548439C124.905 0.473629 125.4 0.395998 125.896 0.326821C125.932 0.321073 125.977 0.377269 126.02 0.4053C126.141 0.486598 126.249 0.556647 126.423 0.52511C126.868 0.442014 127.315 0.38144 127.76 0.30961C127.955 0.278006 127.955 0.278008 128.299 0.451543C128.338 0.471134 128.389 0.493505 128.431 0.487738C128.879 0.421532 129.323 0.34971 129.771 0.280686C129.867 0.266297 129.96 0.302614 130.03 0.384074C130.057 0.417786 130.052 0.474125 130.169 0.935676C130.526 1.30915 130.769 1.26896 131.016 1.23438C131.121 1.21996 131.214 1.20556 131.283 1.14901C131.319 1.11792 131.363 1.0727 131.363 1.03609C131.363 1.00792 131.297 0.963058 131.254 0.957559C130.956 0.902176 130.675 1.02139 130.383 1.04766C130.248 1.05936 130.13 0.961154 130.105 0.800688C130.099 0.755642 130.089 0.707792 130.08 0.662756C130.071 0.61772 130.064 0.569861 130.055 0.524825C129.938 0.511115 129.869 0.562025 129.818 0.65795C129.777 0.736948 129.717 0.827269 129.636 0.869775C129.556 0.915098 129.444 0.907018 129.345 0.921417C129.249 0.935806 129.144 0.972752 129.054 0.953323C128.963 0.931078 128.891 0.849614 128.806 0.799184C128.767 0.77396 128.719 0.737511 128.68 0.743269C128.334 0.792251 127.992 0.841205 127.65 0.904261C127.469 0.938634 127.378 0.820644 127.264 0.747777C127.173 0.691733 127.083 0.706085 127.069 0.835694C127.032 1.14564 127.171 1.27475 127.477 1.21463C127.729 1.16313 127.958 1.15398 128.158 1.34487C128.185 1.37013 128.248 1.38119 128.287 1.37544C128.533 1.34085 128.776 1.29783 129.023 1.26324C129.068 1.25747 129.116 1.26856 129.158 1.27969C129.772 1.42983 129.772 1.43266 129.98 1.39821C130.079 1.38099 130.175 1.3666 130.163 0.938514C130.349 0.478814 130.65 0.44688 130.941 0.378354C131.13 0.335503 131.212 0.459178 131.336 0.523567C131.378 0.545965 131.423 0.590878 131.462 0.58512C132.108 0.490116 132.751 0.389475 133.393 0.283214C133.502 0.265971 133.58 0.282624 133.664 0.355586C133.773 0.448188 133.894 0.506964 134.065 0.47262C134.407 0.403932 134.756 0.360583 135.104 0.303142C135.281 0.274412 135.281 0.274383 135.64 0.44787C135.679 0.467461 135.731 0.489832 135.773 0.484065C136.121 0.435073 136.467 0.374843 136.812 0.323044C136.908 0.308655 136.995 0.347805 137.071 0.423613C137.147 0.49942 137.237 0.538561 137.33 0.524181C137.679 0.472373 138.024 0.414959 138.369 0.363161C138.412 0.357394 138.463 0.376945 138.502 0.396537C138.87 0.569995 138.87 0.569966 139.038 0.541265C139.284 0.498231 139.537 0.477734 139.78 0.420627C140.017 0.36354 140.141 0.526494 140.304 0.616106C140.749 0.549909 141.196 0.494982 141.638 0.414712C141.818 0.380339 141.915 0.472971 142.035 0.545818C142.078 0.571033 142.12 0.624419 142.159 0.621478C142.309 0.609733 142.456 0.578287 142.604 0.555286C142.751 0.532285 142.901 0.509276 143.048 0.486275C143.217 0.567419 143.329 0.758587 143.57 0.693041C143.714 0.65315 143.867 0.644212 144.014 0.621211C144.161 0.598209 144.311 0.575201 144.458 0.5522C144.558 0.537801 144.66 0.529014 144.756 0.503358C144.933 0.460546 145.021 0.598295 145.148 0.659857C145.19 0.679439 145.238 0.713063 145.277 0.707305C145.575 0.666926 145.875 0.632173 146.166 0.566464C146.391 0.515048 146.545 0.599067 146.705 0.716855C146.739 0.742099 146.796 0.755998 146.838 0.750231C147.186 0.701239 147.532 0.640975 147.877 0.589176C147.97 0.574797 148.06 0.619573 148.136 0.692564C148.215 0.768362 148.302 0.804727 148.398 0.790338C148.744 0.738539 149.092 0.681081 149.437 0.629283C149.48 0.623516 149.531 0.645889 149.57 0.668297C149.908 0.841851 149.908 0.844671 150.106 0.81024C150.154 0.801637 150.205 0.79582 150.253 0.787217C150.499 0.747 150.755 0.732123 150.995 0.66376C151.271 0.586833 151.473 0.681958 151.67 0.841879C151.916 0.807296 152.168 0.786772 152.408 0.729675C152.588 0.686853 152.685 0.79357 152.806 0.863601C152.848 0.888816 152.894 0.93937 152.93 0.933622C153.278 0.88463 153.627 0.841287 153.969 0.769782C154.155 0.729757 154.237 0.85622 154.364 0.920598C154.406 0.942997 154.451 0.982306 154.49 0.976548C154.689 0.953384 154.887 0.918937 155.085 0.887323C155.316 0.849971 155.316 0.852785 155.624 1.02362C155.769 1.10484 155.913 1.0396 156.054 1.01943C156.204 0.996419 156.345 0.979075 156.466 1.09417C156.542 1.16716 156.632 1.21194 156.726 1.20038C156.924 1.1744 157.125 1.14842 157.32 1.10555C157.476 1.07125 157.612 1.09334 157.727 1.19719C157.808 1.27016 157.893 1.30653 157.992 1.28932C158.436 1.2203 158.884 1.14844 159.328 1.08224C159.367 1.07648 159.422 1.10167 159.458 1.1269C159.542 1.17733 159.624 1.23339 159.705 1.28946C159.901 1.26349 160.102 1.25161 160.294 1.21157C160.498 1.17149 160.685 1.15681 160.845 1.31121C160.878 1.3449 160.927 1.39261 160.966 1.38967C161.116 1.37792 161.263 1.34929 161.41 1.32629C161.557 1.30329 161.707 1.28028 161.855 1.25728C162.026 1.32715 162.136 1.52959 162.376 1.46405C162.52 1.42416 162.673 1.41522 162.821 1.39222C162.968 1.36922 163.118 1.34339 163.265 1.32321C163.313 1.31742 163.367 1.30316 163.409 1.31429C163.455 1.32541 163.494 1.36473 163.533 1.39277C163.654 1.47407 163.766 1.5554 163.937 1.50697C164.081 1.46708 164.234 1.45814 164.381 1.43232C164.582 1.4007 164.582 1.40071 164.917 1.57709C165.053 1.64989 165.206 1.55364 165.335 1.61519C165.423 1.65716 165.498 1.72732 165.583 1.77493C165.619 1.79454 165.676 1.80279 165.718 1.79702C165.917 1.77104 166.118 1.74507 166.313 1.7022C166.472 1.66789 166.605 1.70126 166.717 1.8023C166.798 1.87528 166.88 1.90602 166.982 1.88879C167.477 1.80835 167.973 1.73915 168.465 1.65027C168.633 1.61875 168.769 1.66621 168.863 1.76731C169.023 1.94143 169.247 1.73511 169.414 1.87541C169.516 1.9624 169.619 2.06347 169.805 2.02063C170.148 1.94631 170.496 1.90575 170.842 1.85395C170.965 1.9296 171.089 2.00527 171.216 2.08092C171.414 2.0493 171.612 2.01767 171.81 1.98887C171.958 1.96587 172.108 1.94005 172.255 1.91986C172.303 1.91408 172.354 1.90264 172.399 1.91658C172.444 1.93052 172.481 1.96703 172.523 1.99506C172.731 2.13241 172.731 2.13524 173.074 2.07782C173.221 2.052 173.362 2.03465 173.486 2.14692C173.601 2.25077 173.736 2.27004 173.892 2.23856C174.187 2.1813 174.484 2.1381 174.784 2.09771C174.878 2.08333 174.965 2.13094 175.044 2.20392C175.162 2.31903 175.306 2.3073 175.453 2.27585C175.648 2.2358 175.84 2.19576 176.007 2.35296C176.04 2.38666 176.091 2.43435 176.127 2.43142C176.374 2.4081 176.623 2.39042 176.863 2.33614C177.104 2.28186 177.222 2.4561 177.388 2.54007C177.634 2.50267 177.883 2.46526 178.13 2.42786C178.178 2.41926 178.235 2.39374 178.277 2.40769C178.455 2.46627 178.558 2.67718 178.801 2.61163C178.942 2.57456 179.096 2.56282 179.243 2.5539C179.282 2.55096 179.333 2.59866 179.361 2.63519C179.376 2.65486 179.361 2.70841 179.343 2.73664C179.29 2.81567 179.224 2.88913 179.176 2.97097C179.17 2.98225 179.228 3.03275 179.261 3.05518C179.343 3.10562 179.436 3.09689 179.544 3.07401C179.637 3.054 179.733 3.09312 179.8 3.17741C179.827 3.21112 179.819 3.26747 179.763 3.45355C179.764 3.59156 179.826 3.52938 179.847 3.43918C179.879 3.30952 179.816 3.26747 179.696 3.33827C179.612 3.38924 179.571 3.46261 179.592 3.52169C179.604 3.55263 179.662 3.59189 179.763 3.45355C180.026 3.28371 180.225 3.25211 180.423 3.2205C180.474 3.21189 180.534 3.18351 180.57 3.2003C180.7 3.26748 180.82 3.34879 180.947 3.42444C181.091 3.40708 181.226 3.36438 181.368 3.47378C181.568 3.62806 181.577 3.61395 181.769 3.58235C181.868 3.56514 181.967 3.55076 182.066 3.53637C182.165 3.52197 182.244 3.56395 182.331 3.62846C182.51 3.76027 182.525 3.76021 182.641 3.57958C182.709 3.46951 182.757 3.43275 182.844 3.48317C183.134 3.65406 183.137 3.66531 183.384 3.61383C183.588 3.57093 183.78 3.55905 183.931 3.71912C184.034 3.83145 184.067 3.806 184.148 3.68745C184.362 3.37413 184.461 3.37943 184.869 3.60346C185.059 3.70989 185.253 3.5938 185.446 3.57911C185.608 3.56732 185.723 3.63454 185.736 3.81195C185.746 3.92176 185.773 4.00055 185.882 4.03683C185.924 4.05077 185.975 4.07032 186.017 4.06455C186.266 4.02996 186.513 3.98974 186.762 3.94951C186.888 3.92939 186.956 3.79682 186.931 3.62227C186.903 3.43646 186.95 3.36869 187.13 3.3146C187.238 3.28327 187.326 3.28865 187.413 3.33907C187.51 3.3951 187.483 3.44588 187.4 3.54754C187.2 3.79604 187.225 3.94803 187.485 4.11902C187.575 4.17788 187.648 4.23119 187.669 4.31843C187.681 4.36346 187.67 4.42264 187.697 4.45635C187.846 4.64459 188.051 4.76507 188.28 4.85447C188.499 4.77772 188.65 4.90397 188.819 5.00483C188.952 5.08327 189.108 5.01519 189.249 4.98658C189.408 4.95509 189.54 4.97719 189.655 5.08104C189.737 5.15401 189.821 5.18753 189.921 5.17313C190.119 5.14152 190.32 5.12117 190.515 5.07548C190.683 5.03551 190.81 5.09145 190.916 5.18688C191.049 5.30757 191.196 5.2254 191.334 5.24186C191.521 5.26099 191.615 5.51135 191.858 5.44298C192.003 5.40309 192.153 5.38853 192.303 5.37679C192.342 5.37385 192.39 5.42158 192.424 5.45528C192.584 5.60968 192.77 5.60063 192.975 5.55492C193.116 5.52349 193.254 5.49489 193.393 5.60148C193.622 5.78101 193.876 5.93795 194.118 6.10336C194.152 6.23281 194.128 6.38495 194.3 6.46045C194.391 6.4996 194.475 6.5585 194.545 6.62306C194.63 6.69884 194.708 6.71831 194.816 6.69825C195.011 6.6582 195.216 6.64907 195.408 6.59776C195.585 6.55213 195.696 6.64475 195.805 6.73172C195.893 6.80186 195.974 6.83538 196.079 6.78435C196.187 6.73612 196.265 6.76684 196.353 6.84261C196.477 6.94643 196.486 6.93515 196.895 6.96484C196.937 6.96752 196.989 7.00958 197.013 7.04612C197.025 7.0658 196.998 7.12225 196.978 7.15048C196.951 7.18436 196.909 7.22391 196.87 7.23248C196.425 7.30713 195.978 7.37333 195.533 7.44798C195.488 7.45657 195.44 7.47646 195.408 7.50473C195.372 7.53583 195.327 7.57819 195.327 7.61763C195.327 7.64579 195.388 7.67941 195.43 7.69899C195.563 7.76335 195.718 7.66428 195.848 7.7371C195.936 7.7847 196.008 7.85205 196.096 7.89684C196.132 7.91644 196.189 7.91345 196.234 7.90768C196.384 7.88748 196.531 7.85885 196.681 7.84148C196.724 7.83853 196.772 7.86655 196.811 7.88896C197.101 8.05703 197.101 8.05702 197.35 8.01961C197.449 8.00522 197.554 7.96263 197.647 7.97923C197.738 7.99584 197.816 8.07164 197.898 8.11926C198.067 8.22012 198.227 8.31819 198.24 8.53784C198.247 8.62232 198.347 8.69522 198.446 8.70054C198.542 8.70587 198.644 8.67459 198.743 8.65737C198.977 8.62283 198.977 8.62283 199.282 8.79367C199.367 8.84128 199.457 8.84662 199.565 8.81811C199.607 8.80671 199.658 8.81782 199.703 8.83176C199.851 8.87354 199.851 8.92704 199.756 9.02875C199.621 9.17845 199.634 9.19251 200.013 9.31804C200.158 9.36547 200.27 9.45525 200.39 9.53373C200.587 9.65985 200.584 9.65984 200.456 9.82642C200.426 9.86314 200.399 9.90266 200.369 9.94219C200.283 10.0523 200.214 10.1708 200.034 10.1827C199.836 10.1946 199.638 10.2403 199.439 10.2719C199.247 10.3035 199.196 10.3712 199.216 10.5627C199.238 10.7936 199.278 10.8188 199.623 10.8149C199.723 10.8146 199.81 10.8368 199.886 10.9126C199.85 11.0029 199.784 11.0735 199.688 11.0907C199.442 11.1337 199.193 11.1712 198.947 11.2086C198.748 11.2402 198.55 11.2718 198.352 11.3034C198.229 11.3235 198.152 11.4702 198.186 11.6335C198.204 11.7264 198.22 11.8193 198.236 11.9121C198.27 12.0979 198.333 12.1456 198.535 12.1365C198.586 12.1336 198.634 12.1109 198.682 12.1163C198.877 12.1354 198.972 12.3689 199.206 12.3203C199.402 12.2802 199.606 12.2711 199.798 12.2198C199.975 12.1742 200.075 12.2753 200.199 12.3509C200.241 12.3762 200.286 12.4295 200.323 12.4266C200.572 12.3948 200.821 12.363 201.064 12.3088C201.178 12.2859 201.248 12.3025 201.338 12.3698C201.556 12.5325 201.562 12.524 201.883 12.4723C202.117 12.4321 202.12 12.4378 202.422 12.6086C202.507 12.6562 202.597 12.6559 202.705 12.633C202.846 12.6044 202.993 12.5589 203.141 12.6007C203.186 12.6118 203.243 12.6454 203.258 12.682C203.268 12.7073 203.226 12.7694 203.19 12.7893C202.926 12.9366 202.617 12.9122 202.328 12.9723C202.238 12.9894 202.148 12.9362 202.072 12.8604C201.993 12.7846 201.909 12.7539 201.807 12.7683C201.609 12.7999 201.407 12.8203 201.212 12.866C201.044 12.9059 200.926 12.8415 200.809 12.7546C200.769 12.7265 200.724 12.6732 200.685 12.6761C200.24 12.7338 199.793 12.7916 199.351 12.8719C199.174 12.9063 199.071 12.8165 198.951 12.7408C198.908 12.7156 198.866 12.6622 198.827 12.6651C198.677 12.6769 198.53 12.7083 198.379 12.7313C197.833 12.8176 197.289 12.9038 196.743 12.9844C196.707 12.9902 196.661 12.9311 196.619 12.9059C196.537 12.8555 196.453 12.8079 196.368 12.7603C196.218 12.7833 196.071 12.8119 195.921 12.8293C195.813 12.8409 195.717 12.8806 195.702 12.9877C195.694 13.0582 195.794 13.1226 195.899 13.1166C196.001 13.1107 196.103 13.0766 196.187 13.1129C196.606 13.2918 196.606 13.2947 196.868 13.2572C197.096 13.2227 197.072 13.1946 197.274 13.3489C197.362 13.4162 197.44 13.4554 197.539 13.4382C197.786 13.3979 198.035 13.3577 198.284 13.3231C198.323 13.3174 198.374 13.3454 198.414 13.3678C198.709 13.5358 198.709 13.5415 198.953 13.4984C199.271 13.4467 199.283 13.4326 199.498 13.6037C199.646 13.7216 199.78 13.6394 199.922 13.6334C200.085 13.7427 200.263 13.8407 200.411 13.9642C200.586 14.1101 200.769 14.0841 200.968 14.0412C201.115 14.0098 201.259 13.9981 201.38 14.1132C201.495 14.2198 201.633 14.2307 201.789 14.202C201.93 14.1762 202.074 14.1222 202.222 14.1837C202.261 14.2005 202.322 14.2426 202.319 14.2679C202.316 14.3074 202.277 14.3638 202.238 14.3809C201.963 14.4972 201.659 14.4954 201.368 14.5498C201.329 14.5584 201.277 14.5275 201.238 14.5051C201.154 14.4547 201.072 14.3958 200.991 14.3426C200.843 14.3599 200.693 14.366 200.549 14.4003C200.438 14.426 200.354 14.4235 200.272 14.3561C200.197 14.2944 200.115 14.2186 200.025 14.1992C199.934 14.1797 199.829 14.2223 199.73 14.2395C199.631 14.2568 199.517 14.2487 199.439 14.294C199.361 14.3393 199.314 14.438 199.263 14.5171C199.207 14.6046 199.129 14.633 199.014 14.6418C198.909 14.6506 198.825 14.6396 198.746 14.561C198.713 14.5273 198.668 14.5021 198.622 14.4797C198.58 14.4601 198.532 14.4292 198.493 14.435C198.045 14.5012 197.601 14.5731 197.154 14.6421C196.931 14.6766 196.934 14.6766 196.47 14.5119C196.428 14.4979 196.377 14.4784 196.335 14.4841C196.085 14.5187 195.839 14.5589 195.59 14.5992C195.338 14.6394 195.341 14.6338 194.91 14.4577C194.831 14.4241 194.717 14.4696 194.624 14.4642C194.429 14.4508 194.331 14.2145 194.103 14.2603C193.907 14.3003 193.703 14.3094 193.508 14.3608C193.331 14.4064 193.228 14.3081 193.107 14.2325C193.065 14.2073 193.02 14.1511 192.984 14.1568C192.536 14.2202 192.092 14.292 191.496 14.3024C191.349 14.3029 191.416 14.3618 191.512 14.3812C191.65 14.4117 191.695 14.3525 191.619 14.24C191.565 14.1613 191.486 14.1221 191.423 14.1421C191.39 14.1534 191.348 14.2071 191.496 14.3024C191.653 14.4089 191.645 14.4681 191.672 14.5018C191.739 14.5833 191.832 14.6168 191.928 14.6052C192.079 14.585 192.226 14.5564 192.376 14.539C192.418 14.5332 192.469 14.5528 192.508 14.5752C192.84 14.7488 192.843 14.76 193.195 14.6913C193.306 14.6712 193.387 14.671 193.474 14.7242C193.595 14.7971 193.683 14.9207 193.866 14.8807C194.109 14.8264 194.359 14.7946 194.608 14.7629C194.647 14.7571 194.689 14.8077 194.735 14.8301C194.858 14.8973 194.949 15.0237 195.132 14.9696C195.273 14.9269 195.427 14.9151 195.577 14.9062C195.616 14.9033 195.676 14.9482 195.695 14.9847C195.731 15.0494 195.687 15.1256 195.585 15.1794C195.543 15.2021 195.486 15.1966 195.438 15.2052C195.239 15.2368 195.041 15.2713 194.843 15.2972C194.738 15.3117 194.639 15.3542 194.628 15.4585C194.619 15.5289 194.728 15.5905 194.83 15.5846C194.98 15.5757 195.13 15.5526 195.274 15.5156C195.529 15.4528 195.752 15.469 195.961 15.6458C196.109 15.7692 196.099 15.7242 196.258 16.0899C196.298 16.1827 196.415 16.1907 196.517 16.1848C196.764 16.1699 196.878 16.2118 196.858 16.2992C196.832 16.4063 196.745 16.4404 196.633 16.4548C196.435 16.478 196.237 16.5152 196.039 16.5468C195.991 16.5554 195.937 16.5725 195.892 16.567C195.846 16.5615 195.804 16.5279 195.765 16.5026C195.68 16.4494 195.608 16.3679 195.517 16.3485C195.427 16.3291 195.322 16.3717 195.223 16.3889C195.124 16.4033 195.019 16.4459 194.929 16.4264C194.838 16.407 194.763 16.3228 194.681 16.2723C194.642 16.2471 194.594 16.2078 194.554 16.2107C194.356 16.2339 194.158 16.2712 193.96 16.3C193.717 16.3374 193.717 16.3374 193.421 16.1637C193.336 16.1132 193.249 16.1163 193.138 16.1392C192.898 16.1851 192.895 16.1766 192.455 16.0146C192.413 15.9979 192.361 15.9783 192.319 15.9869C191.872 16.0531 191.427 16.1249 190.983 16.194C190.601 16.2543 190.601 16.2543 190.393 16.5367C190.238 16.7456 190.235 16.7456 190.389 16.8409C190.513 16.9193 190.625 17.0344 190.76 17.0763C190.887 17.1153 191.042 16.9881 191.181 17.1172C191.251 17.1817 191.342 17.2519 191.429 17.2629C191.567 17.2765 191.714 17.1943 191.847 17.3178C191.914 17.3796 192.013 17.4441 192.098 17.4466C192.245 17.4518 192.395 17.4062 192.542 17.386C192.587 17.3803 192.638 17.3801 192.68 17.3941C192.726 17.4108 192.765 17.4445 192.804 17.4725C192.925 17.5679 193.055 17.6126 193.211 17.5642C193.466 17.4845 193.694 17.5232 193.894 17.7028C193.921 17.7281 193.987 17.7307 194.029 17.7193C194.137 17.6908 194.231 17.6877 194.312 17.7409C194.345 17.7634 194.394 17.8026 194.388 17.828C194.379 17.8703 194.343 17.9267 194.304 17.9409C194.022 18.0376 193.719 18.0498 193.428 18.1015C193.389 18.1072 193.34 18.0707 193.301 18.0455C193.216 17.9951 193.144 17.9108 193.053 17.8914C192.963 17.872 192.858 17.9089 192.759 17.9233C192.66 17.9377 192.555 17.9803 192.465 17.9637C192.374 17.9443 192.29 17.8741 192.217 17.8124C192.133 17.7422 192.051 17.7341 191.94 17.7626C191.796 17.7997 191.646 17.8058 191.499 17.826C191.417 17.7727 191.336 17.7138 191.251 17.6634C191.212 17.6381 191.164 17.6073 191.122 17.6103C190.923 17.6334 190.725 17.6678 190.527 17.6995C190.329 17.7311 190.329 17.7311 189.991 17.5576C189.952 17.538 189.9 17.5156 189.858 17.5214C189.609 17.5559 189.363 17.599 189.113 17.6335C189.017 17.6479 188.93 17.6088 188.851 17.533C188.776 17.4572 188.685 17.4152 188.592 17.4296C188.196 17.49 187.799 17.5476 187.403 17.6193C187.244 17.648 187.108 17.6231 186.999 17.522C186.872 17.4069 186.731 17.4355 186.584 17.4585C186.251 17.5159 186.248 17.5131 186.033 17.3702C185.991 17.3421 185.949 17.2887 185.909 17.2917C185.564 17.335 185.216 17.3756 184.873 17.4443C184.693 17.4814 184.596 17.3832 184.476 17.3103C184.433 17.2851 184.388 17.2317 184.352 17.2375C184.103 17.2693 183.853 17.2982 183.61 17.3553C183.367 17.4125 183.272 17.1508 183.089 17.1542C182.839 17.1578 182.593 17.2234 182.347 17.2636C182.149 17.2952 181.95 17.3268 181.752 17.3584C181.554 17.3901 181.356 17.416 181.158 17.4533C181.052 17.4733 180.974 17.4482 180.887 17.3781C180.775 17.2855 180.642 17.2127 180.521 17.1286C180.337 17.0081 180.337 17.0081 180.115 17.0426C180.067 17.0512 180.016 17.0569 179.967 17.0655C179.604 17.1287 179.604 17.1231 179.14 16.9471C179.119 16.9387 179.065 16.9699 179.044 16.9925C178.981 17.0659 178.925 17.1449 178.868 17.2212C178.787 17.1763 178.687 17.1513 178.633 17.0867C178.478 16.9041 178.239 17.1556 178.082 16.9758C178.024 16.9084 177.925 16.8495 177.834 16.8329C177.741 16.8163 177.636 16.8561 177.54 16.8733C177.291 16.9163 177.291 16.9135 177.079 17.1649C176.972 17.2892 176.815 17.2671 176.674 17.2957C176.527 17.3272 176.386 17.3445 176.262 17.2295C176.15 17.1256 176.014 17.1007 175.855 17.135C175.66 17.1779 175.459 17.2038 175.261 17.2298C175.219 17.2356 175.167 17.2217 175.125 17.2049C174.664 17.0402 174.664 17.0374 174.442 17.0747C174.343 17.0919 174.241 17.0979 174.145 17.1235C173.983 17.1691 173.859 17.1104 173.741 17.0206C173.702 16.9926 173.656 16.9392 173.617 16.9422C173.419 16.9569 173.224 16.9828 173.029 17.0088C172.878 17.029 172.728 17.0407 172.584 17.0806C172.344 17.1462 172.226 16.9634 172.06 16.8795C171.813 16.9169 171.564 16.943 171.318 16.9945C171.204 17.0174 171.129 17.0092 171.041 16.9419C170.929 16.8578 170.826 16.7623 170.646 16.8051C170.406 16.8622 170.154 16.8828 169.907 16.9173C169.741 16.8306 169.62 16.6535 169.383 16.719C169.239 16.7589 169.086 16.7678 168.939 16.7908C168.74 16.8225 168.542 16.8513 168.344 16.8857C168.131 16.9202 168.134 16.9117 167.805 16.7466C167.615 16.6486 167.42 16.7591 167.228 16.7766C167.078 16.7911 167.003 16.9209 167.04 17.087C167.078 17.2531 166.997 17.3829 166.859 17.4059C166.514 17.4605 166.165 17.5179 165.82 17.5669C165.778 17.5726 165.727 17.5531 165.688 17.5335C165.317 17.3572 165.317 17.3601 165.151 17.386C164.905 17.429 164.653 17.4523 164.41 17.5066C164.242 17.5437 164.118 17.485 164.009 17.3896C163.924 17.3166 163.846 17.3 163.738 17.3172C162.549 17.5097 161.359 17.6881 160.173 17.8863C159.996 17.915 159.893 17.8336 159.773 17.758C159.73 17.7328 159.691 17.6794 159.649 17.6795C159.55 17.6798 159.451 17.7055 159.352 17.7227C158.907 17.7917 158.463 17.8748 158.015 17.9269C157.826 17.9501 157.776 18.0798 157.695 18.1871C157.633 18.269 157.561 18.303 157.449 18.3146C157.341 18.3262 157.263 18.3124 157.178 18.2394C157.07 18.144 156.946 18.0852 156.778 18.1252C156.583 18.1709 156.384 18.1913 156.183 18.2229C156.081 18.2373 156.003 18.2882 155.971 18.3897C155.965 18.4066 156.028 18.4487 156.065 18.4739C156.185 18.558 156.3 18.6563 156.436 18.715C156.575 18.7737 156.725 18.7056 156.869 18.6882C156.92 18.6824 156.968 18.6654 157.016 18.6681C157.061 18.6707 157.115 18.6846 157.148 18.7099C157.306 18.8361 157.472 18.9229 157.687 18.8462C157.874 18.8822 157.972 19.1157 158.209 19.0529C158.353 19.0159 158.503 18.9985 158.653 18.9839C158.693 18.981 158.735 19.0316 158.777 19.0568C158.898 19.1268 158.995 19.2392 159.175 19.1907C159.367 19.1394 159.571 19.1303 159.766 19.0902C159.875 19.0674 159.953 19.0868 160.037 19.1598C160.146 19.2524 160.27 19.3224 160.438 19.2768C160.582 19.2369 160.735 19.228 160.883 19.2021C161.075 19.1706 161.075 19.1734 161.419 19.3469C161.458 19.3665 161.509 19.3889 161.551 19.3831C161.8 19.3485 162.047 19.3055 162.296 19.2709C162.392 19.2565 162.486 19.2928 162.552 19.3743C162.579 19.408 162.571 19.4644 162.58 19.5122C162.085 19.5899 161.589 19.6562 161.097 19.7507C160.91 19.7879 160.826 19.6727 160.702 19.6083C160.66 19.5859 160.614 19.5382 160.575 19.544C160.227 19.593 159.881 19.6447 159.536 19.7078C159.428 19.7279 159.347 19.7168 159.265 19.6354C159.056 19.4192 158.804 19.5383 158.57 19.57C158.39 19.5932 158.333 19.6807 158.356 19.8665C158.384 20.0861 158.493 20.1533 158.769 20.113C158.868 20.0986 158.967 20.0786 159.066 20.067C159.163 20.0554 159.25 20.0918 159.329 20.1676C159.404 20.2434 159.495 20.2825 159.588 20.271C159.786 20.245 159.987 20.219 160.179 20.1761C160.339 20.1418 160.471 20.1696 160.583 20.2734C160.707 20.3885 160.851 20.3627 160.995 20.3369C161.332 20.2795 161.335 20.2823 161.546 20.4225C161.588 20.4505 161.631 20.5039 161.67 20.5009C162.015 20.4576 162.364 20.4199 162.703 20.3512C162.88 20.3168 162.983 20.4066 163.101 20.4795C163.143 20.5047 163.185 20.5609 163.224 20.5551C163.474 20.5234 163.723 20.4916 163.966 20.4373C164.08 20.4116 164.15 20.4282 164.243 20.4955C164.467 20.661 164.473 20.6554 164.788 20.6008C164.884 20.5836 164.989 20.5523 165.079 20.5746C165.17 20.5968 165.242 20.6783 165.327 20.7287C165.366 20.7511 165.415 20.7819 165.457 20.7762C165.655 20.753 165.853 20.7186 166.051 20.687C166.237 20.6554 166.237 20.6582 166.587 20.8317C166.729 20.9045 166.876 20.8421 167.017 20.8191C167.17 20.7932 167.309 20.7928 167.427 20.9023C167.545 21.0118 167.686 21.0057 167.836 20.9826C167.977 20.9597 168.121 20.8973 168.266 20.9729C168.598 21.1464 168.598 21.1492 168.802 21.1148C169.099 21.0659 169.393 21.0199 169.694 20.9767C169.733 20.971 169.784 21.0046 169.823 21.027C169.908 21.0775 169.981 21.1617 170.071 21.1811C170.161 21.2034 170.266 21.1693 170.362 21.152C170.672 21.0975 170.693 21.0778 170.901 21.263C171.077 21.4145 171.292 21.1942 171.455 21.3683C171.549 21.4666 171.676 21.545 171.85 21.4966C171.994 21.4567 172.144 21.4449 172.294 21.4219C172.531 21.3845 172.531 21.3874 172.833 21.5554C172.872 21.5778 172.924 21.6058 172.963 21.6001C173.161 21.5769 173.362 21.5565 173.554 21.5052C173.78 21.4454 173.924 21.552 174.094 21.6556C174.226 21.7369 174.382 21.6688 174.523 21.6402C174.677 21.6115 174.815 21.6195 174.93 21.729C175.051 21.8413 175.192 21.8267 175.342 21.8037C175.483 21.7836 175.627 21.7183 175.772 21.7967C176.083 21.9704 176.083 21.9704 176.308 21.9358C176.506 21.9042 176.704 21.8698 176.903 21.8467C176.942 21.8409 176.99 21.8773 177.029 21.9026C177.114 21.953 177.187 22.0373 177.277 22.0567C177.367 22.0761 177.472 22.0392 177.571 22.0248C177.67 22.0104 177.775 21.9678 177.866 21.9844C177.956 22.001 178.041 22.0712 178.113 22.1329C178.198 22.2059 178.276 22.2141 178.39 22.1855C178.534 22.1485 178.684 22.1395 178.832 22.1194C178.913 22.1726 178.998 22.2258 179.076 22.2847C179.158 22.3465 179.245 22.3405 179.356 22.3205C179.725 22.2517 179.728 22.2601 180.039 22.4338C180.181 22.5122 180.328 22.4469 180.469 22.4268C180.619 22.4038 180.76 22.3921 180.878 22.5043C180.993 22.611 181.135 22.6246 181.285 22.5904C181.381 22.5675 181.483 22.5531 181.582 22.5444C181.627 22.5414 181.681 22.5525 181.715 22.5749C181.875 22.6927 182.032 22.7992 182.251 22.7225C182.443 22.7444 182.541 22.9751 182.772 22.9293C182.967 22.8892 183.172 22.8801 183.364 22.8288C183.541 22.7831 183.668 22.8616 183.759 22.9599C183.922 23.134 184.149 22.8967 184.312 23.068C184.406 23.1663 184.527 23.2448 184.707 23.2019C184.905 23.1563 184.969 23.2152 185.027 23.3924C185.061 23.4937 185.055 23.5754 184.996 23.6545C184.936 23.7364 184.87 23.7225 184.773 23.6299C184.661 23.526 184.529 23.5067 184.37 23.5297C184.213 23.5528 184.116 23.4066 183.987 23.3507C183.857 23.292 183.704 23.391 183.568 23.3154C183.249 23.139 183.249 23.139 183.032 23.1735C182.885 23.1965 182.732 23.2082 182.588 23.2481C182.417 23.2966 182.305 23.2096 182.187 23.1311C182.145 23.1031 182.103 23.0497 182.067 23.0526C181.721 23.096 181.373 23.1365 181.03 23.208C180.85 23.2452 180.753 23.1441 180.633 23.0741C180.59 23.0489 180.545 22.9983 180.509 23.0041C180.212 23.0444 179.917 23.0961 179.62 23.1449C179.563 23.2211 179.501 23.2946 179.447 23.3764C179.391 23.4611 179.313 23.498 179.198 23.4955C179.009 23.4961 178.823 23.615 178.633 23.4663C178.437 23.3149 178.422 23.3234 178.233 23.3606C177.992 23.4092 177.737 23.3988 177.512 23.5093C177.473 23.5292 177.431 23.5828 177.432 23.6222C177.429 23.6476 177.492 23.684 177.531 23.7064C177.664 23.7736 177.817 23.6745 177.949 23.7445C178.037 23.7893 178.11 23.8567 178.197 23.9043C178.233 23.9239 178.287 23.9209 178.335 23.9179C178.387 23.9149 178.434 23.8951 178.483 23.8978C178.528 23.9004 178.576 23.9172 178.612 23.9424C178.778 24.0489 178.953 24.1469 179.101 24.2732C179.247 24.3967 179.381 24.3117 179.526 24.3057C180.104 24.501 180.104 24.5038 180.491 24.4406C180.588 24.4262 180.687 24.409 180.786 24.4115C180.828 24.4114 180.867 24.4619 180.91 24.4899C181.03 24.574 181.145 24.6497 181.313 24.6041C181.457 24.5643 181.611 24.5553 181.758 24.5295C181.956 24.4979 181.956 24.4979 182.294 24.6743C182.378 24.7191 182.468 24.7131 182.576 24.6903C182.67 24.6703 182.766 24.7122 182.833 24.7937C182.86 24.8274 182.851 24.8837 182.861 24.9316C182.563 24.9776 182.263 25.0095 181.975 25.0781C181.789 25.1209 181.704 25.0001 181.58 24.9357C181.538 24.9133 181.492 24.8655 181.453 24.8713C181.159 24.9145 180.865 24.9633 180.57 25.0205C180.534 25.0263 180.49 25.0912 180.487 25.1307C180.482 25.2039 180.557 25.2741 180.665 25.2709C180.81 25.2676 180.951 25.2193 181.081 25.3344C181.19 25.4354 181.325 25.4801 181.484 25.4345C181.58 25.4089 181.682 25.4085 181.778 25.3857C182.034 25.3173 182.265 25.3306 182.459 25.5215C182.606 25.5718 182.75 25.5234 182.892 25.4976C182.997 25.4776 183.099 25.4575 183.174 25.5108C183.334 25.6229 183.491 25.7351 183.71 25.6584C183.948 25.7365 184.13 25.9021 184.329 26.0366C184.423 26.1011 184.495 26.1375 184.603 26.0949C184.648 26.0779 184.702 26.0777 184.75 26.0691C184.849 26.0547 184.954 26.0121 185.045 26.0287C185.135 26.0482 185.211 26.1296 185.292 26.18C185.331 26.2053 185.377 26.2474 185.416 26.2444C185.566 26.2299 185.713 26.2012 185.86 26.1782C186.007 26.1581 186.155 26.1379 186.302 26.1177C186.425 26.1905 186.552 26.2634 186.676 26.3362C186.874 26.3046 187.072 26.273 187.268 26.2442C187.487 26.2097 187.487 26.2125 187.804 26.3861C187.945 26.4645 188.096 26.4133 188.231 26.3763C188.456 26.3164 188.607 26.423 188.767 26.5352C188.8 26.5576 188.86 26.5715 188.899 26.5601C189.055 26.5201 189.191 26.5507 189.306 26.6545C189.387 26.7275 189.469 26.7611 189.568 26.7467C189.913 26.6921 190.258 26.6346 190.604 26.5856C190.646 26.5799 190.694 26.6051 190.733 26.6275C191.041 26.7983 191.044 26.8067 191.269 26.761C191.471 26.7209 191.657 26.7034 191.817 26.8578C191.851 26.8915 191.902 26.9392 191.938 26.9363C192.184 26.9073 192.434 26.8755 192.677 26.8269C192.788 26.804 192.866 26.8122 192.954 26.8767C193.066 26.958 193.165 27.0563 193.349 27.0191C193.856 26.9133 193.859 26.9301 194.462 27.1226C194.504 27.1365 194.561 27.1138 194.609 27.1024C194.711 27.0739 194.786 27.1131 194.877 27.1776C195.079 27.3234 195.085 27.3149 195.277 27.2834C195.424 27.2575 195.578 27.2514 195.722 27.2087C195.944 27.146 196.092 27.2554 196.258 27.3591C196.391 27.4404 196.544 27.3723 196.685 27.3465C196.838 27.3178 196.976 27.3258 197.091 27.4325C197.17 27.5055 197.254 27.5446 197.353 27.5302C197.699 27.4784 198.044 27.421 198.389 27.3692C198.432 27.3634 198.483 27.3858 198.522 27.4054C198.866 27.5789 198.866 27.5874 199.205 27.5215C199.313 27.5015 199.403 27.4955 199.485 27.5544C199.563 27.6105 199.648 27.6638 199.73 27.717C199.877 27.6968 200.027 27.6907 200.171 27.6565C200.282 27.6308 200.36 27.6418 200.448 27.7007C200.563 27.7763 200.66 27.9084 200.84 27.843C200.933 27.8117 201.041 27.8199 201.134 27.7914C201.245 27.7544 201.32 27.7767 201.408 27.8497C201.517 27.9366 201.629 28.0264 201.803 27.9808C201.995 27.9295 202.199 27.9204 202.394 27.8803C202.502 27.8575 202.578 27.8798 202.665 27.9527C202.774 28.0453 202.898 28.1041 203.066 28.0669C203.408 27.9954 203.411 28.0095 203.746 28.1858C203.831 28.2306 203.921 28.2247 204.029 28.2019C204.122 28.1819 204.218 28.2238 204.285 28.3053C204.349 28.3952 204.343 28.4515 204.349 28.4994ZM177.392 3.18226C177.293 3.19665 177.194 3.21387 177.048 2.96929C177.039 2.92707 177.044 2.87636 177.023 2.83981C176.974 2.76392 176.899 2.71065 176.809 2.70248C176.646 2.69174 176.451 2.7881 176.455 2.86132C176.458 2.92328 176.51 2.97662 176.609 3.027C176.652 3.04658 176.685 3.08028 176.724 3.10269C176.839 3.16711 176.93 3.29358 177.095 3.22828C177.064 3.05375 177.079 3.14101 177.095 3.22828C177.08 3.33535 177.126 3.41126 177.234 3.4419C177.265 3.45025 177.31 3.44446 177.334 3.42749C177.426 3.36522 177.441 3.2807 177.37 3.05841C177.358 3.09506 177.368 3.15979 177.395 3.17661C177.422 3.19342 177.488 3.17915 177.521 3.15932C177.605 3.10554 177.647 3.03499 177.625 2.97591C177.613 2.94496 177.556 2.90571 177.519 2.90583C177.456 2.90603 177.4 2.96817 177.392 3.18226ZM201.917 35.7684C201.698 35.8226 201.446 35.8037 201.227 35.9142C201.188 35.934 201.149 35.9849 201.147 36.0243C201.144 36.0497 201.204 36.0861 201.24 36.1057C201.322 36.1505 201.412 36.1361 201.517 36.1217C201.676 36.1015 201.77 36.2307 201.894 36.2951C201.933 36.3147 201.984 36.3286 202.026 36.3229C202.27 36.2883 202.51 36.2509 202.753 36.2107C202.795 36.2022 202.84 36.1823 202.876 36.1568C202.996 36.0747 202.983 36.0213 202.866 35.9597C202.736 35.8925 202.633 35.7801 202.5 35.7271C202.311 35.6516 202.119 35.7536 201.917 35.7684ZM184.859 37.8788C184.712 37.9018 184.567 37.9248 184.42 37.9478C184.372 37.9564 184.321 37.9594 184.276 37.9708C184.183 37.9908 184.114 38.0501 184.07 38.1432C184.139 38.2162 184.224 38.2582 184.317 38.2495C184.464 38.2321 184.608 38.195 184.755 38.1861C184.915 38.1744 185.009 38.3008 185.132 38.3652C185.172 38.3848 185.22 38.3874 185.265 38.3901C185.487 38.4007 185.622 38.2538 185.578 38.0483C185.547 37.8879 185.432 37.7925 185.294 37.8126C185.15 37.8328 185.003 37.8558 184.859 37.8788ZM202.918 31.6022C202.954 31.5542 202.993 31.5203 203.01 31.478C203.064 31.3342 203.042 31.2272 202.942 31.1149C202.821 30.9772 202.674 31.0707 202.539 31.0852C202.506 31.0881 202.47 31.1473 202.452 31.184C202.44 31.2094 202.441 31.2629 202.459 31.277C202.607 31.3892 202.764 31.4929 202.918 31.6022ZM176.784 23.3652C176.639 23.3882 176.492 23.4055 176.348 23.437C176.312 23.4456 176.279 23.4992 176.259 23.5358C176.22 23.6036 176.263 23.6964 176.386 23.7044C176.527 23.7152 176.674 23.6669 176.821 23.6439C177.008 23.6151 177.118 23.5106 177.048 23.4207C176.982 23.3336 176.891 23.317 176.784 23.3652ZM18.4975 17.8501C18.5936 17.8357 18.6927 17.8241 18.7888 17.8041C18.8789 17.7841 18.9477 17.7219 18.9921 17.6288C18.9165 17.5558 18.832 17.5166 18.7389 17.5254C18.5917 17.5428 18.4476 17.5657 18.3034 17.5944C18.2134 17.6116 18.1266 17.6738 18.1062 17.7696C18.0857 17.8429 18.2873 17.8845 18.4975 17.8501ZM164.027 16.9529C164.067 16.9782 164.106 17.0288 164.145 17.0286C164.241 17.0283 164.34 17.0111 164.43 16.9826C164.469 16.9713 164.499 16.9205 164.517 16.881C164.529 16.8556 164.525 16.8105 164.507 16.7881C164.419 16.6532 164.071 16.7021 164.015 16.8572C164.009 16.8854 164.024 16.922 164.027 16.9529ZM154.44 1.55973C154.449 1.60477 154.453 1.64982 154.465 1.69484C154.49 1.77926 154.556 1.84103 154.653 1.88297C154.727 1.81232 154.766 1.73334 154.762 1.64885C154.759 1.6038 154.75 1.55874 154.737 1.51371C154.713 1.42929 154.646 1.36756 154.55 1.32562C154.475 1.39345 154.44 1.47242 154.44 1.55973ZM209.91 38.2891C209.883 38.3258 209.856 38.3625 209.826 38.3964C209.908 38.4778 209.984 38.5029 210.04 38.4577C210.076 38.4294 210.097 38.3871 210.124 38.3504C210.042 38.269 209.97 38.2467 209.91 38.2891ZM208.043 38.6781C208.082 38.7034 208.118 38.737 208.16 38.7538C208.23 38.7817 208.293 38.7337 208.34 38.6321C208.301 38.6069 208.264 38.5732 208.222 38.5564C208.153 38.5285 208.09 38.5766 208.043 38.6781ZM209.224 38.1589C209.203 38.2266 209.246 38.2828 209.357 38.3303C209.384 38.2936 209.42 38.2597 209.438 38.2202C209.467 38.1553 209.416 38.0964 209.307 38.0516C209.277 38.0855 209.25 38.1222 209.224 38.1589ZM202.857 35.1429C202.837 35.2106 202.879 35.2668 202.991 35.3143C203.018 35.2776 203.053 35.2437 203.071 35.2042C203.101 35.1393 203.049 35.0803 202.941 35.0356C202.911 35.0695 202.884 35.1062 202.857 35.1429ZM194.079 15.2405C194.052 15.2772 194.025 15.3139 193.996 15.3478C194.077 15.4293 194.153 15.4544 194.209 15.4091C194.245 15.3808 194.266 15.3385 194.293 15.3018C194.211 15.2204 194.139 15.1981 194.079 15.2405ZM185.727 4.69358C185.799 4.71306 185.859 4.67346 185.909 4.56908C185.87 4.54386 185.834 4.51017 185.791 4.4934C185.722 4.46546 185.659 4.51355 185.612 4.6151C185.651 4.64314 185.69 4.66834 185.727 4.69358ZM181.324 4.0457C181.297 4.0824 181.27 4.1191 181.241 4.153C181.322 4.23442 181.398 4.25952 181.454 4.21427C181.49 4.18599 181.511 4.14367 181.538 4.10697C181.456 4.02555 181.384 4.00607 181.324 4.0457ZM151.482 1.56633C151.455 1.60303 151.428 1.63973 151.399 1.67363C151.48 1.75505 151.556 1.78015 151.612 1.7349C151.648 1.70662 151.669 1.66431 151.696 1.62761C151.614 1.54618 151.542 1.52671 151.482 1.56633ZM3.12831 24.9546C3.08906 24.9294 3.04984 24.9042 3.01358 24.8761C2.9269 24.9524 2.90032 25.0229 2.94878 25.0763C2.97907 25.11 3.02426 25.1296 3.06351 25.1548C3.15319 25.0785 3.17377 25.0108 3.12831 24.9546Z" fill="#FFE492"/>
</svg>
