<svg width="298" height="58" viewBox="0 0 298 58" fill="none" xmlns="http://www.w3.org/2000/svg">
<path d="M280.375 30.6501C279.967 30.6987 279.554 30.732 279.153 30.8048C278.893 30.8503 278.782 30.7169 278.608 30.6471C278.551 30.6229 278.489 30.5743 278.435 30.5804C278.03 30.6289 277.626 30.6835 277.221 30.7381C277.097 30.8564 277.019 31.0142 276.829 31.0718C276.643 31.1264 276.424 31.1264 276.218 31.1537C275.945 31.1871 275.673 31.2205 275.401 31.2508C275.264 31.266 275.153 31.3236 275.107 31.4328C275.099 31.451 275.19 31.4965 275.239 31.5238C275.405 31.6148 275.566 31.7179 275.747 31.7877C275.921 31.8544 276.135 31.7452 276.321 31.8301C276.738 32.0213 276.742 32.0182 277.06 31.9818C277.333 31.9485 277.605 31.9121 277.878 31.8878C277.931 31.8817 277.993 31.9272 278.051 31.9515C278.224 32.0182 278.336 32.1699 278.592 32.1123C278.786 32.0668 279.001 32.0577 279.203 32.0334C279.372 32.1214 279.529 32.2215 279.711 32.2912C279.88 32.358 279.93 32.4096 279.839 32.4975C279.756 32.5794 279.641 32.6128 279.488 32.6189C279.352 32.6219 279.215 32.6492 279.079 32.6643C279.009 32.6735 278.943 32.6795 278.877 32.6886C278.617 32.722 278.617 32.722 278.142 32.5279C277.956 32.452 277.746 32.5582 277.568 32.4854C277.448 32.4369 277.345 32.3641 277.229 32.3125C277.18 32.2913 277.101 32.2882 277.04 32.2943C276.833 32.3155 276.627 32.3307 276.429 32.3701C276.288 32.3974 276.206 32.4824 276.222 32.5673C276.226 32.6007 276.325 32.6492 276.383 32.6522C276.515 32.6583 276.656 32.6158 276.784 32.6371C276.907 32.6583 277.035 32.719 277.126 32.7857C277.312 32.9252 277.523 32.8009 277.7 32.8373C277.886 32.8767 278.039 32.9981 278.216 33.0709C278.262 33.0891 278.348 33.0587 278.418 33.0496C278.621 33.0284 278.823 33.0102 279.025 32.9889C279.195 33.0769 279.376 33.1558 279.529 33.2559C279.806 33.4379 280.103 33.5076 280.462 33.4197C280.664 33.3711 280.863 33.3894 281.024 33.5077C281.189 33.629 281.379 33.6169 281.589 33.5926C281.783 33.5683 281.981 33.5016 282.18 33.5865C282.609 33.7746 282.613 33.7837 283.121 33.7109C283.274 33.6897 283.389 33.6836 283.505 33.7534C283.612 33.8171 283.728 33.8717 283.839 33.9324C284.042 33.9111 284.248 33.8899 284.45 33.8656C284.71 33.8323 284.855 33.8747 284.917 34.0446C284.954 34.1477 284.97 34.2418 285.061 34.3115C285.169 34.3965 285.284 34.3934 285.441 34.3691C285.59 34.3479 285.697 34.3146 285.759 34.2054C285.784 34.1599 285.833 34.1174 285.879 34.081C285.916 34.0537 285.974 34.0112 286.007 34.0173C286.069 34.0294 286.151 34.0628 286.172 34.1022C286.374 34.4692 286.374 34.4723 286.58 34.5785C286.808 34.6968 287.043 34.8029 287.249 34.9364C287.435 35.0547 287.621 35.0032 287.823 35.0032C287.976 35.0032 288.075 35.082 288.063 35.1609C288.054 35.2064 287.997 35.2731 287.947 35.2792C287.542 35.3399 287.134 35.3914 286.725 35.4339C286.675 35.44 286.614 35.3854 286.556 35.3581C286.44 35.3035 286.337 35.2185 286.213 35.2003C286.089 35.1821 285.945 35.2276 285.809 35.2428C285.672 35.258 285.528 35.2974 285.404 35.2731C285.28 35.2489 285.181 35.1609 285.065 35.1033C285.012 35.076 284.937 35.0365 284.892 35.0456C284.591 35.1184 284.368 35.0183 284.153 34.8849C284.108 34.8576 284.029 34.8394 283.971 34.8454C283.492 34.897 283.018 34.9576 282.539 35.0153C282.345 35.0395 282.188 34.9334 282.146 34.7544C282.126 34.6543 282.085 34.5542 282.085 34.4541C282.085 34.2721 281.858 34.172 281.692 34.1932C281.42 34.2236 281.143 34.2478 280.875 34.2933C280.656 34.3297 280.47 34.2933 280.322 34.1841C280.148 34.0597 279.95 34.084 279.752 34.1174C279.603 34.1417 279.562 34.2418 279.57 34.4935C279.579 34.6968 279.508 34.7605 279.24 34.7938C278.901 34.8363 278.559 34.8788 278.216 34.9121C278.162 34.9182 278.101 34.8666 278.047 34.8393C277.931 34.7847 277.828 34.6968 277.704 34.6786C277.58 34.6573 277.436 34.7028 277.3 34.721C277.163 34.7362 277.019 34.7787 276.895 34.7574C276.771 34.7362 276.668 34.6452 276.556 34.5876C276.503 34.5603 276.437 34.5208 276.383 34.5269C276.111 34.5512 275.838 34.5876 275.566 34.6209C275.26 34.6573 275.26 34.6573 274.827 34.4693C274.628 34.3843 274.43 34.4511 274.236 34.4753C274.03 34.4996 273.836 34.5117 273.675 34.3904C273.567 34.3115 273.448 34.263 273.32 34.2782C272.977 34.3146 272.639 34.3601 272.296 34.3965C272.238 34.4025 272.16 34.3874 272.114 34.3601C271.895 34.2327 271.681 34.1326 271.375 34.1963C271.111 34.2509 270.826 34.2539 270.562 34.3055C270.417 34.3328 270.351 34.4298 270.38 34.5057C270.397 34.5451 270.483 34.5906 270.541 34.5906C270.673 34.5937 270.818 34.5481 270.942 34.5663C271.198 34.6027 271.326 34.8575 271.66 34.7878C271.858 34.7453 272.065 34.7301 272.271 34.718C272.325 34.715 272.383 34.7726 272.44 34.8029C272.605 34.8849 272.75 34.991 272.989 34.9364C273.188 34.8939 273.398 34.8818 273.6 34.8576C273.922 34.8181 273.923 34.8212 274.34 35.0062C274.538 35.0942 274.736 35.0244 274.93 35.0032C275.074 34.988 275.211 34.9577 275.326 35.0001C275.504 35.0638 275.632 35.2094 275.85 35.2003C276.057 35.1912 276.259 35.1488 276.466 35.1336C276.594 35.1245 276.713 35.173 276.817 35.2549C276.924 35.3368 277.039 35.3732 277.18 35.355C277.382 35.3308 277.589 35.3004 277.795 35.2853C277.853 35.2822 277.919 35.3095 277.973 35.3338C278.088 35.3884 278.2 35.4521 278.311 35.5097C278.513 35.4915 278.72 35.4855 278.918 35.4491C279.071 35.4218 279.178 35.4339 279.302 35.4946C279.459 35.5765 279.587 35.7221 279.843 35.6523C279.971 35.619 280.119 35.628 280.247 35.5977C280.404 35.5583 280.512 35.5734 280.623 35.6644C280.834 35.8373 281.098 35.8404 281.37 35.7736C281.668 35.7008 281.891 35.7858 282.113 35.9193C282.349 36.0588 282.349 36.0558 282.53 36.3925C282.584 36.4895 282.737 36.5351 282.865 36.5169C283.079 36.4865 283.265 36.5017 283.422 36.6169C283.587 36.7413 283.785 36.7262 283.988 36.6928C284.256 36.6473 284.525 36.6079 284.743 36.7838C284.851 36.8687 284.966 36.8899 285.111 36.8687C285.52 36.8141 285.932 36.7808 286.333 36.714C286.576 36.6716 286.717 36.7686 286.882 36.8505C287.105 36.9628 287.348 37.0629 287.348 37.3025C287.348 37.3419 287.406 37.3875 287.456 37.4178C287.563 37.4815 287.679 37.5361 287.79 37.5967C287.955 37.6878 288.116 37.7636 288.343 37.7151C288.542 37.6756 288.752 37.6635 288.954 37.6362C289.157 37.6089 289.342 37.5937 289.524 37.709C289.735 37.8394 289.958 37.9638 290.197 38.0609C290.366 38.1306 290.589 38.0123 290.771 38.1064C290.882 38.164 290.99 38.2307 291.109 38.2793C291.159 38.3005 291.238 38.2853 291.304 38.2793C291.44 38.2671 291.58 38.2581 291.712 38.2277C291.865 38.1944 291.981 38.2004 292.096 38.2702C292.204 38.3339 292.311 38.4219 292.435 38.4401C292.621 38.4674 292.827 38.346 293.013 38.4856C293.108 38.5553 293.227 38.6221 293.351 38.6433C293.475 38.6645 293.62 38.619 293.752 38.6221C293.81 38.6221 293.88 38.6706 293.913 38.71C293.933 38.7313 293.905 38.7889 293.876 38.8192C293.838 38.8556 293.785 38.9042 293.731 38.9103C293.322 38.9649 292.914 39.0104 292.505 39.0619C292.261 39.0923 292.261 39.0923 291.77 38.9011C291.654 38.8556 291.526 38.8647 291.382 38.886C291.188 38.9133 290.99 38.9649 290.788 38.9103C290.523 38.704 290.197 38.6857 289.85 38.7646C289.706 38.798 289.574 38.798 289.466 38.7404C289.239 38.6251 289 38.5189 288.798 38.3824C288.641 38.2763 288.566 38.2672 288.5 38.4128C288.48 38.4583 288.459 38.5068 288.463 38.5493C288.488 38.7009 288.533 38.8496 288.558 39.0012C288.566 39.0437 288.533 39.0923 288.513 39.1378C288.447 39.2652 288.36 39.256 288.215 39.1499C288.071 39.0437 287.898 38.974 287.666 39.0225C287.468 39.065 287.253 39.0589 287.055 39.1044C286.75 39.1711 286.535 39.0741 286.316 38.9436C286.271 38.9163 286.192 38.9012 286.135 38.9072C285.52 38.977 284.909 39.0559 284.293 39.1256C284.161 39.1408 284.042 39.0953 283.938 39.0134C283.831 38.9315 283.711 38.889 283.579 38.9042C283.034 38.9679 282.489 39.0255 281.944 39.1044C281.721 39.1378 281.544 39.0983 281.391 38.9921C281.275 38.9133 281.168 38.889 281.024 38.8981C280.867 38.9072 280.755 38.9376 280.677 39.0255C280.602 39.1105 280.656 39.162 280.821 39.2287C280.999 39.3016 281.164 39.3956 281.333 39.4805C281.469 39.4684 281.606 39.4441 281.738 39.4471C281.796 39.4471 281.849 39.5018 281.907 39.5321C282.072 39.6201 282.225 39.708 282.46 39.6595C282.658 39.617 282.869 39.6079 283.071 39.5806C283.352 39.5473 283.352 39.5473 283.806 39.7384C283.922 39.7869 284.046 39.7839 284.194 39.7566C284.322 39.7353 284.454 39.7778 284.545 39.8688C284.582 39.9052 284.57 39.9659 284.492 40.1661C284.492 40.3148 284.578 40.248 284.607 40.1509C284.652 40.0114 284.566 39.9659 284.401 40.0417C284.285 40.0963 284.227 40.1752 284.256 40.2389C284.273 40.2723 284.351 40.3148 284.492 40.1661C284.855 39.9841 285.131 39.9628 285.396 39.9143C285.553 39.887 285.652 39.8991 285.775 39.978C285.924 40.072 286.073 40.1722 286.316 40.1236C286.581 40.069 286.861 40.0629 287.13 40.0174C287.377 39.975 287.505 40.1085 287.662 40.1873C287.852 40.2814 288.063 40.1752 288.236 40.2298C288.418 40.2844 288.546 40.4179 288.756 40.4421C289.062 40.3602 289.256 40.5119 289.487 40.612C289.669 40.6879 289.883 40.6211 290.077 40.5877C290.296 40.5513 290.478 40.5847 290.631 40.6939C290.804 40.8183 290.998 40.791 291.196 40.7637C291.659 40.703 291.675 40.6939 291.943 40.8607C292.137 40.9821 292.323 40.9275 292.517 40.9123C292.687 40.9942 292.852 41.0822 293.029 41.155C293.075 41.1732 293.161 41.1429 293.232 41.1338C293.434 41.1095 293.64 41.0852 293.843 41.061C293.979 41.0458 294.123 41.0003 294.247 41.0185C294.371 41.0397 294.474 41.1277 294.586 41.1853C294.697 41.243 294.813 41.3006 294.92 41.3613C295.085 41.4523 295.242 41.5281 295.473 41.4826C295.671 41.4432 295.878 41.431 296.084 41.4037C296.344 41.3704 296.336 41.3795 296.819 41.5615C297.079 41.6616 297.348 41.5403 297.612 41.5281C297.744 41.5221 297.872 41.5554 297.963 41.6434C298 41.6798 297.988 41.7405 298 41.792C297.319 41.8739 296.633 41.9437 295.96 42.0438C295.7 42.0832 295.564 41.974 295.424 41.883C295.193 41.7374 294.887 41.9497 294.668 41.7617C294.536 41.6494 294.346 41.5858 294.119 41.6404C293.987 41.6707 293.847 41.6676 293.71 41.6949C293.364 41.7617 293.046 41.7647 292.769 41.5554C292.674 41.4826 292.538 41.4432 292.439 41.3734C292.323 41.2976 292.212 41.2551 292.076 41.2703C291.46 41.3431 290.849 41.4159 290.238 41.4947C290.185 41.5008 290.131 41.5463 290.086 41.5797C289.97 41.6646 290.007 41.7314 290.193 41.786C290.255 41.8042 290.304 41.8436 290.362 41.8739C290.474 41.9315 290.577 42.0226 290.701 42.0438C290.825 42.065 290.969 42.0226 291.105 42.0074C291.242 41.9922 291.386 41.9467 291.51 41.9649C291.634 41.9862 291.737 42.0741 291.853 42.1287C291.906 42.156 291.972 42.2015 292.026 42.1985C292.299 42.1803 292.567 42.1469 292.839 42.1196C293.009 42.2015 293.153 42.3198 293.355 42.3471C293.483 42.3653 293.62 42.332 293.752 42.338C293.81 42.3411 293.884 42.3866 293.913 42.426C293.929 42.4503 293.876 42.511 293.834 42.5413C293.677 42.6566 293.463 42.6353 293.269 42.6717C293.058 42.7111 292.868 42.699 292.707 42.5807C292.6 42.5019 292.48 42.4594 292.348 42.4746C292.005 42.514 291.667 42.5595 291.324 42.5929C291.266 42.5989 291.196 42.5716 291.143 42.5504C290.709 42.3654 290.709 42.3593 290.404 42.3987C289.953 42.4564 289.954 42.4563 289.652 42.2956C289.594 42.2652 289.532 42.2076 289.483 42.2107C289.004 42.2592 288.529 42.3077 288.054 42.3775C287.898 42.3987 287.79 42.3987 287.675 42.3199C287.576 42.2531 287.46 42.1773 287.336 42.1591C287.208 42.1409 287.068 42.1864 286.931 42.2015C286.795 42.2167 286.651 42.2561 286.531 42.2319C286.407 42.2076 286.3 42.1227 286.192 42.062C286.081 41.9983 285.961 42.0013 285.809 42.0256C285.338 42.0954 285.334 42.0863 284.867 41.8982C284.814 41.877 284.743 41.8527 284.686 41.8588C284.343 41.8952 284.004 41.9407 283.662 41.9771C283.53 41.9922 283.402 41.9528 283.311 41.8648C283.274 41.8284 283.286 41.7677 283.261 41.6494C283.232 41.6221 283.265 41.6707 283.274 41.7162C283.335 41.7101 283.41 41.7162 283.455 41.6919C283.571 41.6343 283.629 41.5584 283.6 41.4947C283.583 41.4614 283.505 41.4189 283.455 41.4189C283.364 41.4189 283.286 41.4856 283.261 41.6494C283.001 41.7495 282.724 41.7708 282.456 41.8193C282.299 41.8497 282.2 41.8345 282.076 41.7556C281.928 41.6586 281.775 41.5645 281.531 41.613C281.267 41.6676 280.986 41.6768 280.714 41.7192C280.4 41.7678 280.264 41.4947 280 41.5008C279.727 41.5069 279.455 41.5585 279.182 41.5949C278.943 41.6252 278.943 41.6252 278.447 41.428C278.266 41.3552 278.051 41.4614 277.874 41.3855C277.754 41.337 277.651 41.2642 277.535 41.2126C277.485 41.1914 277.407 41.1914 277.345 41.1975C277.002 41.2339 276.656 41.2581 276.325 41.3249C275.95 41.4037 275.665 41.3188 275.396 41.1398C275.058 41.1732 274.715 41.1914 274.381 41.249C274.137 41.2915 273.997 41.1914 273.832 41.1095C273.774 41.0822 273.724 41.0367 273.662 41.0246C273.601 41.0124 273.526 41.0367 273.46 41.0458C273.188 41.0792 272.907 41.0943 272.643 41.1489C272.316 41.2187 272.193 40.97 271.941 40.9396C271.772 41.0883 271.681 41.2915 271.346 41.3067C271.074 41.3188 270.801 41.3673 270.529 41.4007C270.393 41.4159 270.256 41.4341 270.12 41.4493C269.901 41.4766 269.798 41.5948 269.844 41.7769C269.868 41.877 269.889 41.9771 269.91 42.0772C269.951 42.2561 269.848 42.4078 269.674 42.4291C269.195 42.4867 268.721 42.5473 268.242 42.5989C268.114 42.6141 267.99 42.5625 267.887 42.4806C267.779 42.3987 267.66 42.3623 267.527 42.3775C267.049 42.4351 266.574 42.4958 266.095 42.5474C266.041 42.5534 265.971 42.5231 265.917 42.4988C265.802 42.4442 265.69 42.3805 265.579 42.3229C265.306 42.3502 265.038 42.3684 264.77 42.4048C264.336 42.4594 264.336 42.4624 264.018 42.2956C263.96 42.2652 263.903 42.2076 263.849 42.2107C263.643 42.2228 263.44 42.2531 263.234 42.2804C262.627 42.3593 262.627 42.3593 262.449 42.2683C262.288 42.1833 262.144 42.0802 261.9 42.1287C261.636 42.1833 261.355 42.2015 261.083 42.2319C260.88 42.2531 260.678 42.2774 260.476 42.2835C260.422 42.2865 260.365 42.2288 260.307 42.1985C260.142 42.1045 259.98 42.0286 259.753 42.0802C259.621 42.1105 259.481 42.1166 259.345 42.1318C258.99 42.1743 258.99 42.1742 258.408 41.9922C258.35 41.974 258.28 41.9528 258.222 41.9619C257.743 42.0165 257.268 42.0772 256.789 42.1287C256.731 42.1348 256.661 42.1166 256.603 42.1014C255.951 41.9255 255.951 41.9255 255.258 42.0104C254.993 42.0408 254.985 42.0529 254.708 41.8921C254.585 41.8224 254.481 41.789 254.337 41.8102C253.792 41.883 253.243 41.9316 252.702 42.0165C252.458 42.0529 252.318 41.9619 252.153 41.88C252.095 41.8527 252.033 41.792 251.984 41.7951C251.439 41.8527 250.894 41.9225 250.349 41.9801C250.299 41.9862 250.237 41.9255 250.179 41.8982C250.068 41.8436 249.961 41.7617 249.837 41.7435C249.709 41.7253 249.568 41.7708 249.428 41.786C249.085 41.8254 249.085 41.8224 248.689 41.6434C248.635 41.6191 248.565 41.5858 248.512 41.5918C247.967 41.6525 247.417 41.7041 246.877 41.792C246.567 41.8406 246.356 41.7526 246.138 41.6252C246.092 41.5979 246.014 41.5858 245.956 41.5918C245.341 41.6616 244.73 41.7405 244.115 41.8102C243.987 41.8254 243.863 41.7738 243.76 41.6949C243.594 41.5706 243.4 41.5857 243.194 41.613C242.719 41.6767 242.715 41.6737 242.434 41.5281C242.377 41.4978 242.327 41.4584 242.265 41.4432C242.207 41.428 242.133 41.4371 242.071 41.4432C241.799 41.4735 241.526 41.5069 241.254 41.5402C240.981 41.5736 240.704 41.5918 240.436 41.6434C240.106 41.7071 239.949 41.5099 239.718 41.4189C239.379 41.4583 239.032 41.4826 238.698 41.5463C238.442 41.5948 238.322 41.4614 238.153 41.3916C238.095 41.3673 238.033 41.3158 237.98 41.3218C237.365 41.3886 236.749 41.4614 236.138 41.5433C235.99 41.5615 235.891 41.5372 235.767 41.4644C235.49 41.3006 235.478 41.3067 235.015 41.3673C234.813 41.3946 234.619 41.4189 234.446 41.2945C234.293 41.1823 234.107 41.155 233.888 41.1914C233.62 41.2369 233.343 41.2612 233.071 41.2915C232.798 41.3249 232.526 41.3704 232.253 41.3855C232.035 41.4007 231.903 41.2582 231.729 41.1853C231.675 41.1641 231.601 41.1611 231.539 41.1671C231.267 41.1944 230.986 41.2157 230.722 41.2672C230.4 41.3309 230.222 41.1641 229.995 41.067C229.946 41.0458 229.863 41.0579 229.801 41.067C229.322 41.1216 228.847 41.1823 228.368 41.2399C228.199 41.158 228.026 41.0792 227.857 40.9973C227.584 41.0276 227.312 41.061 227.039 41.0913C226.833 41.1156 226.622 41.1247 226.428 41.1702C226.176 41.2308 226.052 41.0883 225.883 41.0185C225.825 40.9942 225.763 40.9427 225.71 40.9487C225.367 40.9821 225.024 41.0185 224.686 41.0701C224.364 41.1216 224.236 40.8486 223.972 40.8516C223.699 40.8547 223.418 40.8941 223.154 40.9487C222.849 41.0124 222.634 40.9153 222.415 40.7849C222.37 40.7576 222.291 40.7424 222.234 40.7485C221.891 40.7849 221.552 40.8304 221.21 40.8668C221.152 40.8729 221.082 40.8577 221.024 40.8395C220.372 40.6606 220.372 40.6575 220.087 40.6939C219.884 40.7182 219.678 40.7485 219.472 40.7637C219.414 40.7698 219.344 40.7425 219.29 40.7182C218.861 40.5331 218.861 40.5301 218.551 40.5665C218.278 40.5999 218.006 40.6332 217.733 40.6666C217.564 40.5847 217.391 40.5059 217.222 40.4239C216.883 40.4634 216.536 40.4937 216.202 40.5483C216.045 40.5726 215.942 40.5635 215.822 40.4876C215.673 40.3966 215.525 40.2905 215.277 40.342C215.013 40.3966 214.732 40.4027 214.464 40.4482C214.142 40.5028 214.01 40.2268 213.749 40.2298C213.477 40.2328 213.196 40.2723 212.932 40.3269C212.627 40.3906 212.412 40.2935 212.193 40.1631C212.148 40.1358 212.069 40.1206 212.011 40.1267C211.26 40.2146 210.513 40.3026 209.761 40.3966C209.299 40.4543 209.299 40.4573 208.42 40.2905C208.358 40.2783 208.292 40.2662 208.23 40.2723C207.957 40.2996 207.676 40.3208 207.412 40.3724C207.09 40.4361 206.913 40.2723 206.686 40.1721C206.636 40.1509 206.558 40.163 206.492 40.1691C206.285 40.1903 206.083 40.2177 205.876 40.2419C205.604 40.2753 205.331 40.3087 205.059 40.342C204.89 40.2632 204.716 40.1813 204.547 40.1024C204.208 40.1418 203.862 40.1631 203.527 40.2268C203.271 40.2753 203.152 40.1479 202.982 40.0751C202.924 40.0508 202.863 39.9993 202.809 40.0023C202.194 40.069 201.579 40.1388 200.968 40.2237C200.716 40.2601 200.6 40.1236 200.431 40.0538C200.373 40.0326 200.307 39.9932 200.253 39.9993C199.845 40.0417 199.436 40.0933 199.027 40.1449C198.796 40.1752 198.796 40.1752 198.292 39.9871C198.235 39.9659 198.169 39.9446 198.111 39.9507C196.814 40.1024 195.522 40.2632 194.226 40.4148C194.094 40.43 193.974 40.3845 193.871 40.3026C193.763 40.2207 193.644 40.1782 193.512 40.1934C192.967 40.2571 192.417 40.3148 191.877 40.3936C191.654 40.427 191.476 40.3875 191.323 40.2813C191.208 40.2025 191.1 40.1722 190.956 40.1904C190.684 40.2268 190.411 40.2571 190.139 40.2905C189.866 40.3238 189.594 40.3572 189.321 40.3906C189.049 40.424 188.772 40.4421 188.504 40.4937C188.173 40.5574 188.012 40.3693 187.785 40.2753C187.377 40.3208 186.968 40.3663 186.563 40.4148C186.018 40.4785 185.473 40.5483 184.928 40.609C184.879 40.6151 184.817 40.5604 184.759 40.5331C184.59 40.4573 184.466 40.3511 184.214 40.3845C182.992 40.5453 181.762 40.6818 180.536 40.8395C180.28 40.8729 180.168 40.7424 179.995 40.6727C179.937 40.6514 179.871 40.609 179.817 40.6151C179.136 40.6909 178.455 40.7758 177.774 40.8577C177.497 40.8911 177.497 40.8911 177.035 40.703C176.981 40.6818 176.911 40.6545 176.853 40.6605C175.965 40.7637 175.082 40.8729 174.194 40.9791C174.062 40.9942 173.942 40.9518 173.835 40.8699C173.732 40.788 173.608 40.7425 173.48 40.7576C172.663 40.8547 171.841 40.9487 171.028 41.0549C170.809 41.0852 170.627 41.0579 170.47 40.9487C170.359 40.8699 170.247 40.8365 170.107 40.8547C168.881 41.0033 167.655 41.1459 166.428 41.3037C166.193 41.334 166.028 41.2763 165.879 41.1762C165.76 41.0974 165.656 41.0822 165.508 41.0943C165.351 41.1095 165.256 41.1429 165.169 41.2339C165.058 41.3522 164.988 41.5008 164.723 41.5099C164.451 41.519 164.174 41.5554 163.906 41.607C163.65 41.6586 163.53 41.522 163.369 41.4401C163.25 41.3825 163.138 41.3734 162.985 41.4007C162.845 41.425 162.758 41.4765 162.676 41.5736C162.494 41.7799 162.478 41.7799 162.255 41.6494C162.135 41.5797 162.027 41.5251 161.895 41.5372C161.35 41.5979 160.805 41.6646 160.26 41.7344C159.947 41.7738 159.943 41.7799 159.707 41.6282C159.592 41.5524 159.48 41.516 159.344 41.5342C157.845 41.7162 156.347 41.8921 154.848 42.0832C154.617 42.1136 154.46 42.0499 154.295 41.9589C154.241 41.9285 154.188 41.886 154.126 41.8739C154.064 41.8618 153.993 41.8739 153.927 41.88C152.837 42.0104 151.743 42.1348 150.658 42.2804C150.41 42.3138 150.278 42.2167 150.109 42.1379C150.051 42.1106 150.001 42.0681 149.939 42.0559C149.877 42.0468 149.803 42.0681 149.737 42.0772C148.647 42.2076 147.553 42.332 146.467 42.4776C146.207 42.511 146.096 42.3836 145.926 42.3168C145.868 42.2926 145.807 42.247 145.753 42.2531C145.41 42.2865 145.072 42.332 144.729 42.3714C143.912 42.4715 143.094 42.5656 142.277 42.6687C141.963 42.7081 141.827 42.4381 141.562 42.4503C141.22 42.4654 140.881 42.5261 140.539 42.5686C140.266 42.602 139.994 42.6323 139.721 42.6687C139.453 42.7021 139.453 42.702 138.784 42.5261C138.726 42.5109 138.656 42.4897 138.598 42.4958C137.645 42.608 136.687 42.7203 135.737 42.8416C135.518 42.8689 135.337 42.8537 135.18 42.7415C135.068 42.6626 134.953 42.6232 134.817 42.6414C133.384 42.8143 131.955 42.9872 130.523 43.1571C130.469 43.1632 130.399 43.1328 130.345 43.1085C130.23 43.0539 130.118 42.9903 130.007 42.9326C129.924 43.0024 129.817 43.0661 129.763 43.1449C129.689 43.2511 129.59 43.2815 129.433 43.2997C129.276 43.3179 129.177 43.3118 129.053 43.2329C128.905 43.1359 128.752 43.06 128.508 43.0903C127.009 43.2814 125.511 43.4544 124.012 43.6424C123.764 43.6728 123.649 43.5393 123.476 43.4695C123.418 43.4483 123.352 43.4149 123.298 43.421C122.683 43.4908 122.072 43.5666 121.457 43.6394C119.752 43.8457 118.047 44.0429 116.346 44.2613C116.036 44.3007 115.825 44.2249 115.607 44.0944C115.561 44.0671 115.483 44.052 115.425 44.058C113.039 44.3432 110.652 44.6313 108.27 44.9195C108.142 44.9347 108.018 44.8861 107.915 44.8073C107.808 44.7254 107.688 44.6859 107.556 44.7011C106.466 44.8315 105.376 44.962 104.286 45.0955C104.014 45.1288 104.01 45.1318 103.729 44.9862C103.671 44.9559 103.609 44.8983 103.564 44.9044C103.469 44.9195 103.378 44.9953 103.312 45.0985C103.246 45.2077 103.143 45.238 102.99 45.2593C102.833 45.2805 102.73 45.2714 102.61 45.1986C102.457 45.1076 102.317 45.0196 102.069 45.05C98.9356 45.4382 95.8021 45.8113 92.6685 46.1966C92.4167 46.2269 92.3011 46.0995 92.1277 46.0298C92.0699 46.0085 92.0121 45.9782 91.9502 45.9721C91.8841 45.966 91.8139 45.9843 91.7479 45.9934C86.6368 46.6092 81.5257 47.228 76.4146 47.8438C76.1091 47.8802 76.1132 47.8802 75.7788 48.1593C75.7375 48.1926 75.6838 48.2381 75.626 48.2442C74.0613 48.4383 72.4925 48.6264 70.9237 48.8145C70.2425 48.8964 69.5613 48.9813 68.8801 49.0602C68.6365 49.0875 68.6365 49.0875 68.0544 49.4151C68.0049 49.4424 67.947 49.4788 67.8892 49.4849C65.1644 49.8155 62.4395 50.1462 59.7106 50.4707C59.4959 50.495 59.3225 50.5496 59.2235 50.6952C59.1533 50.7984 59.0625 50.859 58.9262 50.8772C57.0188 51.1078 55.1115 51.3413 53.2 51.5658C52.973 51.5931 52.8367 51.6781 52.7252 51.8055C52.688 51.8479 52.655 51.8964 52.6013 51.9268C52.5518 51.9541 52.4775 51.9632 52.4155 51.9723C50.7807 52.1695 49.1458 52.3727 47.5068 52.5608C47.2632 52.5881 47.1641 52.7003 47.0444 52.8186C47.0031 52.8581 46.9741 52.9127 46.9205 52.94C46.8668 52.9642 46.7884 52.9642 46.7223 52.9703C45.3599 53.1341 43.9975 53.301 42.6351 53.4648C42.3709 53.4496 42.3131 53.6255 42.1851 53.7317C42.1397 53.7681 42.1067 53.8166 42.053 53.8409C41.9952 53.8652 41.9208 53.8621 41.8507 53.8682C40.7607 53.9986 39.6708 54.1382 38.5768 54.2595C38.3249 54.2868 38.2754 54.4415 38.1391 54.5477C38.0937 54.5811 38.0484 54.6326 37.9947 54.6417C37.3135 54.7297 36.6323 54.8116 35.9511 54.8905C35.724 54.9178 35.724 54.9148 35.3236 55.2151C35.2781 55.2484 35.2244 55.2848 35.1666 55.2939C34.1469 55.4213 33.123 55.5427 32.0992 55.6671C31.9671 55.6822 31.8762 55.755 31.8102 55.8582C31.7441 55.9613 31.6492 56.028 31.5171 56.0432C30.6996 56.1433 29.8821 56.2464 29.0647 56.3374C28.8376 56.3617 28.689 56.4375 28.5899 56.5741C28.5156 56.6772 28.4248 56.7287 28.2803 56.7469C27.4628 56.844 26.6454 56.9502 25.8239 57.0351C25.5844 57.0594 25.4605 57.1625 25.3614 57.2899C25.283 57.3931 25.1921 57.4295 25.0394 57.4477C23.5407 57.6236 22.038 57.7995 20.5435 57.9937C20.2916 58.0271 20.1636 57.9209 19.9985 57.8451C19.7632 57.7389 19.5444 57.6236 19.5444 57.387C19.5444 57.3506 19.4742 57.3081 19.4247 57.2778C19.0572 57.0503 19.0572 57.0503 18.9994 56.8076C18.9664 56.659 18.9292 56.5073 18.9003 56.3557C18.8467 56.1069 18.7145 56.0432 18.3347 56.0887C18.1984 56.1039 18.0622 56.1251 17.926 56.1372C17.7237 56.1585 17.5709 56.0583 17.5338 55.8763C17.5131 55.7762 17.4884 55.6761 17.4678 55.576C17.6742 55.5518 17.67 55.5488 18.0333 55.1817C18.1861 55.027 18.1861 55.027 17.893 54.8723C17.7815 54.8147 17.6742 54.7509 17.5544 54.6963C17.5008 54.6721 17.4306 54.6569 17.3728 54.663C17.0301 54.6994 16.6916 54.7418 16.3531 54.7843C15.8081 54.851 15.808 54.851 15.2548 54.5416C15.2094 54.5173 15.1392 54.4719 15.1475 54.4476C15.1929 54.3354 15.3044 54.2868 15.4447 54.2747C15.6511 54.2565 15.8534 54.2261 16.0557 54.2019C16.192 54.1867 16.3282 54.1685 16.4644 54.1534C16.5924 54.0381 16.7246 53.9258 16.8443 53.8075C17.0343 53.6255 17.0342 53.6195 16.7741 53.4921C16.6089 53.4071 16.4314 53.3313 16.2622 53.2524C16.0599 53.2767 15.8534 53.304 15.6511 53.3252C15.3952 53.3525 15.292 53.2949 15.2259 53.0977C15.1681 52.9248 15.2383 52.7762 15.4365 52.7398C15.6388 52.7034 15.8287 52.6791 15.932 52.5244C16.031 52.3758 16.2044 52.3181 16.4191 52.306C16.5553 52.2969 16.6916 52.2757 16.8278 52.2575C17.0053 52.2332 17.1003 52.0785 17.0632 51.9056C17.0425 51.7933 17.0012 51.6993 16.8402 51.675C16.126 51.5688 16.1177 51.5719 15.7626 51.3656C15.7296 51.3474 15.7049 51.2928 15.7173 51.2655C15.7379 51.22 15.7833 51.1533 15.8329 51.1442C16.3077 51.0774 16.7824 51.0168 17.2572 50.9713C17.4141 50.9561 17.5297 50.9348 17.5834 50.8226C17.6577 50.6679 17.6246 50.5253 17.4801 50.4192C17.4347 50.3858 17.3604 50.3433 17.3108 50.3464C16.7659 50.401 16.225 50.4707 15.6801 50.5253C15.6305 50.5314 15.5397 50.4799 15.5191 50.4404C15.4778 50.3676 15.5397 50.2705 15.6842 50.2372C15.8741 50.1917 16.0682 50.1886 16.1961 50.0369C16.3737 49.8216 16.5924 49.6244 16.7906 49.4181C16.8236 49.3817 16.8774 49.3119 16.865 49.3059C16.7618 49.2391 16.642 49.1876 16.5347 49.1239C16.353 49.0177 16.353 48.8691 16.3943 48.7265C16.4273 48.6112 16.5512 48.5657 16.7039 48.5657C16.77 48.5657 16.8526 48.5657 16.9062 48.5384C17.0466 48.4717 17.092 48.3867 17.0218 48.323C16.9806 48.2866 16.9063 48.2351 16.8567 48.2412C15.9732 48.3413 15.0855 48.4383 14.2062 48.5627C13.9461 48.5991 13.8264 48.4838 13.6695 48.4019C13.5498 48.3382 13.4383 48.3139 13.2896 48.3594C13.1493 48.4019 13.0131 48.3777 12.9264 48.2776C12.8562 48.1957 12.98 48.1259 13.3144 48.047C13.3764 48.0319 13.4465 48.0227 13.4919 47.9924C13.9708 47.6648 13.9708 47.6618 14.3011 47.6193C14.6231 47.5799 14.6232 47.5768 14.7925 47.4009C14.8709 47.319 14.9576 47.2371 15.0319 47.1521C15.0608 47.1188 15.1104 47.0581 15.0939 47.0399C15.003 46.9459 14.8791 46.9246 14.7346 46.9459C14.4126 46.9974 14.0328 46.955 13.8636 47.2431C13.7975 47.3523 13.6943 47.3827 13.5457 47.4009C12.0511 47.5768 10.5566 47.7649 9.05793 47.9348C8.81434 47.9621 8.70294 48.0743 8.60798 48.1987C8.52541 48.3018 8.43457 48.3322 8.27768 48.3504C8.1208 48.3686 7.99688 48.3777 7.90606 48.2776C7.85239 48.2169 7.89781 48.132 8.02167 48.047C8.19919 47.9257 8.16615 47.774 8.10835 47.6314C8.06706 47.5374 7.93908 47.4707 7.80284 47.4767C7.60055 47.4889 7.40656 47.5222 7.23729 47.4009C7.13821 47.3311 7.01433 47.2826 6.90286 47.2219C6.68817 47.0975 6.47348 46.9701 6.1721 47.052C5.96568 47.0217 5.82118 46.9125 5.65604 46.8276C5.37943 46.688 5.35466 46.6668 5.55283 46.5181C5.77577 46.3513 5.60234 46.1329 5.72619 45.9691C5.8583 45.7931 6.04002 45.6385 6.20103 45.4747C6.24232 45.4322 6.27949 45.3927 6.32077 45.3503C6.22582 45.2896 6.13913 45.2138 6.02767 45.1713C5.88317 45.1167 5.80885 45.05 5.81711 44.8619C5.78821 44.8346 5.80051 44.9043 5.83354 44.9225C5.87069 44.9407 5.96159 44.9256 6.007 44.9044C6.1226 44.8467 6.18034 44.7709 6.15144 44.7072C6.13493 44.6738 6.05654 44.6313 6.007 44.6313C5.91617 44.6313 5.83775 44.6981 5.81297 44.8619C5.35058 44.9863 4.8716 45.0469 4.39269 45.0955C4.34315 45.1015 4.28126 45.0409 4.22346 45.0105C4.03355 44.9074 4.03352 44.9104 3.47617 44.8801C3.41837 44.877 3.33997 44.8346 3.31107 44.7921C3.19135 44.6071 3.19551 44.4038 3.13771 44.2067C3.24505 44.0793 3.35231 43.9549 3.46378 43.8305C3.68672 43.5787 3.97578 43.3573 4.14917 43.0813C4.11202 42.9326 4.06247 42.784 4.24412 42.6626C4.76018 42.511 4.75609 42.511 4.89646 42.3654C5.29692 41.9528 5.69324 41.5372 6.11022 41.1307C6.22168 41.0246 6.2217 40.9669 6.02353 40.9214C5.9616 40.9093 5.89546 40.9063 5.8294 40.9123C5.62298 40.9336 5.41656 40.9882 5.21426 40.976C5.01196 40.9669 4.86334 40.8335 4.6982 40.7515C4.52893 40.6666 4.35967 40.5786 4.1904 40.4907C3.99636 40.4998 3.80235 40.5847 3.60831 40.4482C3.45969 40.342 3.27392 40.2662 3.10465 40.1782C3.23263 39.9477 3.47212 39.7717 3.6579 39.5685C3.82717 39.3835 3.83121 39.3865 4.28535 39.2439C4.50003 39.1772 4.57434 38.8344 4.39269 38.7343C4.17388 38.613 3.94273 38.5007 3.71979 38.3854C3.52575 38.3945 3.32762 38.4765 3.14184 38.34C2.99734 38.2368 2.83217 38.167 2.59272 38.2065C2.18812 38.2732 1.77528 38.3066 1.36656 38.3612C1.22619 38.3794 1.07339 38.3673 1.01146 38.2641C0.97018 38.1913 1.08991 38.0912 1.22616 38.07C1.43258 38.0396 1.61834 38.0033 1.72156 37.8516C1.82064 37.6999 2.00227 37.6544 2.21696 37.6331C2.27476 37.6271 2.34086 37.5907 2.36976 37.5543C2.51839 37.3783 2.68354 37.2267 3.00143 37.2327C3.13355 37.1721 3.20369 37.0962 3.1624 37.0234C3.13763 36.984 3.05098 36.9324 3.00143 36.9385C2.65877 36.9688 2.31611 36.9992 1.9817 37.0538C1.82482 37.0781 1.70503 37.0841 1.60595 36.9931C1.53576 36.9324 1.57291 36.8505 1.70503 36.7625C1.82062 36.6867 1.85369 36.5987 1.84543 36.4956C1.82479 36.256 1.70091 36.1862 1.30457 36.2014C1.01971 36.2135 0.949517 36.1741 0.887589 35.9678C0.871075 35.9193 0.829863 35.8525 0.858762 35.8191C1.03629 35.6129 1.15189 35.3581 1.4863 35.261C1.61842 35.2246 1.75873 35.2246 1.8413 35.1457C1.92387 35.0669 1.99822 34.9758 2.08492 34.9C2.19226 34.809 2.2665 34.7241 2.21696 34.6665C2.13439 34.5633 2.00232 34.5542 1.84956 34.5906C1.71745 34.621 1.57709 34.624 1.44085 34.6422C1.19726 34.6755 0.99914 34.5967 0.97024 34.4632C0.891798 34.1113 0.809204 33.7625 0.739019 33.4106C0.730762 33.3681 0.751348 33.3135 0.784377 33.2771C0.899975 33.1497 1.02388 33.0284 1.14361 32.904C1.28397 32.7614 1.50695 32.7887 1.69686 32.7614C1.96522 32.722 1.96512 32.725 2.3243 32.4338C2.46467 32.3185 2.70827 32.3641 2.85276 32.2609C2.89818 32.2275 2.96836 32.1729 2.95598 32.1426C2.93946 32.1032 2.85694 32.0728 2.79501 32.0546C2.73721 32.0364 2.66704 32.0273 2.60511 32.0364C1.85373 32.1244 1.10649 32.2184 0.355096 32.3034C0.227112 32.3186 0.086739 32.2518 0.0413254 32.1578C-0.00408819 32.0698 0.00825702 31.9636 0 31.8635C0.119727 31.7391 0.255915 31.6239 0.359128 31.4904C0.43757 31.3873 0.528413 31.3418 0.685296 31.3357C0.891722 31.3266 1.09404 31.2902 1.32524 31.2629C1.7546 30.82 2.17568 30.3559 2.63807 29.913C2.82386 29.734 2.77852 29.552 2.81567 29.3609C2.85283 29.185 3.12942 29.2123 3.31521 29.1607C3.46383 29.1183 3.51331 29.0212 3.45551 28.9544C3.42248 28.915 3.34821 28.8695 3.29041 28.8695C3.15417 28.8695 3.01793 28.8968 2.88169 28.912C2.74545 28.9271 2.58858 28.9181 2.47711 28.9696C2.36976 29.0182 2.29954 29.1213 2.22936 29.2092C2.15091 29.3063 2.04777 29.3397 1.89089 29.3458C1.68859 29.3518 1.48631 29.3791 1.28401 29.4003C1.06107 29.282 0.829826 29.1668 0.615144 29.0424C0.573859 29.0182 0.565557 28.9484 0.569686 28.9029C0.577943 28.7846 0.516032 28.7118 0.379791 28.6541C0.264192 28.6056 0.169229 28.5358 0.0618873 28.4752C0.144458 28.3933 0.235317 28.3144 0.301373 28.2264C0.445871 28.0414 0.627546 27.9079 0.941312 27.914C1.06517 27.7957 1.16422 27.6501 1.32524 27.5682C1.47799 27.4893 1.7381 27.5681 1.8537 27.3892C1.9115 27.3012 1.99824 27.2011 2.10971 27.1647C2.28724 27.1071 2.51843 27.1374 2.62164 26.9676C2.68357 26.8705 2.77436 26.7825 2.89409 26.7582C3.03033 26.7309 3.17066 26.7249 3.26975 26.6672C3.32342 26.6369 3.38123 26.5884 3.38123 26.5459C3.38123 26.5186 3.29872 26.4761 3.24092 26.4579C3.18725 26.4367 3.11698 26.4215 3.05506 26.4276C2.84863 26.4458 2.64634 26.4792 2.43991 26.4974C2.38211 26.5034 2.31608 26.4822 2.25415 26.464C2.0725 26.4155 2.08486 26.3548 2.22936 26.2456C2.37385 26.1394 2.47712 26.0029 2.59685 25.8785C2.72896 25.8573 2.89408 25.8664 2.9849 25.8088C3.13766 25.7147 3.24497 25.5782 3.36883 25.4599C3.50507 25.4417 3.64543 25.4356 3.77341 25.4023C3.82708 25.3901 3.85188 25.3234 3.89729 25.284C3.97986 25.2081 4.0501 25.0989 4.16157 25.0625C4.34323 25.0079 4.56616 25.0292 4.6735 24.8623C4.73543 24.7652 4.83035 24.6621 4.94595 24.6561C5.26797 24.6439 5.40422 24.4771 5.56936 24.3193C5.69321 24.201 5.95744 24.2617 6.09368 24.1434C6.18451 24.0676 6.25061 23.9735 6.34144 23.9007C6.37859 23.8704 6.45701 23.8552 6.51893 23.8461C6.85747 23.8006 7.20013 23.7672 7.53866 23.7187C7.59233 23.7096 7.64192 23.6641 7.6832 23.6277C7.7699 23.5488 7.82351 23.4396 7.93085 23.3881C8.03819 23.3365 8.19093 23.3365 8.32304 23.3213C8.74828 23.2758 8.78134 23.2879 8.97538 23.0301C9.13226 22.8208 9.51626 22.9694 9.64424 22.7389C9.71856 22.6054 9.85474 22.4962 10.0983 22.4811C10.441 22.4598 10.7795 22.4022 11.1222 22.3628C11.4277 22.3263 11.4236 22.3263 11.7539 22.0442C11.9025 21.9168 12.1213 21.935 12.3154 21.9108C12.5218 21.8865 12.7117 21.8501 12.8108 21.6984C12.9099 21.5498 13.0915 21.5012 13.302 21.48C13.4961 21.4588 13.7149 21.474 13.8677 21.3526C14.2393 21.0614 14.2351 21.0584 14.4952 21.028C14.904 20.9795 15.3127 20.931 15.7214 20.8794C15.9939 20.846 16.2787 20.84 16.5347 20.7732C16.7205 20.7247 16.803 20.5548 16.9228 20.4365C17.2613 20.391 17.5998 20.3455 17.9384 20.303C18.4131 20.2424 18.892 20.1878 19.3709 20.1301C19.5774 20.0149 19.6063 19.76 19.9531 19.7479C20.1595 19.7418 20.3618 19.7024 20.5683 19.6782C20.9109 19.6357 21.2495 19.5811 21.5921 19.5598C21.8522 19.5447 21.8976 19.3809 22.0338 19.2777C22.0792 19.2413 22.1205 19.1898 22.1742 19.1807C22.7109 19.0957 23.2641 19.0775 23.7884 18.9532C23.8421 18.941 23.8916 18.8773 23.904 18.8318C23.9123 18.8075 23.8421 18.7621 23.7967 18.7408C23.743 18.7166 23.6729 18.6923 23.6151 18.6984C21.91 18.9016 20.205 19.1079 18.4999 19.3111C18.2604 19.3415 18.2604 19.3384 17.6783 19.6721C17.6288 19.6994 17.5709 19.7297 17.509 19.7388C17.2365 19.7752 16.9599 19.7965 16.6915 19.842C16.4727 19.8784 16.2911 19.8419 16.1342 19.7327C16.0228 19.6539 15.9071 19.6296 15.7668 19.6357C15.6099 19.6448 15.5067 19.6782 15.4159 19.7601C15.2962 19.8723 15.2342 20.0179 14.9824 20.0482C13.8223 20.1787 12.6621 20.3243 11.5061 20.4638C11.3451 20.4213 11.2667 20.3576 11.3079 20.2818C11.3327 20.2363 11.3823 20.1756 11.4318 20.1696C11.9066 20.1059 12.3855 20.0513 12.8603 19.9906C12.9263 19.9815 13.0171 19.9875 13.0543 19.9572C13.236 19.8207 13.3021 19.5993 13.6447 19.5841C13.8429 19.575 14.0452 19.5295 14.2351 19.487C14.2888 19.4749 14.3383 19.4112 14.3507 19.3657C14.3548 19.3414 14.2888 19.2959 14.2392 19.2747C14.0576 19.1867 13.8471 19.2929 13.6654 19.2322C13.6035 19.211 13.5167 19.1807 13.5043 19.1443C13.4961 19.1109 13.5663 19.0563 13.6158 19.0229C13.6612 18.9926 13.7231 18.9653 13.7851 18.9562C14.33 18.8864 14.8751 18.8136 15.42 18.759C15.643 18.7378 15.7998 18.6619 15.8989 18.5224C15.9732 18.4193 16.064 18.3647 16.2044 18.3495C17.1581 18.2373 18.1117 18.1129 19.0696 18.0098C19.309 17.9855 19.4329 17.8854 19.532 17.755C19.6104 17.6518 19.7013 17.6154 19.854 17.5972C21.2206 17.4395 22.5788 17.2635 23.9454 17.1119C24.1972 17.0846 24.2716 16.9541 24.3995 16.8419C24.4449 16.8024 24.4738 16.7539 24.5316 16.7296C24.5894 16.7054 24.6637 16.7084 24.7339 16.7023C25.8238 16.5719 26.9138 16.4324 28.0078 16.311C28.2638 16.2837 28.3133 16.132 28.4454 16.0259C28.4908 15.9925 28.5321 15.9379 28.5858 15.9288C29.4032 15.8257 30.2207 15.7286 31.0381 15.6285C31.5831 15.5618 32.128 15.495 32.673 15.4313C32.9413 15.401 32.9413 15.3979 33.3047 15.1098C33.3459 15.0764 33.4038 15.0369 33.4575 15.0278C35.0263 14.8337 36.591 14.6487 38.1598 14.4576C38.2919 14.4424 38.3868 14.3726 38.4529 14.2695C38.519 14.1663 38.614 14.0966 38.742 14.0814C39.9681 13.9297 41.1943 13.7811 42.4246 13.6385C42.6475 13.6143 42.8044 13.5415 42.9034 13.405C42.9778 13.3018 43.0686 13.2472 43.209 13.2321C44.4351 13.0865 45.6614 12.9317 46.8917 12.7922C47.127 12.7649 47.2425 12.6618 47.3581 12.5404C47.3994 12.498 47.4325 12.4282 47.482 12.4221C48.093 12.3372 48.6999 12.2492 49.315 12.1916C49.571 12.1673 49.6577 12.0399 49.7609 11.9186C49.8435 11.8215 49.9385 11.7881 50.0954 11.776C50.438 11.7487 50.7766 11.6971 51.111 11.6456C51.1605 11.6365 51.2225 11.5697 51.2266 11.5273C51.2348 11.4484 51.1399 11.3938 50.983 11.3665C49.3481 11.5637 47.7091 11.7608 46.0742 11.958C45.8059 11.9914 45.8058 11.9914 45.4425 12.2796C45.4013 12.3129 45.3434 12.3524 45.2856 12.3615C43.7168 12.5526 42.1521 12.7406 40.5833 12.9318C40.4512 12.9469 40.3562 13.0167 40.2902 13.1198C40.2241 13.223 40.1291 13.2927 40.0011 13.3079C38.5024 13.4899 37.0038 13.675 35.5011 13.8479C35.2781 13.8721 35.1213 13.9419 35.0222 14.0814C34.9479 14.1845 34.857 14.2392 34.7167 14.2543C33.2841 14.4242 31.8556 14.6032 30.4188 14.767C30.2743 14.7821 30.1671 14.6942 30.1753 14.6123C30.1794 14.5698 30.2413 14.5001 30.2908 14.494C31.0381 14.3939 31.7813 14.2907 32.5327 14.2149C32.7845 14.1906 32.8588 14.0572 32.9868 13.9449C33.028 13.9055 33.0611 13.8539 33.1148 13.8327C33.1726 13.8084 33.2469 13.8115 33.3171 13.8054C35.0882 13.59 36.8594 13.3716 38.6346 13.1684C38.8906 13.138 38.9401 12.9894 39.0722 12.8832C39.1176 12.8468 39.1589 12.7922 39.2126 12.7862C39.7575 12.7134 40.3025 12.6496 40.8475 12.5859C41.8011 12.4707 42.7548 12.3554 43.7126 12.2401C43.9892 12.2068 43.9892 12.2067 44.3443 11.9216C44.3856 11.8882 44.4434 11.8458 44.4971 11.8397C47.0196 11.5333 49.5422 11.227 52.0647 10.9236C52.1968 10.9084 52.2917 10.8387 52.3578 10.7355C52.4238 10.6354 52.5188 10.5626 52.6468 10.5444C56.0569 10.1319 59.4629 9.71931 62.8731 9.31283C63.096 9.28553 63.2529 9.22182 63.352 9.07925C63.4221 8.97611 63.5171 8.92152 63.6575 8.90332C67.4062 8.45133 71.1548 7.99936 74.9077 7.54434C77.4302 7.24099 79.9527 6.93158 82.4753 6.6343C82.7065 6.607 82.8303 6.51295 82.9459 6.38857C82.983 6.34611 83.0202 6.27633 83.0697 6.27027C83.6106 6.19443 84.1514 6.12467 84.6922 6.0549C84.8615 6.13681 85.0307 6.21569 85.2 6.29759C85.328 6.18232 85.4519 6.06401 85.5799 5.94874C86.3973 5.86077 87.2024 5.72426 88.0281 5.68179C88.0817 5.67876 88.1395 5.7364 88.1973 5.76674C88.5813 5.95785 88.8001 5.94268 89.0437 5.68787C89.1304 5.59686 89.2047 5.51496 89.3368 5.49979C89.7455 5.44519 90.1584 5.40879 90.563 5.34508C90.7819 5.31172 90.9634 5.34204 91.1203 5.45125C91.2318 5.53012 91.3475 5.5635 91.4837 5.5453C92.2351 5.4543 92.9823 5.36632 93.7337 5.26925C93.7874 5.26318 93.8369 5.21159 93.8781 5.17519C93.9648 5.09632 94.0392 5.01141 94.1218 4.9295C94.2332 4.98107 94.3571 5.02051 94.4479 5.08725C94.5635 5.16612 94.6708 5.1661 94.8277 5.14487C97.825 4.77782 100.826 4.41987 103.824 4.04979C104.08 4.01946 104.191 4.14688 104.365 4.21361C104.422 4.23788 104.48 4.2682 104.542 4.27427C104.608 4.28033 104.678 4.26215 104.744 4.25305C106.994 3.98004 109.245 3.71004 111.495 3.43703C111.792 3.40063 111.792 3.40063 112.234 3.5887C112.287 3.61297 112.357 3.64028 112.415 3.63118C113.439 3.51287 114.463 3.38548 115.483 3.26414C115.615 3.24897 115.726 3.2975 115.846 3.36727C116.081 3.50377 116.098 3.50378 116.271 3.30358C116.354 3.20954 116.44 3.15188 116.577 3.12458C116.725 3.09424 116.845 3.10337 116.961 3.15798C117.126 3.23381 117.246 3.3612 117.497 3.32783C118.587 3.18526 119.681 3.06696 120.767 2.92136C121.015 2.88799 121.147 2.99112 121.312 3.06696C121.37 3.09426 121.424 3.13673 121.486 3.14583C121.547 3.15493 121.622 3.13368 121.688 3.12458C123.05 2.96077 124.417 2.80003 125.775 2.62408C126.031 2.59072 126.142 2.72113 126.316 2.78787C126.374 2.81213 126.44 2.85462 126.493 2.84856C127.311 2.75452 128.132 2.65439 128.95 2.55428C129.243 2.51788 129.243 2.52092 129.689 2.70596C129.743 2.73022 129.813 2.7545 129.871 2.74843C130.824 2.63619 131.782 2.52092 132.736 2.40565C133.029 2.36925 133.029 2.36925 133.875 2.52699C133.937 2.53913 134.003 2.55735 134.065 2.55129C135.155 2.42085 136.249 2.29342 137.339 2.15388C137.558 2.12658 137.739 2.15084 137.896 2.26005C138.008 2.33892 138.123 2.3723 138.26 2.3541C139.486 2.20546 140.716 2.0629 141.938 1.90516C142.174 1.87482 142.326 1.94153 142.491 2.0295C142.545 2.05984 142.599 2.10231 142.661 2.11445C142.723 2.12658 142.793 2.11444 142.859 2.10534C144.085 1.9567 145.315 1.81717 146.537 1.65639C146.785 1.62303 146.917 1.72616 147.082 1.80199C147.14 1.82929 147.202 1.8839 147.252 1.88087C147.73 1.8293 148.209 1.78381 148.684 1.70798C148.94 1.66551 149.052 1.80502 149.225 1.87176C149.283 1.89299 149.349 1.93852 149.402 1.93245C150.426 1.81414 151.45 1.68978 152.47 1.56238C152.615 1.54418 152.722 1.57145 152.837 1.65032C152.99 1.75649 153.168 1.79896 153.391 1.76559C153.865 1.69582 154.344 1.6473 154.823 1.58967C155.104 1.5563 155.104 1.55631 155.963 1.71405C156.025 1.72618 156.091 1.74437 156.153 1.7383C156.97 1.64123 157.792 1.5472 158.605 1.44103C158.824 1.4107 159.005 1.43799 159.162 1.54719C159.274 1.62606 159.385 1.65945 159.526 1.64125C160.277 1.55025 161.024 1.45923 161.776 1.36823C162.048 1.33486 162.321 1.27721 162.593 1.27721C162.791 1.28025 162.936 1.42585 163.113 1.49865C163.163 1.51988 163.245 1.49564 163.312 1.48958C164.265 1.37431 165.223 1.26812 166.173 1.13769C166.42 1.10432 166.552 1.20745 166.718 1.28329C166.775 1.31059 166.837 1.36519 166.887 1.36216C167.229 1.32879 167.568 1.28328 167.911 1.24385C168.319 1.19531 168.732 1.15891 169.137 1.09218C169.467 1.03757 169.591 1.30148 169.855 1.31058C170.057 1.31968 170.264 1.26812 170.466 1.24385C170.875 1.19531 171.284 1.14072 171.692 1.09825C171.837 1.08308 171.948 1.03453 171.994 0.925321C172.002 0.904087 171.932 0.858604 171.886 0.831303C171.337 0.521891 171.337 0.521876 170.784 0.588612C170.441 0.631081 170.103 0.673556 169.76 0.709958C169.702 0.716025 169.636 0.691759 169.579 0.673558C169.413 0.621989 169.43 0.561326 169.57 0.452122C169.711 0.342917 169.818 0.209457 169.938 0.0850855C170.107 0.163955 170.272 0.242797 170.441 0.321667C170.578 0.3065 170.714 0.288325 170.85 0.273158C171.531 0.194288 172.213 0.112379 172.894 0.0395763C172.943 0.0335094 173.005 0.0941874 173.063 0.124522C173.228 0.212492 173.377 0.288308 173.616 0.25494C174.227 0.16697 174.842 0.103267 175.453 0.0274307C175.722 -0.00593732 175.722 -0.00593435 176.192 0.18214C176.246 0.203374 176.316 0.227643 176.374 0.221576C176.989 0.151807 177.6 0.0759793 178.215 0.00317637C178.347 -0.0119909 178.475 0.0274425 178.57 0.115413C178.608 0.151814 178.599 0.212471 178.756 0.709958C179.243 1.11341 179.578 1.07096 179.916 1.03456C180.061 1.01939 180.189 1.00421 180.284 0.94354C180.333 0.910172 180.395 0.861629 180.395 0.822194C180.395 0.79186 180.304 0.743315 180.247 0.737248C179.838 0.676579 179.45 0.804002 179.049 0.831303C178.864 0.843437 178.703 0.737265 178.67 0.564358C178.661 0.515823 178.649 0.464257 178.636 0.415722C178.624 0.367186 178.616 0.315621 178.604 0.267085C178.443 0.251918 178.348 0.306511 178.277 0.409649C178.22 0.494586 178.137 0.591656 178.025 0.637158C177.914 0.685693 177.761 0.676609 177.625 0.691776C177.493 0.706944 177.348 0.746374 177.225 0.72514C177.101 0.700872 177.002 0.612887 176.886 0.558285C176.832 0.530984 176.766 0.491564 176.713 0.497631C176.238 0.5492 175.767 0.600749 175.297 0.667485C175.049 0.703886 174.925 0.576501 174.768 0.497631C174.644 0.436962 174.52 0.45211 174.5 0.591649C174.446 0.925329 174.636 1.06486 175.057 1.00116C175.404 0.946555 175.718 0.937483 175.99 1.14376C176.027 1.17106 176.114 1.18319 176.168 1.17712C176.506 1.14072 176.841 1.09521 177.179 1.05881C177.241 1.05275 177.307 1.06486 177.365 1.07699C178.207 1.2408 178.207 1.24385 178.492 1.20745C178.628 1.18925 178.76 1.17408 178.748 0.712994C179.008 0.218541 179.421 0.185179 179.821 0.112376C180.081 0.0668745 180.193 0.200352 180.362 0.270122C180.42 0.294389 180.482 0.342916 180.536 0.336849C181.423 0.236745 182.307 0.130559 183.19 0.0183214C183.339 0.000120701 183.446 0.0183244 183.562 0.0971942C183.71 0.197298 183.876 0.261014 184.111 0.224613C184.582 0.15181 185.06 0.106318 185.539 0.0456492C185.783 0.0153146 185.783 0.0152835 186.274 0.203358C186.328 0.224592 186.398 0.248861 186.456 0.242794C186.935 0.191225 187.41 0.127542 187.884 0.0729399C188.017 0.0577726 188.136 0.100237 188.239 0.18214C188.343 0.264043 188.467 0.306507 188.594 0.29134C189.073 0.236738 189.548 0.176088 190.023 0.121486C190.081 0.115419 190.151 0.136651 190.205 0.157885C190.708 0.34596 190.708 0.345928 190.939 0.315594C191.278 0.270092 191.625 0.248882 191.959 0.188213C192.285 0.127544 192.455 0.303469 192.678 0.40054C193.289 0.33077 193.904 0.273149 194.511 0.188213C194.758 0.151811 194.89 0.251906 195.056 0.330776C195.113 0.358077 195.171 0.415719 195.225 0.412685C195.431 0.400551 195.634 0.367189 195.836 0.342922C196.038 0.318654 196.245 0.294389 196.447 0.270122C196.678 0.358092 196.831 0.564364 197.161 0.494594C197.359 0.452126 197.57 0.443026 197.772 0.418758C197.974 0.39449 198.181 0.370226 198.383 0.345958C198.519 0.330791 198.66 0.321677 198.792 0.294376C199.035 0.248874 199.155 0.397531 199.329 0.464267C199.386 0.485501 199.452 0.521879 199.506 0.515812C199.915 0.473344 200.328 0.436945 200.728 0.367176C201.038 0.312574 201.248 0.403589 201.467 0.530994C201.513 0.558295 201.591 0.573461 201.649 0.567394C202.128 0.515826 202.602 0.452105 203.077 0.397503C203.205 0.382336 203.329 0.43087 203.432 0.509739C203.54 0.591643 203.659 0.631107 203.791 0.61594C204.266 0.561338 204.745 0.500651 205.22 0.446049C205.278 0.439982 205.348 0.464254 205.402 0.488522C205.864 0.676596 205.864 0.679632 206.137 0.643231C206.203 0.63413 206.273 0.62804 206.339 0.618939C206.677 0.576471 207.028 0.561324 207.359 0.488522C207.738 0.406618 208.015 0.50976 208.283 0.682667C208.622 0.646266 208.969 0.625027 209.299 0.564358C209.547 0.518856 209.679 0.634121 209.844 0.709958C209.902 0.737259 209.964 0.791861 210.013 0.785794C210.492 0.734225 210.971 0.68874 211.442 0.612904C211.698 0.570435 211.809 0.706915 211.982 0.776685C212.04 0.800952 212.102 0.843443 212.156 0.837376C212.428 0.813109 212.701 0.776689 212.973 0.743321C213.291 0.703886 213.291 0.706917 213.712 0.891958C213.91 0.979928 214.109 0.910155 214.303 0.888921C214.509 0.864654 214.703 0.846459 214.868 0.97083C214.971 1.0497 215.095 1.09824 215.223 1.0861C215.496 1.0588 215.772 1.03151 216.041 0.986012C216.256 0.949611 216.441 0.973865 216.598 1.0861C216.71 1.16497 216.825 1.20443 216.961 1.18623C217.572 1.11343 218.188 1.03756 218.799 0.967794C218.852 0.961727 218.927 0.989038 218.976 1.01634C219.092 1.07094 219.203 1.1316 219.315 1.19227C219.583 1.16497 219.86 1.15286 220.124 1.11039C220.405 1.06793 220.661 1.05275 220.879 1.21959C220.925 1.256 220.991 1.30754 221.045 1.3045C221.251 1.29237 221.453 1.26204 221.656 1.23778C221.858 1.21351 222.064 1.18924 222.267 1.16498C222.502 1.24081 222.651 1.45922 222.981 1.38945C223.179 1.34698 223.39 1.33788 223.592 1.31361C223.794 1.28934 224.001 1.26205 224.203 1.24081C224.269 1.23475 224.343 1.21957 224.401 1.2317C224.463 1.24384 224.517 1.28631 224.57 1.31665C224.735 1.40462 224.888 1.4926 225.124 1.44103C225.322 1.39856 225.532 1.38946 225.735 1.36216C226.011 1.32879 226.011 1.3288 226.469 1.5199C226.655 1.59877 226.866 1.49564 227.043 1.56238C227.163 1.60788 227.266 1.6837 227.382 1.73527C227.431 1.7565 227.51 1.76559 227.568 1.75952C227.84 1.73222 228.117 1.70493 228.385 1.65943C228.604 1.62303 228.786 1.65943 228.938 1.76863C229.05 1.8475 229.161 1.88089 229.302 1.86269C229.983 1.77775 230.664 1.70492 231.341 1.61088C231.572 1.57752 231.758 1.6291 231.886 1.7383C232.105 1.92638 232.414 1.70494 232.642 1.85661C232.782 1.95065 232.922 2.05986 233.178 2.01436C233.649 1.93549 234.128 1.893 234.603 1.83839C234.772 1.9203 234.941 2.00222 235.115 2.08412C235.387 2.05075 235.659 2.01736 235.932 1.98703C236.134 1.96276 236.341 1.93546 236.543 1.91423C236.609 1.90816 236.679 1.89603 236.741 1.91119C236.803 1.92636 236.853 1.9658 236.91 1.99614C237.195 2.14478 237.195 2.14783 237.666 2.08716C237.868 2.05986 238.062 2.04166 238.232 2.16299C238.388 2.27523 238.574 2.29645 238.789 2.26308C239.193 2.20242 239.602 2.15692 240.015 2.11445C240.143 2.09928 240.263 2.15085 240.37 2.22972C240.531 2.35409 240.729 2.34196 240.932 2.30859C241.2 2.26613 241.464 2.22367 241.691 2.39354C241.737 2.42994 241.807 2.48148 241.856 2.47845C242.195 2.45418 242.538 2.43599 242.868 2.37836C243.198 2.32072 243.359 2.50879 243.586 2.59979C243.925 2.56036 244.267 2.52092 244.606 2.48148C244.672 2.47238 244.75 2.4451 244.808 2.46027C245.052 2.52397 245.192 2.75147 245.527 2.6817C245.721 2.64227 245.931 2.63015 246.133 2.62105C246.187 2.61802 246.257 2.66956 246.295 2.70899C246.315 2.73023 246.295 2.78786 246.27 2.81819C246.195 2.90313 246.105 2.98202 246.039 3.06999C246.03 3.08213 246.109 3.13671 246.154 3.16098C246.266 3.21558 246.394 3.2065 246.542 3.18223C246.67 3.161 246.802 3.20346 246.893 3.29447C246.93 3.33087 246.918 3.39153 246.839 3.59174C246.839 3.74038 246.926 3.67363 246.955 3.57656C247 3.43702 246.914 3.39152 246.749 3.46736C246.633 3.52196 246.575 3.60084 246.604 3.66454C246.621 3.69791 246.699 3.74038 246.839 3.59174C247.203 3.40973 247.475 3.37638 247.748 3.34301C247.818 3.33391 247.901 3.30356 247.95 3.32176C248.128 3.39456 248.293 3.48254 248.466 3.56445C248.664 3.54625 248.85 3.50073 249.044 3.61903C249.317 3.78587 249.329 3.77071 249.593 3.73734C249.729 3.71914 249.866 3.704 250.002 3.68883C250.138 3.67366 250.245 3.71915 250.365 3.78892C250.609 3.93149 250.629 3.93148 250.79 3.73734C250.885 3.61903 250.951 3.57961 251.071 3.63421C251.467 3.81925 251.472 3.83138 251.81 3.77678C252.091 3.73127 252.355 3.71914 252.562 3.89205C252.702 4.01339 252.747 3.98609 252.859 3.85868C253.156 3.52197 253.292 3.52803 253.85 3.7707C254.11 3.88597 254.378 3.76162 254.642 3.74645C254.865 3.73431 255.022 3.8071 255.039 3.99821C255.051 4.11652 255.088 4.20147 255.237 4.2409C255.295 4.25607 255.365 4.2773 255.423 4.27123C255.765 4.23483 256.104 4.19235 256.447 4.14988C256.62 4.12865 256.715 3.9861 256.682 3.79803C256.645 3.59782 256.711 3.52499 256.958 3.46736C257.107 3.43399 257.227 3.44008 257.347 3.49468C257.479 3.55535 257.442 3.60995 257.326 3.71916C257.049 3.9861 257.082 4.14988 257.437 4.33492C257.561 4.39862 257.66 4.45628 257.689 4.55032C257.706 4.59886 257.689 4.66256 257.726 4.69896C257.929 4.9022 258.209 5.03265 258.523 5.12972C258.825 5.04782 259.031 5.1843 259.262 5.2935C259.444 5.37844 259.658 5.30566 259.853 5.27532C260.071 5.24195 260.253 5.26621 260.41 5.37845C260.521 5.45732 260.637 5.49371 260.773 5.47854C261.046 5.44517 261.322 5.42395 261.591 5.37541C261.822 5.33294 261.995 5.39362 262.14 5.49676C262.321 5.6272 262.524 5.53921 262.714 5.55741C262.97 5.57865 263.098 5.84861 263.432 5.77581C263.63 5.73334 263.837 5.71818 264.043 5.70605C264.097 5.70301 264.163 5.75459 264.208 5.79099C264.427 5.95783 264.683 5.94873 264.964 5.90019C265.158 5.86683 265.348 5.8365 265.537 5.95178C265.851 6.14592 266.198 6.3158 266.528 6.49477C266.574 6.63431 266.541 6.79809 266.776 6.87999C266.9 6.92246 267.016 6.98619 267.11 7.05596C267.226 7.13786 267.333 7.1591 267.482 7.13787C267.75 7.0954 268.031 7.08627 268.295 7.03167C268.539 6.98313 268.692 7.08326 268.84 7.1773C268.96 7.25314 269.072 7.28952 269.216 7.23492C269.365 7.18335 269.472 7.21671 269.592 7.29861C269.761 7.41085 269.773 7.39873 270.335 7.4321C270.393 7.43514 270.463 7.48061 270.496 7.52005C270.512 7.54128 270.475 7.60199 270.446 7.63232C270.409 7.66872 270.351 7.71116 270.298 7.72027C269.687 7.79914 269.072 7.8689 268.461 7.94777C268.399 7.95687 268.333 7.97813 268.287 8.00847C268.238 8.04183 268.176 8.08731 268.176 8.12977C268.176 8.16011 268.258 8.19652 268.316 8.21776C268.498 8.28753 268.712 8.18136 268.89 8.26023C269.01 8.3118 269.109 8.38458 269.228 8.43312C269.278 8.45435 269.356 8.45133 269.418 8.44526C269.625 8.42403 269.827 8.3937 270.033 8.3755C270.091 8.37247 270.157 8.40282 270.211 8.42708C270.607 8.60909 270.607 8.60908 270.95 8.56965C271.086 8.55448 271.231 8.50897 271.359 8.52717C271.483 8.54537 271.59 8.62728 271.701 8.67885C271.933 8.78805 272.151 8.89422 272.168 9.13083C272.176 9.22183 272.312 9.30069 272.449 9.30676C272.581 9.31282 272.721 9.27948 272.857 9.26128C273.179 9.22488 273.179 9.22488 273.596 9.40992C273.712 9.46149 273.836 9.46754 273.984 9.43721C274.042 9.42508 274.112 9.43723 274.174 9.45239C274.377 9.49789 274.377 9.55552 274.245 9.66472C274.059 9.82549 274.075 9.84067 274.595 9.97717C274.794 10.0287 274.946 10.1258 275.111 10.2108C275.38 10.3473 275.376 10.3472 275.198 10.5262C275.157 10.5656 275.12 10.6081 275.079 10.6506C274.959 10.7689 274.864 10.8963 274.616 10.9084C274.344 10.9206 274.071 10.9691 273.799 11.0025C273.534 11.0359 273.464 11.1086 273.489 11.3149C273.518 11.5636 273.572 11.591 274.046 11.5879C274.183 11.5879 274.302 11.6122 274.406 11.6941C274.356 11.7912 274.265 11.867 274.133 11.8852C273.795 11.9307 273.452 11.9701 273.113 12.0096C272.841 12.0429 272.568 12.0763 272.296 12.1097C272.127 12.1309 272.019 12.2887 272.065 12.4646C272.089 12.5647 272.11 12.6648 272.131 12.7649C272.176 12.9651 272.263 13.0167 272.539 13.0076C272.61 13.0046 272.676 12.9803 272.742 12.9863C273.01 13.0076 273.138 13.2593 273.46 13.2078C273.728 13.1653 274.009 13.1562 274.273 13.1016C274.517 13.0531 274.653 13.1623 274.823 13.2442C274.88 13.2715 274.942 13.3291 274.992 13.3261C275.335 13.2927 275.677 13.2594 276.012 13.2017C276.168 13.1775 276.263 13.1957 276.387 13.2685C276.684 13.4444 276.693 13.4353 277.134 13.3807C277.457 13.3382 277.461 13.3443 277.874 13.5293C277.989 13.5809 278.113 13.5809 278.262 13.5566C278.456 13.5263 278.658 13.4778 278.86 13.5233C278.922 13.5354 279.001 13.5718 279.021 13.6112C279.034 13.6385 278.976 13.7053 278.926 13.7265C278.563 13.8843 278.138 13.857 277.741 13.9207C277.618 13.9389 277.494 13.8812 277.39 13.7993C277.283 13.7174 277.168 13.6841 277.027 13.6992C276.755 13.7326 276.478 13.7538 276.21 13.8024C275.979 13.8448 275.817 13.775 275.656 13.681C275.603 13.6507 275.541 13.593 275.487 13.5961C274.876 13.6567 274.261 13.7174 273.654 13.8024C273.411 13.8388 273.27 13.7417 273.105 13.6598C273.047 13.6325 272.99 13.5748 272.936 13.5779C272.729 13.59 272.527 13.6234 272.321 13.6476C271.569 13.7386 270.822 13.8297 270.071 13.9146C270.021 13.9207 269.959 13.8569 269.901 13.8296C269.79 13.775 269.674 13.7235 269.559 13.6719C269.352 13.6962 269.15 13.7265 268.944 13.7447C268.795 13.7568 268.663 13.7993 268.642 13.9146C268.63 13.9904 268.766 14.0602 268.911 14.0541C269.051 14.0481 269.191 14.0116 269.307 14.0511C269.881 14.2452 269.881 14.2483 270.24 14.2088C270.554 14.1724 270.521 14.1421 270.797 14.3089C270.917 14.3817 271.024 14.4242 271.161 14.406C271.499 14.3635 271.842 14.3211 272.184 14.2847C272.238 14.2786 272.308 14.3089 272.362 14.3332C272.767 14.5152 272.767 14.5213 273.101 14.4758C273.539 14.4212 273.555 14.406 273.848 14.591C274.051 14.7185 274.236 14.6305 274.43 14.6244C274.653 14.7427 274.897 14.8489 275.099 14.9824C275.339 15.1401 275.59 15.1128 275.863 15.0673C276.065 15.0339 276.263 15.0218 276.429 15.1462C276.585 15.2614 276.775 15.2736 276.99 15.2432C277.184 15.2159 277.382 15.1583 277.585 15.225C277.638 15.2432 277.721 15.2887 277.717 15.316C277.712 15.3585 277.659 15.4192 277.605 15.4374C277.225 15.5618 276.808 15.5587 276.408 15.6164C276.354 15.6255 276.284 15.5921 276.23 15.5678C276.115 15.5132 276.003 15.4495 275.892 15.3919C275.69 15.4101 275.483 15.4161 275.285 15.4525C275.132 15.4798 275.017 15.4768 274.905 15.404C274.802 15.3373 274.69 15.2554 274.567 15.2341C274.443 15.2129 274.298 15.2584 274.162 15.2766C274.026 15.2948 273.869 15.2857 273.762 15.3342C273.654 15.3828 273.588 15.4889 273.518 15.5739C273.439 15.6679 273.332 15.6983 273.175 15.7074C273.031 15.7165 272.915 15.7043 272.808 15.6194C272.762 15.583 272.7 15.5557 272.638 15.5314C272.581 15.5102 272.515 15.4768 272.461 15.4829C271.846 15.5526 271.235 15.6285 270.62 15.7013C270.314 15.7377 270.318 15.7377 269.683 15.5587C269.625 15.5435 269.555 15.5223 269.497 15.5284C269.154 15.5648 268.816 15.6072 268.473 15.6497C268.126 15.6922 268.13 15.6861 267.54 15.495C267.432 15.4586 267.276 15.5071 267.148 15.5011C266.879 15.4859 266.747 15.2311 266.433 15.2796C266.165 15.3221 265.884 15.3312 265.616 15.3858C265.372 15.4343 265.232 15.3282 265.067 15.2463C265.009 15.219 264.947 15.1583 264.898 15.1644C264.282 15.2311 263.671 15.3069 262.854 15.316C262.652 15.316 262.742 15.3798 262.875 15.401C263.065 15.4344 263.126 15.3707 263.023 15.2493C262.949 15.1644 262.842 15.1219 262.755 15.1431C262.709 15.1553 262.652 15.2129 262.854 15.316C263.069 15.4313 263.056 15.495 263.093 15.5314C263.184 15.6194 263.312 15.6558 263.444 15.6436C263.651 15.6224 263.853 15.5921 264.06 15.5739C264.117 15.5678 264.188 15.5891 264.241 15.6133C264.695 15.8014 264.699 15.8135 265.182 15.7407C265.335 15.7195 265.447 15.7195 265.566 15.7771C265.732 15.856 265.851 15.9895 266.103 15.947C266.438 15.8894 266.78 15.856 267.123 15.8226C267.177 15.8166 267.234 15.8712 267.296 15.8954C267.466 15.9682 267.589 16.1048 267.841 16.0471C268.035 16.0016 268.246 15.9895 268.452 15.9804C268.506 15.9773 268.588 16.0259 268.613 16.0653C268.663 16.1351 268.601 16.217 268.461 16.2746C268.403 16.2989 268.324 16.2928 268.258 16.3019C267.986 16.3353 267.713 16.3717 267.441 16.399C267.296 16.4141 267.16 16.4597 267.144 16.5719C267.131 16.6477 267.28 16.7145 267.42 16.7084C267.627 16.6993 267.833 16.675 268.031 16.6356C268.382 16.5689 268.688 16.587 268.972 16.7782C269.175 16.9116 269.162 16.8631 269.377 17.2575C269.431 17.3576 269.592 17.3667 269.732 17.3606C270.071 17.3454 270.227 17.3909 270.199 17.485C270.161 17.6002 270.042 17.6366 269.889 17.6518C269.616 17.6761 269.344 17.7155 269.072 17.7489C269.005 17.758 268.931 17.7762 268.869 17.7701C268.807 17.764 268.75 17.7276 268.696 17.7003C268.58 17.6427 268.481 17.5547 268.357 17.5335C268.233 17.5122 268.089 17.5578 267.953 17.576C267.816 17.5911 267.672 17.6366 267.548 17.6154C267.424 17.5942 267.321 17.5032 267.21 17.4486C267.156 17.4213 267.09 17.3788 267.036 17.3818C266.764 17.4061 266.491 17.4455 266.219 17.4759C265.884 17.5153 265.884 17.5153 265.48 17.3272C265.364 17.2726 265.244 17.2757 265.092 17.2999C264.761 17.3485 264.757 17.3393 264.154 17.1634C264.097 17.1452 264.026 17.124 263.969 17.1331C263.353 17.2029 262.742 17.2787 262.131 17.3515C261.607 17.4152 261.607 17.4152 261.318 17.7186C261.103 17.943 261.099 17.943 261.31 18.0462C261.479 18.1311 261.632 18.2555 261.818 18.301C261.991 18.3434 262.206 18.2069 262.396 18.3465C262.491 18.4162 262.614 18.4921 262.734 18.5042C262.924 18.5194 263.126 18.4314 263.308 18.5649C263.399 18.6316 263.535 18.7014 263.651 18.7044C263.853 18.7105 264.06 18.6619 264.262 18.6407C264.324 18.6346 264.394 18.6346 264.452 18.6498C264.514 18.668 264.567 18.7044 264.621 18.7348C264.786 18.8379 264.964 18.8864 265.178 18.8348C265.529 18.7499 265.843 18.7924 266.116 18.9865C266.153 19.0138 266.243 19.0169 266.301 19.0047C266.45 18.9744 266.578 18.9714 266.689 19.029C266.735 19.0533 266.801 19.0957 266.793 19.123C266.78 19.1685 266.731 19.2292 266.677 19.2444C266.289 19.3475 265.872 19.3596 265.471 19.4142C265.418 19.4203 265.352 19.3809 265.298 19.3536C265.182 19.299 265.083 19.208 264.96 19.1867C264.836 19.1655 264.691 19.2049 264.555 19.2201C264.419 19.2353 264.274 19.2808 264.15 19.2626C264.026 19.2413 263.911 19.1655 263.812 19.0988C263.696 19.0229 263.585 19.0138 263.432 19.0442C263.234 19.0836 263.027 19.0897 262.825 19.1109C262.714 19.0533 262.602 18.9895 262.487 18.9349C262.433 18.9076 262.367 18.8743 262.309 18.8773C262.037 18.9016 261.764 18.938 261.492 18.9713C261.219 19.0047 261.219 19.0047 260.757 18.8167C260.703 18.7954 260.633 18.7712 260.575 18.7772C260.232 18.8136 259.894 18.8591 259.551 18.8955C259.419 18.9107 259.299 18.8682 259.192 18.7863C259.089 18.7044 258.965 18.6589 258.837 18.6741C258.292 18.7378 257.747 18.7984 257.202 18.8743C256.983 18.9046 256.797 18.8773 256.649 18.7681C256.475 18.6437 256.281 18.6741 256.079 18.6984C255.621 18.759 255.617 18.756 255.324 18.6013C255.266 18.5709 255.208 18.5133 255.154 18.5163C254.68 18.5618 254.201 18.6043 253.73 18.6771C253.482 18.7165 253.35 18.6104 253.185 18.5315C253.127 18.5042 253.065 18.4466 253.016 18.4526C252.673 18.486 252.33 18.5163 251.996 18.577C251.662 18.6377 251.534 18.3556 251.282 18.3586C250.939 18.3616 250.601 18.4314 250.262 18.4739C249.99 18.5072 249.717 18.5406 249.445 18.574C249.172 18.6073 248.9 18.6346 248.627 18.6741C248.483 18.6953 248.375 18.668 248.256 18.5922C248.103 18.4921 247.921 18.4132 247.756 18.3222C247.504 18.1918 247.504 18.1918 247.199 18.2282C247.133 18.2373 247.062 18.2433 246.996 18.2524C246.497 18.3191 246.497 18.3131 245.861 18.122C245.832 18.1129 245.758 18.1463 245.729 18.1705C245.642 18.2494 245.564 18.3343 245.485 18.4162C245.374 18.3677 245.238 18.3404 245.163 18.2706C244.953 18.0735 244.622 18.3434 244.408 18.1493C244.329 18.0765 244.193 18.0128 244.069 17.9946C243.941 17.9764 243.797 18.0188 243.665 18.037C243.322 18.0825 243.322 18.0795 243.029 18.3495C242.88 18.483 242.666 18.4587 242.472 18.489C242.269 18.5224 242.075 18.5406 241.906 18.4162C241.753 18.304 241.567 18.2767 241.349 18.3131C241.08 18.3586 240.804 18.3859 240.531 18.4132C240.473 18.4193 240.403 18.4041 240.345 18.3859C239.714 18.2069 239.714 18.2039 239.408 18.2433C239.272 18.2615 239.132 18.2676 238.999 18.2949C238.776 18.3434 238.607 18.2797 238.446 18.1826C238.393 18.1523 238.331 18.0947 238.277 18.0977C238.004 18.1129 237.736 18.1402 237.468 18.1675C237.261 18.1887 237.055 18.2009 236.857 18.2433C236.526 18.3131 236.365 18.1159 236.138 18.0249C235.8 18.0643 235.457 18.0916 235.119 18.1462C234.962 18.1705 234.859 18.1614 234.739 18.0886C234.586 17.9976 234.446 17.8945 234.198 17.94C233.868 18.0007 233.521 18.0219 233.182 18.0583C232.955 17.9643 232.79 17.7731 232.464 17.8429C232.266 17.8854 232.055 17.8945 231.853 17.9187C231.581 17.9521 231.308 17.9825 231.036 18.0189C230.742 18.0553 230.747 18.0462 230.297 17.8672C230.036 17.761 229.768 17.8793 229.504 17.8975C229.297 17.9127 229.194 18.0522 229.244 18.2312C229.293 18.4102 229.182 18.5497 228.992 18.574C228.517 18.6316 228.038 18.6923 227.563 18.7438C227.506 18.7499 227.436 18.7287 227.382 18.7074C226.874 18.5163 226.874 18.5194 226.647 18.5467C226.308 18.5922 225.962 18.6164 225.627 18.6741C225.396 18.7135 225.227 18.6498 225.078 18.5467C224.962 18.4678 224.855 18.4496 224.707 18.4678C223.072 18.671 221.437 18.8591 219.806 19.0684C219.562 19.0988 219.422 19.0108 219.257 18.9289C219.199 18.9016 219.145 18.844 219.088 18.844C218.951 18.844 218.815 18.8713 218.679 18.8895C218.068 18.9623 217.457 19.0502 216.842 19.1048C216.582 19.1291 216.511 19.2686 216.4 19.3839C216.313 19.4719 216.214 19.5083 216.061 19.5204C215.913 19.5325 215.805 19.5174 215.69 19.4385C215.541 19.3354 215.372 19.2716 215.141 19.3141C214.872 19.3627 214.6 19.3839 214.323 19.4173C214.183 19.4324 214.076 19.487 214.03 19.5962C214.022 19.6144 214.109 19.66 214.158 19.6873C214.323 19.7783 214.48 19.8844 214.666 19.9481C214.856 20.0118 215.062 19.939 215.26 19.9208C215.331 19.9147 215.397 19.8966 215.463 19.8996C215.525 19.9026 215.599 19.9178 215.645 19.9451C215.859 20.0816 216.086 20.1756 216.383 20.0937C216.639 20.1332 216.772 20.3849 217.098 20.3182C217.296 20.2788 217.502 20.2606 217.709 20.2454C217.762 20.2424 217.82 20.297 217.878 20.3243C218.043 20.4001 218.175 20.5214 218.423 20.4699C218.687 20.4153 218.968 20.4062 219.236 20.3637C219.385 20.3394 219.492 20.3607 219.608 20.4396C219.756 20.5397 219.926 20.6155 220.157 20.5669C220.355 20.5245 220.566 20.5154 220.768 20.4881C221.032 20.4547 221.032 20.4577 221.503 20.6458C221.557 20.667 221.627 20.6913 221.684 20.6852C222.027 20.6488 222.366 20.6033 222.708 20.5669C222.84 20.5518 222.968 20.5912 223.059 20.6792C223.096 20.7156 223.084 20.7763 223.096 20.8278C222.415 20.9097 221.734 20.9795 221.057 21.0796C220.801 21.119 220.685 20.9947 220.516 20.9249C220.458 20.9006 220.396 20.8491 220.343 20.8551C219.864 20.9067 219.389 20.9613 218.914 21.028C218.766 21.0493 218.654 21.0371 218.543 20.9492C218.258 20.7156 217.911 20.843 217.589 20.8764C217.341 20.9006 217.263 20.9947 217.292 21.1949C217.329 21.4315 217.477 21.5043 217.857 21.4618C217.994 21.4467 218.13 21.4254 218.266 21.4133C218.398 21.4011 218.518 21.4406 218.625 21.5225C218.728 21.6044 218.852 21.6468 218.98 21.6347C219.253 21.6074 219.529 21.5801 219.794 21.5346C220.012 21.4982 220.194 21.5286 220.347 21.6408C220.516 21.7652 220.714 21.7379 220.912 21.7106C221.375 21.6499 221.379 21.6529 221.668 21.8046C221.726 21.8349 221.784 21.8926 221.837 21.8896C222.312 21.844 222.791 21.8046 223.257 21.7318C223.501 21.6954 223.641 21.7925 223.802 21.8713C223.86 21.8986 223.918 21.9593 223.972 21.9532C224.314 21.9199 224.657 21.8865 224.991 21.8289C225.148 21.8016 225.243 21.8197 225.371 21.8926C225.677 22.0715 225.685 22.0655 226.118 22.0078C226.251 21.9896 226.395 21.9563 226.519 21.9805C226.643 22.0048 226.742 22.0928 226.857 22.1474C226.911 22.1717 226.977 22.205 227.035 22.1989C227.307 22.1747 227.58 22.1383 227.852 22.1049C228.108 22.0715 228.108 22.0746 228.587 22.2627C228.781 22.3415 228.984 22.2748 229.178 22.2505C229.388 22.2232 229.578 22.2232 229.739 22.3415C229.9 22.4598 230.094 22.4537 230.301 22.4295C230.495 22.4052 230.693 22.3385 230.891 22.4204C231.345 22.6085 231.345 22.6115 231.626 22.5751C232.035 22.5235 232.439 22.475 232.852 22.4295C232.906 22.4234 232.976 22.4598 233.03 22.4841C233.145 22.5387 233.244 22.6297 233.368 22.6509C233.492 22.6752 233.637 22.6388 233.769 22.6206C234.194 22.563 234.223 22.5417 234.508 22.7419C234.747 22.9057 235.044 22.6691 235.267 22.8572C235.395 22.9634 235.569 23.0483 235.808 22.9967C236.006 22.9543 236.213 22.9421 236.419 22.9179C236.745 22.8784 236.745 22.8815 237.158 23.0635C237.212 23.0878 237.282 23.1181 237.336 23.112C237.608 23.0877 237.885 23.0665 238.149 23.0119C238.459 22.9482 238.657 23.0635 238.888 23.1757C239.07 23.2637 239.284 23.1909 239.478 23.1606C239.689 23.1302 239.879 23.1393 240.036 23.2576C240.201 23.3789 240.395 23.3638 240.601 23.3395C240.795 23.3183 240.993 23.2485 241.192 23.3334C241.617 23.5215 241.617 23.5215 241.927 23.4851C242.199 23.4517 242.472 23.4154 242.744 23.3911C242.798 23.385 242.864 23.4244 242.917 23.4518C243.033 23.5064 243.132 23.5974 243.256 23.6186C243.38 23.6398 243.524 23.6004 243.661 23.5852C243.797 23.5701 243.941 23.5246 244.065 23.5428C244.189 23.561 244.305 23.6368 244.404 23.7036C244.519 23.7824 244.627 23.7915 244.783 23.7612C244.982 23.7217 245.188 23.7126 245.39 23.6914C245.502 23.749 245.617 23.8067 245.725 23.8704C245.836 23.9371 245.956 23.931 246.109 23.9098C246.617 23.837 246.621 23.8461 247.046 24.0342C247.24 24.1191 247.442 24.0493 247.636 24.0281C247.843 24.0038 248.037 23.9917 248.198 24.1131C248.355 24.2283 248.549 24.2435 248.755 24.2071C248.887 24.1828 249.028 24.1677 249.164 24.1586C249.226 24.1555 249.3 24.1677 249.345 24.1919C249.564 24.3193 249.779 24.4346 250.08 24.3527C250.345 24.377 250.477 24.6257 250.795 24.5772C251.063 24.5347 251.344 24.5256 251.608 24.471C251.851 24.4225 252.025 24.5074 252.149 24.6136C252.372 24.8017 252.686 24.5469 252.908 24.7319C253.036 24.8381 253.201 24.923 253.449 24.8775C253.722 24.829 253.808 24.8926 253.887 25.0838C253.932 25.193 253.924 25.2809 253.841 25.3659C253.759 25.4538 253.668 25.4387 253.536 25.3386C253.383 25.2263 253.202 25.2051 252.983 25.2294C252.768 25.2536 252.636 25.0959 252.458 25.0352C252.281 24.9715 252.07 25.0777 251.885 24.9958C251.447 24.8047 251.447 24.8047 251.15 24.8411C250.947 24.8654 250.737 24.8775 250.539 24.92C250.303 24.9715 250.151 24.8775 249.99 24.7926C249.932 24.7622 249.874 24.7046 249.824 24.7076C249.35 24.7531 248.871 24.7956 248.4 24.8714C248.152 24.9109 248.02 24.8017 247.855 24.7258C247.797 24.6985 247.735 24.6439 247.686 24.65C247.277 24.6925 246.873 24.7471 246.464 24.7986C246.385 24.8805 246.299 24.9594 246.224 25.0473C246.146 25.1384 246.039 25.1778 245.882 25.1748C245.622 25.1748 245.366 25.3022 245.105 25.1414C244.837 24.9776 244.817 24.9867 244.556 25.0261C244.226 25.0777 243.875 25.0656 243.566 25.1839C243.512 25.2051 243.454 25.2627 243.454 25.3052C243.45 25.3325 243.537 25.3719 243.59 25.3962C243.772 25.469 243.983 25.3628 244.164 25.4387C244.284 25.4872 244.383 25.56 244.503 25.6116C244.552 25.6328 244.627 25.6298 244.693 25.6268C244.763 25.6237 244.829 25.6025 244.895 25.6055C244.957 25.6086 245.023 25.6267 245.073 25.654C245.3 25.7693 245.539 25.8755 245.741 26.012C245.939 26.1455 246.125 26.0545 246.323 26.0484C247.116 26.2607 247.116 26.2638 247.649 26.197C247.781 26.1819 247.917 26.1637 248.053 26.1667C248.111 26.1667 248.165 26.2213 248.223 26.2516C248.388 26.3426 248.545 26.4245 248.776 26.376C248.974 26.3335 249.185 26.3244 249.387 26.2971C249.659 26.2638 249.659 26.2638 250.122 26.4549C250.237 26.5034 250.361 26.4974 250.51 26.4731C250.638 26.4519 250.77 26.4974 250.861 26.5853C250.898 26.6217 250.885 26.6824 250.898 26.734C250.489 26.7825 250.076 26.8159 249.68 26.8887C249.424 26.9342 249.308 26.8037 249.139 26.734C249.081 26.7097 249.019 26.6581 248.966 26.6642C248.561 26.7097 248.157 26.7612 247.752 26.8219C247.702 26.828 247.64 26.8978 247.636 26.9402C247.628 27.0191 247.731 27.0949 247.88 27.0919C248.078 27.0889 248.272 27.0373 248.45 27.1617C248.598 27.2709 248.784 27.3194 249.003 27.2709C249.135 27.2436 249.275 27.2436 249.407 27.2193C249.758 27.1465 250.076 27.1617 250.34 27.368C250.543 27.4226 250.741 27.371 250.935 27.3437C251.079 27.3225 251.22 27.3012 251.323 27.3588C251.542 27.4802 251.757 27.6015 252.058 27.5196C252.384 27.6046 252.632 27.7835 252.904 27.9291C253.032 27.9989 253.131 28.0384 253.28 27.9929C253.342 27.9747 253.416 27.9746 253.482 27.9655C253.618 27.9504 253.763 27.9049 253.887 27.9231C254.011 27.9443 254.114 28.0323 254.225 28.0869C254.279 28.1142 254.341 28.1597 254.395 28.1566C254.601 28.1415 254.803 28.1111 255.006 28.0869C255.208 28.0656 255.41 28.0444 255.613 28.0232C255.782 28.1021 255.955 28.1809 256.124 28.2598C256.397 28.2264 256.67 28.193 256.938 28.1627C257.239 28.1263 257.239 28.1293 257.673 28.3174C257.867 28.4024 258.073 28.3477 258.259 28.3083C258.569 28.2446 258.775 28.3599 258.994 28.4812C259.039 28.5055 259.122 28.5207 259.175 28.5085C259.39 28.4661 259.576 28.4994 259.733 28.6117C259.844 28.6905 259.956 28.727 260.092 28.7118C260.567 28.6542 261.042 28.5935 261.516 28.5419C261.574 28.5358 261.64 28.5631 261.694 28.5874C262.115 28.7724 262.119 28.7815 262.429 28.733C262.705 28.6905 262.961 28.6723 263.18 28.8392C263.226 28.8756 263.296 28.9271 263.345 28.9241C263.684 28.8938 264.027 28.8604 264.361 28.8088C264.514 28.7846 264.621 28.7937 264.741 28.8635C264.893 28.9514 265.03 29.0576 265.282 29.0182C265.979 28.9059 265.983 28.9241 266.809 29.1334C266.867 29.1486 266.945 29.1243 267.011 29.1122C267.152 29.0819 267.255 29.1243 267.379 29.1941C267.655 29.3518 267.664 29.3427 267.928 29.3094C268.13 29.2821 268.341 29.276 268.539 29.2305C268.844 29.1638 269.047 29.2821 269.274 29.3943C269.455 29.4823 269.666 29.4095 269.86 29.3822C270.071 29.3518 270.261 29.3609 270.417 29.4762C270.525 29.5551 270.64 29.5976 270.777 29.5824C271.251 29.5278 271.726 29.4671 272.201 29.4125C272.259 29.4064 272.329 29.4307 272.383 29.4519C272.853 29.64 272.853 29.6491 273.32 29.5793C273.468 29.5581 273.592 29.552 273.704 29.6157C273.811 29.6764 273.927 29.734 274.038 29.7917C274.24 29.7704 274.447 29.7644 274.645 29.728C274.798 29.7007 274.905 29.7128 275.025 29.7765C275.182 29.8584 275.314 30.001 275.562 29.9312C275.69 29.8978 275.838 29.907 275.966 29.8766C276.119 29.8372 276.222 29.8614 276.342 29.9403C276.49 30.0343 276.643 30.1314 276.883 30.0829C277.147 30.0283 277.428 30.0192 277.696 29.9767C277.845 29.9524 277.948 29.9767 278.068 30.0556C278.216 30.1557 278.385 30.2194 278.617 30.18C279.087 30.1041 279.091 30.1193 279.55 30.3104C279.665 30.3589 279.789 30.3529 279.938 30.3286C280.066 30.3074 280.198 30.3529 280.289 30.4408C280.375 30.5379 280.367 30.5986 280.375 30.6501ZM243.586 3.29143C243.45 3.3066 243.314 3.3248 243.116 3.06088C243.103 3.01538 243.111 2.96079 243.083 2.92136C243.017 2.83945 242.913 2.78182 242.789 2.77272C242.567 2.76059 242.298 2.86371 242.302 2.94258C242.306 3.00931 242.377 3.06694 242.513 3.12154C242.571 3.14277 242.616 3.17918 242.67 3.20345C242.827 3.27322 242.95 3.40974 243.178 3.33998C243.136 3.1519 243.157 3.24594 243.178 3.33998C243.157 3.45525 243.219 3.53715 243.367 3.57052C243.409 3.57962 243.471 3.57354 243.504 3.55534C243.632 3.4886 243.652 3.39762 243.557 3.15798C243.541 3.19741 243.553 3.26716 243.59 3.28536C243.628 3.30356 243.718 3.28841 243.764 3.26718C243.879 3.20954 243.937 3.1337 243.908 3.06999C243.892 3.03663 243.813 2.99416 243.764 2.99416C243.677 2.99416 243.599 3.06089 243.586 3.29143ZM276.969 38.4704C276.668 38.528 276.321 38.5068 276.02 38.6251C275.966 38.6463 275.912 38.7009 275.908 38.7434C275.904 38.7707 275.987 38.8102 276.036 38.8314C276.148 38.8799 276.272 38.8647 276.416 38.8496C276.635 38.8283 276.763 38.9679 276.932 39.0376C276.986 39.0589 277.056 39.074 277.114 39.068C277.448 39.0316 277.779 38.9922 278.113 38.9497C278.171 38.9406 278.233 38.9193 278.282 38.892C278.447 38.8041 278.431 38.7464 278.27 38.6797C278.092 38.6069 277.952 38.4855 277.77 38.4279C277.51 38.346 277.246 38.4552 276.969 38.4704ZM253.524 40.6848C253.321 40.7091 253.123 40.7334 252.921 40.7576C252.855 40.7667 252.785 40.7697 252.723 40.7819C252.595 40.8031 252.5 40.8668 252.438 40.9669C252.533 41.0458 252.648 41.0913 252.776 41.0822C252.979 41.064 253.177 41.0246 253.379 41.0155C253.598 41.0033 253.726 41.1398 253.895 41.2096C253.949 41.2308 254.015 41.2339 254.077 41.2369C254.382 41.249 254.568 41.0913 254.51 40.8699C254.469 40.6969 254.312 40.5938 254.122 40.6151C253.924 40.6363 253.722 40.6606 253.524 40.6848ZM278.381 33.9869C278.431 33.9354 278.485 33.899 278.509 33.8535C278.584 33.6988 278.555 33.5835 278.418 33.4622C278.253 33.3135 278.051 33.4136 277.865 33.4288C277.82 33.4318 277.77 33.4955 277.746 33.535C277.729 33.5622 277.729 33.6199 277.754 33.6351C277.956 33.7564 278.171 33.8686 278.381 33.9869ZM242.566 25.0261C242.368 25.0504 242.166 25.0686 241.968 25.102C241.918 25.1111 241.873 25.1687 241.844 25.2081C241.79 25.2809 241.848 25.381 242.017 25.3901C242.211 25.4023 242.414 25.3507 242.616 25.3264C242.872 25.2961 243.025 25.1839 242.93 25.0868C242.839 24.9928 242.715 24.9746 242.566 25.0261ZM25.2458 18.5436C25.3779 18.5285 25.5141 18.5163 25.6463 18.4951C25.7701 18.4739 25.8651 18.4071 25.9271 18.307C25.8239 18.2282 25.7082 18.1857 25.5802 18.1948C25.3779 18.213 25.1798 18.2373 24.9816 18.2676C24.8578 18.2858 24.7381 18.3525 24.7092 18.4557C24.6803 18.5345 24.9568 18.58 25.2458 18.5436ZM225.107 18.0765C225.161 18.1038 225.214 18.1584 225.268 18.1584C225.4 18.1584 225.536 18.1402 225.66 18.1098C225.714 18.0977 225.755 18.0431 225.78 18.0006C225.796 17.9733 225.792 17.9248 225.768 17.9006C225.648 17.7549 225.169 17.8065 225.09 17.9734C225.082 18.0037 225.103 18.0431 225.107 18.0765ZM212.082 1.46528C212.094 1.51382 212.098 1.56235 212.115 1.61088C212.148 1.70189 212.238 1.76864 212.371 1.81414C212.474 1.7383 212.527 1.65338 212.523 1.56238C212.519 1.51384 212.507 1.46527 212.49 1.41674C212.457 1.32574 212.366 1.25902 212.234 1.21352C212.131 1.28632 212.082 1.37125 212.082 1.46528ZM287.922 41.2126C287.885 41.2521 287.848 41.2915 287.807 41.3279C287.918 41.4159 288.021 41.4432 288.1 41.3946C288.149 41.3643 288.178 41.3188 288.215 41.2794C288.104 41.1914 288.005 41.1671 287.922 41.2126ZM285.354 41.6252C285.408 41.6525 285.458 41.6889 285.515 41.7071C285.61 41.7374 285.697 41.6858 285.763 41.5766C285.709 41.5493 285.66 41.5129 285.602 41.4947C285.507 41.4644 285.42 41.516 285.354 41.6252ZM286.981 41.0701C286.952 41.1429 287.01 41.2035 287.163 41.2551C287.2 41.2157 287.249 41.1793 287.274 41.1368C287.315 41.067 287.245 41.0033 287.097 40.9548C287.055 40.9912 287.018 41.0306 286.981 41.0701ZM278.266 37.8C278.237 37.8728 278.295 37.9335 278.447 37.985C278.484 37.9456 278.534 37.9092 278.559 37.8667C278.6 37.797 278.53 37.7333 278.381 37.6847C278.34 37.7211 278.303 37.7606 278.266 37.8ZM266.392 16.3353C266.355 16.3747 266.318 16.4142 266.276 16.4506C266.388 16.5385 266.491 16.5658 266.57 16.5173C266.619 16.4869 266.648 16.4414 266.685 16.402C266.574 16.314 266.475 16.2898 266.392 16.3353ZM255.018 4.94768C255.117 4.96892 255.2 4.92647 255.27 4.81423C255.216 4.78693 255.167 4.75052 255.109 4.73232C255.014 4.70199 254.927 4.75357 254.861 4.86278C254.915 4.89311 254.969 4.92038 255.018 4.94768ZM248.978 4.23483C248.941 4.27426 248.904 4.3137 248.862 4.3501C248.974 4.43807 249.077 4.46536 249.156 4.41683C249.205 4.3865 249.234 4.34099 249.271 4.30156C249.16 4.21359 249.061 4.19236 248.978 4.23483ZM208.019 1.46225C207.982 1.50168 207.945 1.54112 207.904 1.57752C208.015 1.66549 208.118 1.69278 208.197 1.64425C208.246 1.61391 208.275 1.56841 208.312 1.52898C208.201 1.44101 208.102 1.41978 208.019 1.46225ZM4.07479 26.1424C4.02112 26.1151 3.96749 26.0878 3.91795 26.0575C3.79823 26.1394 3.76108 26.2152 3.82714 26.2729C3.86842 26.3093 3.9303 26.3305 3.98397 26.3578C4.10783 26.2759 4.13671 26.2031 4.07479 26.1424Z" fill="#FFE492"/>
</svg>
